<svg width="48" height="48" viewBox="0 0 48 48" fill="none" xmlns="http://www.w3.org/2000/svg">
<path d="M42.0254 25.5939C41.8395 25.5939 41.6536 25.5939 41.5607 25.5939C41.2819 25.5939 41.2819 25.501 41.4677 25.3151C41.6536 25.1292 41.7466 24.8504 41.8395 24.5715C42.0254 24.0139 41.8395 23.4563 41.2819 23.2704C40.7242 23.0845 40.1666 23.0845 39.6089 23.3633C39.3301 23.4563 39.0513 23.4563 38.8654 23.3633C38.5866 23.1774 38.2148 23.0845 37.936 22.8986C37.843 22.8057 37.7501 22.7127 37.7501 22.6198C37.7501 22.341 37.843 22.248 38.1219 22.248C39.423 22.248 40.6313 22.248 41.9325 22.248C42.1183 22.248 42.3972 22.248 42.4901 22.0621C42.8619 21.7833 43.1407 21.4115 42.8619 20.9468C42.7689 20.761 42.7689 20.668 42.676 20.4821C42.583 20.2033 42.583 20.1104 42.8619 20.0174C43.5125 19.6457 43.7913 19.088 43.5125 18.3445C43.3266 17.7868 42.583 17.2292 41.9325 17.3221C41.7466 17.3221 41.1889 17.6939 41.096 17.7868C40.9101 17.8798 40.8172 17.9727 40.6313 18.0657C40.5383 18.0657 40.5383 18.0657 40.4454 18.0657C40.4454 17.9727 40.4454 17.9727 40.4454 17.8798C40.5383 17.6939 40.6313 17.508 40.7242 17.2292C40.8172 17.0433 40.8172 16.7645 40.7242 16.5786C40.6313 16.021 40.2595 15.6492 39.7948 15.2774C39.3301 14.9986 38.7725 15.0916 38.4936 15.5563C38.4007 15.6492 38.4007 15.7421 38.3078 15.7421C37.936 16.2068 37.3783 16.2998 36.9136 16.2998C36.6348 16.2998 36.356 16.3927 36.1701 16.4857C35.9842 16.5786 35.7983 16.6716 35.5195 16.6716C35.3336 16.7645 35.2407 16.6716 35.1478 16.4857C34.8689 16.021 34.9619 15.4633 35.4266 15.1845C35.9842 14.8127 36.5419 14.348 37.0995 13.9763C37.4713 13.6974 37.843 13.4186 38.0289 12.861C38.1219 12.5821 38.1219 12.3963 37.936 12.1174C37.7501 11.7457 37.7501 11.3739 37.936 11.0021C38.0289 10.8163 38.1219 10.6304 38.2148 10.4445C38.4007 10.0727 38.2148 9.60803 37.936 9.42214C37.6572 9.23626 37.1925 9.23626 36.8207 9.51508C36.5419 9.70097 36.263 9.97979 36.0772 10.1657C35.8913 10.3516 35.7983 10.3516 35.7054 10.1657C35.5195 9.79391 35.2407 9.60803 34.8689 9.42214C34.776 9.42214 34.683 9.42214 34.5901 9.42214C34.0325 9.60803 33.6607 9.97979 33.3819 10.5374C33.0101 11.4668 32.6383 12.3033 32.2666 13.2327C32.1736 13.5116 31.8948 13.5116 31.616 13.3257C31.5231 13.2327 31.4301 13.2327 31.4301 13.1398C31.0583 12.9539 30.9654 12.6751 30.9654 12.3033C31.0583 11.7457 31.0583 11.0951 31.0583 10.5374C31.0583 10.1657 30.8725 9.88685 30.5007 9.79391C30.1289 9.70097 29.8501 9.79391 29.5713 10.0727C29.3854 10.2586 29.2925 10.5374 29.1995 10.7233C29.1066 10.9092 28.9207 11.188 28.8278 11.3739C28.7348 11.5598 28.5489 11.4668 28.3631 11.4668C28.1772 11.3739 28.0842 11.281 28.1772 11.0951C28.2701 10.6304 28.3631 10.1657 28.5489 9.70097C28.7348 9.05038 29.0136 8.39979 29.1995 7.84214C29.3854 7.2845 29.1995 6.72685 28.8278 6.35509C28.6419 6.1692 28.456 6.07626 28.1772 6.07626C27.8054 6.07626 27.7125 5.98332 27.8054 5.7045C27.8054 5.33273 27.8054 4.96097 27.7125 4.58921C27.5266 3.93862 26.9689 3.84568 26.5042 4.21744C26.0395 4.58921 25.8536 5.05391 25.8536 5.61156C25.8536 5.98332 25.8536 6.35509 25.9466 6.72685C25.9466 6.81979 25.9466 6.81979 25.9466 6.91273C25.8536 6.91273 25.8536 6.91273 25.7607 6.81979C25.6678 6.72685 25.6678 6.72685 25.5748 6.63391C25.2031 6.1692 24.2736 6.35509 23.9948 6.81979C23.716 7.2845 23.6231 7.84214 23.716 8.30685C23.9019 8.95744 24.0878 9.51508 24.2736 10.1657C24.4595 10.5374 24.6454 10.9092 24.8313 11.281C24.9242 11.5598 25.0172 11.9316 25.1101 12.2104C25.1101 12.3963 25.1101 12.4892 24.9242 12.5821C24.4595 12.861 23.9019 12.6751 23.5301 12.3033C23.5301 12.3033 23.4372 12.2104 23.4372 12.1174C23.3442 11.9316 23.1584 11.7457 23.0654 11.6527C22.9725 11.5598 22.8795 11.5598 22.7866 11.5598C22.6007 11.3739 22.4148 11.281 22.2289 11.4668C21.7642 11.8386 21.7642 12.3033 21.7642 12.861C21.7642 13.1398 21.8572 13.5116 21.8572 13.7904C21.8572 14.1621 21.7642 14.441 21.4854 14.7198C21.2066 14.9986 20.9278 14.9057 20.7419 14.5339C20.4631 13.7904 20.0913 13.1398 19.8125 12.3963C19.6266 12.0245 19.5336 11.6527 19.2548 11.4668C19.0689 11.281 18.7901 11.188 18.5113 11.281C18.3254 11.3739 18.1395 11.3739 17.9536 11.3739C17.6748 11.3739 17.396 11.281 17.1172 11.188C16.6525 11.0021 16.1878 11.188 16.0948 11.7457C15.9089 12.4892 16.0948 13.1398 16.5595 13.7904C16.6525 13.9763 16.6525 13.9763 16.4666 14.1621C16.2807 14.2551 16.1878 14.348 16.0948 14.5339C15.7231 14.9057 15.7231 15.3704 15.6301 15.8351C15.6301 16.1139 15.5372 16.3927 15.3513 16.5786C15.0725 17.0433 14.9795 17.4151 15.3513 17.8798C15.5372 18.0657 15.4442 18.4374 15.2584 18.5304C14.9795 18.7163 14.236 18.8092 13.9572 18.5304C13.3995 18.1586 12.9348 17.7868 12.3772 17.508C12.1913 17.4151 12.0054 17.2292 11.7266 17.1363C11.4478 16.9504 11.076 16.7645 10.7972 16.4857C10.7042 16.3927 10.5184 16.2998 10.4254 16.2068H10.3325C10.0537 16.021 9.77483 15.8351 9.40307 15.6492C8.93836 15.3704 8.38072 15.2774 7.82307 15.7421C7.63719 15.928 7.4513 16.2068 7.26542 16.3927C6.9866 16.7645 6.80072 16.8574 6.42895 16.6716C5.77836 16.3927 5.22072 16.4857 4.66307 16.8574C4.29131 17.1363 4.10542 17.6939 4.38425 18.0657C4.75601 18.7163 5.31366 18.9951 5.96425 19.088C6.15013 19.088 6.42895 19.181 6.61483 19.181C6.70778 19.181 6.80072 19.2739 6.80072 19.3668C6.80072 19.4598 6.70778 19.5527 6.61483 19.5527C6.61483 19.5527 6.52189 19.5527 6.42895 19.6457C5.96425 19.8315 5.59248 20.3892 5.77836 20.9468C5.87131 21.4115 6.52189 21.7833 7.26542 21.7833C8.5666 21.7833 9.86777 21.7833 11.076 21.7833C11.3548 21.7833 11.6337 21.7833 11.9125 21.7833C12.1913 21.7833 12.3772 21.8763 12.3772 22.0621C12.4701 22.341 12.3772 22.6198 12.1913 22.8057C12.0054 22.8986 11.9125 22.8986 11.7266 22.9915C11.3548 23.0845 11.076 23.0845 10.7042 23.1774C10.5184 23.2704 10.2395 23.4563 10.0537 23.5492C10.1466 23.6421 10.0537 23.6421 9.96071 23.6421C9.58895 23.921 9.68189 24.2927 9.96071 24.6645C10.0537 24.7574 10.1466 24.7574 10.3325 24.8504C10.7042 24.9433 10.9831 25.0362 11.3548 25.1292C11.8195 25.2221 12.1913 25.2221 12.656 25.3151C12.7489 25.3151 12.8419 25.3151 12.9348 25.3151C13.0278 25.3151 13.1207 25.3151 13.1207 25.3151C13.1207 25.3151 13.1207 25.408 13.1207 25.501C13.0278 25.6868 12.9348 25.8727 12.8419 26.0586C12.656 26.5233 12.8419 26.988 13.3066 27.1739C13.5854 27.2668 13.8642 27.5457 14.1431 27.6386C14.5148 27.8245 14.9795 27.7315 15.4442 27.7315C15.7231 27.7315 16.0019 27.6386 16.3737 27.7315C16.7454 27.7315 17.0242 28.2892 16.8384 28.661C16.7454 29.0327 16.4666 29.3115 16.0948 29.4045C15.4442 29.4974 14.7937 29.8692 14.1431 30.0551C13.5854 30.241 13.0278 30.4268 12.3772 30.6127C12.1913 30.7057 11.9125 30.7057 11.7266 30.7057C10.9831 30.7986 10.6113 31.5421 10.7972 32.2857C10.7972 32.3786 10.8901 32.4715 10.8901 32.4715C11.076 33.1221 10.7972 33.6798 10.2395 33.9586C10.2395 33.9586 10.1466 33.9586 10.0537 34.0515C9.31013 34.5162 9.31013 35.2598 10.1466 35.9104C10.2395 35.9104 10.2395 36.0033 10.3325 36.0033C10.7972 36.2821 11.3548 36.2821 11.7266 35.9104C12.1913 35.4457 12.656 34.981 13.1207 34.5162C13.2137 34.4233 13.3066 34.3304 13.4925 34.3304C13.4925 34.3304 13.5854 34.3304 13.6784 34.3304C13.6784 34.3304 13.6784 34.4233 13.6784 34.5162C13.5854 34.6092 13.3995 34.7951 13.3066 34.888C12.7489 35.3527 12.5631 36.1892 12.8419 36.8398C13.0278 37.4904 13.7713 37.8621 14.3289 37.1186C14.6078 36.8398 14.7937 36.5609 14.9795 36.2821C15.1654 36.0962 15.2584 35.9104 15.4442 35.9104C15.7231 35.8174 16.0948 35.9104 16.3737 35.9104C16.7454 35.9104 16.9313 36.2821 16.6525 36.6539C16.4666 36.9327 16.1878 37.1186 16.0019 37.3974C15.7231 37.6762 15.4442 37.9551 15.1654 38.2339C14.6078 38.8845 14.4219 39.9068 15.0725 40.7433C14.8866 40.8362 14.8866 41.0221 14.8866 41.3009C14.8866 41.3939 14.7937 41.5798 14.7937 41.6727C14.7007 42.1374 14.5148 42.5092 14.4219 42.9739C14.3289 43.3456 14.6078 43.8104 14.8866 43.9033C15.2584 44.0892 15.6301 43.9962 15.9089 43.7174C16.0948 43.5315 16.1878 43.3457 16.2807 43.0668C16.5595 42.4162 16.7454 41.7657 17.0242 41.1151C17.1172 40.8362 17.3031 40.6504 17.396 40.4645C17.396 40.4645 17.4889 40.4645 17.5819 40.3715C17.5819 40.4645 17.5819 40.4645 17.5819 40.5574C17.4889 40.7433 17.4889 40.8362 17.396 41.0221C17.1172 41.5798 17.0242 42.1374 17.2101 42.788C17.396 43.4386 18.0466 43.7174 18.6042 43.2527C18.7901 43.0668 19.0689 42.8809 19.1619 42.6021C19.3478 42.0445 19.5336 41.4868 19.6266 40.9292C19.8125 40.1857 19.9054 39.3492 20.0913 38.6057C20.1842 38.3268 20.1842 38.1409 20.2772 37.8621C20.556 37.3974 20.8348 37.0257 21.1136 36.561C21.2995 36.1892 21.5784 36.0962 21.9501 36.0962C22.4148 36.1892 22.6936 35.9104 23.0654 35.6315C23.1584 35.4457 23.3442 35.3527 23.5301 35.2598C23.716 35.1668 23.9019 35.2598 23.9948 35.5386C23.9948 35.6315 23.9948 35.7245 23.9948 35.8174C23.6231 36.9327 23.1584 38.1409 22.7866 39.2562C22.6936 39.4421 22.6936 39.628 22.6936 39.8139C22.6007 40.4645 22.9725 40.9292 23.6231 40.9292C23.9948 40.9292 23.9948 40.9292 23.9948 41.3009C23.9948 41.4868 23.9948 41.5798 24.0878 41.7657C24.2736 42.2304 24.7384 42.5092 25.2031 42.2304C25.7607 41.9515 26.0395 41.3939 26.0395 40.7433C26.0395 40.0927 26.0395 40.0927 26.6901 40.1857C27.0619 40.2786 27.3407 40.1857 27.6195 39.9998C28.0842 39.7209 28.2701 39.2562 28.2701 38.6986C28.2701 38.5127 28.2701 38.2339 28.1772 38.048C28.0842 37.3974 27.8983 36.6539 27.7125 36.0033C27.6195 35.7245 27.7125 35.5386 27.8983 35.4457C27.9913 35.3527 28.2701 35.4457 28.456 35.4457C28.6419 35.4457 28.8278 35.5386 29.0136 35.4457C29.1995 35.4457 29.3854 35.3527 29.5713 35.3527C30.036 35.2598 30.5007 35.3527 30.7795 35.7245C30.8725 35.9104 31.0583 36.0962 31.2442 36.2821C31.5231 36.5609 31.8019 36.6539 32.1736 36.468C32.3595 36.3751 32.5454 36.3751 32.7313 36.2821C33.1031 36.1892 33.2889 36.2821 33.4748 36.561C33.6607 36.9327 33.9395 37.3974 34.1254 37.7692C34.4042 38.2339 34.5901 38.6057 34.8689 39.0704C35.1478 39.4421 35.5195 39.8139 36.0772 39.7209C36.356 39.7209 36.5419 39.5351 36.8207 39.4421C37.1925 39.2562 37.3783 39.2562 37.5642 39.628C37.936 40.0927 38.4007 40.3715 39.0513 40.2786C39.516 40.1857 39.7948 39.8139 39.7948 39.4421C39.7948 38.7915 39.516 38.3268 39.0513 37.8621C38.8654 37.7692 38.7725 37.5833 38.5866 37.4904C38.4936 37.3974 38.4936 37.3045 38.5866 37.2115C38.5866 37.1186 38.6795 37.1186 38.7725 37.1186C38.8654 37.1186 38.8654 37.1186 38.9583 37.1186C39.423 37.2115 39.8877 36.8398 39.9807 36.3751C40.0736 35.7245 39.7948 35.1668 39.2372 34.7951C38.0289 34.1445 36.8207 33.4939 35.6125 32.7504C35.4266 32.6574 35.2407 32.3786 35.3336 32.0998C35.3336 31.9139 35.6125 31.728 35.7983 31.728C35.8913 31.728 36.0772 31.728 36.1701 31.728C36.356 31.728 36.5419 31.821 36.6348 31.728C37.1925 31.728 37.5642 31.2633 37.6572 30.7057C37.6572 30.0551 37.3783 29.5904 36.8207 29.2186C36.356 28.8468 36.263 28.568 36.6348 28.1033C36.7278 28.0104 36.7277 27.9174 36.8207 27.8245C37.0066 27.6386 37.1925 27.6386 37.3783 27.7315C38.0289 28.1033 38.7725 28.3821 39.423 28.7539C39.7019 28.8468 39.8877 29.0327 40.1666 29.1257C40.8172 29.4045 41.5607 29.1257 41.7466 28.2892C41.8395 27.9174 42.0254 27.7315 42.3972 27.7315C42.583 27.7315 42.676 27.7315 42.8619 27.7315C43.3266 27.7315 43.6983 27.2668 43.7913 26.8951C43.5125 26.3374 42.676 25.5939 42.0254 25.5939ZM33.8466 25.9657C32.8242 25.9657 31.7089 25.9657 30.6866 25.9657C30.3148 25.9657 29.9431 25.9657 29.4783 25.9657C29.1066 25.9657 28.8278 26.1515 28.8278 26.6162C28.8278 27.3598 28.8278 28.1033 28.8278 28.8468C28.8278 29.5904 28.8278 30.241 28.8278 30.9845C28.8278 31.5421 28.5489 31.8209 27.9913 31.8209C26.9689 31.8209 25.9466 31.8209 24.9242 31.8209C24.7383 31.8209 24.5525 31.8209 24.3666 31.8209C23.9948 31.728 23.8089 31.5421 23.8089 31.1704C23.8089 29.7762 23.8089 28.2892 23.8089 26.8951C23.8089 26.6162 23.8089 26.4304 23.6231 26.2445C23.4372 26.1515 23.2513 26.1515 23.1584 26.1515C21.7642 26.1515 20.3701 26.1515 19.0689 26.1515C18.5113 26.1515 18.2325 25.8727 18.2325 25.3151C18.2325 24.2927 18.2325 23.2704 18.2325 22.248C18.2325 22.0621 18.2325 21.9692 18.2325 21.7833C18.3254 21.2257 18.5113 21.1327 19.1619 21.1327C20.556 21.1327 21.8572 21.1327 23.2513 21.1327C23.716 21.1327 23.9019 20.9468 23.9019 20.4821C23.9019 19.088 23.9019 17.601 23.9019 16.2068C23.9019 15.928 23.9948 15.6492 24.2736 15.4633C24.3666 15.4633 24.4595 15.3704 24.5525 15.3704C25.7607 15.3704 26.9689 15.3704 28.1772 15.3704C28.6419 15.3704 28.9207 15.7421 28.9207 16.2068C28.9207 16.6716 28.9207 17.2292 28.9207 17.6939C28.9207 18.6233 28.9207 19.5527 28.9207 20.4821C28.9207 21.0398 29.1066 21.2257 29.6642 21.2257C30.9654 21.2257 32.3595 21.2257 33.6607 21.2257C33.7536 21.2257 33.8466 21.2257 33.8466 21.2257C34.3113 21.3186 34.4972 21.5045 34.4972 21.9692C34.4972 22.9915 34.4972 24.0139 34.4972 25.1292C34.4972 25.3151 34.4972 25.408 34.4972 25.5939C34.5901 25.6868 34.3113 25.9657 33.8466 25.9657Z" fill="#DD856C"/>
<path d="M42.0254 25.5939C41.8395 25.5939 41.6536 25.5939 41.5607 25.5939C41.2819 25.5939 41.2819 25.501 41.4677 25.3151C41.6536 25.1292 41.7466 24.8504 41.8395 24.5715C42.0254 24.0139 41.8395 23.4563 41.2819 23.2704C40.7242 23.0845 40.1666 23.0845 39.6089 23.3633C39.3301 23.4563 39.0513 23.4563 38.8654 23.3633C38.5866 23.1774 38.2148 23.0845 37.936 22.8986C37.843 22.8057 37.7501 22.7127 37.7501 22.6198C37.7501 22.341 37.843 22.248 38.1219 22.248C39.423 22.248 40.6313 22.248 41.9325 22.248C42.1183 22.248 42.3972 22.248 42.4901 22.0621C42.8619 21.7833 43.1407 21.4115 42.8619 20.9468C42.7689 20.761 42.7689 20.668 42.676 20.4821C42.583 20.2033 42.583 20.1104 42.8619 20.0174C43.5125 19.6457 43.7913 19.088 43.5125 18.3445C43.3266 17.7868 42.583 17.2292 41.9325 17.3221C41.7466 17.3221 41.1889 17.6939 41.096 17.7868C40.9101 17.8798 40.8172 17.9727 40.6313 18.0657C40.5383 18.0657 40.5383 18.0657 40.4454 18.0657C40.4454 17.9727 40.4454 17.9727 40.4454 17.8798C40.5383 17.6939 40.6313 17.508 40.7242 17.2292C40.8172 17.0433 40.8172 16.7645 40.7242 16.5786C40.6313 16.021 40.2595 15.6492 39.7948 15.2774C39.3301 14.9986 38.7725 15.0916 38.4936 15.5563C38.4007 15.6492 38.4007 15.7421 38.3078 15.7421C37.936 16.2068 37.3783 16.2998 36.9136 16.2998C36.6348 16.2998 36.356 16.3927 36.1701 16.4857C35.9842 16.5786 35.7983 16.6716 35.5195 16.6716C35.3336 16.7645 35.2407 16.6716 35.1478 16.4857C34.8689 16.021 34.9619 15.4633 35.4266 15.1845C35.9842 14.8127 36.5419 14.348 37.0995 13.9763C37.4713 13.6974 37.843 13.4186 38.0289 12.861C38.1219 12.5821 38.1219 12.3963 37.936 12.1174C37.7501 11.7457 37.7501 11.3739 37.936 11.0021C38.0289 10.8163 38.1219 10.6304 38.2148 10.4445C38.4007 10.0727 38.2148 9.60803 37.936 9.42214C37.6572 9.23626 37.1925 9.23626 36.8207 9.51508C36.5419 9.70097 36.263 9.97979 36.0772 10.1657C35.8913 10.3516 35.7983 10.3516 35.7054 10.1657C35.5195 9.79391 35.2407 9.60803 34.8689 9.42214C34.776 9.42214 34.683 9.42214 34.5901 9.42214C34.0325 9.60803 33.6607 9.97979 33.3819 10.5374C33.0101 11.4668 32.6383 12.3033 32.2666 13.2327C32.1736 13.5116 31.8948 13.5116 31.616 13.3257C31.5231 13.2327 31.4301 13.2327 31.4301 13.1398C31.0583 12.9539 30.9654 12.6751 30.9654 12.3033C31.0583 11.7457 31.0583 11.0951 31.0583 10.5374C31.0583 10.1657 30.8725 9.88685 30.5007 9.79391C30.1289 9.70097 29.8501 9.79391 29.5713 10.0727C29.3854 10.2586 29.2925 10.5374 29.1995 10.7233C29.1066 10.9092 28.9207 11.188 28.8278 11.3739C28.7348 11.5598 28.5489 11.4668 28.3631 11.4668C28.1772 11.3739 28.0842 11.281 28.1772 11.0951C28.2701 10.6304 28.3631 10.1657 28.5489 9.70097C28.7348 9.05038 29.0136 8.39979 29.1995 7.84214C29.3854 7.2845 29.1995 6.72685 28.8278 6.35509C28.6419 6.1692 28.456 6.07626 28.1772 6.07626C27.8054 6.07626 27.7125 5.98332 27.8054 5.7045C27.8054 5.33273 27.8054 4.96097 27.7125 4.58921C27.5266 3.93862 26.9689 3.84568 26.5042 4.21744C26.0395 4.58921 25.8536 5.05391 25.8536 5.61156C25.8536 5.98332 25.8536 6.35509 25.9466 6.72685C25.9466 6.81979 25.9466 6.81979 25.9466 6.91273C25.8536 6.91273 25.8536 6.91273 25.7607 6.81979C25.6678 6.72685 25.6678 6.72685 25.5748 6.63391C25.2031 6.1692 24.2736 6.35509 23.9948 6.81979C23.716 7.2845 23.6231 7.84214 23.716 8.30685C23.9019 8.95744 24.0878 9.51508 24.2736 10.1657C24.4595 10.5374 24.6454 10.9092 24.8313 11.281C24.9242 11.5598 25.0172 11.9316 25.1101 12.2104C25.1101 12.3963 25.1101 12.4892 24.9242 12.5821C24.4595 12.861 23.9019 12.6751 23.5301 12.3033C23.5301 12.3033 23.4372 12.2104 23.4372 12.1174C23.3442 11.9316 23.1584 11.7457 23.0654 11.6527C22.9725 11.5598 22.8795 11.5598 22.7866 11.5598C22.6007 11.3739 22.4148 11.281 22.2289 11.4668C21.7642 11.8386 21.7642 12.3033 21.7642 12.861C21.7642 13.1398 21.8572 13.5116 21.8572 13.7904C21.8572 14.1621 21.7642 14.441 21.4854 14.7198C21.2066 14.9986 20.9278 14.9057 20.7419 14.5339C20.4631 13.7904 20.0913 13.1398 19.8125 12.3963C19.6266 12.0245 19.5336 11.6527 19.2548 11.4668C19.0689 11.281 18.7901 11.188 18.5113 11.281C18.3254 11.3739 18.1395 11.3739 17.9536 11.3739C17.6748 11.3739 17.396 11.281 17.1172 11.188C16.6525 11.0021 16.1878 11.188 16.0948 11.7457C15.9089 12.4892 16.0948 13.1398 16.5595 13.7904C16.6525 13.9763 16.6525 13.9763 16.4666 14.1621C16.2807 14.2551 16.1878 14.348 16.0948 14.5339C15.7231 14.9057 15.7231 15.3704 15.6301 15.8351C15.6301 16.1139 15.5372 16.3927 15.3513 16.5786C15.0725 17.0433 14.9795 17.4151 15.3513 17.8798C15.5372 18.0657 15.4442 18.4374 15.2584 18.5304C14.9795 18.7163 14.236 18.8092 13.9572 18.5304C13.3995 18.1586 12.9348 17.7868 12.3772 17.508C12.1913 17.4151 12.0054 17.2292 11.7266 17.1363C11.4478 16.9504 11.076 16.7645 10.7972 16.4857C10.7042 16.3927 10.5184 16.2998 10.4254 16.2068H10.3325C10.0537 16.021 9.77483 15.8351 9.40307 15.6492C8.93836 15.3704 8.38072 15.2774 7.82307 15.7421C7.63719 15.928 7.4513 16.2068 7.26542 16.3927C6.9866 16.7645 6.80072 16.8574 6.42895 16.6716C5.77836 16.3927 5.22072 16.4857 4.66307 16.8574C4.29131 17.1363 4.10542 17.6939 4.38425 18.0657C4.75601 18.7163 5.31366 18.9951 5.96425 19.088C6.15013 19.088 6.42895 19.181 6.61483 19.181C6.70778 19.181 6.80072 19.2739 6.80072 19.3668C6.80072 19.4598 6.70778 19.5527 6.61483 19.5527C6.61483 19.5527 6.52189 19.5527 6.42895 19.6457C5.96425 19.8315 5.59248 20.3892 5.77836 20.9468C5.87131 21.4115 6.52189 21.7833 7.26542 21.7833C8.5666 21.7833 9.86777 21.7833 11.076 21.7833C11.3548 21.7833 11.6337 21.7833 11.9125 21.7833C12.1913 21.7833 12.3772 21.8763 12.3772 22.0621C12.4701 22.341 12.3772 22.6198 12.1913 22.8057C12.0054 22.8986 11.9125 22.8986 11.7266 22.9915C11.3548 23.0845 11.076 23.0845 10.7042 23.1774C10.5184 23.2704 10.2395 23.4563 10.0537 23.5492C10.1466 23.6421 10.0537 23.6421 9.96071 23.6421C9.58895 23.921 9.68189 24.2927 9.96071 24.6645C10.0537 24.7574 10.1466 24.7574 10.3325 24.8504C10.7042 24.9433 10.9831 25.0362 11.3548 25.1292C11.8195 25.2221 12.1913 25.2221 12.656 25.3151C12.7489 25.3151 12.8419 25.3151 12.9348 25.3151C13.0278 25.3151 13.1207 25.3151 13.1207 25.3151C13.1207 25.3151 13.1207 25.408 13.1207 25.501C13.0278 25.6868 12.9348 25.8727 12.8419 26.0586C12.656 26.5233 12.8419 26.988 13.3066 27.1739C13.5854 27.2668 13.8642 27.5457 14.1431 27.6386C14.5148 27.8245 14.9795 27.7315 15.4442 27.7315C15.7231 27.7315 16.0019 27.6386 16.3737 27.7315C16.7454 27.7315 17.0242 28.2892 16.8384 28.661C16.7454 29.0327 16.4666 29.3115 16.0948 29.4045C15.4442 29.4974 14.7937 29.8692 14.1431 30.0551C13.5854 30.241 13.0278 30.4268 12.3772 30.6127C12.1913 30.7057 11.9125 30.7057 11.7266 30.7057C10.9831 30.7986 10.6113 31.5421 10.7972 32.2857C10.7972 32.3786 10.8901 32.4715 10.8901 32.4715C11.076 33.1221 10.7972 33.6798 10.2395 33.9586C10.2395 33.9586 10.1466 33.9586 10.0537 34.0515C9.31013 34.5162 9.31013 35.2598 10.1466 35.9104C10.2395 35.9104 10.2395 36.0033 10.3325 36.0033C10.7972 36.2821 11.3548 36.2821 11.7266 35.9104C12.1913 35.4457 12.656 34.981 13.1207 34.5162C13.2137 34.4233 13.3066 34.3304 13.4925 34.3304C13.4925 34.3304 13.5854 34.3304 13.6784 34.3304C13.6784 34.3304 13.6784 34.4233 13.6784 34.5162C13.5854 34.6092 13.3995 34.7951 13.3066 34.888C12.7489 35.3527 12.5631 36.1892 12.8419 36.8398C13.0278 37.4904 13.7713 37.8621 14.3289 37.1186C14.6078 36.8398 14.7937 36.5609 14.9795 36.2821C15.1654 36.0962 15.2584 35.9104 15.4442 35.9104C15.7231 35.8174 16.0948 35.9104 16.3737 35.9104C16.7454 35.9104 16.9313 36.2821 16.6525 36.6539C16.4666 36.9327 16.1878 37.1186 16.0019 37.3974C15.7231 37.6762 15.4442 37.9551 15.1654 38.2339C14.6078 38.8845 14.4219 39.9068 15.0725 40.7433C14.8866 40.8362 14.8866 41.0221 14.8866 41.3009C14.8866 41.3939 14.7937 41.5798 14.7937 41.6727C14.7007 42.1374 14.5148 42.5092 14.4219 42.9739C14.3289 43.3456 14.6078 43.8104 14.8866 43.9033C15.2584 44.0892 15.6301 43.9962 15.9089 43.7174C16.0948 43.5315 16.1878 43.3457 16.2807 43.0668C16.5595 42.4162 16.7454 41.7657 17.0242 41.1151C17.1172 40.8362 17.3031 40.6504 17.396 40.4645C17.396 40.4645 17.4889 40.4645 17.5819 40.3715C17.5819 40.4645 17.5819 40.4645 17.5819 40.5574C17.4889 40.7433 17.4889 40.8362 17.396 41.0221C17.1172 41.5798 17.0242 42.1374 17.2101 42.788C17.396 43.4386 18.0466 43.7174 18.6042 43.2527C18.7901 43.0668 19.0689 42.8809 19.1619 42.6021C19.3478 42.0445 19.5336 41.4868 19.6266 40.9292C19.8125 40.1857 19.9054 39.3492 20.0913 38.6057C20.1842 38.3268 20.1842 38.1409 20.2772 37.8621C20.556 37.3974 20.8348 37.0257 21.1136 36.561C21.2995 36.1892 21.5784 36.0962 21.9501 36.0962C22.4148 36.1892 22.6936 35.9104 23.0654 35.6315C23.1584 35.4457 23.3442 35.3527 23.5301 35.2598C23.716 35.1668 23.9019 35.2598 23.9948 35.5386C23.9948 35.6315 23.9948 35.7245 23.9948 35.8174C23.6231 36.9327 23.1584 38.1409 22.7866 39.2562C22.6936 39.4421 22.6936 39.628 22.6936 39.8139C22.6007 40.4645 22.9725 40.9292 23.6231 40.9292C23.9948 40.9292 23.9948 40.9292 23.9948 41.3009C23.9948 41.4868 23.9948 41.5798 24.0878 41.7657C24.2736 42.2304 24.7384 42.5092 25.2031 42.2304C25.7607 41.9515 26.0395 41.3939 26.0395 40.7433C26.0395 40.0927 26.0395 40.0927 26.6901 40.1857C27.0619 40.2786 27.3407 40.1857 27.6195 39.9998C28.0842 39.7209 28.2701 39.2562 28.2701 38.6986C28.2701 38.5127 28.2701 38.2339 28.1772 38.048C28.0842 37.3974 27.8983 36.6539 27.7125 36.0033C27.6195 35.7245 27.7125 35.5386 27.8983 35.4457C27.9913 35.3527 28.2701 35.4457 28.456 35.4457C28.6419 35.4457 28.8278 35.5386 29.0136 35.4457C29.1995 35.4457 29.3854 35.3527 29.5713 35.3527C30.036 35.2598 30.5007 35.3527 30.7795 35.7245C30.8725 35.9104 31.0583 36.0962 31.2442 36.2821C31.5231 36.5609 31.8019 36.6539 32.1736 36.468C32.3595 36.3751 32.5454 36.3751 32.7313 36.2821C33.1031 36.1892 33.2889 36.2821 33.4748 36.561C33.6607 36.9327 33.9395 37.3974 34.1254 37.7692C34.4042 38.2339 34.5901 38.6057 34.8689 39.0704C35.1478 39.4421 35.5195 39.8139 36.0772 39.7209C36.356 39.7209 36.5419 39.5351 36.8207 39.4421C37.1925 39.2562 37.3783 39.2562 37.5642 39.628C37.936 40.0927 38.4007 40.3715 39.0513 40.2786C39.516 40.1857 39.7948 39.8139 39.7948 39.4421C39.7948 38.7915 39.516 38.3268 39.0513 37.8621C38.8654 37.7692 38.7725 37.5833 38.5866 37.4904C38.4936 37.3974 38.4936 37.3045 38.5866 37.2115C38.5866 37.1186 38.6795 37.1186 38.7725 37.1186C38.8654 37.1186 38.8654 37.1186 38.9583 37.1186C39.423 37.2115 39.8877 36.8398 39.9807 36.3751C40.0736 35.7245 39.7948 35.1668 39.2372 34.7951C38.0289 34.1445 36.8207 33.4939 35.6125 32.7504C35.4266 32.6574 35.2407 32.3786 35.3336 32.0998C35.3336 31.9139 35.6125 31.728 35.7983 31.728C35.8913 31.728 36.0772 31.728 36.1701 31.728C36.356 31.728 36.5419 31.821 36.6348 31.728C37.1925 31.728 37.5642 31.2633 37.6572 30.7057C37.6572 30.0551 37.3783 29.5904 36.8207 29.2186C36.356 28.8468 36.263 28.568 36.6348 28.1033C36.7278 28.0104 36.7277 27.9174 36.8207 27.8245C37.0066 27.6386 37.1925 27.6386 37.3783 27.7315C38.0289 28.1033 38.7725 28.3821 39.423 28.7539C39.7019 28.8468 39.8877 29.0327 40.1666 29.1257C40.8172 29.4045 41.5607 29.1257 41.7466 28.2892C41.8395 27.9174 42.0254 27.7315 42.3972 27.7315C42.583 27.7315 42.676 27.7315 42.8619 27.7315C43.3266 27.7315 43.6983 27.2668 43.7913 26.8951C43.5125 26.3374 42.676 25.5939 42.0254 25.5939ZM33.8466 25.9657C32.8242 25.9657 31.7089 25.9657 30.6866 25.9657C30.3148 25.9657 29.9431 25.9657 29.4783 25.9657C29.1066 25.9657 28.8278 26.1515 28.8278 26.6162C28.8278 27.3598 28.8278 28.1033 28.8278 28.8468C28.8278 29.5904 28.8278 30.241 28.8278 30.9845C28.8278 31.5421 28.5489 31.8209 27.9913 31.8209C26.9689 31.8209 25.9466 31.8209 24.9242 31.8209C24.7383 31.8209 24.5525 31.8209 24.3666 31.8209C23.9948 31.728 23.8089 31.5421 23.8089 31.1704C23.8089 29.7762 23.8089 28.2892 23.8089 26.8951C23.8089 26.6162 23.8089 26.4304 23.6231 26.2445C23.4372 26.1515 23.2513 26.1515 23.1584 26.1515C21.7642 26.1515 20.3701 26.1515 19.0689 26.1515C18.5113 26.1515 18.2325 25.8727 18.2325 25.3151C18.2325 24.2927 18.2325 23.2704 18.2325 22.248C18.2325 22.0621 18.2325 21.9692 18.2325 21.7833C18.3254 21.2257 18.5113 21.1327 19.1619 21.1327C20.556 21.1327 21.8572 21.1327 23.2513 21.1327C23.716 21.1327 23.9019 20.9468 23.9019 20.4821C23.9019 19.088 23.9019 17.601 23.9019 16.2068C23.9019 15.928 23.9948 15.6492 24.2736 15.4633C24.3666 15.4633 24.4595 15.3704 24.5525 15.3704C25.7607 15.3704 26.9689 15.3704 28.1772 15.3704C28.6419 15.3704 28.9207 15.7421 28.9207 16.2068C28.9207 16.6716 28.9207 17.2292 28.9207 17.6939C28.9207 18.6233 28.9207 19.5527 28.9207 20.4821C28.9207 21.0398 29.1066 21.2257 29.6642 21.2257C30.9654 21.2257 32.3595 21.2257 33.6607 21.2257C33.7536 21.2257 33.8466 21.2257 33.8466 21.2257C34.3113 21.3186 34.4972 21.5045 34.4972 21.9692C34.4972 22.9915 34.4972 24.0139 34.4972 25.1292C34.4972 25.3151 34.4972 25.408 34.4972 25.5939C34.5901 25.6868 34.3113 25.9657 33.8466 25.9657Z" fill="black"/>
</svg>
