<svg width="48" height="48" viewBox="0 0 48 48" fill="none" xmlns="http://www.w3.org/2000/svg">
<path d="M42.7897 17.3648C42.7897 17.3648 40.9957 17.176 40.8069 17.176C40.7124 17.176 40.618 17.176 40.4292 17.176C40.4292 17.176 40.3348 17.176 40.3348 17.0815C40.618 16.8927 40.8069 16.7983 40.9957 16.6094C41.0901 16.6094 41.0901 16.515 41.1845 16.515L42.412 15.6652C42.6953 15.4764 42.9785 15.2876 43.2618 15.0987C43.6395 14.8154 44.1116 14.4378 44.4893 14.0601C44.7725 13.7768 45.0558 13.588 45.2446 13.3047L46 12.3605L45.1502 12.4549C45.1502 12.4549 45.1502 12.4549 45.0558 12.4549C44.5837 12.5494 44.1116 12.5494 43.7339 12.6438L42.3176 13.0215C42.2232 13.0215 42.2232 13.0215 42.1288 13.0215C42.1288 13.0215 40.5236 13.3047 40.0515 13.3047C39.3906 13.3991 38.7296 13.588 37.9742 13.6824C37.691 13.7768 37.4077 13.7768 37.1245 13.7768C36.8412 13.8712 36.4635 13.8712 36.1803 13.9657C35.897 14.0601 35.6137 14.0601 35.4249 14.0601H35.3305C35.2361 14.0601 35.1416 14.0601 35.1416 14.0601C35.1416 13.9657 35.7082 13.2103 35.7082 13.2103C35.8026 13.1159 35.897 13.0215 35.9914 12.8326C35.6137 13.0215 28.0601 14.8155 27.7768 14.9099C27.6824 14.9099 27.588 14.9099 27.588 14.9099C27.3991 14.9099 27.2103 14.8154 27.1159 14.6266C26.927 14.4378 26.6438 14.2489 26.4549 14.0601C26.2661 13.8712 26.0773 13.7768 25.9828 13.588C25.8884 13.4936 25.8884 13.3991 25.9828 13.3047C26.0773 13.0215 26.0773 12.8326 25.9828 12.5494C25.8884 12.1717 25.6996 11.8884 25.5107 11.6051C25.3219 11.2275 25.0386 10.9442 24.8498 10.6609C24.4721 10.5665 24.1888 10.1888 24.0944 10.0944C24.0944 10.0944 24.0944 10 24 10L23.9056 10.0944C23.7167 10.2833 23.5279 10.6609 23.3391 10.8498C23.1502 11.133 22.867 11.5107 22.6781 11.794C22.4893 12.0773 22.206 12.3605 22.206 12.7382C22.206 13.0215 22.1116 13.2103 22.206 13.4936C22.206 13.588 22.206 13.6824 22.206 13.7768C22.1116 13.9657 21.9227 14.0601 21.7339 14.2489C21.5451 14.4378 21.2618 14.6266 21.073 14.8154C20.8841 15.0043 20.7897 15.0043 20.6009 15.0987C20.5064 15.0987 20.412 15.0987 20.412 15.0987C20.1288 15.0987 12.5751 13.2103 12.1974 13.0215C12.2918 13.1159 12.3863 13.3047 12.4807 13.3991C12.4807 13.4936 13.0472 14.1545 13.0472 14.2489C12.9528 14.2489 12.8584 14.2489 12.8584 14.2489H12.7639C12.4807 14.2489 12.1974 14.1545 12.0086 14.1545C11.7253 14.0601 11.3476 14.0601 11.0644 13.9657C10.7811 13.8712 10.4979 13.8712 10.2146 13.8712C9.55365 13.7768 8.8927 13.588 8.13734 13.4936C7.47639 13.3047 5.87124 13.0215 5.87124 13.0215C5.77682 13.0215 5.77682 13.0215 5.6824 13.0215L4.26609 12.8326C3.79399 12.7382 3.32189 12.6438 2.94421 12.6438C2.94421 12.6438 2.94421 12.6438 2.84979 12.6438L2 12.5494L2.75536 13.4936C3.13305 13.6824 3.32189 13.9657 3.60515 14.1545C3.98283 14.5322 4.36051 14.8155 4.83262 15.1931C5.11588 15.382 5.39914 15.5708 5.6824 15.7597L6.90987 16.6094C7.00429 16.6094 7.00429 16.7039 7.09871 16.7039C7.28755 16.7983 7.57081 16.9871 7.75966 17.176C7.66524 17.176 7.66524 17.2704 7.66524 17.2704C7.57082 17.2704 7.47639 17.2704 7.28755 17.2704C7.09871 17.2704 5.30472 17.4592 5.30472 17.4592C4.92704 17.5536 4.54936 17.6481 4.17167 17.7425C3.69957 17.7425 3.32189 17.9313 2.84979 18.0257C2.94421 18.1202 3.13305 18.309 3.22747 18.4034C3.88841 18.6867 4.54936 18.8755 5.2103 19.1588L7.09871 19.6309C7.38197 19.7253 7.75966 19.8197 8.04292 19.9142C8.4206 20.0086 8.79828 20.0086 9.17597 20.103C9.64807 20.1974 10.0258 20.2918 10.4979 20.2918C10.5923 20.2918 10.6867 20.2918 10.7811 20.2918C10.8755 20.2918 10.8755 20.3863 10.8755 20.3863L10.7811 20.4807C10.4034 20.6695 10.0258 20.8584 9.74249 21.1416C9.27039 21.4249 8.8927 21.8026 8.51502 22.1803C8.51502 22.1803 8.4206 22.2747 8.4206 22.3691C8.51502 22.3691 8.60944 22.4635 8.60944 22.4635C9.27039 22.4635 10.0258 22.4635 10.6867 22.4635C11.0644 22.4635 11.3476 22.3691 11.7253 22.3691C11.7253 22.3691 11.8197 22.3691 11.8197 22.4635V22.5579C11.6309 22.8412 11.3476 23.2189 11.2532 23.5021C11.0644 23.8798 11.0644 24.3519 10.97 24.824C10.97 25.1073 10.97 25.3906 10.97 25.6738C10.97 25.8627 10.97 25.8627 11.1588 25.7682C11.4421 25.6738 11.6309 25.5794 11.9142 25.3906C12.103 25.2961 12.6695 25.0129 13.1416 24.6352H13.2361C13.8026 24.2575 14.2747 23.9742 14.8412 23.5966C14.9356 23.5966 14.9356 23.5021 15.03 23.5021V23.5966C15.03 23.7854 15.03 26.3348 15.03 26.5236C15.03 26.5236 15.03 26.5236 15.1245 26.4292C15.1245 26.4292 15.2189 26.4292 15.2189 26.3348C15.5966 25.9571 16.0687 25.5794 16.4464 25.2017C16.824 24.824 17.2017 24.3519 17.5794 23.8798C17.6738 23.7854 17.7682 23.5966 17.8627 23.5021C18.0515 24.5408 18.3348 25.3906 18.9013 26.3348L18.9957 26.2403C18.9957 26.2403 19.0901 26.2403 19.1845 26.1459C19.1845 26.1459 20.2232 25.0129 20.6953 24.5408C20.8841 24.3519 21.073 24.0687 21.2618 23.7854C21.2618 23.691 21.3562 23.691 21.3562 23.691C21.3562 23.691 21.4506 23.691 21.4506 23.7854C21.8283 24.3519 22.206 24.824 22.5837 25.3906C22.6781 25.5794 22.6781 25.6738 22.5837 25.8627C22.4893 26.2403 22.3948 26.618 22.3948 26.9013C22.3004 27.3734 22.206 27.7511 22.1116 28.2232C22.0172 28.6009 21.9227 28.9785 21.8283 29.3562C21.7339 29.8283 21.6395 30.3004 21.5451 30.7725C21.5451 30.7725 21.5451 30.867 21.5451 30.9614C21.9227 30.5837 22.3004 30.3004 22.6781 29.9227C22.4893 30.9614 22.3004 32 22.0172 32.9442C22.0172 32.9442 22.0172 32.9442 22.1116 32.9442C22.1116 32.9442 22.1116 32.9442 22.206 32.9442C22.5837 32.3777 22.9614 31.9056 23.4335 31.3391C23.4335 31.4335 23.5279 31.4335 23.5279 31.5279C23.6223 32.3777 23.6223 33.3219 23.7167 34.1717C23.8112 35.3991 23.9056 36.721 24 37.9485C24 38.1373 24 38.4206 24.0944 38.6094C24.0944 38.515 24.0944 38.515 24.0944 38.4206C24.0944 38.515 24.0944 38.515 24.0944 38.6094C24.0944 38.4206 24.1888 38.1373 24.1888 37.9485C24.2833 36.721 24.3777 35.3991 24.4721 34.1717C24.5665 33.3219 24.5665 32.3777 24.6609 31.5279C24.6609 31.4335 24.6609 31.4335 24.7554 31.3391C25.133 31.9056 25.5107 32.3777 25.9828 32.9442C25.9828 32.9442 25.9828 32.9442 26.0773 32.9442C26.0773 32.9442 26.0773 32.9442 26.1717 32.9442C25.9828 31.9056 25.794 30.8669 25.5107 29.9227C25.8884 30.3004 26.2661 30.5837 26.6438 30.9614C26.6438 30.867 26.6438 30.867 26.6438 30.7725C26.5494 30.3004 26.4549 29.8283 26.3605 29.3562C26.2661 28.9785 26.1717 28.6009 26.0773 28.2232C25.9828 27.7511 25.8884 27.3734 25.794 26.9013C25.6996 26.5236 25.6051 26.1459 25.6051 25.8627C25.6051 25.6738 25.5107 25.5794 25.6051 25.3906C25.9828 24.824 26.3605 24.3519 26.7382 23.7854C26.8326 23.691 26.8326 23.691 26.8326 23.691L26.927 23.7854C27.1159 24.0687 27.3047 24.2575 27.4936 24.5408C27.9657 25.0129 28.9099 26.1459 29.0043 26.1459C29.0987 26.2403 29.0987 26.2403 29.1931 26.2403L29.2876 26.3348C29.7597 25.3906 30.1373 24.5408 30.3262 23.5021C30.4206 23.691 30.515 23.7854 30.6094 23.8798C30.9871 24.3519 31.3648 24.7296 31.7425 25.2017C32.1202 25.5794 32.4979 25.9571 32.97 26.3348C32.97 26.3348 33.0644 26.3348 33.0644 26.4292L33.1588 26.5236C33.1588 26.3348 33.1588 23.7854 33.1588 23.5966V23.5021C33.2532 23.5021 33.3476 23.5966 33.3476 23.5966C33.9142 23.9742 35.0472 24.6352 35.0472 24.7296C35.6137 25.0129 36.0858 25.3906 36.2747 25.485C36.4635 25.5794 36.7468 25.7682 37.03 25.8627C37.2189 25.9571 37.2189 25.9571 37.2189 25.7682C37.2189 25.485 37.2189 25.2017 37.2189 24.9185C37.1245 24.4464 37.03 24.0687 36.9356 23.5966C36.8412 23.2189 36.5579 22.9356 36.3691 22.6524V22.5579L36.4635 22.4635C36.8412 22.4635 37.1245 22.5579 37.5021 22.5579C38.1631 22.5579 38.9185 22.5579 39.5794 22.5579C39.6738 22.5579 39.6738 22.5579 39.7682 22.4635C39.6738 22.3691 39.6738 22.3691 39.6738 22.2747C39.2961 21.897 38.824 21.6137 38.4464 21.2361C38.0687 20.9528 37.691 20.7639 37.4077 20.5751L37.3133 20.4807L37.4077 20.3863C37.5021 20.3863 37.5966 20.3863 37.691 20.3863C38.1631 20.2918 38.5408 20.2918 39.0129 20.1974C39.3906 20.103 39.7682 20.103 40.1459 20.0086C40.4292 19.9142 40.8069 19.8197 41.0901 19.7253L42.9785 19.1588C43.6395 18.97 44.3004 18.6867 44.9614 18.4034C45.0558 18.4034 45.2446 18.2146 45.3391 18.0257C44.867 17.8369 44.3948 17.7425 44.0172 17.5536C43.4506 17.5536 43.073 17.4592 42.7897 17.3648ZM24.3777 13.3047C24.4721 13.0215 24.4721 12.6438 24.5665 12.3605C24.5665 12.0773 24.6609 11.794 24.6609 11.5107C24.6609 11.5107 24.6609 11.4163 24.7554 11.4163L24.8498 11.5107C24.9442 11.6996 25.0386 11.8884 25.133 11.9828C25.3219 12.3605 25.2275 12.7382 25.0386 13.0215C24.9442 13.2103 24.7554 13.3047 24.6609 13.4936C24.6609 13.4936 24.6609 13.4936 24.5665 13.4936C24.3777 13.3991 24.3777 13.3991 24.3777 13.3047ZM23.5279 13.3991C23.4335 13.2103 23.2446 13.1159 23.1502 12.927C22.867 12.6438 22.867 12.2661 23.0558 11.8884C23.1502 11.6996 23.2446 11.5107 23.3391 11.4163C23.3391 11.4163 23.3391 11.3219 23.4335 11.3219C23.4335 11.3219 23.4335 11.4163 23.5279 11.4163C23.5279 11.6996 23.6223 11.9828 23.6223 12.2661C23.6223 12.5494 23.7167 12.927 23.8112 13.2103C23.6223 13.3991 23.6223 13.3991 23.5279 13.3991C23.5279 13.4936 23.5279 13.4936 23.5279 13.3991Z" fill="#DD856C"/>
<path d="M42.7897 17.3648C42.7897 17.3648 40.9957 17.176 40.8069 17.176C40.7124 17.176 40.618 17.176 40.4292 17.176C40.4292 17.176 40.3348 17.176 40.3348 17.0815C40.618 16.8927 40.8069 16.7983 40.9957 16.6094C41.0901 16.6094 41.0901 16.515 41.1845 16.515L42.412 15.6652C42.6953 15.4764 42.9785 15.2876 43.2618 15.0987C43.6395 14.8154 44.1116 14.4378 44.4893 14.0601C44.7725 13.7768 45.0558 13.588 45.2446 13.3047L46 12.3605L45.1502 12.4549C45.1502 12.4549 45.1502 12.4549 45.0558 12.4549C44.5837 12.5494 44.1116 12.5494 43.7339 12.6438L42.3176 13.0215C42.2232 13.0215 42.2232 13.0215 42.1288 13.0215C42.1288 13.0215 40.5236 13.3047 40.0515 13.3047C39.3906 13.3991 38.7296 13.588 37.9742 13.6824C37.691 13.7768 37.4077 13.7768 37.1245 13.7768C36.8412 13.8712 36.4635 13.8712 36.1803 13.9657C35.897 14.0601 35.6137 14.0601 35.4249 14.0601H35.3305C35.2361 14.0601 35.1416 14.0601 35.1416 14.0601C35.1416 13.9657 35.7082 13.2103 35.7082 13.2103C35.8026 13.1159 35.897 13.0215 35.9914 12.8326C35.6137 13.0215 28.0601 14.8155 27.7768 14.9099C27.6824 14.9099 27.588 14.9099 27.588 14.9099C27.3991 14.9099 27.2103 14.8154 27.1159 14.6266C26.927 14.4378 26.6438 14.2489 26.4549 14.0601C26.2661 13.8712 26.0773 13.7768 25.9828 13.588C25.8884 13.4936 25.8884 13.3991 25.9828 13.3047C26.0773 13.0215 26.0773 12.8326 25.9828 12.5494C25.8884 12.1717 25.6996 11.8884 25.5107 11.6051C25.3219 11.2275 25.0386 10.9442 24.8498 10.6609C24.4721 10.5665 24.1888 10.1888 24.0944 10.0944C24.0944 10.0944 24.0944 10 24 10L23.9056 10.0944C23.7167 10.2833 23.5279 10.6609 23.3391 10.8498C23.1502 11.133 22.867 11.5107 22.6781 11.794C22.4893 12.0773 22.206 12.3605 22.206 12.7382C22.206 13.0215 22.1116 13.2103 22.206 13.4936C22.206 13.588 22.206 13.6824 22.206 13.7768C22.1116 13.9657 21.9227 14.0601 21.7339 14.2489C21.5451 14.4378 21.2618 14.6266 21.073 14.8154C20.8841 15.0043 20.7897 15.0043 20.6009 15.0987C20.5064 15.0987 20.412 15.0987 20.412 15.0987C20.1288 15.0987 12.5751 13.2103 12.1974 13.0215C12.2918 13.1159 12.3863 13.3047 12.4807 13.3991C12.4807 13.4936 13.0472 14.1545 13.0472 14.2489C12.9528 14.2489 12.8584 14.2489 12.8584 14.2489H12.7639C12.4807 14.2489 12.1974 14.1545 12.0086 14.1545C11.7253 14.0601 11.3476 14.0601 11.0644 13.9657C10.7811 13.8712 10.4979 13.8712 10.2146 13.8712C9.55365 13.7768 8.8927 13.588 8.13734 13.4936C7.47639 13.3047 5.87124 13.0215 5.87124 13.0215C5.77682 13.0215 5.77682 13.0215 5.6824 13.0215L4.26609 12.8326C3.79399 12.7382 3.32189 12.6438 2.94421 12.6438C2.94421 12.6438 2.94421 12.6438 2.84979 12.6438L2 12.5494L2.75536 13.4936C3.13305 13.6824 3.32189 13.9657 3.60515 14.1545C3.98283 14.5322 4.36051 14.8155 4.83262 15.1931C5.11588 15.382 5.39914 15.5708 5.6824 15.7597L6.90987 16.6094C7.00429 16.6094 7.00429 16.7039 7.09871 16.7039C7.28755 16.7983 7.57081 16.9871 7.75966 17.176C7.66524 17.176 7.66524 17.2704 7.66524 17.2704C7.57082 17.2704 7.47639 17.2704 7.28755 17.2704C7.09871 17.2704 5.30472 17.4592 5.30472 17.4592C4.92704 17.5536 4.54936 17.6481 4.17167 17.7425C3.69957 17.7425 3.32189 17.9313 2.84979 18.0257C2.94421 18.1202 3.13305 18.309 3.22747 18.4034C3.88841 18.6867 4.54936 18.8755 5.2103 19.1588L7.09871 19.6309C7.38197 19.7253 7.75966 19.8197 8.04292 19.9142C8.4206 20.0086 8.79828 20.0086 9.17597 20.103C9.64807 20.1974 10.0258 20.2918 10.4979 20.2918C10.5923 20.2918 10.6867 20.2918 10.7811 20.2918C10.8755 20.2918 10.8755 20.3863 10.8755 20.3863L10.7811 20.4807C10.4034 20.6695 10.0258 20.8584 9.74249 21.1416C9.27039 21.4249 8.8927 21.8026 8.51502 22.1803C8.51502 22.1803 8.4206 22.2747 8.4206 22.3691C8.51502 22.3691 8.60944 22.4635 8.60944 22.4635C9.27039 22.4635 10.0258 22.4635 10.6867 22.4635C11.0644 22.4635 11.3476 22.3691 11.7253 22.3691C11.7253 22.3691 11.8197 22.3691 11.8197 22.4635V22.5579C11.6309 22.8412 11.3476 23.2189 11.2532 23.5021C11.0644 23.8798 11.0644 24.3519 10.97 24.824C10.97 25.1073 10.97 25.3906 10.97 25.6738C10.97 25.8627 10.97 25.8627 11.1588 25.7682C11.4421 25.6738 11.6309 25.5794 11.9142 25.3906C12.103 25.2961 12.6695 25.0129 13.1416 24.6352H13.2361C13.8026 24.2575 14.2747 23.9742 14.8412 23.5966C14.9356 23.5966 14.9356 23.5021 15.03 23.5021V23.5966C15.03 23.7854 15.03 26.3348 15.03 26.5236C15.03 26.5236 15.03 26.5236 15.1245 26.4292C15.1245 26.4292 15.2189 26.4292 15.2189 26.3348C15.5966 25.9571 16.0687 25.5794 16.4464 25.2017C16.824 24.824 17.2017 24.3519 17.5794 23.8798C17.6738 23.7854 17.7682 23.5966 17.8627 23.5021C18.0515 24.5408 18.3348 25.3906 18.9013 26.3348L18.9957 26.2403C18.9957 26.2403 19.0901 26.2403 19.1845 26.1459C19.1845 26.1459 20.2232 25.0129 20.6953 24.5408C20.8841 24.3519 21.073 24.0687 21.2618 23.7854C21.2618 23.691 21.3562 23.691 21.3562 23.691C21.3562 23.691 21.4506 23.691 21.4506 23.7854C21.8283 24.3519 22.206 24.824 22.5837 25.3906C22.6781 25.5794 22.6781 25.6738 22.5837 25.8627C22.4893 26.2403 22.3948 26.618 22.3948 26.9013C22.3004 27.3734 22.206 27.7511 22.1116 28.2232C22.0172 28.6009 21.9227 28.9785 21.8283 29.3562C21.7339 29.8283 21.6395 30.3004 21.5451 30.7725C21.5451 30.7725 21.5451 30.867 21.5451 30.9614C21.9227 30.5837 22.3004 30.3004 22.6781 29.9227C22.4893 30.9614 22.3004 32 22.0172 32.9442C22.0172 32.9442 22.0172 32.9442 22.1116 32.9442C22.1116 32.9442 22.1116 32.9442 22.206 32.9442C22.5837 32.3777 22.9614 31.9056 23.4335 31.3391C23.4335 31.4335 23.5279 31.4335 23.5279 31.5279C23.6223 32.3777 23.6223 33.3219 23.7167 34.1717C23.8112 35.3991 23.9056 36.721 24 37.9485C24 38.1373 24 38.4206 24.0944 38.6094C24.0944 38.515 24.0944 38.515 24.0944 38.4206C24.0944 38.515 24.0944 38.515 24.0944 38.6094C24.0944 38.4206 24.1888 38.1373 24.1888 37.9485C24.2833 36.721 24.3777 35.3991 24.4721 34.1717C24.5665 33.3219 24.5665 32.3777 24.6609 31.5279C24.6609 31.4335 24.6609 31.4335 24.7554 31.3391C25.133 31.9056 25.5107 32.3777 25.9828 32.9442C25.9828 32.9442 25.9828 32.9442 26.0773 32.9442C26.0773 32.9442 26.0773 32.9442 26.1717 32.9442C25.9828 31.9056 25.794 30.8669 25.5107 29.9227C25.8884 30.3004 26.2661 30.5837 26.6438 30.9614C26.6438 30.867 26.6438 30.867 26.6438 30.7725C26.5494 30.3004 26.4549 29.8283 26.3605 29.3562C26.2661 28.9785 26.1717 28.6009 26.0773 28.2232C25.9828 27.7511 25.8884 27.3734 25.794 26.9013C25.6996 26.5236 25.6051 26.1459 25.6051 25.8627C25.6051 25.6738 25.5107 25.5794 25.6051 25.3906C25.9828 24.824 26.3605 24.3519 26.7382 23.7854C26.8326 23.691 26.8326 23.691 26.8326 23.691L26.927 23.7854C27.1159 24.0687 27.3047 24.2575 27.4936 24.5408C27.9657 25.0129 28.9099 26.1459 29.0043 26.1459C29.0987 26.2403 29.0987 26.2403 29.1931 26.2403L29.2876 26.3348C29.7597 25.3906 30.1373 24.5408 30.3262 23.5021C30.4206 23.691 30.515 23.7854 30.6094 23.8798C30.9871 24.3519 31.3648 24.7296 31.7425 25.2017C32.1202 25.5794 32.4979 25.9571 32.97 26.3348C32.97 26.3348 33.0644 26.3348 33.0644 26.4292L33.1588 26.5236C33.1588 26.3348 33.1588 23.7854 33.1588 23.5966V23.5021C33.2532 23.5021 33.3476 23.5966 33.3476 23.5966C33.9142 23.9742 35.0472 24.6352 35.0472 24.7296C35.6137 25.0129 36.0858 25.3906 36.2747 25.485C36.4635 25.5794 36.7468 25.7682 37.03 25.8627C37.2189 25.9571 37.2189 25.9571 37.2189 25.7682C37.2189 25.485 37.2189 25.2017 37.2189 24.9185C37.1245 24.4464 37.03 24.0687 36.9356 23.5966C36.8412 23.2189 36.5579 22.9356 36.3691 22.6524V22.5579L36.4635 22.4635C36.8412 22.4635 37.1245 22.5579 37.5021 22.5579C38.1631 22.5579 38.9185 22.5579 39.5794 22.5579C39.6738 22.5579 39.6738 22.5579 39.7682 22.4635C39.6738 22.3691 39.6738 22.3691 39.6738 22.2747C39.2961 21.897 38.824 21.6137 38.4464 21.2361C38.0687 20.9528 37.691 20.7639 37.4077 20.5751L37.3133 20.4807L37.4077 20.3863C37.5021 20.3863 37.5966 20.3863 37.691 20.3863C38.1631 20.2918 38.5408 20.2918 39.0129 20.1974C39.3906 20.103 39.7682 20.103 40.1459 20.0086C40.4292 19.9142 40.8069 19.8197 41.0901 19.7253L42.9785 19.1588C43.6395 18.97 44.3004 18.6867 44.9614 18.4034C45.0558 18.4034 45.2446 18.2146 45.3391 18.0257C44.867 17.8369 44.3948 17.7425 44.0172 17.5536C43.4506 17.5536 43.073 17.4592 42.7897 17.3648ZM24.3777 13.3047C24.4721 13.0215 24.4721 12.6438 24.5665 12.3605C24.5665 12.0773 24.6609 11.794 24.6609 11.5107C24.6609 11.5107 24.6609 11.4163 24.7554 11.4163L24.8498 11.5107C24.9442 11.6996 25.0386 11.8884 25.133 11.9828C25.3219 12.3605 25.2275 12.7382 25.0386 13.0215C24.9442 13.2103 24.7554 13.3047 24.6609 13.4936C24.6609 13.4936 24.6609 13.4936 24.5665 13.4936C24.3777 13.3991 24.3777 13.3991 24.3777 13.3047ZM23.5279 13.3991C23.4335 13.2103 23.2446 13.1159 23.1502 12.927C22.867 12.6438 22.867 12.2661 23.0558 11.8884C23.1502 11.6996 23.2446 11.5107 23.3391 11.4163C23.3391 11.4163 23.3391 11.3219 23.4335 11.3219C23.4335 11.3219 23.4335 11.4163 23.5279 11.4163C23.5279 11.6996 23.6223 11.9828 23.6223 12.2661C23.6223 12.5494 23.7167 12.927 23.8112 13.2103C23.6223 13.3991 23.6223 13.3991 23.5279 13.3991C23.5279 13.4936 23.5279 13.4936 23.5279 13.3991Z" fill="black"/>
</svg>
