<svg width="48" height="48" viewBox="0 0 48 48" fill="none" xmlns="http://www.w3.org/2000/svg">
<path d="M23.9 7.79361C24.8 7.89361 25.8 7.99361 26.7 8.09361C27.4 8.19361 28.1 8.39361 28.8 8.49361C29 8.49361 29.1 8.69361 29 8.89361C28.9 9.39361 28.8 9.79361 28.7 10.2936C28.7 10.3936 28.7 10.3936 28.7 10.4936C28.7 10.5936 28.7 10.6936 28.7 10.6936C28.8 10.6936 28.9 10.6936 28.9 10.5936C29.6 9.99361 30.4 9.39361 31.1 8.79361C32.2 7.89361 33.3 6.99361 34.4 6.09361C35.3 5.39361 36.2 4.59361 37.1 3.89361C37.5 3.59361 37.8 3.19361 38.4 3.09361C39 2.99361 39.5 3.19361 39.6 3.79361C39.7 4.59361 39.6 5.39361 39.5 6.09361C39.4 6.69361 39.3 7.29361 39.2 7.99361C39 9.19361 38.8 10.3936 38.7 11.5936C38.6 12.3936 38.5 13.2936 38.3 14.0936C38.2 14.8936 38.1 15.6936 38 16.3936C38 16.5936 38 16.7936 38.1 16.9936C38.4 17.6936 38.6 18.4936 38.9 19.1936C39 19.4936 39.1 19.7936 38.8 20.0936C38.3 20.5936 38 21.2936 37.7 21.8936C37.4 22.4936 37.3 23.1936 37.1 23.8936C36.9 24.5936 36.8 25.2936 36.7 25.8936C36.7 25.9936 36.7 26.0936 36.7 26.1936C36.6 27.9936 35.8 29.4936 34.3 30.4936C33.2 31.1936 32.2 31.8936 31.2 32.7936C29.6 34.1936 28.3 35.7936 27.6 37.8936C27.4 38.4936 27.3 39.0936 27.2 39.5936C26.9 40.7936 26.6 41.8936 25.9 42.8936C25.6 43.3936 25.2 43.7936 24.7 43.9936C23.8 44.3936 23.1 44.1936 22.4 43.5936C21.7 42.9936 21.3 42.1936 21.1 41.3936C20.8 40.3936 20.5 39.3936 20.3 38.3936C20.1 37.5936 19.8 36.9936 19.4 36.2936C18.9 35.3936 18.2 34.4936 17.5 33.6936C16.9 32.9936 16.2 32.4936 15.4 31.8936C14.6 31.2936 13.7 30.7936 13 30.1936C12.2 29.4936 11.6 28.6936 11.3 27.6936C11.1 26.9936 11.1 26.1936 10.9 25.4936C10.7 24.5936 10.6 23.6936 10.3 22.8936C10.1 22.0936 9.7 21.3936 9.3 20.6936C9.2 20.3936 8.9 20.1936 8.7 19.9936C8.6 19.8936 8.5 19.7936 8.6 19.5936C8.9 18.7936 9.2 17.9936 9.5 17.1936C9.6 16.8936 9.7 16.5936 9.6 16.1936C9.5 15.7936 9.5 15.3936 9.4 14.9936C9.2 13.9936 9.1 12.8936 8.9 11.8936C8.8 11.3936 8.8 10.7936 8.7 10.2936C8.6 9.29361 8.5 8.29361 8.3 7.19361C8.2 6.69361 8.2 6.29361 8.1 5.89361C8.1 5.29361 8 4.79361 8 4.29361C8 4.09361 8.1 3.79361 8.2 3.59361C8.4 2.99361 8.8 2.89361 9.4 3.09361C10 3.29361 10.5 3.79361 11 4.19361C11.8 4.79361 12.6 5.49361 13.3 6.09361C14 6.69361 14.7 7.29361 15.4 7.89361C16.5 8.79361 17.5 9.59361 18.6 10.4936C18.7 10.4936 18.7 10.5936 18.8 10.5936C18.8 10.4936 18.8 10.4936 18.8 10.3936C18.7 9.89361 18.6 9.39361 18.5 8.89361C18.4 8.59361 18.5 8.39361 18.8 8.39361C20 8.19361 21.2 7.99361 22.4 7.89361C22.9 7.89361 23.4 7.89361 23.9 7.79361ZM30 19.9936H29.9C29.9 20.0936 29.8 20.2936 29.8 20.3936C29.7 20.6936 29.7 20.9936 29.6 21.1936C29.4 21.9936 29.3 22.6936 29.1 23.4936C28.9 24.5936 28.6 25.5936 28.2 26.5936C27.7 27.5936 27.2 28.5936 26.7 29.4936C26 30.8936 25.4 32.3936 25.1 33.8936C24.9 34.7936 24.8 35.7936 24.7 36.6936C24.6 37.1936 24.6 37.6936 24.6 38.1936C24.6 38.3936 24.7 38.4936 24.9 38.4936C25.1 38.4936 25.2 38.3936 25.2 38.1936C25.4 37.2936 25.6 36.3936 25.9 35.4936C26.2 34.5936 26.5 33.7936 26.9 32.9936C27.3 32.1936 27.9 31.4936 28.4 30.7936C29.5 29.1936 30.6 27.6936 32.1 26.4936C33 25.6936 33.5 24.7936 33.7 23.5936C33.8 23.0936 33.8 22.5936 34 22.1936C34.2 21.6936 34.4 21.0936 34.8 20.5936C35 20.2936 35.2 19.9936 35.2 19.5936C35.3 19.0936 35.3 18.6936 35.4 18.1936C35.6 17.2936 35.7 16.2936 35.9 15.3936C35.9 15.2936 35.9 15.1936 35.8 14.9936C35.7 15.1936 35.6 15.2936 35.5 15.3936C34.9 16.2936 34.3 17.1936 33.7 18.0936C33.2 18.7936 32.8 19.4936 32.5 20.1936C32 21.1936 31.8 22.1936 31.6 23.2936C31.5 23.6936 31.3 24.1936 30.8 24.2936C30.8 24.2936 30.8 24.2936 30.7 24.3936C30.6 24.4936 30.6 24.4936 30.5 24.5936C30.5 24.4936 30.4 24.3936 30.4 24.3936C30.4 23.9936 30.3 23.6936 30.3 23.2936C30.2 22.3936 30.2 21.5936 30.1 20.6936C30.1 20.5936 30.1 20.2936 30 19.9936ZM17.7 19.8936H17.6C17.6 19.9936 17.5 20.0936 17.5 20.1936C17.5 20.4936 17.5 20.7936 17.5 21.1936C17.4 21.9936 17.4 22.6936 17.3 23.4936C17.3 23.8936 17.3 24.1936 17.2 24.5936C17.2 24.7936 17.1 24.8936 16.9 24.7936C16.4 24.4936 16.1 24.0936 15.9 23.4936C15.8 22.8936 15.8 22.2936 15.6 21.6936C15.4 20.9936 15.1 20.2936 14.8 19.6936C13.9 18.2936 13 16.8936 12 15.4936C12 15.3936 11.9 15.3936 11.8 15.2936C11.8 15.4936 11.8 15.4936 11.8 15.5936C11.9 16.1936 12 16.8936 12.1 17.4936C12.2 18.0936 12.3 18.5936 12.4 19.1936C12.5 19.5936 12.5 20.0936 12.8 20.3936C13.3 21.0936 13.6 21.7936 13.8 22.5936C14 23.1936 14 23.8936 14.2 24.4936C14.5 25.4936 15.1 26.1936 15.9 26.7936C16.5 27.2936 17.1 27.8936 17.6 28.4936C18.2 29.2936 18.8 30.0936 19.4 30.8936C20.5 32.2936 21.3 33.6936 21.8 35.3936C22.1 36.2936 22.3 37.1936 22.5 38.1936C22.6 38.3936 22.6 38.5936 22.9 38.5936C23.2 38.5936 23.3 38.3936 23.2 38.0936C23.2 37.5936 23.2 37.0936 23.1 36.6936C22.9 35.4936 22.7 34.2936 22.4 33.1936C22.1 31.8936 21.6 30.5936 20.9 29.3936C20.5 28.6936 20.1 27.8936 19.7 27.1936C19.2 26.0936 18.8 24.9936 18.6 23.7936C18.4 22.5936 18.1 21.3936 17.9 20.1936C17.8 20.0936 17.8 19.9936 17.7 19.8936ZM33.2 10.6936C33.3 10.9936 33.3 11.2936 33.4 11.5936C33.8 12.2936 34.3 12.9936 34.8 13.7936C34.8 13.7936 34.9 13.8936 35 13.8936C35.1 13.8936 35.1 13.7936 35.1 13.6936C35.2 13.3936 35.2 13.1936 35.2 12.8936C35.3 11.7936 36.2 10.6936 37.4 10.6936C37.6 10.6936 37.6 10.5936 37.7 10.3936C37.8 9.69361 37.9 8.89361 38 8.19361C38.1 7.19361 38.2 6.19361 38.3 5.19361C38.3 5.09361 38.3 4.99361 38.2 4.99361C38.1 4.99361 38 5.09361 38 5.09361C37.5 5.69361 36.9 6.29361 36.4 6.79361C35.5 7.79361 34.6 8.69361 33.7 9.69361C33.4 9.89361 33.3 10.1936 33.2 10.6936ZM12.6 13.7936H12.7C12.7 13.6936 12.8 13.6936 12.8 13.5936C13.2 12.9936 13.6 12.3936 14 11.7936C14.5 11.1936 14.4 10.1936 13.9 9.59361C13.1 8.69361 12.3 7.89361 11.5 6.99361C10.8 6.29361 10.2 5.59361 9.5 4.89361C9.6 4.89361 9.5 4.79361 9.4 4.79361C9.4 4.89361 9.3 4.99361 9.3 5.09361C9.3 5.49361 9.4 5.89361 9.4 6.29361C9.6 7.59361 9.7 8.99361 9.9 10.2936C9.9 10.4936 10 10.5936 10.3 10.5936C10.9 10.5936 11.3 10.8936 11.7 11.2936C12.1 11.6936 12.3 12.1936 12.4 12.6936C12.4 13.0936 12.5 13.3936 12.6 13.7936Z" fill="#DD856C"/>
<path d="M23.9 7.79361C24.8 7.89361 25.8 7.99361 26.7 8.09361C27.4 8.19361 28.1 8.39361 28.8 8.49361C29 8.49361 29.1 8.69361 29 8.89361C28.9 9.39361 28.8 9.79361 28.7 10.2936C28.7 10.3936 28.7 10.3936 28.7 10.4936C28.7 10.5936 28.7 10.6936 28.7 10.6936C28.8 10.6936 28.9 10.6936 28.9 10.5936C29.6 9.99361 30.4 9.39361 31.1 8.79361C32.2 7.89361 33.3 6.99361 34.4 6.09361C35.3 5.39361 36.2 4.59361 37.1 3.89361C37.5 3.59361 37.8 3.19361 38.4 3.09361C39 2.99361 39.5 3.19361 39.6 3.79361C39.7 4.59361 39.6 5.39361 39.5 6.09361C39.4 6.69361 39.3 7.29361 39.2 7.99361C39 9.19361 38.8 10.3936 38.7 11.5936C38.6 12.3936 38.5 13.2936 38.3 14.0936C38.2 14.8936 38.1 15.6936 38 16.3936C38 16.5936 38 16.7936 38.1 16.9936C38.4 17.6936 38.6 18.4936 38.9 19.1936C39 19.4936 39.1 19.7936 38.8 20.0936C38.3 20.5936 38 21.2936 37.7 21.8936C37.4 22.4936 37.3 23.1936 37.1 23.8936C36.9 24.5936 36.8 25.2936 36.7 25.8936C36.7 25.9936 36.7 26.0936 36.7 26.1936C36.6 27.9936 35.8 29.4936 34.3 30.4936C33.2 31.1936 32.2 31.8936 31.2 32.7936C29.6 34.1936 28.3 35.7936 27.6 37.8936C27.4 38.4936 27.3 39.0936 27.2 39.5936C26.9 40.7936 26.6 41.8936 25.9 42.8936C25.6 43.3936 25.2 43.7936 24.7 43.9936C23.8 44.3936 23.1 44.1936 22.4 43.5936C21.7 42.9936 21.3 42.1936 21.1 41.3936C20.8 40.3936 20.5 39.3936 20.3 38.3936C20.1 37.5936 19.8 36.9936 19.4 36.2936C18.9 35.3936 18.2 34.4936 17.5 33.6936C16.9 32.9936 16.2 32.4936 15.4 31.8936C14.6 31.2936 13.7 30.7936 13 30.1936C12.2 29.4936 11.6 28.6936 11.3 27.6936C11.1 26.9936 11.1 26.1936 10.9 25.4936C10.7 24.5936 10.6 23.6936 10.3 22.8936C10.1 22.0936 9.7 21.3936 9.3 20.6936C9.2 20.3936 8.9 20.1936 8.7 19.9936C8.6 19.8936 8.5 19.7936 8.6 19.5936C8.9 18.7936 9.2 17.9936 9.5 17.1936C9.6 16.8936 9.7 16.5936 9.6 16.1936C9.5 15.7936 9.5 15.3936 9.4 14.9936C9.2 13.9936 9.1 12.8936 8.9 11.8936C8.8 11.3936 8.8 10.7936 8.7 10.2936C8.6 9.29361 8.5 8.29361 8.3 7.19361C8.2 6.69361 8.2 6.29361 8.1 5.89361C8.1 5.29361 8 4.79361 8 4.29361C8 4.09361 8.1 3.79361 8.2 3.59361C8.4 2.99361 8.8 2.89361 9.4 3.09361C10 3.29361 10.5 3.79361 11 4.19361C11.8 4.79361 12.6 5.49361 13.3 6.09361C14 6.69361 14.7 7.29361 15.4 7.89361C16.5 8.79361 17.5 9.59361 18.6 10.4936C18.7 10.4936 18.7 10.5936 18.8 10.5936C18.8 10.4936 18.8 10.4936 18.8 10.3936C18.7 9.89361 18.6 9.39361 18.5 8.89361C18.4 8.59361 18.5 8.39361 18.8 8.39361C20 8.19361 21.2 7.99361 22.4 7.89361C22.9 7.89361 23.4 7.89361 23.9 7.79361ZM30 19.9936H29.9C29.9 20.0936 29.8 20.2936 29.8 20.3936C29.7 20.6936 29.7 20.9936 29.6 21.1936C29.4 21.9936 29.3 22.6936 29.1 23.4936C28.9 24.5936 28.6 25.5936 28.2 26.5936C27.7 27.5936 27.2 28.5936 26.7 29.4936C26 30.8936 25.4 32.3936 25.1 33.8936C24.9 34.7936 24.8 35.7936 24.7 36.6936C24.6 37.1936 24.6 37.6936 24.6 38.1936C24.6 38.3936 24.7 38.4936 24.9 38.4936C25.1 38.4936 25.2 38.3936 25.2 38.1936C25.4 37.2936 25.6 36.3936 25.9 35.4936C26.2 34.5936 26.5 33.7936 26.9 32.9936C27.3 32.1936 27.9 31.4936 28.4 30.7936C29.5 29.1936 30.6 27.6936 32.1 26.4936C33 25.6936 33.5 24.7936 33.7 23.5936C33.8 23.0936 33.8 22.5936 34 22.1936C34.2 21.6936 34.4 21.0936 34.8 20.5936C35 20.2936 35.2 19.9936 35.2 19.5936C35.3 19.0936 35.3 18.6936 35.4 18.1936C35.6 17.2936 35.7 16.2936 35.9 15.3936C35.9 15.2936 35.9 15.1936 35.8 14.9936C35.7 15.1936 35.6 15.2936 35.5 15.3936C34.9 16.2936 34.3 17.1936 33.7 18.0936C33.2 18.7936 32.8 19.4936 32.5 20.1936C32 21.1936 31.8 22.1936 31.6 23.2936C31.5 23.6936 31.3 24.1936 30.8 24.2936C30.8 24.2936 30.8 24.2936 30.7 24.3936C30.6 24.4936 30.6 24.4936 30.5 24.5936C30.5 24.4936 30.4 24.3936 30.4 24.3936C30.4 23.9936 30.3 23.6936 30.3 23.2936C30.2 22.3936 30.2 21.5936 30.1 20.6936C30.1 20.5936 30.1 20.2936 30 19.9936ZM17.7 19.8936H17.6C17.6 19.9936 17.5 20.0936 17.5 20.1936C17.5 20.4936 17.5 20.7936 17.5 21.1936C17.4 21.9936 17.4 22.6936 17.3 23.4936C17.3 23.8936 17.3 24.1936 17.2 24.5936C17.2 24.7936 17.1 24.8936 16.9 24.7936C16.4 24.4936 16.1 24.0936 15.9 23.4936C15.8 22.8936 15.8 22.2936 15.6 21.6936C15.4 20.9936 15.1 20.2936 14.8 19.6936C13.9 18.2936 13 16.8936 12 15.4936C12 15.3936 11.9 15.3936 11.8 15.2936C11.8 15.4936 11.8 15.4936 11.8 15.5936C11.9 16.1936 12 16.8936 12.1 17.4936C12.2 18.0936 12.3 18.5936 12.4 19.1936C12.5 19.5936 12.5 20.0936 12.8 20.3936C13.3 21.0936 13.6 21.7936 13.8 22.5936C14 23.1936 14 23.8936 14.2 24.4936C14.5 25.4936 15.1 26.1936 15.9 26.7936C16.5 27.2936 17.1 27.8936 17.6 28.4936C18.2 29.2936 18.8 30.0936 19.4 30.8936C20.5 32.2936 21.3 33.6936 21.8 35.3936C22.1 36.2936 22.3 37.1936 22.5 38.1936C22.6 38.3936 22.6 38.5936 22.9 38.5936C23.2 38.5936 23.3 38.3936 23.2 38.0936C23.2 37.5936 23.2 37.0936 23.1 36.6936C22.9 35.4936 22.7 34.2936 22.4 33.1936C22.1 31.8936 21.6 30.5936 20.9 29.3936C20.5 28.6936 20.1 27.8936 19.7 27.1936C19.2 26.0936 18.8 24.9936 18.6 23.7936C18.4 22.5936 18.1 21.3936 17.9 20.1936C17.8 20.0936 17.8 19.9936 17.7 19.8936ZM33.2 10.6936C33.3 10.9936 33.3 11.2936 33.4 11.5936C33.8 12.2936 34.3 12.9936 34.8 13.7936C34.8 13.7936 34.9 13.8936 35 13.8936C35.1 13.8936 35.1 13.7936 35.1 13.6936C35.2 13.3936 35.2 13.1936 35.2 12.8936C35.3 11.7936 36.2 10.6936 37.4 10.6936C37.6 10.6936 37.6 10.5936 37.7 10.3936C37.8 9.69361 37.9 8.89361 38 8.19361C38.1 7.19361 38.2 6.19361 38.3 5.19361C38.3 5.09361 38.3 4.99361 38.2 4.99361C38.1 4.99361 38 5.09361 38 5.09361C37.5 5.69361 36.9 6.29361 36.4 6.79361C35.5 7.79361 34.6 8.69361 33.7 9.69361C33.4 9.89361 33.3 10.1936 33.2 10.6936ZM12.6 13.7936H12.7C12.7 13.6936 12.8 13.6936 12.8 13.5936C13.2 12.9936 13.6 12.3936 14 11.7936C14.5 11.1936 14.4 10.1936 13.9 9.59361C13.1 8.69361 12.3 7.89361 11.5 6.99361C10.8 6.29361 10.2 5.59361 9.5 4.89361C9.6 4.89361 9.5 4.79361 9.4 4.79361C9.4 4.89361 9.3 4.99361 9.3 5.09361C9.3 5.49361 9.4 5.89361 9.4 6.29361C9.6 7.59361 9.7 8.99361 9.9 10.2936C9.9 10.4936 10 10.5936 10.3 10.5936C10.9 10.5936 11.3 10.8936 11.7 11.2936C12.1 11.6936 12.3 12.1936 12.4 12.6936C12.4 13.0936 12.5 13.3936 12.6 13.7936Z" fill="black"/>
</svg>
