<svg width="48" height="48" viewBox="0 0 48 48" fill="none" xmlns="http://www.w3.org/2000/svg">
<path d="M26.3712 5.47156C26.8492 5.56717 27.3273 5.56717 27.8053 5.66277C28.5701 5.75838 29.3349 5.94959 30.0998 6.2364C30.1954 6.332 31.0558 6.61881 31.247 6.71442C32.0118 7.19244 32.8723 7.76606 33.6371 8.24408C34.3063 8.7221 34.9756 9.20012 35.6448 9.67814C36.2184 10.0606 36.6964 10.5386 37.2701 10.921C38.2261 11.5902 39.1821 12.8331 39.7558 13.8847C40.2338 14.7451 40.5206 15.6056 40.903 16.466C41.1898 17.4221 41.4766 18.2825 41.8591 19.2385C41.9547 19.5253 42.0503 19.8122 42.1459 20.099C42.3371 20.6726 42.4327 21.2462 42.6239 21.7242C42.7195 21.9154 42.8151 22.011 43.0063 21.9154C43.2931 21.8198 43.4843 21.6286 43.6755 21.533C43.7711 21.4374 43.8667 21.3418 43.8667 21.2462C43.7711 20.7682 43.6755 20.3858 43.5799 19.9078C43.3887 19.0473 43.1975 18.1869 42.9107 17.3265C42.6239 16.466 42.2415 15.6056 41.8591 14.7451C41.381 13.8847 40.903 13.0243 40.3294 12.2594C39.6602 11.2078 38.7997 10.2518 37.8437 9.39133C37.1745 8.8177 36.6008 8.24408 35.836 7.76606C34.9756 7.19244 34.1151 6.61881 33.1591 6.04519C32.5855 5.66277 31.9162 5.37596 31.247 5.18475C30.5778 4.89794 29.9086 4.70673 29.2393 4.51553C28.5701 4.32432 27.9009 4.22871 27.2317 4.03751C26.9448 3.9419 26.8492 4.03751 26.7536 4.22871C26.658 4.41992 26.4668 4.70673 26.2756 4.99355C26.0844 5.28036 26.18 5.47156 26.3712 5.47156Z" fill="#DD856C"/>
<path d="M26.3712 5.47156C26.8492 5.56717 27.3273 5.56717 27.8053 5.66277C28.5701 5.75838 29.3349 5.94959 30.0998 6.2364C30.1954 6.332 31.0558 6.61881 31.247 6.71442C32.0118 7.19244 32.8723 7.76606 33.6371 8.24408C34.3063 8.7221 34.9756 9.20012 35.6448 9.67814C36.2184 10.0606 36.6964 10.5386 37.2701 10.921C38.2261 11.5902 39.1821 12.8331 39.7558 13.8847C40.2338 14.7451 40.5206 15.6056 40.903 16.466C41.1898 17.4221 41.4766 18.2825 41.8591 19.2385C41.9547 19.5253 42.0503 19.8122 42.1459 20.099C42.3371 20.6726 42.4327 21.2462 42.6239 21.7242C42.7195 21.9154 42.8151 22.011 43.0063 21.9154C43.2931 21.8198 43.4843 21.6286 43.6755 21.533C43.7711 21.4374 43.8667 21.3418 43.8667 21.2462C43.7711 20.7682 43.6755 20.3858 43.5799 19.9078C43.3887 19.0473 43.1975 18.1869 42.9107 17.3265C42.6239 16.466 42.2415 15.6056 41.8591 14.7451C41.381 13.8847 40.903 13.0243 40.3294 12.2594C39.6602 11.2078 38.7997 10.2518 37.8437 9.39133C37.1745 8.8177 36.6008 8.24408 35.836 7.76606C34.9756 7.19244 34.1151 6.61881 33.1591 6.04519C32.5855 5.66277 31.9162 5.37596 31.247 5.18475C30.5778 4.89794 29.9086 4.70673 29.2393 4.51553C28.5701 4.32432 27.9009 4.22871 27.2317 4.03751C26.9448 3.9419 26.8492 4.03751 26.7536 4.22871C26.658 4.41992 26.4668 4.70673 26.2756 4.99355C26.0844 5.28036 26.18 5.47156 26.3712 5.47156Z" fill="black"/>
<path d="M43.2932 26.7913C43.102 26.6957 42.9108 26.6 42.7196 26.5044C42.5284 26.4088 42.3372 26.4088 42.3372 26.6957C42.146 27.3649 41.9548 28.0341 41.7636 28.6077C41.5724 29.1814 41.3812 29.755 41.19 30.233C40.9031 30.9978 40.7119 31.7627 40.4251 32.4319C40.1383 33.1011 39.8515 33.6747 39.5647 34.2484C38.7999 35.4912 37.8438 36.4473 36.6966 37.3077C35.2625 38.3593 33.8284 39.411 32.2988 40.4626C31.534 40.9406 30.7691 41.4187 29.9087 41.7055C28.6658 42.1835 27.3274 42.2791 25.9889 42.3747C25.7021 42.3747 25.6065 42.5659 25.7021 42.8527C25.7977 43.1395 25.8933 43.3307 26.0845 43.6175C26.1801 43.8088 26.2757 43.9044 26.4669 43.8088C26.8494 43.7132 27.1362 43.7132 27.5186 43.6175C28.5702 43.3307 29.6219 43.0439 30.5779 42.7571C32.3944 42.0879 34.0197 41.2275 35.5493 40.0802C36.9834 39.0286 38.2262 37.7857 39.2779 36.4473C40.1383 35.3956 40.8075 34.2484 41.4768 33.0055C41.8592 32.2407 42.146 31.3802 42.5284 30.6154C42.8152 29.9462 43.0064 29.277 43.1976 28.6077C43.2932 28.1297 43.3888 27.6517 43.4844 27.1737C43.5801 26.9825 43.4844 26.8869 43.2932 26.7913Z" fill="#DD856C"/>
<path d="M43.2932 26.7913C43.102 26.6957 42.9108 26.6 42.7196 26.5044C42.5284 26.4088 42.3372 26.4088 42.3372 26.6957C42.146 27.3649 41.9548 28.0341 41.7636 28.6077C41.5724 29.1814 41.3812 29.755 41.19 30.233C40.9031 30.9978 40.7119 31.7627 40.4251 32.4319C40.1383 33.1011 39.8515 33.6747 39.5647 34.2484C38.7999 35.4912 37.8438 36.4473 36.6966 37.3077C35.2625 38.3593 33.8284 39.411 32.2988 40.4626C31.534 40.9406 30.7691 41.4187 29.9087 41.7055C28.6658 42.1835 27.3274 42.2791 25.9889 42.3747C25.7021 42.3747 25.6065 42.5659 25.7021 42.8527C25.7977 43.1395 25.8933 43.3307 26.0845 43.6175C26.1801 43.8088 26.2757 43.9044 26.4669 43.8088C26.8494 43.7132 27.1362 43.7132 27.5186 43.6175C28.5702 43.3307 29.6219 43.0439 30.5779 42.7571C32.3944 42.0879 34.0197 41.2275 35.5493 40.0802C36.9834 39.0286 38.2262 37.7857 39.2779 36.4473C40.1383 35.3956 40.8075 34.2484 41.4768 33.0055C41.8592 32.2407 42.146 31.3802 42.5284 30.6154C42.8152 29.9462 43.0064 29.277 43.1976 28.6077C43.2932 28.1297 43.3888 27.6517 43.4844 27.1737C43.5801 26.9825 43.4844 26.8869 43.2932 26.7913Z" fill="black"/>
<path d="M17.0977 31.189C17.9582 31.0934 18.8186 30.9022 19.6791 30.6154C20.7307 30.233 21.4955 29.5637 22.1648 28.7033C22.9296 27.8429 23.312 26.8868 23.5988 25.8352C23.5988 25.644 23.6944 25.5484 23.8856 25.5484C24.0768 25.5484 24.0768 25.7396 24.1724 25.8352C24.268 26.122 24.268 26.3132 24.3636 26.6C24.5549 26.9824 24.7461 27.3649 24.9373 27.7473C25.4153 28.6077 26.0845 29.2769 26.8494 29.9462C27.5186 30.4242 28.1878 30.8066 29.0482 30.9978C29.5263 31.0934 30.0999 31.189 30.5779 31.2846C30.8647 31.3802 30.9603 31.2846 30.8647 30.9978C30.7691 30.0418 30.5779 29.1813 30.1955 28.3209C29.8131 27.5561 29.3351 26.8868 28.7614 26.3132C27.8054 25.4528 26.7537 24.8792 25.5109 24.5923C25.4153 24.5923 25.3197 24.4011 25.3197 24.4011C25.3197 24.3055 25.4153 24.2099 25.5109 24.1143C26.2757 23.9231 26.945 23.6363 27.5186 23.2539C28.1878 22.8715 28.7614 22.3934 29.2394 21.8198C29.7175 21.2462 30.0999 20.577 30.3867 19.9077C30.7691 19.2385 30.8647 18.3781 30.8647 17.6133C30.8647 17.3264 30.8647 17.3264 30.5779 17.3264C29.9087 17.3264 29.2394 17.5176 28.5702 17.8045C27.5186 18.1869 26.5625 18.8561 25.7977 19.7165C25.2241 20.3858 24.7461 21.1506 24.4593 21.9154C24.3636 22.2022 24.268 22.4891 24.1724 22.7759C24.1724 22.8715 24.0768 23.0627 23.8856 22.9671C23.79 22.9671 23.6944 22.8715 23.6944 22.7759C23.5032 22.2978 23.312 21.7242 23.1208 21.2462C22.6428 20.1946 21.8779 19.2385 20.9219 18.5693C20.1571 17.9957 19.3922 17.7089 18.4362 17.422C18.0538 17.3264 17.6714 17.3264 17.1934 17.2308C16.9065 17.2308 16.9065 17.2308 16.9065 17.5176C17.0021 17.9957 17.1934 19.2385 17.1934 19.3341C17.4802 20.1946 17.9582 20.9594 18.5318 21.6286C18.9142 22.011 19.2966 22.3934 19.6791 22.6803C20.0615 22.9671 20.5395 23.2539 20.9219 23.4451C21.3999 23.6363 21.7823 23.8275 22.2604 23.9231C22.356 23.9231 22.5472 24.0187 22.5472 24.2099C22.5472 24.3055 22.356 24.4011 22.2604 24.4011C21.4955 24.5923 20.7307 24.8792 20.0615 25.2616C19.201 25.7396 18.5318 26.4088 17.9582 27.2692C17.1934 28.4165 16.8109 29.5637 16.7153 30.9022C16.8109 31.189 16.9065 31.189 17.0977 31.189Z" fill="#DD856C"/>
<path d="M17.0977 31.189C17.9582 31.0934 18.8186 30.9022 19.6791 30.6154C20.7307 30.233 21.4955 29.5637 22.1648 28.7033C22.9296 27.8429 23.312 26.8868 23.5988 25.8352C23.5988 25.644 23.6944 25.5484 23.8856 25.5484C24.0768 25.5484 24.0768 25.7396 24.1724 25.8352C24.268 26.122 24.268 26.3132 24.3636 26.6C24.5549 26.9824 24.7461 27.3649 24.9373 27.7473C25.4153 28.6077 26.0845 29.2769 26.8494 29.9462C27.5186 30.4242 28.1878 30.8066 29.0482 30.9978C29.5263 31.0934 30.0999 31.189 30.5779 31.2846C30.8647 31.3802 30.9603 31.2846 30.8647 30.9978C30.7691 30.0418 30.5779 29.1813 30.1955 28.3209C29.8131 27.5561 29.3351 26.8868 28.7614 26.3132C27.8054 25.4528 26.7537 24.8792 25.5109 24.5923C25.4153 24.5923 25.3197 24.4011 25.3197 24.4011C25.3197 24.3055 25.4153 24.2099 25.5109 24.1143C26.2757 23.9231 26.945 23.6363 27.5186 23.2539C28.1878 22.8715 28.7614 22.3934 29.2394 21.8198C29.7175 21.2462 30.0999 20.577 30.3867 19.9077C30.7691 19.2385 30.8647 18.3781 30.8647 17.6133C30.8647 17.3264 30.8647 17.3264 30.5779 17.3264C29.9087 17.3264 29.2394 17.5176 28.5702 17.8045C27.5186 18.1869 26.5625 18.8561 25.7977 19.7165C25.2241 20.3858 24.7461 21.1506 24.4593 21.9154C24.3636 22.2022 24.268 22.4891 24.1724 22.7759C24.1724 22.8715 24.0768 23.0627 23.8856 22.9671C23.79 22.9671 23.6944 22.8715 23.6944 22.7759C23.5032 22.2978 23.312 21.7242 23.1208 21.2462C22.6428 20.1946 21.8779 19.2385 20.9219 18.5693C20.1571 17.9957 19.3922 17.7089 18.4362 17.422C18.0538 17.3264 17.6714 17.3264 17.1934 17.2308C16.9065 17.2308 16.9065 17.2308 16.9065 17.5176C17.0021 17.9957 17.1934 19.2385 17.1934 19.3341C17.4802 20.1946 17.9582 20.9594 18.5318 21.6286C18.9142 22.011 19.2966 22.3934 19.6791 22.6803C20.0615 22.9671 20.5395 23.2539 20.9219 23.4451C21.3999 23.6363 21.7823 23.8275 22.2604 23.9231C22.356 23.9231 22.5472 24.0187 22.5472 24.2099C22.5472 24.3055 22.356 24.4011 22.2604 24.4011C21.4955 24.5923 20.7307 24.8792 20.0615 25.2616C19.201 25.7396 18.5318 26.4088 17.9582 27.2692C17.1934 28.4165 16.8109 29.5637 16.7153 30.9022C16.8109 31.189 16.9065 31.189 17.0977 31.189Z" fill="black"/>
<path d="M4.19121 21.6286C4.38242 21.8198 4.66923 21.8198 4.86044 21.9154C5.05164 22.011 5.14725 21.9154 5.24285 21.7242C5.43406 21.1506 5.52966 20.577 5.72087 20.0989C5.81648 19.8121 5.91208 19.5253 6.00768 19.2385C6.2945 18.2825 6.58131 17.422 6.96372 16.466C7.15493 15.6056 7.53735 14.7451 8.01537 13.8847C8.58899 12.833 9.54503 11.6858 10.5011 10.921C11.0747 10.5386 11.5527 10.0605 12.1263 9.67812C12.7956 9.2001 13.4648 8.72208 14.134 8.24406C14.8989 7.67043 15.7593 7.19241 16.5241 6.71439C16.7153 6.61879 17.4802 6.23637 17.6714 6.23637C18.4362 5.94956 19.201 5.75835 19.9659 5.66275C20.6351 5.47154 21.6867 5.47154 21.5911 5.18473C21.4955 4.89792 21.3999 4.5155 21.2087 4.32429C21.1131 4.13309 20.9219 4.03748 20.6351 4.13309C19.9659 4.22869 19.2966 4.32429 18.6274 4.5155C17.9582 4.70671 17.2889 4.89792 16.6197 5.18473C15.9505 5.47154 15.2813 5.75835 14.7076 6.04517C13.7516 6.52319 12.8912 7.09681 12.0307 7.76604C11.3615 8.24406 10.6923 8.81768 10.023 9.3913C9.06701 10.2517 8.30218 11.2078 7.53735 12.2594C6.96372 13.1199 6.4857 13.8847 6.00768 14.7451C5.62527 15.6056 5.24285 16.466 4.95604 17.3264C4.66923 18.1869 4.47802 19.0473 4.28681 19.9077C4.19121 20.2902 4.0956 20.7682 4 21.2462C4 21.4374 4 21.533 4.19121 21.6286Z" fill="#DD856C"/>
<path d="M4.19121 21.6286C4.38242 21.8198 4.66923 21.8198 4.86044 21.9154C5.05164 22.011 5.14725 21.9154 5.24285 21.7242C5.43406 21.1506 5.52966 20.577 5.72087 20.0989C5.81648 19.8121 5.91208 19.5253 6.00768 19.2385C6.2945 18.2825 6.58131 17.422 6.96372 16.466C7.15493 15.6056 7.53735 14.7451 8.01537 13.8847C8.58899 12.833 9.54503 11.6858 10.5011 10.921C11.0747 10.5386 11.5527 10.0605 12.1263 9.67812C12.7956 9.2001 13.4648 8.72208 14.134 8.24406C14.8989 7.67043 15.7593 7.19241 16.5241 6.71439C16.7153 6.61879 17.4802 6.23637 17.6714 6.23637C18.4362 5.94956 19.201 5.75835 19.9659 5.66275C20.6351 5.47154 21.6867 5.47154 21.5911 5.18473C21.4955 4.89792 21.3999 4.5155 21.2087 4.32429C21.1131 4.13309 20.9219 4.03748 20.6351 4.13309C19.9659 4.22869 19.2966 4.32429 18.6274 4.5155C17.9582 4.70671 17.2889 4.89792 16.6197 5.18473C15.9505 5.47154 15.2813 5.75835 14.7076 6.04517C13.7516 6.52319 12.8912 7.09681 12.0307 7.76604C11.3615 8.24406 10.6923 8.81768 10.023 9.3913C9.06701 10.2517 8.30218 11.2078 7.53735 12.2594C6.96372 13.1199 6.4857 13.8847 6.00768 14.7451C5.62527 15.6056 5.24285 16.466 4.95604 17.3264C4.66923 18.1869 4.47802 19.0473 4.28681 19.9077C4.19121 20.2902 4.0956 20.7682 4 21.2462C4 21.4374 4 21.533 4.19121 21.6286Z" fill="black"/>
<path d="M21.5911 42.4703C20.2527 42.3747 18.9142 42.2791 17.6714 41.8011C16.8109 41.5142 16.0461 41.1318 15.2813 40.5582C13.8472 39.5066 12.3175 38.4549 10.8835 37.4033C9.73624 36.5428 8.7802 35.5868 8.01537 34.3439C7.63295 33.7703 7.34614 33.1011 7.15493 32.5275C6.86812 31.7626 6.58131 31.0934 6.3901 30.3286C6.19889 29.755 6.00768 29.1813 5.81648 28.7033C5.62527 28.0341 5.43406 27.3649 5.24285 26.7912C5.14725 26.5044 5.05164 26.5044 4.86044 26.6C4.66923 26.6956 4.47802 26.7912 4.28681 26.8868C4.0956 26.9824 4 27.078 4 27.3649C4.0956 27.8429 4.19121 28.3209 4.28681 28.7989C4.47802 29.4681 4.66923 30.1374 4.95604 30.8066C5.24285 31.5714 5.62527 32.4319 6.00768 33.1967C6.58131 34.4396 7.34614 35.5868 8.20657 36.6384C9.25822 37.9769 10.5011 39.2197 11.9351 40.2714C13.4648 41.4186 15.0901 42.3747 16.9065 42.9483C17.9582 43.3307 19.0098 43.5219 19.9659 43.8087C20.3483 43.9043 20.6351 43.9043 21.0175 43.9999C21.2087 43.9999 21.3043 43.9999 21.3999 43.8087C21.4955 43.5219 21.6867 43.3307 21.7823 43.0439C21.9735 42.6615 21.8779 42.4703 21.5911 42.4703Z" fill="#DD856C"/>
<path d="M21.5911 42.4703C20.2527 42.3747 18.9142 42.2791 17.6714 41.8011C16.8109 41.5142 16.0461 41.1318 15.2813 40.5582C13.8472 39.5066 12.3175 38.4549 10.8835 37.4033C9.73624 36.5428 8.7802 35.5868 8.01537 34.3439C7.63295 33.7703 7.34614 33.1011 7.15493 32.5275C6.86812 31.7626 6.58131 31.0934 6.3901 30.3286C6.19889 29.755 6.00768 29.1813 5.81648 28.7033C5.62527 28.0341 5.43406 27.3649 5.24285 26.7912C5.14725 26.5044 5.05164 26.5044 4.86044 26.6C4.66923 26.6956 4.47802 26.7912 4.28681 26.8868C4.0956 26.9824 4 27.078 4 27.3649C4.0956 27.8429 4.19121 28.3209 4.28681 28.7989C4.47802 29.4681 4.66923 30.1374 4.95604 30.8066C5.24285 31.5714 5.62527 32.4319 6.00768 33.1967C6.58131 34.4396 7.34614 35.5868 8.20657 36.6384C9.25822 37.9769 10.5011 39.2197 11.9351 40.2714C13.4648 41.4186 15.0901 42.3747 16.9065 42.9483C17.9582 43.3307 19.0098 43.5219 19.9659 43.8087C20.3483 43.9043 20.6351 43.9043 21.0175 43.9999C21.2087 43.9999 21.3043 43.9999 21.3999 43.8087C21.4955 43.5219 21.6867 43.3307 21.7823 43.0439C21.9735 42.6615 21.8779 42.4703 21.5911 42.4703Z" fill="black"/>
<path d="M40.6164 25.2616C40.1384 24.9748 39.0867 24.3056 39.0867 24.21C39.1823 24.1144 40.1384 23.5408 40.6164 23.2539C40.9032 23.0627 41.0944 22.7759 41.0944 22.3935C41.19 21.7243 40.9032 21.1507 40.712 20.577C40.5208 19.9078 40.234 19.143 40.0428 18.4737C39.6604 17.2309 39.278 15.988 38.6087 14.8408C38.2263 14.076 37.7483 13.4067 37.1747 12.8331C36.6966 12.3551 36.123 11.8771 35.5494 11.4947C35.2626 11.3035 34.9758 11.1122 34.689 10.8254C34.689 10.8254 32.8725 9.48698 32.5857 9.29577C31.9164 8.81775 31.3428 8.43533 30.578 8.05292C29.9088 7.6705 29.3351 7.47929 28.6659 7.28809C28.6659 7.28809 25.6066 6.81007 25.4154 7.09688C25.2242 7.19248 24.2681 8.53094 24.0769 8.91335C23.9813 9.00896 23.9813 9.00896 23.8857 9.10456C23.7901 9.00896 23.7901 9.00896 23.6945 8.91335C23.4077 8.53094 22.4517 7.09688 22.3561 7.00127C21.9736 6.61886 19.966 7.00127 19.2011 7.19248H19.1055C18.4363 7.38369 17.7671 7.5749 17.1934 7.95731C16.5242 8.33973 15.855 8.72215 15.1858 9.20016C14.8989 9.39137 14.5165 9.67818 14.2297 9.86939C13.8473 10.1562 12.5088 11.1122 12.222 11.3035C11.6484 11.6859 11.0748 12.1639 10.5968 12.6419C10.0231 13.2155 9.54512 13.8848 9.16271 14.6496C8.58908 15.7968 8.20667 17.0397 7.72865 18.2825C7.53744 18.9518 7.25063 19.7166 7.05942 20.3858C6.86821 20.9595 6.677 21.5331 6.677 22.2023C6.677 22.5847 6.86821 22.8715 7.15502 23.0627C7.53744 23.3496 8.58908 23.9232 8.68469 24.0188C8.58908 24.1144 7.53744 24.7836 7.15502 25.0704C6.77261 25.2616 6.677 25.644 6.77261 26.0265C6.96381 26.6957 7.15502 27.3649 7.34623 27.9385C7.53744 28.5122 7.72865 28.9902 7.82425 29.5638C8.30227 30.9979 8.78029 32.5275 9.64072 33.7704C9.73633 33.9616 10.2143 34.5352 10.2143 34.5352C10.6924 35.1088 11.266 35.5869 11.8396 35.9693C12.222 36.2561 12.6044 36.5429 12.9869 36.8297C13.1781 37.0209 13.9429 37.4989 14.0385 37.5945C14.5165 37.8814 14.8989 38.2638 15.377 38.5506C16.0462 39.0286 16.811 39.5066 17.5759 39.889C18.9143 40.5583 22.1648 40.8451 22.2604 40.8451C22.6429 40.8451 22.8341 40.7495 23.2165 40.2714C23.3121 40.1758 23.8857 39.2198 23.8857 39.1242C23.9813 39.2198 24.5549 40.1758 24.5549 40.2714C24.8418 40.7495 25.1286 40.8451 25.511 40.8451C25.6066 40.8451 28.8571 40.5583 30.1956 39.889C30.9604 39.5066 31.7252 39.0286 32.3945 38.5506C32.8725 38.2638 34.5934 36.9253 34.7846 36.8297C35.167 36.5429 37.4615 34.6308 38.1307 33.6748C38.9911 32.3363 39.4692 30.9023 39.9472 29.4682C40.1384 28.8946 40.3296 28.4166 40.4252 27.8429C40.6164 27.1737 40.8076 26.6001 40.9988 25.9309C40.9988 25.8353 40.9988 25.4528 40.6164 25.2616ZM31.056 31.2847C30.9604 31.2847 30.8648 31.3803 30.8648 31.3803C30.8648 31.6671 30.7692 32.2407 30.7692 32.3363C30.7692 32.5275 30.4824 33.4836 30.3868 33.6748C30.2912 33.9616 30.1956 34.1528 30.0044 34.4396C29.9088 34.5352 29.7176 35.0132 29.622 35.1088C29.0483 36.0649 28.2835 36.8297 27.3275 37.4033C27.0406 37.5945 26.7538 37.6901 26.467 37.8813C26.0846 37.977 25.7978 38.1682 25.4154 38.2638C24.8418 38.455 24.2681 38.455 23.6945 38.455C23.1209 38.455 22.5473 38.3594 21.9736 38.2638C21.878 38.2638 20.0616 37.4989 19.7747 37.3077C19.7747 37.3077 18.5319 36.3517 18.0539 35.6825C17.9583 35.5869 17.7671 35.3 17.7671 35.3C17.0978 33.9616 16.7154 32.7187 16.7154 31.3803L16.6198 31.2847C12.7957 31.1891 9.64072 28.0341 9.64072 24.21C9.64072 20.7682 12.0308 17.9957 15.2814 17.2309C15.2814 17.2309 16.333 17.1353 16.5242 17.0397C16.6198 17.0397 16.7154 16.9441 16.7154 16.8485C16.811 13.0243 19.966 9.965 23.7901 9.965C27.3275 9.965 30.1956 12.5463 30.7692 15.8924C30.7692 15.8924 30.8648 16.5617 30.8648 16.7529V16.8485C30.8648 17.0397 30.9604 17.0397 31.056 17.0397C31.3428 17.0397 32.3945 17.2309 32.3945 17.2309C35.5494 17.9957 37.8439 20.7682 37.8439 24.1144C38.0351 28.1297 34.8802 31.2847 31.056 31.2847Z" fill="#DD856C"/>
<path d="M40.6164 25.2616C40.1384 24.9748 39.0867 24.3056 39.0867 24.21C39.1823 24.1144 40.1384 23.5408 40.6164 23.2539C40.9032 23.0627 41.0944 22.7759 41.0944 22.3935C41.19 21.7243 40.9032 21.1507 40.712 20.577C40.5208 19.9078 40.234 19.143 40.0428 18.4737C39.6604 17.2309 39.278 15.988 38.6087 14.8408C38.2263 14.076 37.7483 13.4067 37.1747 12.8331C36.6966 12.3551 36.123 11.8771 35.5494 11.4947C35.2626 11.3035 34.9758 11.1122 34.689 10.8254C34.689 10.8254 32.8725 9.48698 32.5857 9.29577C31.9164 8.81775 31.3428 8.43533 30.578 8.05292C29.9088 7.6705 29.3351 7.47929 28.6659 7.28809C28.6659 7.28809 25.6066 6.81007 25.4154 7.09688C25.2242 7.19248 24.2681 8.53094 24.0769 8.91335C23.9813 9.00896 23.9813 9.00896 23.8857 9.10456C23.7901 9.00896 23.7901 9.00896 23.6945 8.91335C23.4077 8.53094 22.4517 7.09688 22.3561 7.00127C21.9736 6.61886 19.966 7.00127 19.2011 7.19248H19.1055C18.4363 7.38369 17.7671 7.5749 17.1934 7.95731C16.5242 8.33973 15.855 8.72215 15.1858 9.20016C14.8989 9.39137 14.5165 9.67818 14.2297 9.86939C13.8473 10.1562 12.5088 11.1122 12.222 11.3035C11.6484 11.6859 11.0748 12.1639 10.5968 12.6419C10.0231 13.2155 9.54512 13.8848 9.16271 14.6496C8.58908 15.7968 8.20667 17.0397 7.72865 18.2825C7.53744 18.9518 7.25063 19.7166 7.05942 20.3858C6.86821 20.9595 6.677 21.5331 6.677 22.2023C6.677 22.5847 6.86821 22.8715 7.15502 23.0627C7.53744 23.3496 8.58908 23.9232 8.68469 24.0188C8.58908 24.1144 7.53744 24.7836 7.15502 25.0704C6.77261 25.2616 6.677 25.644 6.77261 26.0265C6.96381 26.6957 7.15502 27.3649 7.34623 27.9385C7.53744 28.5122 7.72865 28.9902 7.82425 29.5638C8.30227 30.9979 8.78029 32.5275 9.64072 33.7704C9.73633 33.9616 10.2143 34.5352 10.2143 34.5352C10.6924 35.1088 11.266 35.5869 11.8396 35.9693C12.222 36.2561 12.6044 36.5429 12.9869 36.8297C13.1781 37.0209 13.9429 37.4989 14.0385 37.5945C14.5165 37.8814 14.8989 38.2638 15.377 38.5506C16.0462 39.0286 16.811 39.5066 17.5759 39.889C18.9143 40.5583 22.1648 40.8451 22.2604 40.8451C22.6429 40.8451 22.8341 40.7495 23.2165 40.2714C23.3121 40.1758 23.8857 39.2198 23.8857 39.1242C23.9813 39.2198 24.5549 40.1758 24.5549 40.2714C24.8418 40.7495 25.1286 40.8451 25.511 40.8451C25.6066 40.8451 28.8571 40.5583 30.1956 39.889C30.9604 39.5066 31.7252 39.0286 32.3945 38.5506C32.8725 38.2638 34.5934 36.9253 34.7846 36.8297C35.167 36.5429 37.4615 34.6308 38.1307 33.6748C38.9911 32.3363 39.4692 30.9023 39.9472 29.4682C40.1384 28.8946 40.3296 28.4166 40.4252 27.8429C40.6164 27.1737 40.8076 26.6001 40.9988 25.9309C40.9988 25.8353 40.9988 25.4528 40.6164 25.2616ZM31.056 31.2847C30.9604 31.2847 30.8648 31.3803 30.8648 31.3803C30.8648 31.6671 30.7692 32.2407 30.7692 32.3363C30.7692 32.5275 30.4824 33.4836 30.3868 33.6748C30.2912 33.9616 30.1956 34.1528 30.0044 34.4396C29.9088 34.5352 29.7176 35.0132 29.622 35.1088C29.0483 36.0649 28.2835 36.8297 27.3275 37.4033C27.0406 37.5945 26.7538 37.6901 26.467 37.8813C26.0846 37.977 25.7978 38.1682 25.4154 38.2638C24.8418 38.455 24.2681 38.455 23.6945 38.455C23.1209 38.455 22.5473 38.3594 21.9736 38.2638C21.878 38.2638 20.0616 37.4989 19.7747 37.3077C19.7747 37.3077 18.5319 36.3517 18.0539 35.6825C17.9583 35.5869 17.7671 35.3 17.7671 35.3C17.0978 33.9616 16.7154 32.7187 16.7154 31.3803L16.6198 31.2847C12.7957 31.1891 9.64072 28.0341 9.64072 24.21C9.64072 20.7682 12.0308 17.9957 15.2814 17.2309C15.2814 17.2309 16.333 17.1353 16.5242 17.0397C16.6198 17.0397 16.7154 16.9441 16.7154 16.8485C16.811 13.0243 19.966 9.965 23.7901 9.965C27.3275 9.965 30.1956 12.5463 30.7692 15.8924C30.7692 15.8924 30.8648 16.5617 30.8648 16.7529V16.8485C30.8648 17.0397 30.9604 17.0397 31.056 17.0397C31.3428 17.0397 32.3945 17.2309 32.3945 17.2309C35.5494 17.9957 37.8439 20.7682 37.8439 24.1144C38.0351 28.1297 34.8802 31.2847 31.056 31.2847Z" fill="black"/>
</svg>
