<svg xmlns="http://www.w3.org/2000/svg" viewBox="0 0 48 48" class="ability-icon createSvgIcon__Svg-sc-1l8xi8d-0 ldKivg"><title>Omen - Dark Cover</title><path fill-rule="evenodd" clip-rule="evenodd" d="M38 24C38 24.0386 37.9999 24.077 37.9995 24.1152C37.9316 33.369 29.697 38.9236 24.2897 41.6838C24.1557 41.7521 24 41.6532 24 41.5028V39.7536C24 38.7776 22.7697 37.9902 21.8062 37.8385C15.1163 36.7849 10 30.9903 10 23.9999C10 23.9635 10.0001 23.9272 10.0004 23.8912C10.0645 14.6335 18.3018 9.07707 23.7103 6.31625C23.8443 6.24789 24 6.34682 24 6.49718L24 8.24436C24 9.22043 25.2303 10.0097 26.1938 10.1614C32.8837 11.215 38 17.0096 38 24ZM21 15.4999C21 15.4999 20.9682 16.2727 21.2743 17.616C21.3608 17.5669 21.4486 17.5192 21.5375 17.473C25.455 15.4381 30.4651 17.0827 32.5 21.0001C32.5 21.0001 31.7273 20.9683 30.3841 21.2743C30.4331 21.3608 30.4808 21.4485 30.527 21.5374C32.5619 25.4548 30.9175 30.4649 27.0001 32.4999C27.0001 32.4999 27.0319 31.7271 26.7258 30.384C26.6393 30.433 26.5515 30.4807 26.4626 30.5269C22.5451 32.5618 17.535 30.9172 15.5001 26.9998C15.5001 26.9998 16.2728 27.0317 17.616 26.7256C17.567 26.6391 17.5193 26.5513 17.4731 26.4623C15.4381 22.5449 17.0826 17.5348 21 15.4999Z"/></svg>