<svg xmlns="http://www.w3.org/2000/svg" viewBox="0 0 48 48" class="ability-icon createSvgIcon__Svg-sc-1l8xi8d-0 ldKivg"><title>Omen - From the Shadows</title><path fill-rule="evenodd" clip-rule="evenodd" d="M19.7687 10.5563C20.5556 8.61388 21.3057 6.76211 24 6C26.6303 6.75916 27.391 8.59957 28.1904 10.5338C28.8302 12.0815 29.4947 13.6892 31.1617 14.8512C31.3396 14.9752 31.3988 15.2164 31.2857 15.4014L24.9856 26.4992C24.9856 25.5892 25.4933 23.9484 26.0401 22.1817C26.6777 20.1214 27.3683 17.8899 27.3683 16.4467C27.3683 13.766 25.9711 12.8988 25.1827 12.5045C24.7884 12.8988 24 13.0959 24 13.0959C24 13.0959 23.2116 12.8988 22.8174 12.5045C22.0289 12.8988 20.5352 13.766 20.5352 16.4467C20.5352 17.8898 21.2538 20.1214 21.9172 22.1817L21.9172 22.1817C22.4861 23.9484 23.0145 25.5892 23.0145 26.4992L16.7143 15.4014C16.6012 15.2164 16.6604 14.9752 16.8383 14.8512C18.4972 13.6949 19.1445 12.0971 19.7687 10.5563ZM38.7128 13.026C38.7128 13.026 41.7467 13.8369 41.7467 17.9369C41.7467 20.7197 29.3828 38.3332 29.3828 38.3332C29.3828 38.3332 30.1005 35.3867 28.9587 34.9611C27.8169 34.5355 26.773 36.9909 26.773 36.9909L24.0001 42L21.1945 36.9909C21.1945 36.9909 20.1506 34.5355 19.0088 34.9611C17.867 35.3867 18.5847 38.3332 18.5847 38.3332C18.5847 38.3332 6.25342 20.7197 6.25342 17.9369C6.25342 13.8369 9.28731 13.026 9.28731 13.026C8.50437 18.3298 15.9097 18.9191 15.9097 18.9191L23.9674 31.9819L32.0904 18.9191C32.0904 18.9191 39.4631 18.3298 38.7128 13.026Z"/></svg>