<svg xmlns="http://www.w3.org/2000/svg" viewBox="0 0 48 48" class="ability-icon createSvgIcon__Svg-sc-1l8xi8d-0 ldKivg"><title>Omen - Shrouded Step</title><path fill-rule="evenodd" clip-rule="evenodd" d="M17.5329 19.2928C18.0964 18.9 18.5631 18.472 18.9698 18H9.84616L8 20H16.7736C16.9913 19.7317 17.2462 19.4926 17.5329 19.2928ZM11 15H20.7847C20.9836 14.5784 21.1849 14.1322 21.3984 13.6591L21.3985 13.6589L21.3988 13.6581C21.495 13.4451 21.5936 13.2266 21.6955 13.0024L21.6966 13H12.2308L11 15ZM13.8566 10H23.2749C23.7157 9.3136 24.2284 8.63642 24.8428 8H15.0874L13.8566 10ZM25.7565 40L24.5754 38H15L16.2308 40H25.7565ZM22.8037 35L21.6226 33H12L13.5385 35H22.8037ZM19.851 30L18.6699 28H9L10.2308 30H19.851ZM16.4733 24.2804C16.2212 23.8679 16.0616 23.4349 15.9841 23H6L7.53846 25H16.8982L16.4733 24.2804ZM23.8667 15.1126C25.0951 12.0804 26.2661 9.18968 30.472 8C34.5779 9.18508 35.7654 12.058 37.0134 15.0774C38.012 17.4934 39.0494 20.0032 41.6517 21.8171C41.9294 22.0106 42.0218 22.3871 41.8453 22.6759L32.0105 40C32.0105 38.5796 32.8032 36.0182 33.6566 33.2603C34.652 30.044 35.73 26.5605 35.73 24.3077C35.73 20.1231 33.5489 18.7692 32.3182 18.1539C31.7028 18.7692 30.472 19.0769 30.472 19.0769C30.472 19.0769 29.2412 18.7692 28.6258 18.1539C27.3951 18.7692 25.0633 20.1231 25.0633 24.3077C25.0633 26.5605 26.1851 30.044 27.2207 33.2603C28.1088 36.0182 28.9335 38.5796 28.9335 40L19.0987 22.6759C18.9222 22.3871 19.0146 22.0106 19.2923 21.8171C21.8819 20.012 22.8924 17.5178 23.8667 15.1126Z"/></svg>