<svg xmlns="http://www.w3.org/2000/svg" viewBox="0 0 48 48" class="ability-icon createSvgIcon__Svg-sc-1l8xi8d-0 ldKivg"><title>Omen - Paranoia</title><path fill-rule="evenodd" clip-rule="evenodd" d="M33.548 14.5209C36.0488 19.2513 38.6098 18.2871 39.6644 16.0876C39.6644 16.0876 41.6831 22.5655 40.4478 26.5427C39.2426 30.5499 36.4706 34.286 32.9454 34.286C34.0602 33.2616 34.9039 31.8756 35.2654 30.339H37.8867V26.7837H35.2654C34.6026 23.9515 32.373 21.7219 29.5408 21.059V18.4378H25.9855V21.059C23.4546 21.6315 21.4057 23.4694 20.5018 25.8497C20.5018 25.8497 9.08264 25.6086 8.72109 38.1728C8.72109 38.1728 4.26188 31.3032 10.3782 25.8497C16.4946 20.3962 15.7413 16.9614 8.72109 18.0762C8.72109 18.0762 12.2161 12.2009 18.5434 12.8035C18.6475 12.8134 18.7507 12.8232 18.853 12.833C24.9733 13.4169 28.0011 13.7057 26.0156 10.0014C26.0156 10.0014 31.0473 9.79051 33.548 14.5209ZM23.0027 28.5614C23.0027 25.9401 25.1419 23.8009 27.7632 23.8009C30.3845 23.8009 32.5237 25.9401 32.5237 28.5614C32.5237 31.1827 30.3845 33.3219 27.7632 33.3219C25.1419 33.3219 23.0027 31.1827 23.0027 28.5614ZM26.0156 28.5915C26.0156 29.5556 26.799 30.339 27.7632 30.339C28.7273 30.339 29.5107 29.5556 29.5107 28.5915C29.5107 27.6273 28.7273 26.844 27.7632 26.844C26.799 26.844 26.0156 27.6273 26.0156 28.5915Z"/></svg>