<svg xmlns="http://www.w3.org/2000/svg" viewBox="0 0 48 48" class="ability-icon createSvgIcon__Svg-sc-1l8xi8d-0 ldKivg"><title>Brimstone - Sky Smoke</title><path fill-rule="evenodd" clip-rule="evenodd" d="M22.1356 2H25.8644V5.72881H22.1356V2ZM22.1356 42.2712H25.8644V46H22.1356V42.2712ZM5.72881 22.1356H2V25.8644H5.72881V22.1356ZM42.2712 22.1356H46V25.8644H42.2712V22.1356ZM34.9997 24.0811L35 24C35 18.5112 30.98 13.9614 25.7237 13.1342C24.9666 13.0151 24 12.3954 24 11.629L24 10.324C24 10.1752 23.8451 10.0778 23.7127 10.1456C19.4619 12.3239 13.0488 16.6807 13.0003 23.9173C13.0002 23.9325 13.0001 23.9477 13 23.9629C13 23.9752 13 23.9876 13 24C13 29.4887 17.02 34.0385 22.2763 34.8657C23.0333 34.9848 24 35.603 24 36.3694V37.676C24 37.8248 24.1549 37.9222 24.2873 37.8544C28.5384 35.6759 34.9521 31.3186 34.9997 24.0811ZM27.1935 24C27.1935 25.7637 25.7637 27.1935 24 27.1935C22.2362 27.1935 20.8064 25.7637 20.8064 24C20.8064 22.2362 22.2362 20.8064 24 20.8064C25.7637 20.8064 27.1935 22.2362 27.1935 24Z"/></svg>