<svg xmlns="http://www.w3.org/2000/svg" viewBox="0 0 48 48" class="ability-icon createSvgIcon__Svg-sc-1l8xi8d-0 ldKivg"><title>Brimstone - Orbital Strike</title><path fill-rule="evenodd" clip-rule="evenodd" d="M22.7586 6H25.2414V8.04744C27.5197 8.22227 29.6645 8.87429 31.5759 9.90371C32.0345 9.35158 32.7262 9 33.5 9C34.8807 9 36 10.1193 36 11.5C36 12.0314 35.8342 12.5241 35.5515 12.9291C38.0389 15.5239 39.6607 18.9551 39.9526 22.7586H42V25.2414H39.9526C39.5361 30.6689 36.4116 35.3384 31.9278 37.901C31.975 38.0929 32 38.2935 32 38.5C32 39.8807 30.8807 41 29.5 41C28.5389 41 27.7044 40.4576 27.286 39.6622C26.6188 39.8015 25.9363 39.8992 25.2414 39.9526V42H22.7586V39.9526C14.9119 39.3504 8.64957 33.0881 8.04744 25.2414H6V22.7586H8.04744C8.07685 22.3754 8.11975 21.996 8.17568 21.6208C7.46961 21.179 7 20.3943 7 19.5C7 18.1193 8.11929 17 9.5 17C9.53597 17 9.57176 17.0008 9.60736 17.0023C12.0321 12.0244 16.9632 8.49216 22.7586 8.04744V6ZM31.147 36.6192C30.7071 36.2337 30.1309 36 29.5 36C28.2259 36 27.1745 36.9531 27.0196 38.1851C26.439 38.3081 25.8454 38.3964 25.2414 38.4476V34.9307C30.3246 34.3598 34.3598 30.3246 34.9307 25.2414H38.4476C38.0335 30.1255 35.1984 34.3197 31.147 36.6192ZM9.55239 22.7586C9.57411 22.5026 9.60247 22.2484 9.63732 21.9963C10.9542 21.925 12 20.8346 12 19.5C12 18.6935 11.6181 17.9763 11.0254 17.5191C13.2298 13.1146 17.611 9.98885 22.7586 9.55239V13.0693C17.6754 13.6402 13.6402 17.6754 13.0693 22.7586H9.55239ZM31.0077 11.3028C31.0026 11.3678 31 11.4336 31 11.5C31 12.8807 32.1193 14 33.5 14C33.8003 14 34.0883 13.947 34.355 13.85C36.6477 16.1887 38.1544 19.3007 38.4476 22.7586H34.9307C34.3598 17.6754 30.3246 13.6402 25.2414 13.0693V9.55239C27.3193 9.72857 29.2723 10.343 31.0077 11.3028ZM22.7586 34.9307V38.4476C15.7408 37.8526 10.1474 32.2592 9.55239 25.2414H13.0693C13.6402 30.3246 17.6754 34.3598 22.7586 34.9307ZM24 31.5263C28.1567 31.5263 31.5263 28.1567 31.5263 24C31.5263 19.8433 28.1567 16.4737 24 16.4737C19.8433 16.4737 16.4737 19.8433 16.4737 24C16.4737 28.1567 19.8433 31.5263 24 31.5263ZM24 21.7713L26.0936 19.6552L28.3448 21.8839L26.2287 24L28.3448 26.1161L26.0936 28.3448L24 26.2287L21.8839 28.3448L19.6552 26.1161L21.7713 24L19.6552 21.8839L21.8839 19.6552L24 21.7713Z"/></svg>