<svg xmlns="http://www.w3.org/2000/svg" viewBox="0 0 48 48" class="ability-icon createSvgIcon__Svg-sc-1l8xi8d-0 ldKivg"><title>Brimstone - Incendiary</title><path fill-rule="evenodd" clip-rule="evenodd" d="M24 34.7931C29.451 34.7931 32.5172 28.569 32.5172 23.3276C32.5172 21.6897 32.1765 20.3793 31.4952 19.7241C31.7223 20.5977 31.2069 22.3448 30.2241 22.3448C29.0627 22.3448 29.1597 21.1918 29.3144 19.3529C29.3779 18.5985 29.451 17.7288 29.451 16.7759C29.451 14.1552 27.931 11.2069 26.0441 9.89655C26.4984 10.8793 26.9483 12.5172 26.9483 15.4655C26.9483 18.0862 26.0441 19.3966 24.3276 19.3966C22.2834 19.3966 22.0345 17.431 22.0345 13.5C22.0345 10.3552 22.7508 5.85632 23.3186 4C21.8423 6.07471 18.7586 11.4035 18.7586 16.1207C18.7586 21.3621 18.7586 22.6724 17.4483 22.6724C16.6306 22.6724 16.3913 20.9253 16.5048 20.0517C16.1641 20.5977 15.4827 22.0172 15.4827 23.3276C15.4827 28.569 18.549 34.7931 24 34.7931ZM12.2069 30.2069C12.2069 28.8309 12.4425 27.51 12.8756 26.2823C13.2547 28.5441 14.0744 30.8071 15.3289 32.723C17.1416 35.4913 20.0591 37.7777 24 37.7777C27.9409 37.7777 30.8583 35.4913 32.671 32.723C33.9256 30.8071 34.7453 28.5441 35.1243 26.2823C35.5575 27.51 35.7931 28.8309 35.7931 30.2069C35.7931 36.72 30.5131 42 24 42C17.4868 42 12.2069 36.72 12.2069 30.2069Z"/></svg>