<svg xmlns="http://www.w3.org/2000/svg" viewBox="0 0 48 48" class="ability-icon createSvgIcon__Svg-sc-1l8xi8d-0 ldKivg"><title>Brimstone - Stim Beacon</title><path fill-rule="evenodd" clip-rule="evenodd" d="M17.4654 39.0198C17.4654 38.8394 17.3191 38.6931 17.1386 38.6931H14.7347C14.0312 38.6931 13.3816 38.3161 13.0326 37.7053L6.71467 26.6489C6.35826 26.0252 6.37154 25.2565 6.74927 24.6455L7.82177 22.9105C7.91868 22.7538 7.86683 22.5479 7.70722 22.4558L7.14104 22.1289C6.98808 22.0406 6.79263 22.0898 6.69976 22.24L5.6376 23.9582C5.00805 24.9766 4.98592 26.2578 5.57994 27.2973L11.8979 38.3537C12.4796 39.3717 13.5622 40 14.7347 40H17.1386C17.3191 40 17.4654 39.8537 17.4654 39.6733V39.0198ZM30.8614 38.6931C30.6809 38.6931 30.5347 38.8394 30.5347 39.0198V39.6733C30.5347 39.8537 30.6809 40 30.8614 40H33.2653C34.4378 40 35.5204 39.3717 36.1021 38.3537L42.4201 27.2973C43.0141 26.2578 42.992 24.9766 42.3624 23.9582L41.3003 22.24C41.2074 22.0898 41.0119 22.0406 40.859 22.1289L40.2928 22.4558C40.1332 22.5479 40.0813 22.7538 40.1782 22.9105L41.2508 24.6455C41.6285 25.2565 41.6418 26.0252 41.2853 26.6489L34.9674 37.7053C34.6184 38.3161 33.9688 38.6931 33.2653 38.6931H30.8614ZM32.9592 11.2327C33.0521 11.383 33.2476 11.4322 33.4005 11.3439L33.9667 11.017C34.1263 10.9248 34.1782 10.719 34.0813 10.5622L32.8369 8.54929C32.2415 7.5862 31.19 7 30.0577 7H17.9423C16.81 7 15.7585 7.5862 15.1631 8.54929L13.9188 10.5622C13.8219 10.719 13.8737 10.9249 14.0333 11.017L14.5995 11.3439C14.7524 11.4322 14.9479 11.383 15.0408 11.2327L16.2748 9.23651C16.632 8.65865 17.2629 8.30693 17.9423 8.30693H30.0577C30.7371 8.30693 31.368 8.65865 31.7252 9.23651L32.9592 11.2327ZM19.3974 36.0153C19.7389 36.6235 20.3821 37 21.0796 37H26.9053C27.6028 37 28.246 36.6235 28.5875 36.0153L36.5316 21.7324C36.8678 21.1337 36.8604 20.4015 36.5123 19.8097L34.2425 15.9511C33.8959 15.3618 33.2633 15 32.5796 15H15.4053C14.7216 15 14.089 15.3618 13.7423 15.9511L11.4726 19.8097C11.1245 20.4015 11.1171 21.1337 11.4533 21.7324L19.3974 36.0153ZM22.5191 32.8095C22.1357 32.8095 21.783 32.6001 21.5994 32.2636L15.855 21.7322C15.7012 21.4503 15.6853 21.1134 15.8117 20.8182L16.2367 19.8257C16.4017 19.4404 16.7805 19.1905 17.1997 19.1905H30.7852C31.2043 19.1905 31.5832 19.4404 31.7482 19.8257L32.1732 20.8182C32.2996 21.1134 32.2836 21.4503 32.1298 21.7322L26.3855 32.2636C26.2019 32.6001 25.8491 32.8095 25.4658 32.8095H22.5191ZM22.8222 26.9325C23.0202 27.3244 23.4219 27.5714 23.861 27.5714H24.1239C24.563 27.5714 24.9647 27.3244 25.1628 26.9325L26.9098 23.4766C27.0757 23.1483 26.9924 22.7489 26.7091 22.5143C26.5678 22.3973 26.3901 22.3333 26.2067 22.3333H21.7783C21.5948 22.3333 21.4172 22.3973 21.2759 22.5143C20.9925 22.7489 20.9092 23.1483 21.0751 23.4766L22.8222 26.9325Z"/></svg>