<svg xmlns="http://www.w3.org/2000/svg" viewBox="0 0 48 48" class="ability-icon createSvgIcon__Svg-sc-1l8xi8d-0 ldKivg"><title/><path fill-rule="evenodd" clip-rule="evenodd" d="M20.7766 10.0045H21.7182L21.3758 4L19.4927 4.17156L20.7766 10.0045ZM22.0605 11.2054H20.9478L20.8622 12.0632L20.9478 12.7494L22.1461 12.6637L22.0605 11.2054ZM24.6284 19.4402C22.2317 19.4402 21.2902 21.4989 21.119 22.5282H19.4071L16.6681 20.8126V20.0406H18.2088L19.0647 19.3544L19.1503 16.2664L21.3758 14.9797L27.7954 14.8939L30.1065 16.2664V19.3544L30.8768 20.0406H32.6743V20.8126L29.7641 22.5282H28.0522C27.9095 21.4989 27.0251 19.4402 24.6284 19.4402ZM17.1816 33.7652L18.8935 35.5666H20.6054L21.4614 36.4244H28.3946L29.3361 35.4808H30.7912L32.5031 33.6795H32.7599C33.5588 34.5372 35.2935 36.3901 35.8413 36.9391C36.5261 37.6253 36.8685 38.8262 36.8685 39.5982V40.9707C36.8685 41.4853 37.2965 41.9142 37.81 41.9142C38.3236 41.9142 38.7516 41.7427 38.7516 40.9707V35.6524C38.7516 34.623 38.7516 33.9368 36.7829 31.9639C35.2079 30.3856 34.1865 29.705 33.8727 29.5621L31.048 30.5914L28.9937 31.9639H20.263L18.2944 30.5914L15.7265 29.5621L12.9019 31.7923C12.1315 32.164 10.5908 33.4564 10.5908 35.6524V41.0564C10.5908 41.6569 11.1044 42 11.5324 42C11.9603 42 12.5595 41.6569 12.5595 41.0564V39.0835C12.5595 38.14 13.501 37.1964 14.2714 36.4244C14.8877 35.8068 16.4683 34.3943 17.1816 33.7652ZM22.3173 30.0767L21.0334 27.9323L21.6326 27.4176L19.5783 24.4153V23.4718H21.2902C21.4328 24.3868 22.3002 26.2167 24.6284 26.2167C26.9566 26.2167 27.7669 24.3868 27.881 23.4718H29.6785V24.2438L27.453 27.4176L28.1378 27.9323L26.9395 30.0767H22.3173ZM30.3633 24.93L28.6514 27.3318L30.1921 28.6185C30.5344 28.7901 31.5445 28.8587 32.8455 27.7607C34.1466 26.6628 34.643 26.1023 34.7286 25.9594V22.5282L32.8455 21.9278C33.1879 22.4138 33.5987 23.5747 32.5031 24.3296C31.4075 25.0844 30.62 25.0444 30.3633 24.93ZM20.4342 27.3318L18.7223 24.93C18.4656 25.0444 17.6781 25.0844 16.5825 24.3296C15.4868 23.5747 15.8977 22.4138 16.2401 21.9278L14.357 22.5282V25.9594C14.4426 26.1023 14.939 26.6628 16.2401 27.7607C17.5411 28.8587 18.5511 28.7901 18.8935 28.6185L20.4342 27.3318ZM24.6284 24.0722C25.2902 24.0722 25.8267 23.5346 25.8267 22.8713C25.8267 22.2081 25.2902 21.6704 24.6284 21.6704C23.9666 21.6704 23.4301 22.2081 23.4301 22.8713C23.4301 23.5346 23.9666 24.0722 24.6284 24.0722ZM24.6284 24.93C25.7629 24.93 26.6827 24.0083 26.6827 22.8713C26.6827 21.7343 25.7629 20.8126 24.6284 20.8126C23.4938 20.8126 22.5741 21.7343 22.5741 22.8713C22.5741 24.0083 23.4938 24.93 24.6284 24.93ZM24.6284 25.2731C25.952 25.2731 27.0251 24.1978 27.0251 22.8713C27.0251 21.5449 25.952 20.4695 24.6284 20.4695C23.3048 20.4695 22.2317 21.5449 22.2317 22.8713C22.2317 24.1978 23.3048 25.2731 24.6284 25.2731ZM18.1232 13.9503L17.952 18.2393L16.8392 19.0113H13.3299L11.7035 17.553L13.7578 14.8081L18.1232 13.9503ZM31.1336 18.2393L30.9624 13.9503L35.3278 14.8081L37.382 17.553L35.7557 19.0113H32.2463L31.1336 18.2393ZM9.64927 22.3567L10.6764 21.2415C10.0487 20.784 8.79332 19.4059 8.79332 17.553C8.79332 15.7002 9.99165 14.2649 10.5908 13.7788L9.47808 12.7494C8.70772 13.2641 7.16701 14.9454 7.16701 17.553C7.16701 20.1607 8.82185 21.842 9.64927 22.3567ZM38.3236 21.2415L39.3507 22.3567C40.1781 21.842 41.833 20.1607 41.833 17.553C41.833 14.9454 40.2923 13.2641 39.5219 12.7494L38.4092 13.7788C39.0084 14.2649 40.2067 15.7002 40.2067 17.553C40.2067 19.4059 38.9513 20.784 38.3236 21.2415ZM7.50939 22.9571C6.65344 22.2709 4.94154 20.2122 4.94154 17.4673C4.94154 14.7223 6.53932 12.6637 7.3382 11.9774L6.65344 11.377C5.76896 12.0632 4 14.242 4 17.4673C4 20.6926 5.94015 22.9285 6.91023 23.6433L7.50939 22.9571ZM44.0585 17.4673C44.0585 20.2122 42.3466 22.2709 41.4906 22.9571L42.0898 23.6433C43.0598 22.9285 45 20.6926 45 17.4673C45 14.242 43.231 12.0632 42.3466 11.377L41.6618 11.9774C42.4607 12.6637 44.0585 14.7223 44.0585 17.4673ZM26.8539 11.2912H25.5699L25.4843 12.7494H26.5971L26.8539 11.2912ZM25.8267 10.1761H26.9395V9.57562C26.9395 9.23251 27.2818 8.88939 27.881 8.4605C28.4802 8.0316 28.9081 7.51693 28.9937 6.23025C29.0793 4.94357 28.7369 4 27.2818 4C25.8267 4 25.3131 4.17156 25.142 5.37246C25.005 6.33318 25.0278 6.74492 25.0564 6.8307H26.5115C26.54 6.40181 26.6313 5.50971 26.7683 5.37246H27.3674C27.4245 5.77276 27.453 6.6763 27.1106 7.08804C27.0096 7.20953 26.8847 7.33581 26.7529 7.46913C26.3262 7.90054 25.8267 8.40566 25.8267 9.06095V10.1761Z"/></svg>