<svg xmlns="http://www.w3.org/2000/svg" viewBox="0 0 48 48" class="ability-icon createSvgIcon__Svg-sc-1l8xi8d-0 ldKivg"><title/><path fill-rule="evenodd" clip-rule="evenodd" d="M39.3253 8.10901L39.747 8.61216V14.7338L33.8434 16.0755H38.8193V16.6625C38.8193 17.7358 37.9759 18.116 37.5542 18.1719H34.4337C32.9494 18.1719 32.5783 17.3333 32.5783 16.914V15.9916L31.7349 15.2369V14.6499L31.1446 14.0629H30.3012C30.1663 14.8679 29.6265 15.5164 29.3735 15.74L29.2892 17.0818L28.0241 21.5262H30.3855C33.2867 21.4591 34.0683 23.6226 34.0964 24.7128V26.5577H36.6265L37.1325 26.9769C37.2731 27.0608 37.5711 27.1279 37.6386 26.7254C37.7229 26.2222 38.988 26.0545 39.241 26.5577C39.4434 26.9602 39.8313 27.9553 40 28.4025V29.9958L38.988 31.0021L33.3373 31.7568V31.9245L33.9277 32.847V33.7694L35.8675 34.7757L36.6265 34.4403L37.4699 35.2788L37.3855 35.782L36.1205 37.1237L35.8675 37.2075L35.6988 36.956H35.3614V37.8784L31.6506 41.5681L32.241 42.1551L33.253 41.3166L33.9277 41.9036L31.9036 44H26.759C26.6747 43.972 26.3205 43.782 25.5783 43.2453C24.6743 42.5915 24.8915 42.0174 25.1373 41.3677L25.1566 41.3166C25.4096 40.6457 25.9157 40.7296 26.253 40.9811C26.5229 41.1824 27.0402 41.5122 27.2651 41.652H28.6145L32.6626 37.2914C31.5382 36.6485 29.1036 35.2621 28.3614 34.8595C27.6193 34.457 27.1526 33.5737 27.012 33.1824C26.7028 33.0147 25.9325 32.4109 25.3253 31.3375C24.7181 30.2642 24.9598 28.9895 25.1566 28.4864V27.8994H23.6386C22.6265 27.8994 22.1205 27.8155 21.7831 27.3962C21.4458 26.9769 21.2771 26.7254 20.7711 25.9706C20.2651 25.2159 20.5181 24.3774 20.7711 24.1258C20.7962 24.1008 20.8247 24.0717 20.8561 24.0395L20.8562 24.0395L20.8562 24.0394L20.8562 24.0394C21.1415 23.7475 21.6731 23.2034 22.2048 23.2034H23.9759L25.6626 18.8428H24.8193L23.3012 17.1656H18.9157V18.5073H15.0361V17.0818L13.8554 16.2432V12.9727H13.5181H11.4096C11.0723 12.9727 10.7349 12.7212 10.7349 12.3857V10.8763C10.7349 10.457 10.988 10.1216 11.4096 10.1216H13.5181L14.2771 9.78616V8.61216H14.6988V7.01887H15.7952L17.0602 8.61216H19.8434L21.0241 9.19916H24.2289L24.988 8.77987H27.8554L29.3735 9.78616V10.457C30.453 10.457 30.9478 11.0161 31.0602 11.2956H31.7349V8.94759C31.7349 8.27673 31.8193 8.10901 32.4096 8.10901H38.2289V7.85744L32.1566 6.68344C32.0217 4.87212 33.3373 4.13976 34.012 4H37.5542C38.9711 4 39.3253 5.28581 39.3253 5.92872V8.10901ZM31.5663 29.8281C31.5663 31.0785 30.5468 32.0922 29.2892 32.0922C28.0315 32.0922 27.012 31.0785 27.012 29.8281C27.012 28.5776 28.0315 27.5639 29.2892 27.5639C30.5468 27.5639 31.5663 28.5776 31.5663 29.8281ZM30.3474 29.2538L29.8703 28.7794L28.1928 30.4474L28.6699 30.9217L30.3474 29.2538ZM29.1205 36.6205L26.759 35.1111L24.9036 36.7883L23.2169 36.7044C22.4578 35.9497 21.3614 36.0335 21.1928 36.956C21.0578 37.6939 22.261 38.4375 22.8795 38.717H27.5181L29.1205 37.1237V36.6205ZM5.59036 10.8763H7.86747V12.3857H5.59036C5.39357 12.3578 5 12.1677 5 11.631C5 11.0943 5.39357 10.9043 5.59036 10.8763Z"/></svg>