<svg xmlns="http://www.w3.org/2000/svg" viewBox="0 0 48 48" class="ability-icon createSvgIcon__Svg-sc-1l8xi8d-0 ldKivg"><title/><path fill-rule="evenodd" clip-rule="evenodd" d="M10.7089 4L11.1519 5.68027L9.37975 5.32653L10.7089 4ZM34.6329 4L34.2785 6.38776L36.4051 5.5034L34.6329 4ZM42.962 7.71429L43.3165 5.2381L45 6.38776L42.962 7.71429ZM42.519 23.9864L44.3797 24.9592L44.2911 22.8367L42.519 23.9864ZM38.7089 28.8503L40.6582 31.415L41.8987 28.4082L38.7089 28.8503ZM20.9873 8.15646L19.2152 5.68027L22.2278 5.32653L20.9873 8.15646ZM7.34177 14.7891L5.83544 10.898L3 14.2585L7.34177 14.7891ZM8.31646 26.7279L6.01266 29.381L8.67089 30.2653L8.31646 26.7279ZM14.0759 11.9592C14.6143 11.9592 15.0506 11.5237 15.0506 10.9864C15.0506 10.4491 14.6143 10.0136 14.0759 10.0136C13.5376 10.0136 13.1013 10.4491 13.1013 10.9864C13.1013 11.5237 13.5376 11.9592 14.0759 11.9592ZM28.519 7.71429C28.519 8.10502 28.2016 8.42177 27.8101 8.42177C27.4186 8.42177 27.1013 8.10502 27.1013 7.71429C27.1013 7.32355 27.4186 7.0068 27.8101 7.0068C28.2016 7.0068 28.519 7.32355 28.519 7.71429ZM41.7215 16.7347C42.0641 16.7347 42.3418 16.4575 42.3418 16.1156C42.3418 15.7738 42.0641 15.4966 41.7215 15.4966C41.379 15.4966 41.1013 15.7738 41.1013 16.1156C41.1013 16.4575 41.379 16.7347 41.7215 16.7347ZM40.7468 8.15646L39.3631 8.53087L7.4787 17.1579L6.10127 17.5306L7.10689 18.5413L30.4309 41.9827L31.443 43L31.8129 41.6147L40.3776 9.53914L40.7468 8.15646ZM38.9939 9.91356L8.48432 18.1686L14.4131 24.1273C15.816 22.2187 18.0795 20.9796 20.6329 20.9796C24.8904 20.9796 28.3418 24.4243 28.3418 28.6735C28.3418 31.2412 27.0815 33.5152 25.1446 34.9127L30.8008 40.5974L38.9939 9.91356ZM24.0031 33.7655L15.5546 25.2745C16.6522 23.6442 18.517 22.5714 20.6329 22.5714C24.0095 22.5714 26.7468 25.3034 26.7468 28.6735C26.7468 30.8005 25.6564 32.6733 24.0031 33.7655ZM27.6329 34.6871L29.7595 36.9864L36.3165 12.5782L12.038 19.1224L14.519 21.6871C15.1983 21.0091 17.1772 19.6177 19.6582 19.4762L32.9494 15.8503L29.7595 27.7891C29.8481 29.381 29.5468 32.9891 27.6329 34.6871ZM20.3671 24.2517C19.2329 24.181 18.2996 24.8118 17.9747 25.1361L24.2658 31.5034C24.9747 30.6544 25.0928 29.381 25.0633 28.8503L20.3671 24.2517ZM20.6329 34.7755C20.9496 34.7755 21.2607 34.7515 21.5644 34.7051L22.8858 36.0336C22.1732 36.2506 21.4167 36.3673 20.6329 36.3673C16.3754 36.3673 12.9241 32.9227 12.9241 28.6735C12.9241 27.8716 13.047 27.0983 13.275 26.3715L14.5964 27.6999C14.5455 28.0169 14.519 28.3421 14.519 28.6735C14.519 32.0435 17.2563 34.7755 20.6329 34.7755Z"/></svg>