<svg xmlns="http://www.w3.org/2000/svg" viewBox="0 0 48 48" class="ability-icon createSvgIcon__Svg-sc-1l8xi8d-0 ldKivg"><title/><path fill-rule="evenodd" clip-rule="evenodd" d="M24 9.07514C35.0083 9.07514 43.9322 18.0605 43.9322 29.1445C43.9322 30.9741 43.6891 32.7464 43.2336 34.4306H44.3384C44.7703 32.7411 45 30.9698 45 29.1445C45 17.4667 35.598 8 24 8C12.402 8 3 17.4667 3 29.1445C3 30.9698 3.2297 32.7411 3.66159 34.4306H4.76645C4.31093 32.7464 4.0678 30.9741 4.0678 29.1445C4.0678 18.0605 12.9917 9.07514 24 9.07514ZM18.839 21.6185V20.9017H11.8983L15.2797 14.9884L18.2161 20.0058H19.0169L15.8136 14.4509H32.3644L29.5169 19.3786V20.6329L32.9873 14.7197L36.4576 20.7225L37.0805 20.8121L33.8771 14.8988L39.0381 17.2283L38.3263 16.2428L33.1653 13.9133H25.2458V13.5549L27.6483 10.0607L27.1144 9.79191L24.6229 13.4653L22.3983 9.79191L21.8644 10.0607L24 13.5549V13.9133H15.2797L10.4746 15.4364L9.67373 16.3324L14.8347 14.8092L11.2754 20.6329L9.3178 16.7803L8.96186 17.2283L10.7415 20.9913L6.64831 20.9017L6.38136 21.4393L18.839 21.6185ZM9.76271 34.341L7.09322 29.9509V29.5925H18.839V28.9653H15.6356L18.839 23.3208V22.2457L15.1017 28.6965L12.0763 22.5145H11.5424L14.3898 28.9653H4.86864V29.5925H6.20339L5.40254 33.8931L5.75847 34.5202L6.64831 30.3988L9.05085 34.341H9.76271ZM14.1229 30.3988L11.8093 34.341H12.4322L14.6568 30.3988H14.1229ZM17.5042 34.341L15.2797 30.4884H15.9915L18.2161 34.341H17.5042ZM21.6864 34.341L23.2881 31.7428L22.7542 31.474L21.0636 34.341H21.6864ZM20.2627 22.3353H21.3305V20.5434C21.3305 19.4682 22.6653 18.4827 23.3771 18.4827H25.0678C25.9576 18.4827 27.0254 19.4682 27.0254 20.4538V22.3353H28.0932V28.5173L24.089 30.578L20.2627 28.5173V22.3353ZM24.8008 26.1096C25.1732 25.8928 25.4237 25.4874 25.4237 25.0231C25.4237 24.3304 24.866 23.7688 24.178 23.7688C23.49 23.7688 22.9322 24.3304 22.9322 25.0231C22.9322 25.4494 23.1434 25.826 23.4661 26.0526V27.711C23.5254 27.7707 23.7508 27.8902 24.178 27.8902C24.6051 27.8902 24.7712 27.7707 24.8008 27.711V26.1096ZM25.8686 20.9017C25.8686 20.185 25.4237 19.6474 24.2669 19.6474C23.1102 19.6474 22.6653 20.185 22.6653 20.9017V22.3353H25.8686V20.9017ZM32.3644 30.4884L30.2288 34.341H30.8517L32.9873 30.4884H32.3644ZM25.5127 31.3844L25.0678 31.7428L26.5805 34.4306H27.3814L25.5127 31.3844ZM33.6102 30.578H34.2331L36.1017 34.341H35.3898L33.6102 30.578ZM21.9534 17.4075L23.3771 15.3468H24.089L22.8432 17.1387L21.9534 17.4075ZM26.1356 17.2283L25.0678 15.3468H25.6017L27.1144 17.8555L26.1356 17.2283ZM16.3475 13.1965H17.3263L21.3305 10.0607H20.3517L16.3475 13.1965ZM14.4788 13.4653L14.9237 13.1965L14.4788 12.3902L14.0339 12.659L14.4788 13.4653ZM31.5636 13.1965L28.4492 10.3295L29.6949 10.6879L32.3644 13.1965H31.5636ZM33.5212 13.4653L33.0763 13.1965L33.6992 12.3902L34.1441 12.7486L33.5212 13.4653ZM10.8305 22.5145H10.2966L7.00424 28.0694H7.62712L10.8305 22.5145ZM5.66949 23.5L6.20339 22.2457L6.73729 28.0694H6.20339L5.66949 23.5ZM39.928 18.3931L39.572 17.8555L37.7924 20.9017H38.4153L39.928 18.3931ZM29.5169 21.7081V21.0809L41.9746 22.1561L42.0636 22.6936L38.0593 22.3353V22.6936L41.3517 28.159H40.6398L37.4364 22.6936L33.8771 28.9653H43.1314V29.5925H42.1525L42.5085 34.2514H41.8856L41.6186 30.578L39.3051 34.341H38.5932L41.2627 30.0405V29.5925L29.428 29.6821V28.9653H32.8093L29.5169 23.4104L29.6059 22.3353L33.4322 28.6069L36.9915 22.2457L29.5169 21.7081ZM42.3305 24.0376L41.7966 28.159H42.3305L42.7754 25.3815L42.3305 24.0376ZM3.35593 36.6705V35.5058H44.822V36.6705H41.3517L42.5975 37.3873L42.0636 37.7457H38.6822L39.661 38.3728L39.1271 39H9.40678L8.51695 38.2832L9.22881 37.7457H6.02542L5.49153 37.2977L6.55932 36.6705H3.35593Z"/></svg>