<svg xmlns="http://www.w3.org/2000/svg" viewBox="0 0 48 48" class="ability-icon createSvgIcon__Svg-sc-1l8xi8d-0 ldKivg"><title>Sage - Slow Orb</title><path d="M24 42C14.062 42 6 33.938 6 24C6 14.062 14.062 6 24 6C33.938 6 42 14.062 42 24C42 33.938 33.938 42 24 42ZM24 8.53521C15.4817 8.53521 8.53521 15.4817 8.53521 24C8.53521 32.5183 15.4817 39.4648 24 39.4648C32.5183 39.4648 39.4648 32.5183 39.4648 24C39.4648 15.4817 32.5183 8.53521 24 8.53521Z"/><path d="M23.6956 30.5408L29.9829 27.8028L29.7801 24L26.8392 16.4958L31.3519 23.493L32.0111 27.6507L34.8505 30.4394C35.966 28.5634 36.6252 26.3324 36.6252 23.9493C36.6252 20.907 35.5097 18.0676 33.735 15.8873L31.8083 20.7549L32.2139 14.3662C29.9829 12.4901 27.1435 11.3239 23.9998 11.3239C23.4421 11.3239 22.935 11.3747 22.428 11.4254L23.9998 14.6704L23.4928 22.3775L21.8195 15.1268L18.473 12.6423C16.3435 13.707 14.5181 15.3296 13.3012 17.3578C13.3012 17.3578 13.3012 17.4085 13.2505 17.4085L14.873 20.8056L12.5914 18.7268C11.8308 20.3493 11.4252 22.1239 11.4252 24C11.4252 24.862 11.5266 25.7239 11.6787 26.5352L16.6477 25.0141L20.0449 17.5099L19.0308 25.9268L13.4533 30.8451C14.1632 31.9606 15.0252 32.9239 15.9885 33.7352L18.9801 30.1859L17.1547 34.5972C19.1322 35.8648 21.4646 36.6254 23.9998 36.6254C25.7237 36.6254 27.3463 36.2704 28.8674 35.662L27.8533 33.3803L29.8815 35.1549C30.6928 34.7493 31.4533 34.2423 32.1125 33.6338L30.4899 30.5408H23.6956Z"/></svg>