<svg xmlns="http://www.w3.org/2000/svg" viewBox="0 0 48 48" class="ability-icon createSvgIcon__Svg-sc-1l8xi8d-0 ldKivg"><title>Sage - Barrier Orb</title><path fill-rule="evenodd" clip-rule="evenodd" d="M8.92586 36H11.3295V13H9.69993V14.4824L7.01107 13H2V14.3477L7.66291 21.0859L2 18.3906V30.5645L4.60738 31.5527L2 32.8555V36H6.35922L7.01107 33.9336L8.92586 36ZM21.4328 36H22.8587V13H19.7217L18.6217 14.2578L17.3995 13H13.5699V36H17.3587L16.5032 33.9336L21.4328 36ZM34.4295 36H29.9888L29.4592 33.7988L27.2185 36H25.1407V13H28.6037L30.0296 19.1543L31.6592 13H34.4295V36ZM42.3741 36H44.2074L46 34.1133V29.5762L40.3371 22.5684L46 25.8926V22.5234L43.3926 17.8516L46 15.8301V13H44.3297L41.6815 14.752L39.4001 13H36.6705V36H38.2593L41.3556 34.5625L42.3741 36Z"/></svg>