<svg xmlns="http://www.w3.org/2000/svg" viewBox="0 0 48 48" class="ability-icon createSvgIcon__Svg-sc-1l8xi8d-0 ldKivg"><title>Sage - Ressurection</title><path fill-rule="evenodd" clip-rule="evenodd" d="M7.68647 24.3971L23.4999 40.8798L39.3134 24.3971C42.9257 20.6319 42.8911 14.6771 39.2349 10.9542C35.4526 7.10273 29.2465 7.10274 25.4641 10.9542L23.4999 12.9544L21.5357 10.9542C17.7533 7.10274 11.5472 7.10273 7.76486 10.9542C4.10878 14.6771 4.07406 20.6319 7.68647 24.3971ZM23.6745 31.8505C24.4221 27.9626 27.4626 24.9221 31.3505 24.1745C31.5498 24.1246 31.5498 23.8256 31.3505 23.8256C27.4626 23.0779 24.4221 20.0374 23.6745 16.1496C23.6246 15.9502 23.3754 15.9502 23.3255 16.1496C22.5779 20.0374 19.5374 23.0779 15.6495 23.8256C15.4502 23.8754 15.4502 24.1246 15.6495 24.1745C19.5374 24.9221 22.5779 27.9626 23.3255 31.8505C23.3754 32.0499 23.6246 32.0499 23.6745 31.8505Z"/></svg>