<svg xmlns="http://www.w3.org/2000/svg" viewBox="0 0 48 48" class="ability-icon createSvgIcon__Svg-sc-1l8xi8d-0 ldKivg"><title>Sage - Healing Orb</title><path fill-rule="evenodd" clip-rule="evenodd" d="M25.1729 7.35024C25.1729 8.15981 24.5166 8.81609 23.707 8.81609C22.8975 8.81609 22.2412 8.15981 22.2412 7.35024C22.2412 6.54068 22.8975 5.8844 23.707 5.8844C24.5166 5.8844 25.1729 6.54068 25.1729 7.35024ZM29.2768 12.9204C29.2768 13.8918 28.4893 14.6794 27.5178 14.6794C26.5464 14.6794 25.7588 13.8918 25.7588 12.9204C25.7588 11.9489 26.5464 11.1614 27.5178 11.1614C28.4893 11.1614 29.2768 11.9489 29.2768 12.9204ZM20.4818 14.0931C21.1295 14.0931 21.6545 13.568 21.6545 12.9204C21.6545 12.2727 21.1295 11.7477 20.4818 11.7477C19.8342 11.7477 19.3092 12.2727 19.3092 12.9204C19.3092 13.568 19.8342 14.0931 20.4818 14.0931ZM31.4258 17.8139C32.6044 19.3729 33.3035 21.3146 33.3035 23.4196C33.3035 28.558 29.138 32.7235 23.9996 32.7235C18.8611 32.7235 14.6956 28.558 14.6956 23.4196C14.6956 21.3144 15.3948 19.3726 16.5736 17.8136L6.11683 9.40267C5.72594 10.5753 6.29271 14.2106 8.16899 15.8524C9.04415 16.6181 9.84703 17.3074 10.5538 17.9141L10.5539 17.9142C11.3623 18.6082 12.0451 19.1943 12.5665 19.6636V21.7158L6.81838 17.3182C7.01381 18.7841 7.81418 22.079 9.57319 23.5448C10.67 24.4588 11.6381 25.1522 12.1968 25.5524L12.1969 25.5525C12.355 25.6657 12.4803 25.7555 12.5665 25.8201V28.1655L8.75528 24.9406C8.55984 26.8951 10.1044 30.7773 12.1565 32.2698C13.4561 33.215 15.6581 35.0676 17.9233 36.9734L17.9233 36.9735C20.155 38.8512 22.4481 40.7805 24.0001 41.9444V41.9442C25.552 40.7802 27.8449 38.851 30.0766 36.9734L30.0767 36.9733L30.0767 36.9733C32.3419 35.0675 34.5439 33.2148 35.8435 32.2697C37.8956 30.7772 39.4402 26.8949 39.2447 24.9405L35.4335 28.1653V25.82C35.8244 25.5268 36.958 24.6473 38.3652 23.4746C40.0834 22.0428 40.4962 18.9326 40.6966 17.4229L40.7105 17.3181L35.4335 21.7156V19.6634C35.9549 19.1942 36.6376 18.6081 37.4461 17.9141L37.4462 17.914L37.4474 17.9129L37.4475 17.9129C38.1539 17.3064 38.9564 16.6176 39.831 15.8522C41.7073 14.2105 42.2741 10.5752 41.8832 9.40254L31.4258 17.8139ZM23.9998 30.5107C27.8857 30.5107 31.0358 27.3605 31.0358 23.4746C31.0358 19.5887 27.8857 16.4386 23.9998 16.4386C20.1139 16.4386 16.9637 19.5887 16.9637 23.4746C16.9637 27.3605 20.1139 30.5107 23.9998 30.5107Z"/></svg>