<svg width="48" height="48" viewBox="0 0 48 48" fill="none" xmlns="http://www.w3.org/2000/svg">
<path d="M8.81629 31.1737C8.17655 30.8894 8.10547 30.3918 8.10547 29.8231C8.10547 29.3966 8.10547 28.899 8.10547 28.4725C8.10547 28.1171 8.17655 27.8328 8.53196 27.6906C9.1717 27.4063 9.81144 27.122 10.5223 26.9087C10.5933 26.9087 10.7355 26.9087 10.8066 26.9798C11.0909 27.1931 11.3042 27.4063 11.5885 27.6906C11.4463 27.7617 11.3753 27.8328 11.3042 27.9039C10.8777 28.1882 10.8066 28.5436 11.3042 28.6858C12.0861 28.9701 12.9391 29.2545 13.7921 29.3966C17.5594 30.0364 21.3979 30.1074 25.2363 30.0364C27.582 29.9653 29.9988 29.752 32.3446 29.6099C32.4156 29.6099 32.4867 29.6099 32.6289 29.5388C32.2735 29.3255 31.9892 29.1834 31.7759 29.0412C30.6386 28.1882 29.5013 27.4063 28.364 26.5533C27.9375 26.1979 27.7953 25.7714 27.8664 25.2738C28.1507 23.2835 28.435 21.3643 28.7194 19.374C28.9326 17.5969 29.2169 15.8199 29.4302 14.1139C29.5013 13.4031 29.8567 12.9766 30.5675 12.6212C29.9278 12.6212 29.3591 12.5501 28.7904 12.6212C28.1507 12.6923 27.7242 13.2609 27.582 13.9717C27.0134 17.7391 26.5158 21.5776 25.9471 25.3449C25.8761 25.7714 26.0182 26.1268 26.3026 26.4822C26.5869 26.8377 26.9423 27.1931 27.2977 27.5485C26.4447 27.8328 25.6628 27.9039 24.8098 27.975C20.0473 28.1882 16.2799 26.4112 13.8631 22.2173C12.015 19.0186 11.9439 15.6777 13.2945 12.2658C13.4366 11.9104 13.6499 11.6971 14.0053 11.6971C14.4318 11.6971 14.7161 11.4128 14.9294 11.0574C15.9245 9.56463 17.204 8.4984 18.9811 8.0719C21.3979 7.50324 23.3882 8.35623 25.0231 10.1333C25.4496 10.5598 25.7339 11.1284 26.0893 11.626C26.1604 11.6971 26.3026 11.8393 26.3736 11.8393C27.2977 11.8393 28.2218 11.7682 29.2169 11.6971C29.0748 11.1995 28.9326 10.773 28.7904 10.4176C28.2929 9.20922 27.4399 8.21407 26.4447 7.36108C26.3026 7.21891 26.0893 7.21891 25.8761 7.14783C25.805 7.14783 25.6628 7.14783 25.5917 7.14783C24.8809 7.21891 24.1701 7.07675 23.5303 6.65025C22.3219 5.93943 20.9714 6.01051 19.6919 6.22376C19.5497 6.22376 19.4076 6.29484 19.3365 6.29484C19.3365 6.22376 19.3365 6.22376 19.3365 6.15268C20.1184 5.93943 20.9003 5.6551 21.7533 5.51294C27.0845 4.58886 32.0602 7.29 34.1927 12.2658C34.2638 12.479 34.406 12.6212 34.6903 12.5501C35.0457 12.5501 35.33 12.5501 35.6854 12.5501C36.2541 12.5501 36.6806 12.8344 36.8938 13.332C37.4625 14.6115 37.5336 15.962 37.4625 17.3837C37.4625 17.5259 37.3914 17.5969 37.3203 17.7391C36.5384 19.0186 35.8276 20.2981 35.0457 21.5776C35.0457 21.5776 34.9746 21.6486 34.9035 21.6486C35.0457 20.0137 35.1879 18.3078 35.4011 16.6018C34.5481 16.6018 33.7662 16.6018 32.9132 16.6018C32.7711 17.3126 32.7 17.9524 32.5578 18.6632C32.2735 20.4402 32.0602 22.2173 31.7759 23.9233C31.7048 24.3498 31.847 24.563 32.1313 24.8473C33.3397 25.9136 34.6903 26.4112 36.2541 26.6244C37.1071 26.7666 37.9601 27.122 38.8131 27.4063C39.4528 27.6196 39.8082 28.0461 39.6661 28.7569C39.595 29.1834 39.595 29.6099 39.6661 30.0364C39.7371 30.5339 39.5239 30.8894 39.0974 31.1026C39.0263 31.1737 38.9552 31.1737 38.9552 31.2448C39.4528 32.0978 40.0215 32.9507 40.519 33.8748C41.7274 36.2916 42.2961 38.7795 42.2961 41.4806C42.2961 41.9782 42.225 42.1204 41.7274 42.1915C41.0877 42.3336 40.448 42.4758 39.7371 42.6179C38.9552 42.7601 38.742 42.6179 38.6709 41.836C38.5287 38.7084 37.5336 35.8651 35.6854 33.3062C35.6854 33.2351 35.6144 33.2351 35.6144 33.164C34.9035 32.2399 34.8324 32.2399 33.6951 32.4532C33.553 32.5242 33.4108 32.6664 33.3397 32.8086C32.9843 33.5194 32.4156 33.8748 31.6337 34.017C28.6483 34.6567 25.6628 34.87 22.6063 34.7278C19.9762 34.6567 17.3462 34.3013 14.7872 33.8037C14.4318 33.7326 14.1475 33.5905 14.0053 33.2351C13.8631 33.0218 13.721 32.8086 13.5788 32.5953C13.2945 32.1688 12.868 32.0978 12.5126 32.5242C10.5223 34.87 9.45603 37.5711 9.02954 40.6276C8.95845 41.1252 8.95845 41.5517 8.88737 42.0493C8.81629 42.5469 8.67412 42.7601 8.17655 42.6179C7.32356 42.4758 6.47057 42.2625 5.68866 42.1204C5.40433 42.0493 5.33325 41.836 5.33325 41.5517C5.33325 37.9265 6.39949 34.5856 8.53196 31.6002C8.60304 31.458 8.74521 31.3158 8.81629 31.1737ZM24.2412 15.5356C24.2412 13.8296 23.6725 12.2658 22.4641 10.9863C20.6871 9.20922 18.1281 9.20922 16.351 10.9863C13.9342 13.332 13.9342 17.7391 16.2799 20.0848C18.1281 21.933 20.8292 21.8619 22.6063 19.9427C23.7436 18.7343 24.1701 17.2415 24.2412 15.5356ZM15.0005 21.7197C15.0005 21.8619 15.0005 22.0041 15.0715 22.1462C15.498 22.7149 15.9245 23.3546 16.4221 23.9233C18.2702 25.7714 21.0425 25.9136 23.1039 24.3498C24.5255 23.2125 25.2363 21.6486 25.5207 19.8716C25.5207 19.8716 25.5207 19.8005 25.5207 19.8716C24.8098 20.5824 24.1701 21.3643 23.3882 22.0041C21.8955 23.2835 20.1184 23.8522 18.1281 23.3546C16.9908 22.9992 15.9956 22.4305 15.0005 21.7197Z" fill="black"/>
<path d="M23.4591 40.1301C22.6772 40.1301 21.8953 40.1301 21.1133 40.1301C20.5447 40.1301 20.4025 39.9168 20.5447 39.4193C20.7579 38.6374 20.9712 37.7844 21.1844 37.0025C21.2555 36.7892 21.3266 36.7181 21.5398 36.7181C22.8193 36.7181 24.0988 36.7181 25.3783 36.7181C25.5915 36.7181 25.6626 36.7892 25.7337 37.0025C25.9469 37.8555 26.2313 38.6374 26.5156 39.4193C26.6578 39.9168 26.5156 40.1301 25.9469 40.2012C25.094 40.1301 24.3121 40.1301 23.4591 40.1301Z" fill="black"/>
<path d="M11.2332 20.0848C12.1573 23.4968 14.0765 26.1268 16.9909 28.1171C16.28 28.0461 15.5692 28.0461 14.8584 27.975C14.3608 27.975 13.8632 27.7617 13.5078 27.4774C12.5838 26.6955 11.5886 25.9136 10.6645 25.1317C10.3091 24.7763 10.167 24.3498 10.3091 23.8522C10.6645 22.5727 10.9489 21.2932 11.2332 20.0848Z" fill="black"/>
<path d="M16.6355 15.3934C16.6355 14.7537 16.9198 13.9718 17.4885 13.332C18.4126 12.3369 19.8342 12.4079 20.7583 13.332C21.8956 14.5404 21.8956 16.6018 20.8294 17.8102C19.8342 18.8764 18.4126 18.8764 17.4174 17.7391C16.9198 17.1705 16.6355 16.3886 16.6355 15.3934Z" fill="black"/>
</svg>
