<svg width="48" height="48" viewBox="0 0 48 48" fill="none" xmlns="http://www.w3.org/2000/svg">
<path d="M41.493 23.9634C41.493 27.1173 41.493 30.1978 41.493 33.3517C41.493 33.5718 41.3464 33.8651 41.1997 34.0852C41.1997 34.0852 41.1997 34.1585 41.1263 34.1585C40.6862 34.672 40.0995 35.112 39.8794 35.6988C39.6594 36.2856 39.8061 37.019 39.8061 37.6792C39.8061 37.8258 39.7327 38.0459 39.586 38.1926C38.3391 39.5862 37.0923 41.0531 35.8454 42.4467C35.6987 42.5934 35.4786 42.6667 35.3319 42.6667C33.7183 42.6667 32.1047 42.6667 30.4911 42.6667C30.1977 42.6667 29.9777 42.5934 29.7576 42.3733C29.4642 41.9332 29.0975 41.8599 28.5841 41.8599C25.2835 41.8599 21.9829 41.8599 18.6823 41.8599C18.3889 41.8599 18.0955 41.9332 17.8755 42.1533C17.5821 42.52 17.2887 42.5934 16.8486 42.5934C15.0883 42.5934 13.328 42.5934 11.641 42.5934C11.3477 42.5934 11.201 42.52 11.0543 42.3C9.80738 40.9064 8.63384 39.5128 7.38695 38.1192C7.24026 37.9725 7.09357 37.6792 7.16691 37.4591C7.31361 36.2122 6.87353 35.1854 5.84668 34.3052C5.4066 33.9385 5.33325 33.4984 5.33325 32.985C5.33325 26.8972 5.33325 20.7361 5.33325 14.6484C5.33325 14.2816 5.4066 13.9883 5.62664 13.7682C5.92002 13.4748 6.14006 13.1081 6.43345 12.8881C6.94687 12.448 7.16691 11.8612 7.02022 11.2011C6.87353 10.3209 7.24026 9.66081 7.82703 9.0007C8.92723 7.9005 9.88073 6.65361 10.9809 5.55341C11.1276 5.40672 11.3477 5.33337 11.4944 5.33337C13.2547 5.33337 15.015 5.33337 16.7753 5.33337C17.2154 5.33337 17.5088 5.40672 17.7288 5.77345C17.9488 6.06684 18.2422 6.14018 18.5356 6.14018C21.8362 6.14018 25.2101 6.14018 28.5107 6.14018C28.9508 6.14018 29.2442 6.06684 29.4642 5.70011C29.6843 5.40672 29.9777 5.33337 30.271 5.33337C31.8847 5.33337 33.4249 5.33337 35.0386 5.33337C35.2586 5.33337 35.4786 5.48007 35.6253 5.55341C36.8722 6.947 38.1191 8.26723 39.2927 9.66081C39.4393 9.80751 39.586 10.1009 39.5127 10.3209C39.2927 11.6412 39.7327 12.7414 40.7596 13.6215C41.1997 13.9883 41.273 14.355 41.273 14.8684C41.493 17.949 41.493 20.9562 41.493 23.9634ZM39.9528 23.9634C39.9528 21.1029 39.9528 18.3157 39.9528 15.4552C39.9528 14.9418 39.8061 14.5017 39.4393 14.2083C38.4125 13.3281 37.9724 12.3013 38.1925 10.981C38.1925 10.761 38.1191 10.4676 37.9724 10.3209C37.0189 9.22073 36.1388 8.19389 35.1853 7.16703C35.0386 7.02034 34.8185 6.87365 34.5985 6.87365C33.5716 6.87365 32.5448 6.947 31.5179 6.87365C30.7845 6.8003 30.1977 7.02034 29.831 7.60711C29.5376 7.82715 29.3175 7.82715 29.0242 7.82715C25.4302 7.82715 21.9095 7.82715 18.3156 7.82715C17.6555 7.82715 17.142 7.68046 16.7019 7.16703C16.5553 7.02034 16.3352 6.87365 16.1152 6.87365C14.8683 6.87365 13.5481 6.87365 12.3012 6.87365C12.1545 6.87365 11.9344 6.947 11.8611 7.09369C10.8342 8.19389 9.88073 9.29408 8.92723 10.4676C8.85388 10.6143 8.78053 10.761 8.78053 10.9077C8.78053 11.5678 8.92723 12.3013 8.70719 12.8881C8.48715 13.4748 7.90038 13.9149 7.4603 14.4283C7.4603 14.4283 7.4603 14.5017 7.38695 14.5017C7.16691 14.7217 7.09357 15.0151 7.09357 15.3085C7.09357 21.0295 7.09357 26.7505 7.09357 32.4716C7.09357 32.985 7.16691 33.3517 7.53365 33.7184C8.5605 34.5986 9.00057 35.6988 8.78053 37.019C8.78053 37.1657 8.85388 37.4591 9.00057 37.6058C9.95408 38.706 10.9076 39.8062 11.9344 40.9064C12.0811 41.0531 12.3012 41.1264 12.4479 41.1264C13.4747 41.1264 14.5749 41.1264 15.6018 41.1264C16.2619 41.1264 16.7753 40.9797 17.142 40.4663C17.3621 40.1729 17.6555 40.0996 18.0222 40.0996C21.6162 40.0996 25.1368 40.0996 28.7308 40.0996C29.3909 40.0996 29.9043 40.2463 30.3444 40.7597C30.5644 41.0531 30.7845 41.1264 31.1512 41.1264C32.3247 41.1264 33.4983 41.1264 34.6718 41.1264C35.0386 41.1264 35.2586 41.0531 35.4786 40.7597C36.0654 40.0262 36.6522 39.2928 37.3123 38.706C38.2658 37.8258 38.7059 36.8723 38.4858 35.6255C38.4125 35.3321 38.5592 35.112 38.7792 34.892C39.2193 34.4519 39.586 34.0118 39.9528 33.4984C40.0995 33.3517 40.1728 33.0583 40.1728 32.8383C39.9528 29.8311 39.9528 26.8972 39.9528 23.9634Z" fill="black"/>
<path d="M37.0189 23.9634C37.0189 26.2371 37.0189 28.5842 37.0189 30.8579C37.0189 31.078 36.8722 31.3713 36.7255 31.5914C36.7255 31.6647 36.6522 31.6647 36.6522 31.6647C35.9187 32.3248 35.552 33.1317 35.6987 34.1585C35.6987 34.3052 35.6253 34.5252 35.4786 34.6719C34.5985 35.6988 33.645 36.7256 32.7648 37.7525C32.6181 37.8992 32.4714 37.9725 32.2514 37.9725C32.0313 37.9725 31.738 37.9725 31.5179 37.9725C31.0778 38.0459 30.7111 37.8992 30.4177 37.5324C30.3444 37.4591 30.1243 37.3857 29.9776 37.3857C25.6502 37.3857 21.2494 37.3857 16.922 37.3857C16.7753 37.3857 16.4819 37.5324 16.4086 37.6058C16.1885 37.8258 15.9685 37.8992 15.6017 37.8992C14.6482 38.0459 13.9881 37.6791 13.4013 36.8723C12.8146 36.0655 12.0811 35.4054 11.421 34.5986C11.2743 34.3785 11.1276 34.0852 11.1276 33.8651C11.201 32.985 10.9809 32.2515 10.3208 31.6647C9.95407 31.3713 9.80737 30.9313 9.80737 30.4178C9.80737 25.9437 9.80737 21.3962 9.80737 16.9221C9.80737 16.7021 9.95407 16.4087 10.0274 16.1886C10.0274 16.1153 10.1008 16.1153 10.1008 16.0419C10.8342 15.3818 11.201 14.6484 11.0543 13.6215C11.0543 13.4748 11.1276 13.2548 11.2743 13.1081C12.1545 12.0812 13.108 11.0544 13.9881 10.0275C14.0615 9.95419 14.0615 9.95419 14.1348 9.88084C14.3549 9.6608 15.9685 9.73415 16.1885 9.95418C16.4086 10.2476 16.7019 10.3209 17.142 10.3209C21.3961 10.3209 25.5769 10.3209 29.8309 10.3209C30.1243 10.3209 30.3444 10.2476 30.5644 10.0275C30.7845 9.80749 31.0045 9.73415 31.2979 9.73415C32.2514 9.58745 32.9115 9.95418 33.4983 10.6876C34.085 11.4945 34.8185 12.1546 35.4786 12.9614C35.6253 13.1814 35.772 13.4748 35.772 13.6949C35.6253 14.575 35.9187 15.3085 36.6522 15.8952C37.0189 16.1886 37.1656 16.6287 37.0922 17.1421C37.0189 19.5626 37.0189 21.763 37.0189 23.9634ZM34.3051 31.3713C34.3051 31.2246 34.3051 31.078 34.3051 30.9313C34.3051 27.0439 34.3051 23.1565 34.3051 19.2692C34.3051 19.1958 34.3051 19.0491 34.3051 18.9758C34.2317 18.6091 34.085 18.3157 33.7183 18.2423C33.3516 18.169 32.9848 18.2423 32.8382 18.6091C32.7648 18.7558 32.6915 18.9024 32.5448 19.1225C30.6378 22.2764 27.8506 23.9634 24.1833 24.1834C21.0294 24.4034 18.2422 23.4499 15.9685 21.1028C15.3084 20.3694 14.7216 19.4892 14.1348 18.6824C13.7681 18.169 13.0346 18.0223 12.7412 18.5357C12.5945 18.7558 12.5945 18.9758 12.5945 19.1958C12.5945 23.0832 12.5945 27.0439 12.5945 30.9313C12.5945 31.078 12.5945 31.1513 12.5945 31.298C13.108 31.298 13.6214 31.298 14.2082 31.298C14.2082 28.0708 14.2082 24.8435 14.2082 21.5429C16.5552 24.0367 19.3424 25.3569 22.643 25.577C22.643 27.484 22.643 29.3176 22.643 31.2247C23.2298 31.2247 23.7432 31.2247 24.2566 31.2247C24.2566 29.3176 24.2566 27.484 24.2566 25.577C27.4839 25.2836 30.271 24.0367 32.6181 21.6163C32.6181 24.9169 32.6181 28.0708 32.6181 31.298C33.2049 31.3713 33.7183 31.3713 34.3051 31.3713ZM23.5232 15.8952C20.956 15.8952 18.3889 15.8952 15.8951 15.8952C15.5284 15.8952 15.1617 15.8952 14.8683 16.3353C14.6482 16.7754 14.7949 17.0688 15.015 17.4355C18.829 23.9634 28.2907 23.89 32.0313 17.3622C32.5448 16.5554 32.178 15.8952 31.2245 15.8952C28.6574 15.8952 26.0903 15.8952 23.5232 15.8952ZM23.0097 33.7918C23.3031 33.7918 23.5965 33.7918 23.8165 33.7918C23.8165 33.4984 23.8165 33.2783 23.8165 32.985C23.5232 32.985 23.3031 32.985 23.0097 32.985C23.0097 33.2783 23.0097 33.4984 23.0097 33.7918ZM23.8165 11.7878C23.5232 11.7878 23.3031 11.7878 23.0097 11.7878C23.0097 12.0812 23.0097 12.3013 23.0097 12.5947C23.3031 12.5947 23.5232 12.5947 23.8165 12.5947C23.8165 12.3013 23.8165 12.0812 23.8165 11.7878ZM23.8165 13.8415C23.5232 13.8415 23.3031 13.8415 23.0097 13.8415C23.0097 14.1349 23.0097 14.355 23.0097 14.6484C23.3031 14.6484 23.5232 14.6484 23.8165 14.6484C23.8165 14.355 23.8165 14.1349 23.8165 13.8415ZM20.516 35.0387C20.516 35.332 20.516 35.5521 20.516 35.8455C20.8093 35.8455 21.0294 35.8455 21.3228 35.8455C21.3228 35.5521 21.3228 35.332 21.3228 35.0387C21.1027 35.0387 20.8093 35.0387 20.516 35.0387ZM20.516 12.5947C20.8093 12.5947 21.1027 12.5947 21.3228 12.5947C21.3228 12.3013 21.3228 12.0079 21.3228 11.7878C21.0294 11.7878 20.736 11.7878 20.516 11.7878C20.516 12.0812 20.516 12.3013 20.516 12.5947ZM26.3837 11.7878C26.0903 11.7878 25.7969 11.7878 25.5769 11.7878C25.5769 12.0812 25.5769 12.3746 25.5769 12.5947C25.8702 12.5947 26.1636 12.5947 26.3837 12.5947C26.3837 12.3013 26.3837 12.0812 26.3837 11.7878ZM23.0097 35.8455C23.3031 35.8455 23.5232 35.8455 23.8165 35.8455C23.8165 35.5521 23.8165 35.332 23.8165 35.0387C23.5232 35.0387 23.3031 35.0387 23.0097 35.0387C23.0097 35.332 23.0097 35.5521 23.0097 35.8455ZM25.5769 35.0387C25.5769 35.332 25.5769 35.6254 25.5769 35.8455C25.8702 35.8455 26.0903 35.8455 26.3837 35.8455C26.3837 35.5521 26.3837 35.332 26.3837 35.0387C26.1636 35.0387 25.8702 35.0387 25.5769 35.0387Z" fill="black"/>
<path d="M30.5644 17.2155C28.8041 19.6359 26.457 20.9561 23.5232 20.9561C20.516 20.9561 18.1689 19.7092 16.3352 17.2155C17.142 17.2155 17.8755 17.2155 18.6089 17.2155C18.6823 17.2155 18.829 17.3621 18.9023 17.4355C21.6161 19.8559 25.1368 19.8559 27.8506 17.4355C27.9239 17.3621 28.0706 17.2155 28.144 17.2155C29.0241 17.2155 29.7576 17.2155 30.5644 17.2155Z" fill="black"/>
</svg>
