<svg width="48" height="48" viewBox="0 0 48 48" fill="none" xmlns="http://www.w3.org/2000/svg">
<path d="M13.1131 22.8211C13.3292 22.8931 13.5453 22.9651 13.7614 23.0372C13.7614 22.3168 13.7614 21.6685 13.7614 21.0202C13.7614 20.2278 13.7614 20.2278 13.041 19.8676C13.041 18.499 13.041 17.1303 13.041 15.7616C13.041 14.7531 13.041 13.6726 13.041 12.6641C13.041 12.5201 13.1131 12.3039 13.1851 12.2319C15.6343 10.0709 18.0835 7.90981 20.5327 5.74876C20.8928 5.38858 21.253 5.24451 21.6852 5.38858C21.8293 5.46062 22.0454 5.46062 22.3335 5.53265C21.9734 5.74876 21.8293 6.10893 21.325 6.0369C21.253 6.0369 21.1089 6.10893 21.0369 6.18097C18.8038 8.12591 16.5707 10.1429 14.2656 12.0878C14.2656 12.0878 14.1936 12.1599 14.1215 12.3039C14.3376 12.448 14.5538 12.5921 14.7699 12.6641C15.4182 12.8802 16.1385 12.9523 16.7868 13.1684C17.147 13.2404 17.5072 13.1684 17.7953 13.0243C18.5157 12.5921 19.092 12.6641 19.8123 12.9523C21.1089 13.5285 22.4056 13.9608 23.7022 14.393C23.8463 14.465 23.9183 14.465 24.1344 14.537C24.1344 13.7446 24.1344 12.9523 24.1344 12.2319C24.1344 12.1599 23.9183 12.0158 23.8463 11.9438C22.4776 11.4395 21.1089 11.0073 19.7403 10.5031C19.3081 10.359 19.236 9.78272 19.5242 9.49458C20.8928 8.34202 22.1895 7.18946 23.5581 6.0369C23.7742 6.0369 23.9903 5.96486 24.1344 5.96486C26.6556 6.32504 29.1048 6.75725 31.6261 7.11742C31.9142 7.18946 32.3464 7.76574 32.3464 8.12591C32.3464 8.19795 32.3464 8.34202 32.3464 8.41405C32.3464 16.3379 32.3464 24.2618 32.3464 32.1856C32.3464 32.4738 32.2744 32.6899 31.9862 32.7619C27.6641 34.4187 23.4141 36.0755 19.092 37.8043C18.0835 38.2366 17.0029 38.5967 15.9224 39.0289C15.7783 39.101 15.5622 39.101 15.3461 39.0289C14.6258 38.7408 13.9775 38.4527 13.3292 38.1645C13.1851 38.0925 13.041 38.0205 13.041 37.8043C13.041 32.8339 13.041 27.9355 13.041 22.9651C13.041 22.8931 13.1131 22.8931 13.1131 22.8211ZM30.1133 30.2407C30.1133 30.0966 30.1133 29.9525 30.1133 29.8085C30.1133 28.944 30.1133 28.0796 30.1133 27.2152C30.1133 26.9271 30.0413 26.711 29.7531 26.6389C25.2149 24.838 20.6767 22.9651 16.0665 21.0922C15.5622 20.8761 15.058 20.66 14.4817 20.4439C14.4817 21.3804 14.4817 22.1727 14.4817 23.0372C14.4817 23.3253 14.5538 23.4694 14.8419 23.5414C16.0665 24.0457 17.219 24.5499 18.4436 24.9821C18.7318 25.1262 18.8038 25.2703 18.8038 25.5584C18.8038 29.2322 18.8038 32.978 18.8038 36.6518C18.8038 36.7959 18.8038 36.9399 18.8038 37.156C19.8123 36.7959 20.6767 36.4357 21.6132 36.0755C21.9013 36.0035 21.9734 35.8594 21.9734 35.5713C21.9734 32.906 21.9734 30.2407 21.9734 27.5033C21.9734 26.711 22.5496 26.4228 23.198 26.783C25.359 27.8635 27.5201 28.944 29.6811 30.0246C29.8252 30.0966 29.8972 30.1686 30.1133 30.2407ZM23.4141 8.99033C24.8548 9.27847 26.1514 9.56661 27.448 9.78272C27.8082 9.85475 27.9523 9.99882 27.9523 10.359C27.9523 13.0243 27.9523 15.6176 27.8802 18.2829C27.8802 18.7871 27.5201 19.0032 27.0158 18.7871C24.5666 17.7786 22.0454 16.7701 19.5962 15.7616C19.4521 15.6896 19.3081 15.6896 19.164 15.6176C19.164 16.3379 19.164 16.9862 19.164 17.6345C19.164 17.9227 19.236 18.0667 19.5242 18.1388C22.8378 19.5795 26.1514 21.0922 29.465 22.5329C29.6091 22.605 29.6811 22.605 29.8252 22.677C29.8252 17.9227 29.8252 13.1684 29.8252 8.41405C28.2404 8.12591 26.6556 7.83777 25.1429 7.54963C25.0709 7.54963 24.9268 7.54963 24.8548 7.62167C24.4225 8.12591 23.9183 8.55812 23.4141 8.99033ZM29.3209 33.1221C27.8082 32.4017 26.2955 31.7534 24.8548 31.0331C24.8548 32.3297 24.8548 33.5543 24.8548 34.8509C26.3675 34.2746 27.8082 33.6984 29.3209 33.1221Z" fill="black"/>
<path d="M11.5283 33.1941C11.5283 34.0585 11.6723 34.8509 11.0961 35.6433C10.3037 36.7238 9.65535 37.9484 8.935 39.101C9.07907 39.173 9.22314 39.245 9.36721 39.3171C11.1681 40.0374 12.969 40.7578 14.7698 41.4781C15.058 41.6222 15.2741 41.5502 15.5622 41.4781C20.6767 39.5332 25.7912 37.5882 30.9057 35.6433C31.1218 35.5712 31.3379 35.5712 31.554 35.6433C33.571 36.5077 35.66 37.3001 37.677 38.1645C37.8211 38.2365 37.8931 38.2365 38.1092 38.3806C37.6049 38.5967 37.2448 38.7408 36.8126 38.8849C36.6685 38.9569 36.5244 38.8849 36.3803 38.8128C34.7235 38.1645 33.0667 37.4442 31.4099 36.7958C31.1938 36.7238 30.9777 36.7238 30.7616 36.7958C25.7192 38.7408 20.6767 40.6137 15.6343 42.5586C15.2741 42.7027 15.058 42.7027 14.6978 42.5586C13.9054 42.1985 13.113 41.9103 12.3206 41.6222C12.0325 41.4781 11.8164 41.4781 11.5283 41.6222C10.952 41.8383 10.3037 42.0544 9.72739 42.3425C9.36721 42.4866 9.07907 42.4866 8.79093 42.2705C8.64686 42.1264 8.50279 42.0544 8.28669 41.9824C9.07907 41.6222 9.79942 41.334 10.5918 41.0459C9.51128 40.6137 8.50279 40.1815 7.42227 39.7493C7.71041 39.245 7.99855 38.8128 8.28669 38.3806C7.2782 38.0204 6.34174 37.5882 5.33325 37.2281C5.8375 37.084 6.26971 36.9399 6.77395 36.7958C6.91802 36.7958 6.99006 36.7958 7.13413 36.8679C7.71041 37.084 8.21465 37.3001 8.86297 37.5162C9.72739 36.0755 10.6638 34.7068 11.5283 33.2661C11.4562 33.1941 11.5283 33.1941 11.5283 33.1941Z" fill="black"/>
<path d="M34.2912 30.8169C35.0836 31.1051 35.876 31.3212 36.5963 31.6814C37.1006 31.8975 37.5328 31.8975 38.037 31.5373C38.5413 31.1771 39.1175 30.961 39.6218 30.6729C39.8379 30.5288 39.982 30.5288 40.1981 30.6729C40.4862 30.8169 40.7743 30.961 41.1345 31.1051C40.3421 31.5373 39.5497 31.9695 38.7574 32.4017C39.8379 32.7619 40.9184 33.1221 41.9989 33.4822C40.6303 33.9865 39.3336 34.4187 38.109 34.995C37.1006 35.4992 36.0921 35.5713 35.0836 34.995C34.5073 34.7068 33.931 34.5628 33.3547 34.3467C33.6429 33.9865 34.2912 34.2026 34.3632 33.6263C34.9395 33.8424 35.5158 34.0585 36.0921 34.3467C36.4522 34.4907 36.7404 34.4907 37.1006 34.3467C37.6768 34.1306 38.2531 33.9145 38.9014 33.6263C38.3252 33.4102 37.8209 33.1941 37.3167 33.05C36.4522 32.6899 35.5878 32.4017 34.7234 32.0415C34.4353 31.8975 34.2192 31.7534 34.2912 31.4653C34.2912 31.2492 34.2912 31.033 34.2912 30.8169Z" fill="black"/>
<path d="M6.77393 27.7194C7.27817 27.5754 7.71038 27.4313 8.21463 27.2872C8.3587 27.2872 8.43073 27.2872 8.5748 27.3593C9.43922 27.7194 10.3036 28.0796 11.1681 28.4398C11.4562 28.5839 11.6003 28.7279 11.5282 29.0161C11.5282 29.2322 11.5282 29.3762 11.5282 29.6644C9.94347 29.0161 8.43073 28.3678 6.77393 27.7194Z" fill="black"/>
</svg>
