<svg width="48" height="48" viewBox="0 0 48 48" fill="none" xmlns="http://www.w3.org/2000/svg">
<path d="M10.4148 25.9257C11.2617 25.9257 12.038 25.9257 12.8143 25.9257C13.3789 25.9257 13.7317 25.6434 13.8023 25.1494C13.8023 24.9377 13.8023 24.6554 13.7317 24.4437C13.0966 22.8205 12.4614 21.1973 11.8263 19.5035C11.7557 19.3624 11.6851 19.2212 11.6145 19.0095C11.7557 19.0095 11.8968 19.0095 12.038 19.0095C18.5307 19.0095 25.0941 19.0095 31.5868 19.0095C33.9863 19.0095 36.1741 19.7153 38.0796 21.0562C39.5616 22.1148 41.1142 23.1734 42.6668 24.3025C42.5257 24.3731 42.4551 24.4437 42.3845 24.5142C40.9731 25.5023 39.5616 26.4903 38.2207 27.4783C36.3152 28.8898 34.198 29.5955 31.7985 29.5955C29.6813 29.5955 27.6347 29.5955 25.5175 29.5955C25.4469 29.5955 25.3764 29.5955 25.2352 29.5955C25.2352 29.4544 25.2352 29.3132 25.2352 29.1721C25.2352 27.9018 25.2352 26.6315 25.2352 25.3611C25.2352 25.0788 25.3058 24.9377 25.5175 24.726C26.0115 24.0908 26.5761 23.8791 27.3524 23.9497C28.2699 24.0202 29.1873 23.9497 30.1048 23.9497C30.2459 23.9497 30.3871 23.9497 30.5282 23.9497C30.5282 24.5848 30.5282 25.22 30.5282 25.8551C29.3285 25.8551 28.1287 25.8551 26.929 25.8551C26.929 26.3492 26.929 26.8432 26.929 27.2666C28.6227 27.2666 30.3165 27.2666 31.9397 27.2666C31.9397 25.6434 31.9397 24.0908 31.9397 22.4676C31.7985 22.4676 31.6574 22.4676 31.5868 22.4676C29.7519 22.4676 27.917 22.4676 26.0821 22.4676C25.8704 22.4676 25.6586 22.5382 25.5175 22.6793C25.0235 23.1028 24.6001 23.5968 24.106 24.0202C23.9649 24.1614 23.8943 24.3731 23.8943 24.5848C23.8943 26.0669 23.8943 27.5489 23.8943 29.0309C23.8943 29.1721 23.8943 29.3132 23.8943 29.4544C23.7532 29.4544 23.612 29.4544 23.5414 29.4544C22.4828 29.4544 21.3537 29.4544 20.2951 29.4544C20.0128 29.4544 19.8716 29.3838 19.8011 29.1015C18.5307 25.9963 17.2604 22.9616 15.9195 19.8564C15.7784 19.5741 15.6372 19.5035 15.3549 19.5035C15.0021 19.5035 14.5786 19.5035 14.2258 19.5035C14.2963 19.6447 14.2963 19.7858 14.3669 19.8564C15.2138 21.8325 15.9901 23.8791 16.837 25.8551C16.837 25.9257 16.9075 25.9963 16.9075 26.0669C17.1193 26.6315 16.837 27.0549 16.2018 27.0549C15.0021 27.0549 13.7317 27.0549 12.532 27.0549C12.3909 27.0549 12.2497 27.0549 12.1086 27.0549C12.1086 27.5489 12.1086 27.9723 12.1086 28.4664C12.2497 28.4664 12.3909 28.4664 12.532 28.4664C14.1552 28.4664 15.8489 28.4664 17.4721 28.4664C17.8956 28.4664 18.1779 28.6075 18.2484 29.0309C18.2484 29.1015 18.319 29.2427 18.319 29.3132C18.1779 29.3132 18.0367 29.3132 17.8956 29.3132C15.5667 29.3132 13.2377 29.3132 10.9088 29.3132C10.5559 29.3132 10.4854 29.2427 10.4854 28.8898C10.4854 27.9018 10.4854 26.9137 10.4854 25.9257C10.4148 26.1374 10.4148 26.0669 10.4148 25.9257ZM32.9983 27.9018C33.4217 27.6195 33.7746 27.4078 34.198 27.196C34.4098 27.0549 34.4803 26.9137 34.4803 26.702C34.4803 25.2906 34.4098 23.8085 34.4803 22.397C34.5509 20.915 33.3512 19.7858 31.9397 19.8564C29.9636 19.927 27.917 19.927 25.9409 19.8564C24.9529 19.8564 24.1766 19.9975 23.4709 20.7033C23.3297 20.8444 23.0474 20.915 22.7651 20.915C21.3537 20.915 20.0128 20.915 18.6013 20.915C18.4602 20.915 18.319 20.915 18.2484 20.915C18.2484 20.9856 18.2484 20.9856 18.2484 20.9856C19.307 23.5262 20.3656 26.0669 21.4242 28.6075C21.4242 28.6781 21.5654 28.8192 21.636 28.8192C22.13 28.8192 22.5534 28.8192 23.118 28.8192C22.2006 26.6314 21.3537 24.5142 20.4362 22.3265C21.0714 22.3265 21.7065 22.2559 22.3417 22.3265C23.3297 22.4676 24.1766 22.1853 24.8823 21.4796C25.0235 21.3384 25.2352 21.2679 25.4469 21.2679C27.6347 21.2679 29.8225 21.2679 32.0103 21.2679C32.7866 21.2679 33.1394 21.6207 33.1394 22.397C33.1394 24.0908 33.1394 25.714 33.1394 27.4078C32.9983 27.5489 32.9983 27.6901 32.9983 27.9018ZM35.7506 21.6207C35.7506 23.3145 35.7506 24.9377 35.7506 26.6315C36.2447 26.2786 36.6681 25.9963 37.0915 25.6434C37.1621 25.5728 37.2327 25.4317 37.2327 25.2906C37.2327 24.3731 37.2327 23.4556 37.2327 22.5382C37.2327 22.4676 37.1621 22.2559 37.0915 22.2559C36.5975 22.1148 36.1741 21.903 35.7506 21.6207ZM38.2913 22.8205C38.2913 23.8791 38.2913 24.9377 38.2913 25.9963C38.5736 25.7846 38.7853 25.5728 38.997 25.5023C39.6322 25.22 39.7733 24.6554 39.7028 24.0202C39.7028 23.9497 39.6322 23.8085 39.5616 23.7379C39.2087 23.3851 38.7853 23.1028 38.2913 22.8205Z" fill="black"/>
<path d="M39.3497 16.7511C38.644 16.5394 38.0088 16.3277 37.4442 15.6925C36.7385 14.9162 36.3151 14.1399 36.5268 13.1519C36.5973 12.799 36.4562 12.5167 36.1739 12.305C35.3976 11.4581 34.6213 10.5406 33.845 9.69376C33.7038 9.55261 33.4921 9.48204 33.2804 9.48204C32.3629 9.48204 31.3749 9.48204 30.4575 9.48204C30.1752 9.48204 29.8929 9.55261 29.6812 9.83491C29.3989 10.1878 28.9754 10.2583 28.4108 10.2583C25.3056 10.2583 22.2004 10.2583 19.0951 10.2583C18.7423 10.2583 18.46 10.1878 18.3188 9.90548C18.0365 9.48204 17.6131 9.34089 17.1191 9.41147C16.0605 9.48204 15.0019 9.41147 13.9433 9.41147C13.661 9.41147 13.5198 9.48204 13.3787 9.69376C12.6024 10.6112 11.7555 11.5287 10.9792 12.4461C10.838 12.5873 10.838 12.799 10.7675 12.9401C10.7675 13.0107 10.7675 13.0107 10.7675 13.0813C11.1203 14.4928 10.2029 15.3396 9.35601 16.1865C9.00314 16.5394 8.43855 16.5394 7.94454 16.6805C7.87397 16.1159 7.87397 15.6925 8.36798 15.2691C9.28543 14.5633 9.6383 13.5753 9.49715 12.3756C9.49715 12.2344 9.56773 11.9521 9.70887 11.8815C10.7675 10.6818 11.8261 9.41147 12.9553 8.21172C13.0964 8.07057 13.3081 8 13.4493 8C15.0019 8 16.5545 8 18.1071 8C18.46 8 18.6717 8.07057 18.8834 8.35287C19.0951 8.63516 19.3069 8.70573 19.6597 8.70573C22.5532 8.70573 25.5173 8.70573 28.4108 8.70573C28.6931 8.70573 28.9754 8.63516 29.1871 8.42344C29.3989 8.14115 29.6812 8.07057 30.034 8.07057C31.3749 8.07057 32.7864 8.07057 34.1273 8.07057C34.339 8.07057 34.5507 8.14115 34.6919 8.28229C35.7505 9.48204 36.8091 10.6818 37.8677 11.8815C38.0088 12.0227 38.0794 12.2344 38.0794 12.3756C37.8677 13.5753 38.3617 14.5633 39.2086 15.3396C39.4909 15.8336 39.4909 16.0454 39.3497 16.7511Z" fill="black"/>
<path d="M39.3497 32.2065C39.4909 32.8417 39.4203 33.3357 38.9263 33.7592C38.0794 34.4649 37.7265 35.3824 37.8677 36.5115C37.8677 36.7232 37.7971 37.0055 37.656 37.1467C36.5974 38.3464 35.5387 39.5462 34.4801 40.7459C34.339 40.8871 34.1979 40.9577 33.9861 40.9577C32.5041 40.9577 31.0926 40.9577 29.6106 40.9577C29.3283 40.9577 29.1166 40.8165 28.9754 40.6048C28.7637 40.3931 28.552 40.3225 28.1991 40.3225C25.235 40.3225 22.3415 40.3225 19.3774 40.3225C19.0951 40.3225 18.8834 40.3931 18.7423 40.6048C18.5306 40.9577 18.1777 41.0282 17.8248 41.0282C16.3428 41.0282 14.7902 41.0282 13.3081 41.0282C13.0964 41.0282 12.8847 40.9577 12.7435 40.8165C11.6849 39.6168 10.6263 38.417 9.56774 37.2173C9.42659 37.0761 9.35602 36.7938 9.35602 36.6527C9.49716 35.5235 9.21487 34.606 8.29742 33.8297C7.87397 33.4769 7.73283 32.9829 7.87397 32.4183C8.29742 32.5594 8.72086 32.7006 9.21487 32.8417C9.28544 32.8417 9.35602 32.9829 9.42659 33.0534C9.77946 33.4769 10.2029 33.9003 10.5558 34.3943C10.6969 34.5355 10.7675 34.7472 10.7675 34.8883C10.5558 36.0175 10.9792 36.935 11.8261 37.7113C12.3907 38.2759 12.8847 38.911 13.4493 39.4756C13.5904 39.6168 13.8021 39.6873 14.0139 39.6873C15.143 39.6873 16.2722 39.6873 17.4014 39.6873C17.7543 39.6873 17.966 39.6168 18.1777 39.3345C18.46 38.911 18.8834 38.7699 19.448 38.7699C22.5532 38.7699 25.729 38.7699 28.8343 38.7699C29.1166 38.7699 29.3989 38.8404 29.6106 39.0522C29.9635 39.5462 30.3869 39.6168 30.9515 39.6168C31.7278 39.5462 32.5747 39.6168 33.351 39.6168C33.5627 39.6168 33.7744 39.5462 33.9156 39.405C34.7624 38.4876 35.6093 37.4996 36.4562 36.5821C36.5268 36.5115 36.5974 36.2998 36.5974 36.1587C36.5974 36.0881 36.5974 36.0175 36.5974 35.9469C36.2445 34.5355 37.1619 33.618 38.0088 32.8417C38.2911 32.4888 38.8557 32.4183 39.3497 32.2065Z" fill="black"/>
<path d="M7.80332 23.5967C7.80332 22.397 7.80332 21.2678 7.80332 20.1386C7.80332 19.3623 7.87389 19.2212 8.79135 19.2212C8.79135 22.6793 8.79135 26.0668 8.79135 29.5249C8.72078 29.5249 8.57963 29.5249 8.50906 29.5249C7.52103 29.2426 6.60357 28.9603 5.61555 28.7486C5.40383 28.678 5.33325 28.6075 5.33325 28.3957C5.33325 25.6434 5.33325 22.9616 5.33325 20.2092C5.33325 20.2092 5.33325 20.1386 5.33325 20.0681C5.61555 19.9975 5.89784 19.9269 6.25071 19.7858C6.25071 20.7738 6.25071 21.7618 6.25071 22.6793C6.25071 22.9616 6.32128 23.0322 6.533 23.1027C7.02701 23.3144 7.37988 23.4556 7.80332 23.5967Z" fill="black"/>
<path d="M10.4854 20.068C11.05 21.4795 11.6145 22.8909 12.1791 24.373C11.544 24.373 10.9794 24.373 10.4148 24.373C10.4148 22.9615 10.4148 21.55 10.4854 20.068C10.4854 20.068 10.4854 20.1386 10.4854 20.068Z" fill="black"/>
<path d="M21.9884 12.3755C21.7767 12.3755 21.565 12.3755 21.2827 12.3755C21.2827 12.1638 21.2827 11.9521 21.2827 11.6698C21.4944 11.6698 21.7062 11.6698 21.9884 11.6698C21.9884 11.9521 21.9884 12.1638 21.9884 12.3755Z" fill="black"/>
<path d="M21.2827 36.5823C21.4944 36.5823 21.7062 36.5823 21.9884 36.5823C21.9884 36.794 21.9884 37.0057 21.9884 37.288C21.7767 37.288 21.565 37.288 21.2827 37.288C21.2827 37.0057 21.2827 36.794 21.2827 36.5823Z" fill="black"/>
<path d="M24.1764 12.3755C23.9647 12.3755 23.753 12.3755 23.5413 12.3755C23.5413 12.1638 23.5413 11.9521 23.5413 11.6698C23.753 11.6698 23.9647 11.6698 24.1764 11.6698C24.1764 11.9521 24.1764 12.1638 24.1764 12.3755Z" fill="black"/>
<path d="M25.7292 12.3755C25.7292 12.1638 25.7292 11.9521 25.7292 11.6698C25.941 11.6698 26.1527 11.6698 26.435 11.6698C26.435 11.8815 26.435 12.0932 26.435 12.3755C26.1527 12.3755 25.941 12.3755 25.7292 12.3755Z" fill="black"/>
<path d="M24.1764 13.5048C24.1764 13.7165 24.1764 13.9282 24.1764 14.2105C23.9647 14.2105 23.753 14.2105 23.4707 14.2105C23.4707 13.9988 23.4707 13.7871 23.4707 13.5048C23.6824 13.5048 23.8941 13.5048 24.1764 13.5048Z" fill="black"/>
<path d="M23.4707 35.453C23.4707 35.2413 23.4707 35.0296 23.4707 34.7473C23.6824 34.7473 23.8941 34.7473 24.1764 34.7473C24.1764 34.959 24.1764 35.1708 24.1764 35.453C23.8941 35.453 23.6824 35.453 23.4707 35.453Z" fill="black"/>
<path d="M24.1764 37.2173C23.9647 37.2173 23.753 37.2173 23.5413 37.2173C23.5413 37.0056 23.5413 36.7939 23.5413 36.5116C23.753 36.5116 23.9647 36.5116 24.1764 36.5116C24.1764 36.7939 24.1764 37.0056 24.1764 37.2173Z" fill="black"/>
<path d="M25.7292 37.2173C25.7292 37.0056 25.7292 36.7939 25.7292 36.5116C25.941 36.5116 26.1527 36.5116 26.435 36.5116C26.435 36.7233 26.435 36.935 26.435 37.2173C26.1527 37.2173 25.941 37.2173 25.7292 37.2173Z" fill="black"/>
</svg>
