<svg width="48" height="48" viewBox="0 0 48 48" fill="none" xmlns="http://www.w3.org/2000/svg">
<path d="M20.531 19.7692C21.4617 20.5308 22.3079 21.2923 23.0694 22.0539C23.3233 22.3077 23.4079 22.7308 23.3233 23.0692C23.2387 25.0154 23.0694 26.9615 22.9002 28.9923C22.9002 29.5 22.9848 29.8385 23.4079 30.2615C26.6233 33.3923 29.8387 36.5231 32.9694 39.6538C33.3925 40.0769 33.731 40.2462 34.3233 40.1615C35.8464 40.1615 37.3694 40.1615 38.8925 40.1615C39.1464 40.1615 39.4002 40.1615 39.654 39.9923C38.0464 39.6538 36.4387 39.3154 34.831 38.9769C34.4925 38.8923 34.0694 38.7231 33.8156 38.4692C31.1925 35.6769 28.5694 32.8 26.031 29.9231C25.7771 29.6692 25.6925 29.2462 25.6925 28.9077C25.7771 26.7077 25.9464 24.5077 26.1156 22.3077C26.2002 21.6308 26.031 21.1231 25.6079 20.6154C25.0156 20.0231 24.5079 19.4308 23.9156 18.7538C24.5079 18.1615 25.1002 17.6538 25.6079 17.1462C27.7233 15.2 29.8387 13.2538 31.9541 11.2231C32.2079 10.9692 32.4617 10.4615 32.4617 10.0385C32.5464 8.93847 32.5464 7.83847 32.631 6.48462C35.254 9.27693 37.7079 11.9846 39.9925 14.4385C39.0617 15.4538 38.2156 16.4692 37.2848 17.4846C36.9464 17.8231 36.5233 18.1615 36.1848 18.5C35.3387 19.2615 34.5771 20.1923 33.6464 20.8692C32.7156 21.5462 31.6156 21.9692 30.5156 22.5615C31.7002 22.9 32.8002 23.1538 33.9848 23.4923C33.6464 24 33.3925 24.5923 32.9694 25.0154C32.631 25.4385 32.5464 25.8615 32.7156 26.3692C33.3925 29.0769 33.9848 31.7 34.6617 34.4077C34.7464 34.7462 35.0848 35.0846 35.3387 35.2538C37.2848 36.2692 39.231 37.2 41.1771 38.2154C42.2771 38.8077 42.6156 40.5846 41.6848 41.4308C41.5156 41.6 41.2617 41.6846 41.0925 41.6846C38.2156 41.6846 35.254 41.6846 32.3771 41.6846C32.1233 41.6846 31.7848 41.5154 31.531 41.3462C26.5387 36.3538 21.4617 31.3615 16.3002 26.4538C16.2156 26.3692 16.131 26.2846 16.0464 26.2C15.7925 25.7769 16.2156 23.0692 16.6387 22.8154C17.9079 21.7154 19.1771 20.7846 20.531 19.7692Z" fill="black"/>
<path d="M27.8077 41.5999C20.7846 41.5999 14.0154 41.5999 7.24612 41.5999V41.5153C10.6307 40.0768 14.0154 38.6384 17.4846 37.1999C17.4846 37.1153 17.4846 37.1153 17.4846 37.0307C15.8769 36.9461 14.3538 36.7768 12.4923 36.6076C13.7615 35.5922 14.8615 34.5768 16.0461 33.6461C13.2538 30.9384 10.4615 28.2307 7.75381 25.6076C7.75381 25.523 7.75381 25.4384 7.83843 25.4384C8.68458 25.4384 9.61535 25.4384 10.6307 25.4384C8.93843 22.3922 7.33074 19.5153 5.63843 16.4691C8.17689 16.8076 10.6307 17.0615 13.0846 17.3999C13.1692 16.4691 13.2538 15.4538 13.423 14.3538C14.8615 15.5384 16.1307 16.723 17.5692 17.9076C16.3846 18.8384 15.2 19.7691 14.0154 20.6153C13.1692 21.2076 12.6615 21.8845 12.6615 22.9845C12.6615 23.9999 12.4077 25.0999 12.2384 26.1153C12.1538 26.623 12.323 26.9615 12.6615 27.3845C17.4 31.8691 22.1384 36.2691 26.8769 40.7538C27.2154 41.0076 27.4692 41.1768 27.8077 41.5999Z" fill="black"/>
<path d="M12.4923 33.3077C11.3923 33.9 10.5461 34.3231 9.61535 34.7461C9.53073 34.8308 9.27689 34.7461 9.19227 34.7461C8.09227 34.4077 6.90766 33.9846 5.63843 33.4769C6.90766 32.9692 8.00766 32.5461 9.10766 32.1231C9.27689 32.0384 9.44612 32.1231 9.61535 32.2077C10.5461 32.5461 11.3923 32.8846 12.4923 33.3077Z" fill="black"/>
<path d="M19.7693 15.1999C18.2462 13.5076 16.7232 11.8999 15.1155 10.2076C16.1309 10.2076 17.0616 10.2076 17.9924 10.2076C18.077 10.2076 18.3309 10.3769 18.3309 10.5461C18.8386 12.0692 19.4309 13.5923 19.9386 15.1153C19.9386 15.1153 19.8539 15.1999 19.7693 15.1999Z" fill="black"/>
</svg>
