<svg width="48" height="48" viewBox="0 0 48 48" fill="none" xmlns="http://www.w3.org/2000/svg">
<path d="M41.7691 32.9792C41.1768 31.7946 40.7537 30.7792 40.246 29.8485C40.0768 29.51 39.7383 29.1715 39.4845 28.9177C38.8922 28.41 38.2153 27.9869 37.5384 27.4792C35.9307 26.3792 34.4922 25.1946 33.3076 23.7561C32.123 22.4023 30.8537 21.2177 29.246 20.3715C28.823 20.1177 28.6537 19.7792 28.6537 19.2715C28.6537 17.41 28.6537 15.4638 28.6537 13.6023C28.6537 13.0946 28.5691 12.7561 28.146 12.5023C27.4691 12.0792 26.8768 11.5715 26.2845 11.0638C26.1153 10.8946 25.946 10.5561 25.946 10.3023C25.946 10.0484 26.1153 9.7946 26.2845 9.62537C26.3691 9.54076 26.7076 9.62537 26.8768 9.7946C28.2307 10.81 29.6691 11.7408 31.023 12.7561C31.446 13.0946 31.7845 13.0946 32.2922 12.8408C35.2537 11.3177 38.2153 9.87922 41.1768 8.44076C41.346 8.35614 41.5999 8.27153 41.9384 8.10229C41.7691 16.5638 41.7691 24.6869 41.7691 32.9792Z" fill="black"/>
<path d="M6.146 33.0637C6.146 24.6867 6.146 16.5637 6.146 8.27136C7.16138 8.77905 8.09215 9.20213 8.9383 9.62521C11.2229 10.7252 13.5075 11.9098 15.7922 13.0098C16.2152 13.1791 16.4691 13.1791 16.8922 12.9252C18.246 11.9098 19.5998 10.9791 20.9537 9.96367C21.2922 9.70982 21.6306 9.37136 21.9691 9.87905C22.1383 10.2175 22.2229 10.8098 21.7152 11.1483C21.1229 11.5714 20.5306 12.0791 19.8537 12.5021C19.346 12.8406 19.1768 13.2637 19.1768 13.856C19.1768 15.7175 19.1768 17.5791 19.1768 19.4406C19.1768 19.8637 19.0922 20.1175 18.6691 20.2867C16.9768 21.1329 15.5383 22.4021 14.3537 23.9252C12.746 25.8714 10.546 27.1406 8.59984 28.6637C8.09215 29.0021 7.75369 29.5944 7.41523 30.1021C6.99215 31.0329 6.65369 31.9637 6.146 33.0637Z" fill="black"/>
<path d="M23.9154 21.8098C23.4078 27.7329 22.8154 33.5713 22.3078 39.4944C19.6001 39.4944 16.977 39.4944 14.2693 39.4944C14.3539 39.2406 14.4385 39.0713 14.5231 38.8175C17.2308 33.3175 19.9385 27.8175 22.6462 22.3175C22.9847 21.8098 23.2385 21.5559 23.9154 21.8098Z" fill="black"/>
<path d="M34.0692 39.4945C31.3616 39.4945 28.7385 39.4945 26.0308 39.4945C25.5231 33.5714 24.9308 27.6483 24.4231 21.8099C25.0154 21.6407 25.3539 21.6407 25.6077 22.233C28.3154 27.8176 31.1077 33.4022 33.8154 38.9868C33.9 39.156 33.9846 39.3253 34.0692 39.4945Z" fill="black"/>
<path d="M6.146 39.5792C6.7383 38.1407 7.246 36.7869 7.75369 35.433C7.8383 35.1792 8.09215 35.0099 8.26138 34.8407C11.8998 31.2022 15.5383 27.6484 19.1768 24.0099C19.5998 23.5869 20.1075 23.1638 20.3614 22.5715C20.7845 21.6407 21.546 21.6407 22.3922 21.8099C22.2229 22.0638 22.0537 22.3176 21.9691 22.5715C18.3306 28.0715 14.6921 33.4869 11.0537 38.9869C10.7998 39.4099 10.4614 39.6638 9.95369 39.5792C8.76907 39.4945 7.58446 39.5792 6.146 39.5792Z" fill="black"/>
<path d="M25.8616 21.8099C26.7077 21.5561 27.1308 21.8099 27.5539 22.4022C27.977 22.9945 28.4 23.5869 28.9077 24.0945C30.9385 26.2099 32.8846 28.4099 35 30.4407C36.5231 31.9638 38.1308 33.3176 39.6539 34.7561C39.9077 35.0099 40.2462 35.3484 40.3308 35.7715C40.8385 36.9561 41.2616 38.2253 41.7693 39.4945C40.4154 39.4945 39.1462 39.4945 37.877 39.4945C37.6231 39.4945 37.3693 39.2407 37.2 38.9869C33.9846 34.0792 30.6846 29.2561 27.4693 24.3484C27.0462 23.5869 26.4539 22.7407 25.8616 21.8099Z" fill="black"/>
</svg>
