<svg width="48" height="48" viewBox="0 0 48 48" fill="none" xmlns="http://www.w3.org/2000/svg">
<path d="M41.5081 10.6785C41.5081 12.3285 41.5081 13.9785 41.5081 15.6285C41.2331 15.6285 40.9581 15.6285 40.6831 15.6285C37.4748 15.6285 34.1748 15.6285 30.9664 15.6285C30.4164 15.6285 30.0498 15.8118 29.7748 16.1785C26.8414 19.2035 23.8164 22.1368 20.8831 25.0701C20.5164 25.4368 20.1498 25.6201 19.5998 25.6201C17.9498 25.6201 16.2081 25.6201 14.5581 25.6201C14.2831 25.6201 13.9164 25.8035 13.7331 25.9868C12.2664 27.6368 10.0664 28.1868 8.14143 27.2701C6.3081 26.4451 5.11643 24.4285 5.39143 22.4118C5.66643 20.2118 7.31643 18.6535 9.51643 18.3785C11.1664 18.1951 12.5414 18.8368 13.7331 20.0285C13.9164 20.3035 14.3748 20.3951 14.7414 20.4868C15.1081 20.5785 15.5664 20.4868 16.0248 20.4868C17.7664 20.7618 18.9581 20.0285 20.1498 18.7451C22.6248 16.0868 25.2831 13.5201 27.9414 10.9535C27.9414 10.8618 28.3081 10.6785 28.5831 10.6785C32.7998 10.6785 37.0164 10.6785 41.1414 10.6785C41.2331 10.6785 41.3248 10.6785 41.5081 10.6785Z" fill="black"/>
<path d="M6.4917 35.5201C6.4917 33.7785 6.4917 32.2201 6.4917 30.5701C6.85837 30.5701 7.22503 30.4785 7.50003 30.4785C16.025 30.4785 24.6417 30.4785 33.1667 30.4785C33.7167 30.4785 34.0834 30.3868 34.5417 29.9285C36.2834 27.9118 39.4 27.7285 41.325 29.6535C43.25 31.4868 43.25 34.5118 41.325 36.3451C39.4 38.1785 36.2834 38.0868 34.5417 36.0701C34.175 35.6118 33.8084 35.5201 33.1667 35.5201C24.6417 35.5201 16.025 35.5201 7.50003 35.5201C7.22503 35.5201 6.85837 35.5201 6.4917 35.5201Z" fill="black"/>
<path d="M6.4917 15.6285C6.4917 13.8868 6.4917 12.3285 6.4917 10.6785C11.2584 10.6785 16.025 10.6785 20.8834 10.6785C20.7917 10.7701 20.7917 10.8618 20.7 10.9535C19.2334 12.4201 17.7667 13.8868 16.3 15.3535C16.1167 15.5368 15.9334 15.6285 15.75 15.6285C12.725 15.6285 9.70003 15.6285 6.4917 15.6285Z" fill="black"/>
<path d="M27.4834 25.4368C29.0417 23.8785 30.6001 22.4118 32.1584 20.8535C32.2501 20.7618 32.5251 20.6702 32.7084 20.6702C35.6417 20.6702 38.5751 20.6702 41.6001 20.6702C41.6001 21.6785 41.6001 22.6868 41.6001 23.6952C41.6001 24.3368 41.7834 25.2535 41.5084 25.5285C41.1417 25.8952 40.2251 25.7118 39.5834 25.7118C35.8251 25.7118 32.1584 25.7118 28.4001 25.7118C28.1251 25.7118 27.8501 25.7118 27.5751 25.7118C27.4834 25.5285 27.4834 25.4368 27.4834 25.4368Z" fill="black"/>
</svg>
