<svg width="48" height="48" viewBox="0 0 48 48" fill="none" xmlns="http://www.w3.org/2000/svg">
<path d="M23.2931 14.1785C24.6288 15.2785 25.886 16.3785 27.2217 17.2428C28.2431 17.95 28.8717 18.8143 29.1074 19.9928C29.4217 21.4857 29.8931 22.9785 30.9145 24.1571C31.0717 24.3143 30.9931 24.7857 30.836 24.9428C29.5002 26.5928 28.1645 28.2428 26.6717 29.8143C25.9645 30.5214 25.5717 31.3071 25.7288 32.25C25.8074 32.6428 25.7288 33.0357 25.7288 33.6643C26.8288 32.6428 27.6931 31.7785 28.7931 30.7571C28.9502 31.7 29.0288 32.4857 29.1859 33.4285C33.0359 30.8357 36.7288 28.2428 40.4217 25.65L40.5002 25.7285C37.8288 28.7928 35.1574 31.7785 32.4074 34.9214C35.3931 37.1214 38.3002 39.3214 41.3645 41.6785C29.8931 41.6785 18.5002 41.6785 7.02881 41.6785C7.26452 41.5214 7.42167 41.3643 7.57881 41.2071C9.38595 39.95 11.1931 38.6928 13.0002 37.4357C13.5502 37.0428 13.5502 36.8071 13.3145 36.2571C12.9217 35.3928 12.6074 34.5285 12.2145 33.5071C13.9431 33.7428 15.5145 33.9785 17.3217 34.2143C15.5145 31.7785 13.786 29.5 12.0574 27.3C12.0574 27.2214 12.136 27.2214 12.136 27.1428C14.1788 28.4785 16.3002 29.8928 18.5002 31.3071C18.4217 30.6 18.3431 29.9714 18.2645 29.3428L18.3431 29.2643C19.8359 30.9928 21.3288 32.7214 22.8217 34.5285C22.9002 34.5285 22.9002 34.5285 22.9788 34.45C22.9788 34.2928 22.9002 34.1357 22.9002 33.9785C22.3502 32.1714 21.7217 30.3643 21.1717 28.5571C21.0145 28.0857 21.0145 27.6143 21.0931 27.1428C21.3288 25.4928 21.6431 23.9214 22.036 22.2714C22.5074 23.7643 22.9788 25.2571 23.4502 26.8285C24.2359 25.5714 25.5717 24.7071 25.1002 22.9785V22.9C25.4145 20.7 24.5502 19.1285 22.8217 17.8714C22.2717 17.4785 21.8788 16.9285 21.3288 16.5357C20.5431 15.9071 20.2288 15.2 20.1502 14.1785C20.1502 13.3928 19.9931 12.6071 19.9145 11.7428C20.8574 11.6643 21.7217 11.5071 22.5074 11.5071C23.2931 11.5071 23.9217 11.0357 24.4717 10.5643C24.6288 10.4857 24.6288 10.0928 24.5502 9.93568C24.236 8.44283 23.8431 6.94997 23.6074 5.37854C24.9431 7.26425 26.3574 9.0714 27.7717 10.9571C26.2788 12.1357 24.8645 13.1571 23.2931 14.1785Z" fill="black"/>
<path d="M31.7 28.4C31.7 27.3 32.0142 26.5143 33.0357 25.9643C33.8214 25.4929 34.5285 24.9429 35.4714 24.4714C35.2357 24.9429 34.9214 25.4929 34.6857 25.9643C34.4499 26.3571 34.2142 26.75 34.0571 27.1429C33.6642 28.3214 32.7214 28.4 31.7 28.4Z" fill="black"/>
<path d="M11.8215 31.2286C9.70012 31.9357 8.60012 30.6 7.2644 29.2643C8.28583 29.2643 9.15012 29.2643 10.093 29.2643C10.2501 29.2643 10.4073 29.3429 10.4858 29.5C10.8787 30.05 11.3501 30.6 11.8215 31.2286Z" fill="black"/>
</svg>
