<svg width="48" height="48" viewBox="0 0 48 48" fill="none" xmlns="http://www.w3.org/2000/svg">
<path d="M3 12.2145C3 12.2145 4.3923 12.5043 4.94096 13.1594C5.43941 12.5949 6.09931 12.1909 6.83472 12C6.67065 12.7248 6.33967 13.4031 5.86719 13.9826C5.86719 13.9826 7.01171 14.8754 6.99991 15.7739C6.29118 15.6625 5.63097 15.3502 5.10025 14.8754C5.10025 14.8754 3.83774 15.9826 3.20649 16C3.27437 15.2661 3.60215 14.5788 4.13272 14.058C3.54862 13.5915 3.14811 12.9396 3 12.2145V12.2145Z" fill="black"/>
<path d="M24.2047 3C24.2047 3 25.811 3.88845 26.2303 4.91313C27.062 4.40409 28.0267 4.15653 29 4.20237C28.5178 5.04914 27.8492 5.77436 27.0453 6.32281C27.0453 6.32281 28.1142 7.88055 27.7539 9C26.9255 8.59392 26.2337 7.95359 25.7638 7.15794C25.7638 7.15794 23.7854 8.06417 23 7.85094C23.3668 6.95382 24.0355 6.214 24.8898 5.76012C24.8898 5.76012 23.9213 4.31491 24.2047 3Z" fill="black"/>
<path d="M41.2829 12C41.2829 12 42.5898 12.4576 43.0311 13.1638C43.5849 12.6827 44.271 12.3795 45 12.2938C44.7473 12.9807 44.341 13.601 43.8119 14.1073C43.8119 14.1073 44.802 15.1299 44.6719 16C44.0071 15.7983 43.4166 15.4053 42.9745 14.8701C42.9745 14.8701 41.6167 15.791 41 15.7345C41.1586 15.0264 41.5585 14.3953 42.1315 13.9491C41.6344 13.4151 41.3349 12.7273 41.2829 12Z" fill="black"/>
<path d="M42.9946 26C43.135 26.2319 43.2119 26.4974 43.2174 26.7692C43.4946 26.7638 43.7672 26.8422 44 26.9945C43.7605 27.1337 43.493 27.2164 43.2174 27.2363C43.2448 27.5079 43.1712 27.7802 43.0109 28C42.8643 27.7808 42.7849 27.5228 42.7826 27.2582C42.5082 27.2399 42.2411 27.1612 42 27.0275C42.2202 26.86 42.4909 26.7746 42.7663 26.7857C42.7492 26.5049 42.83 26.2269 42.9946 26V26Z" fill="black"/>
<path d="M4.48369 26C4.69441 26.2322 4.81236 26.4972 4.82608 26.7692C5.24195 26.7638 5.65075 26.8422 6 26.9945C5.6382 27.1343 5.23403 27.217 4.81793 27.2363C4.81793 27.2363 4.88315 27.7857 4.50815 28C4.28835 27.7808 4.16926 27.5228 4.16576 27.2582C3.75663 27.2404 3.35848 27.1616 3 27.0275C3.32786 26.8608 3.73094 26.7754 4.1413 26.7857C4.12033 26.5052 4.24103 26.2283 4.48369 26V26Z" fill="black"/>
<path d="M13.5 10C14.3284 10 15 9.32843 15 8.50001C15 7.67158 14.3284 7 13.5 7C12.6716 7 12 7.67158 12 8.50001C12 9.32843 12.6716 10 13.5 10Z" fill="black"/>
<path d="M33 11C33.5523 11 34 10.7761 34 10.5C34 10.2239 33.5523 10 33 10C32.4477 10 32 10.2239 32 10.5C32 10.7761 32.4477 11 33 11Z" fill="black"/>
<path d="M36.5579 28.1176C36.5579 28.1176 37.3181 27.0281 38.412 27.1794C40.0197 27.7611 41.5476 28.5357 42.9608 29.4855C44.8705 30.8594 46.9224 33.5045 45.5565 36.4824C44.1907 39.4603 39.5925 41.9298 34.6173 42.8801C31.015 43.6798 27.3278 44.0537 23.6347 43.9938C19.6854 43.9938 13.0724 43.213 9.08605 41.5727C5.09969 39.9324 1.46562 37.7414 2.06512 33.8676C2.66462 29.9939 7.26283 27.5546 9.7288 27.1552C9.7288 27.1552 10.5693 26.5499 11.8178 27.7302C11.8178 27.7302 11.7436 28.9407 9.65464 29.9999C7.56567 31.0592 6.08237 31.5615 5.58794 32.4937C5.09351 33.4258 3.91923 34.6484 5.58794 36.5127C6.1444 37.1247 6.82995 37.6111 7.59719 37.9382C8.36443 38.2653 9.19506 38.4253 10.0316 38.4072C10.9093 38.4798 13.641 40.4167 14.8215 41.1248C16.0019 41.833 18.9623 42.8377 23.4431 42.7591C27.9239 42.6804 30.5135 42.4988 32.9053 41.2338C35.2971 39.9687 35.4145 38.9277 38.0721 38.4072C40.7297 37.8866 42.5714 37.1058 42.9608 35.1326C43.3501 33.1595 42.8186 32.1971 41.187 31.3739C39.5554 30.5507 37.7383 30.5144 36.5579 28.1176Z" fill="black"/>
<path d="M9 24C9 24 5.87736 20.5272 4.59233 20.1399C3.30729 19.7526 3.03102 20.2923 3.03102 20.2923C2.9827 20.5095 2.99094 20.7352 3.055 20.9484C3.11905 21.1616 3.23681 21.3553 3.39725 21.5112C5.0678 22.7195 6.97661 23.5674 9 24Z" fill="black"/>
<path d="M38 24C38 24 41.1257 20.5272 42.4094 20.1399C43.693 19.7526 43.969 20.2923 43.969 20.2923C44.0173 20.5095 44.009 20.7352 43.9451 20.9484C43.8811 21.1616 43.7634 21.3553 43.6032 21.5112C41.9325 22.7203 40.0235 23.5682 38 24V24Z" fill="black"/>
<path d="M18 20C18 20 16.4421 12.6522 15.5411 11.3628C15.4442 11.2111 15.3025 11.0979 15.1384 11.0409C14.9742 10.984 14.7969 10.9865 14.6343 11.0482C14.6343 11.0482 13.8553 11.3505 14.0239 11.9798C15.0208 14.8226 16.357 17.518 18 20V20Z" fill="black"/>
<path d="M28 22C28 22 29.9525 14.6522 31.0703 13.3628C31.1913 13.2111 31.3682 13.0979 31.5732 13.0409C31.7782 12.984 31.9996 12.9865 32.2027 13.0482C32.2027 13.0482 33.1753 13.3505 32.9721 13.9798C31.7269 16.8236 30.0557 19.5192 28 22V22Z" fill="black"/>
<path d="M18 29C18 29 16.6988 27.4854 16.7348 26.4327C16.7708 25.3801 16.6149 24.6433 15.2718 23.9006C13.9286 23.1579 14.0725 22.5322 13.7727 21.3216C13.4729 20.1111 12.8493 19.6199 11.788 18.9825C10.7267 18.345 10.283 18 9.84525 18C9.40753 18 8.89787 18.3158 9.01779 18.8246C9.01779 18.8246 8.92185 19.3333 10.301 19.9357C11.6801 20.538 12.2077 21 12.5855 22.2749C12.9632 23.5497 13.1851 24.5322 14.2524 24.7251C15.3197 24.9181 15.8354 25.4678 15.9553 26.0526C16.0752 26.6374 15.4876 27.076 18 29Z" fill="black"/>
<path d="M30 29C30 29 31.302 27.4854 31.26 26.4327C31.218 25.3801 31.38 24.6433 32.724 23.9006C34.068 23.1579 33.924 22.5322 34.23 21.3216C34.536 20.1111 35.154 19.6199 36.216 18.9825C37.278 18.345 37.722 18 38.16 18C38.598 18 39.102 18.3158 38.982 18.8246C38.982 18.8246 39.084 19.3333 37.698 19.9357C36.312 20.538 35.796 21 35.412 22.2749C35.028 23.5497 34.812 24.5322 33.75 24.7251C32.688 24.9181 32.166 25.4678 32.046 26.0526C31.926 26.6374 32.484 27.076 30 29Z" fill="black"/>
<path d="M25.0773 35C25.0773 35 25.5661 28.868 25.505 27.8808C25.4439 26.8936 24.3501 26.4153 24.4112 24.9191C24.4723 23.4229 25.5356 23.1224 25.6884 21.5036C25.8411 19.8847 25.0162 18.3579 24.6251 17.3155C24.234 16.273 24.014 15.758 24.7779 14.2495C25.5417 12.741 26 11.6741 26 11.2387C26 10.8033 25.2178 10.0675 25.1384 10.0123C25.0589 9.95713 23.8673 10.0675 23.5618 10.7543C23.5618 10.7543 21.8569 14.8075 22.0097 16.0278C22.1727 17.2286 22.556 18.3887 23.1402 19.4494C23.684 20.455 23.9896 21.3748 23.5313 22.2578C23.0729 23.1408 22.5291 24.0299 23.018 25.4955C23.5068 26.961 24.5395 27.2063 24.6617 28.3346C24.784 29.4629 25.0773 35 25.0773 35Z" fill="black"/>
</svg>
