<svg width="48" height="48" viewBox="0 0 48 48" fill="none" xmlns="http://www.w3.org/2000/svg">
<path d="M33.8358 13.2292C31.5583 11.6419 26.3655 8.08807 18.4984 11.3013C10.6312 14.5144 10 22.7402 10 24.0705C10 25.4007 10 27.2451 11.1583 27.8235C11.5457 27.975 11.965 28.0302 12.3791 27.9843C12.7933 27.9384 13.1896 27.7926 13.5334 27.56C14.7828 26.9816 33.569 17.3099 34.3563 16.8215C34.5997 16.5683 34.7819 16.264 34.8893 15.9314C34.9967 15.5988 35.0265 15.2465 34.9764 14.9009C34.9263 14.5553 34.7977 14.2254 34.6001 13.9359C34.4026 13.6464 34.1413 13.4048 33.8358 13.2292V13.2292ZM20.0861 14.5144C18.915 15.1499 17.7928 15.8694 16.7284 16.6673C13.2601 19.3214 12.1734 24.8159 12.1734 24.8159C11.949 23.6063 12.0454 22.3598 12.4532 21.1979C13.1305 18.7235 14.6007 16.5321 16.6438 14.9514C19.5395 12.5994 21.5958 13.2163 21.5958 13.2163C21.5958 13.2163 21.6153 13.7561 20.0731 14.5273L20.0861 14.5144ZM26.1052 14.0839L25.2398 13.8461L25.1162 14.7072L24.6346 13.9682L23.9839 14.5016L24.2377 13.6404L23.3007 13.5055L24.0685 13.0942L23.5024 12.368L24.4264 12.6508L24.5045 11.7254L24.9925 12.4837L25.7148 11.9567L25.4545 12.8243L26.3395 12.9143L25.6172 13.3577C25.6172 13.3577 26.1183 14.1096 26.0922 14.0967L26.1052 14.0839ZM29.8339 15.7419C30.0629 16.3429 30.0489 17.008 29.7948 17.5991C29.2639 17.2181 28.8769 16.6731 28.6951 16.0503C28.6951 16.0503 27.1529 16.3202 26.6128 16.0503C26.825 15.7614 27.0975 15.5208 27.4117 15.3445C27.726 15.1683 28.0749 15.0605 28.4348 15.0285C28.1914 14.4084 28.1914 13.7208 28.4348 13.1006C28.9554 13.5091 29.3406 14.0619 29.541 14.688C30.2199 14.5795 30.912 14.5795 31.5908 14.688C31.0878 15.1683 30.4834 15.5326 29.8208 15.7547L29.8339 15.7419Z" fill="black"/>
<path d="M36.8997 21.1669C36.5286 21.0236 36.1268 20.9714 35.7299 21.0148C35.3331 21.0583 34.9533 21.196 34.6242 21.4159C33.4177 21.9625 15.3699 31.1034 14.6197 31.565C14.3872 31.8026 14.2126 32.0879 14.1089 32.3999C14.0052 32.7119 13.975 33.0426 14.0207 33.3674C14.0663 33.6923 14.1865 34.003 14.3724 34.2766C14.5584 34.5502 14.8053 34.7797 15.0948 34.9481C17.2891 36.4483 22.2714 39.807 29.8356 36.7702C37.3998 33.7333 38 25.959 38 24.7017C38 23.4445 38.0187 21.7135 36.8997 21.1669ZM20.2085 33.4418C20.4285 34.0098 20.4151 34.6384 20.171 35.1971C19.6626 34.8354 19.2913 34.3209 19.1145 33.7333C19.1145 33.7333 17.6392 33.9884 17.114 33.7333C17.3189 33.4593 17.5815 33.2308 17.8844 33.0632C18.1874 32.8957 18.5236 32.7928 18.8707 32.7615C18.6338 32.176 18.6338 31.525 18.8707 30.9394C19.3709 31.3228 19.7411 31.8433 19.9334 32.4335C20.5877 32.3318 21.2545 32.3318 21.9089 32.4335C21.4226 32.8836 20.8428 33.2274 20.2085 33.4418V33.4418ZM24.922 35.8226L24.0906 35.5979L23.9781 36.4118L23.5155 35.7133L22.8903 36.2174L23.1404 35.4036L22.2402 35.276L22.9779 34.8873L22.4277 34.201L23.3154 34.4682L23.3905 33.5936L23.8656 34.3103L24.5532 33.8123L24.3094 34.6322L25.1596 34.7112L24.4594 35.1363C24.4594 35.1363 24.9408 35.8348 24.9408 35.8226H24.922ZM35.5494 27.3924C34.8983 29.7323 33.4835 31.8039 31.5173 33.296C28.7354 35.519 26.76 34.9359 26.76 34.9359C26.76 34.9359 26.76 34.4378 28.2103 33.7212C29.3371 33.1212 30.4155 32.439 31.436 31.6804C34.768 29.178 35.812 23.985 35.812 23.985C36.0334 25.1223 35.9494 26.2958 35.5682 27.3924H35.5494Z" fill="black"/>
<path d="M46 12.8499L40.3586 11.9134C38.508 9.45463 36.1176 7.46079 33.3746 6.08793C30.6315 4.71507 27.6103 4.00044 24.5474 4C19.2804 4.00506 14.2306 6.11517 10.5062 9.86719C6.78187 13.6192 4.68733 18.7066 4.68231 24.0127C4.67572 25.3755 4.8071 26.7354 5.07442 28.0714V28.0714C5.09344 28.181 5.12528 28.2879 5.16928 28.3899C5.30842 29.0271 5.46653 29.6069 5.66259 30.1994C5.03015 31.41 3 35.1054 3 35.1054L8.69201 36.0484C10.5432 38.5202 12.9389 40.525 15.6904 41.9049C18.4419 43.2848 21.4739 44.002 24.5474 44C29.8144 43.9949 34.8643 41.8848 38.5886 38.1328C42.313 34.3808 44.4075 29.2934 44.4126 23.9873C44.415 21.8211 44.0668 19.669 43.3817 17.6158C44.071 16.3797 46 12.8499 46 12.8499ZM24.5474 41.4514C22.2037 41.4516 19.8845 40.9716 17.7306 40.0405C15.5768 39.1095 13.6335 37.747 12.0187 36.0357C10.7538 34.2389 11.1396 32.3402 12.0756 30.4033C9.54582 29.677 8.24297 28.5365 7.57258 27.5298C7.33374 26.3643 7.21296 25.1773 7.21209 23.9873C7.21711 19.357 9.04512 14.9179 12.295 11.6438C15.545 8.36975 19.9513 6.52815 24.5474 6.52309C26.8448 6.52144 29.1195 6.98154 31.2382 7.87646C33.3569 8.77138 35.2772 10.0831 36.8865 11.7349C38.2652 13.5635 37.8794 15.5132 36.8865 17.5011C39.587 18.2721 40.8835 19.5081 41.5159 20.5658C41.7373 21.6927 41.8496 22.8385 41.8511 23.9873C41.8445 28.6115 40.0203 33.0448 36.7776 36.3176C33.5348 39.5904 29.1375 41.4363 24.5474 41.4514V41.4514Z" fill="black"/>
</svg>
