<svg width="48" height="48" viewBox="0 0 48 48" fill="none" xmlns="http://www.w3.org/2000/svg">
<path d="M21.3667 6.20143C21.3667 6.20143 30.8537 7.99719 31.4354 14.3896C31.7116 16.3729 31.5043 18.3936 30.8311 20.2795C30.6734 20.6723 30.6762 21.1113 30.8388 21.502C31.0014 21.8928 31.311 22.2041 31.7008 22.3689C33.4909 23.3176 34.6768 21.3242 34.8236 19.6358C35.2397 17.4362 35.0722 15.166 34.338 13.0513C32.8923 9.16613 29.0241 5.03249 21.3667 6.20143Z" fill="black"/>
<path d="M35.1229 10.9619C35.1229 10.9619 38.8556 19.8617 33.8466 23.8767C31.0231 26.1355 29.5549 26.288 28.6062 26.6155C28.1926 26.7015 27.8289 26.9456 27.5926 27.2958C27.3564 27.646 27.2662 28.0746 27.3412 28.4903C27.5445 30.512 29.8598 30.399 31.345 29.6197C33.41 28.7551 35.2114 27.3627 36.5685 25.5821C39.0193 22.2108 40.3238 16.7106 35.1229 10.9619Z" fill="black"/>
<path d="M9.99927 16.3661C9.99927 16.3661 16.0981 8.88379 21.9992 11.4137C25.3479 12.8537 26.1385 14.0678 26.8726 14.7511C27.1446 15.0766 27.533 15.283 27.955 15.3263C28.3769 15.3695 28.7991 15.2462 29.1315 14.9826C30.8256 13.8532 29.6284 11.8654 28.2223 10.9337C26.4853 9.51894 24.4078 8.58434 22.1969 8.22308C18.0971 7.64708 12.6308 9.08143 9.99927 16.3661Z" fill="black"/>
<path d="M12.2691 30.8056C12.2691 30.8056 9.18586 21.6574 14.4771 18.0207C17.4814 15.9539 18.9327 15.9256 19.904 15.6715C20.3223 15.6151 20.7022 15.3976 20.9627 15.0654C21.2232 14.7332 21.3438 14.3125 21.2988 13.8927C21.248 11.8654 18.927 11.809 17.3854 12.5035C15.2646 13.2179 13.3682 14.4757 11.8852 16.1515C9.20845 19.3026 7.50869 24.6955 12.2691 30.8056Z" fill="black"/>
<path d="M26.4491 36.2889C26.4491 36.2889 17.0242 34.1882 16.6515 27.7788C16.4438 25.7907 16.7189 23.7819 17.4534 21.9228C17.6226 21.535 17.6334 21.0964 17.4836 20.7007C17.3338 20.305 17.0351 19.9836 16.6515 19.8052C14.8896 18.8 13.6416 20.7539 13.4383 22.4367C12.9479 24.6209 13.0413 26.8958 13.7094 29.0324C15.0251 32.9515 18.7465 37.2207 26.4491 36.2889Z" fill="black"/>
<path d="M38.3586 25.4127C38.3586 25.4127 32.7115 33.2395 26.6692 31.0598C23.2414 29.8174 22.3774 28.6541 21.5868 28.0104C21.297 27.7038 20.8994 27.5217 20.478 27.5028C20.0565 27.4838 19.6442 27.6294 19.328 27.9087C17.7073 29.1285 19.0118 31.0485 20.4574 31.9012C22.2809 33.2125 24.4174 34.0207 26.6522 34.2447C30.7802 34.5892 36.1506 32.8386 38.3586 25.4127Z" fill="black"/>
<path d="M7.58784 28.5355L8.88102 30.7943C8.88102 30.7943 5.87679 31.8616 6.66737 34.2729C7.45796 36.6842 8.56479 37.0343 10.3718 37.2602C12.1789 37.4861 13.4382 38.5534 14.4829 39.248C16.5026 40.6161 18.8618 41.398 21.2989 41.5068C23.8382 41.6295 26.3831 41.5559 28.9111 41.2866C30.5109 40.9484 32.0334 40.3144 33.4005 39.4174C34.6372 38.5364 35.3318 37.6499 37.4212 37.3619C39.5106 37.0739 40.6118 36.159 41.0918 35.3063C41.3315 34.9215 41.4715 34.4829 41.4991 34.0304C41.5267 33.5778 41.4411 33.1255 41.2499 32.7143C40.8228 31.9006 40.1593 31.2351 39.3468 30.8056L40.6118 28.5468C40.6118 28.5468 44 30.4781 44 33.3242C44 36.1703 42.6391 38.4687 37.3817 40.6089C32.1243 42.7491 23.9699 42.7322 20.9318 42.7322C17.8937 42.7322 10.3662 41.0381 7.7742 39.248C5.18221 37.4579 3.73091 36.1139 4.0415 33.1718C4.35209 30.2296 7.58784 28.5355 7.58784 28.5355Z" fill="black"/>
</svg>
