<svg width="48" height="48" viewBox="0 0 48 48" fill="none" xmlns="http://www.w3.org/2000/svg">
<path d="M43.4126 30C43.2622 30.5824 42.9824 31.1245 42.5934 31.5869C43.6282 33.496 43.3818 34.1284 42.3778 35.4416C41.3737 36.7549 39.8399 36.7063 37.5484 37.2657C35.2569 37.825 34.8319 38.8586 32.6205 39.7402C30.4091 40.6218 27.8959 40.8346 24.1384 40.9015C21.5267 41.0277 18.9106 40.7674 16.3769 40.1294C13.2662 39.5214 13.3709 37.6183 9.54564 37.0893C5.72036 36.5604 5.23373 35.01 5.23373 35.01C3.69376 33.4535 5.62796 31.1248 5.62796 31.1248L4.8395 30.0304C4.8395 30.0304 2.69586 30.912 2.19075 32.6387C1.38381 35.4356 3.15785 37.442 7.11865 39.2417C11.0794 41.0414 18.3851 41.9898 23.9597 41.9898C28.954 42.0933 33.9328 41.4056 38.7065 39.953C43.2833 38.4999 45.4823 36.5604 45.9505 34.2986C46.4186 32.0368 43.4126 30 43.4126 30Z" fill="black"/>
<path d="M11.1882 34.1939C13.4501 34.3456 14.3211 35.0853 14.672 35.3065C15.0229 35.5278 15.4803 35.5784 15.2986 35.1611C15.1169 34.7439 13.6507 32.9801 13.4815 30.7359C13.3123 28.4917 13.0617 27.8658 13.6757 27.6635C14.2898 27.4612 14.365 28.7319 15.4427 29.9457C16.5204 31.1595 18.0681 33.391 22.0219 34.0548C25.9756 34.7186 29.2213 34.0106 29.6161 33.7071C30.0108 33.4037 29.1461 33.018 28.2376 32.7715C27.329 32.525 23.8515 31.602 22.9805 30.7612C22.1096 29.9204 22.1973 29.3261 23.5257 28.6308C24.854 27.9354 27.0095 27.5877 28.5822 25.7101C30.1549 23.8325 30.2489 22.7768 30.3241 22.0372C30.3993 21.2975 30.8379 20.9245 31.5773 21.3481C32.3167 21.7716 34.1588 24.294 34.4283 26.4055C34.6977 28.517 34.9671 32.3037 32.8555 34.7565C32.8555 34.7565 32.0911 35.5278 32.4357 35.8945C32.7803 36.2611 33.6889 35.5973 34.61 35.0537C35.5999 34.5486 36.6757 34.2376 37.7805 34.137C38.9987 33.885 40.1001 33.2338 40.9134 32.2847C42.2893 29.6296 43.0054 26.6769 43 23.6808C43.0024 21.2269 42.5252 18.7966 41.5956 16.529C40.666 14.2614 39.3022 12.2011 37.5824 10.4659C35.8626 8.73075 33.8204 7.35483 31.5729 6.41692C29.3254 5.47901 26.9165 4.99751 24.4843 5.00001C19.5808 5.00336 14.8793 6.97099 11.4132 10.4704C7.94708 13.9698 6.00003 18.7146 6.00004 23.6618C5.99393 26.8076 6.78095 29.9033 8.28707 32.6577C9.05074 33.4905 10.0751 34.0329 11.1882 34.1939V34.1939ZM40.2054 18.8131C40.2054 18.8131 41.2894 21.9739 40.4435 24.8377C39.5976 27.7015 37.793 25.59 38.3131 24.2434C38.8332 22.8969 38.758 21.759 38.5387 19.6349C38.2003 16.4361 36.2767 12.6809 36.2767 12.6809C36.2767 12.6809 39.3407 15.2539 40.2054 18.8131ZM14.672 9.76029C16.6966 8.10019 19.2129 7.17012 21.8213 7.1178C21.8213 7.1178 19.2147 8.65399 18.1683 9.37467C16.922 10.2261 15.7927 11.24 14.8098 12.3901C13.801 13.6545 13.1557 13.2815 13.1557 13.2815C12.6231 13.1804 11.2759 12.5355 14.672 9.76029V9.76029ZM12.0654 18.1177C11.9396 17.1973 12.1393 16.2617 12.6293 15.4752C13.1566 16.2159 13.4631 17.0933 13.5128 18.0039C14.378 18.0678 15.2259 18.2816 16.0192 18.636C15.2681 19.1433 14.4097 19.4659 13.5128 19.578C13.5128 19.578 13.6945 21.209 12.8862 22.0751C12.3621 21.3566 12.0769 20.4891 12.0717 19.597C12.0717 19.597 10.1042 19.4705 9.52145 18.9079C9.85978 18.5924 10.264 18.3576 10.7043 18.2208C11.1446 18.0841 11.6098 18.0488 12.0654 18.1177V18.1177ZM8.64423 22.3975C8.83221 21.7274 9.51518 21.1837 9.81594 21.2912C10.2107 21.4366 10.3861 22.0751 10.3235 22.9032C10.242 23.8894 9.87234 24.4394 9.73449 26.5762C9.52146 29.8698 9.52145 30.4893 9.52145 30.4893C9.52145 30.4893 8.61916 29.6359 8.26828 27.2716C8.14062 25.637 8.26748 23.9924 8.64423 22.3975V22.3975Z" fill="black"/>
</svg>
