<svg width="812" height="332" viewBox="0 0 812 332" fill="none" xmlns="http://www.w3.org/2000/svg">
<path d="M500.109 34.9958L473.401 81.043L453.355 115.578L366.545 265.232H313.21L373.312 161.626H297.167L274.715 200.328L274.68 200.305L248.25 154.741L270.968 115.578L291.001 81.043L317.721 34.9958H368.755L370.154 35.8017L343.909 81.043L323.875 115.578H400.032L420.066 81.043L446.774 34.9958H500.109Z" fill="white"/>
<path d="M262.502 81.0433H176.918L283.774 265.232H230.751L123.895 81.0433H72.9429L63.0416 63.9828L46.2695 35.0652V34.9961H289.176V35.0652L262.502 81.0433Z" fill="white"/>
<path d="M749.575 281.521L749.112 281.786L728.72 276.352L687.033 265.232H460.528L460.32 265.117L593.815 34.9961H744.335V35.2724L717.789 81.0433H620.442L540.294 219.185H659.989L640.88 186.249L667.6 140.202L749.575 281.521Z" fill="white"/>
<path d="M453.414 230.696L433.369 265.232H393.301L413.335 230.696H453.414Z" fill="white"/>
</svg>
