<svg width="48" height="48" viewBox="0 0 48 48" fill="none" xmlns="http://www.w3.org/2000/svg">
<path d="M4.6349 12.4935L4 14V18.5L5.68464 24.5655L7.78412 25.6152L6.73438 22.9909L5.5 18.5L5.15977 15.1178L5.68464 13.5432L6.20951 7.24482L9.50001 4L5.15977 6.71995L4.6349 12.4935Z" fill="black"/>
<path d="M8.83391 28.2395L7.78418 31.9136L9.35878 34.538L9.88364 36.6374L16.1821 40.8612L17.5001 40.5L20.5001 38.5L16.707 39.2866L10.9334 35.5877L10.4085 32.9634L9.35877 31.3888L8.83391 28.2395Z" fill="black"/>
<path d="M15.3019 4.67507L12.019 4.18347L8.33482 7.49186L6.93774 16.2614L8.73319 25.0056L10.7363 27.3195L10.6713 29.995L11.033 32.0631L12.5191 34.4674L16.7711 37.4537L21.9413 36.5496L24.1648 34.0295L24.2948 28.6784L22.9499 33.1763L20.6812 35.4379L17.0621 36.0707L14.6776 34.6228L12.6744 32.3089L12.132 29.2068L12.2874 27.0483L10.2843 24.7344L8.57921 16.5072L9.54969 8.34508L12.7168 5.12711L15.3019 4.67507Z" fill="black"/>
<path fill-rule="evenodd" clip-rule="evenodd" d="M19.9381 34.2359L17.353 34.688L14.8329 32.4645L13.3468 30.0602L13.8384 26.7773L11.1374 23.5197L9.69092 15.2474L11.1911 8.59105L13.5954 7.10496L15.1464 6.83374L16.7879 7.07953L19.3985 9.82004L19.7601 11.8881L21.0654 13.2584L20.78 20.7679L19.3448 24.7487L19.5256 25.7828L21.6191 28.6137L21.8 29.6477L21.2179 32.4136L19.9381 34.2359ZM16.5421 8.7209L17.4208 10.6986L12.2506 11.6027L12.4963 9.96119L13.3496 8.74633L15.4177 8.3847L16.5421 8.7209ZM18.2994 12.6763L12.0952 13.7612L11.9398 15.9197L19.1781 14.6539L18.2994 12.6763ZM18.9323 16.2954L12.211 17.4707L12.5726 19.5388L18.7769 18.4539L18.9323 16.2954ZM12.8439 21.0899L18.5311 20.0954L18.7119 21.1295L17.9491 22.8613L14.33 23.4942L12.8439 21.0899ZM19.2798 27.4241L20.0681 28.8848L20.0031 31.5603L19.1499 32.7752L17.5988 33.0464L15.6861 31.2495L14.8978 29.7889L15.1436 28.1474L19.2798 27.4241Z" fill="black"/>
<path d="M32.4529 8.2947L35.5 7L40.8508 10.919L44 19.3169L43 28.5001L42.9503 19.8418L39.801 11.9688L35.0772 8.2947H32.4529Z" fill="black"/>
<path d="M31.4031 11.4439L34.5523 10.3942L38.7512 13.0185L41.9999 21.5001L41.4999 30.5001L39.8009 32.9635L40.3258 35.5878V37.6873L39.2761 40.3116L35.4999 44H30.4999L27.729 41.8862L26.6792 36.6376L28.7787 40.8365L31.4031 42.6735H35.0771L37.1766 40.8365L38.7512 38.2122V35.063L38.2263 32.9635L40.0634 30.5001V21.9412L37.7015 14.0682L34.0274 11.4439H31.4031Z" fill="black"/>
<path fill-rule="evenodd" clip-rule="evenodd" d="M31.9279 41.3615H34.5523L36.6517 38.7371L37.7015 36.1128L36.6517 32.9636L38.7512 29.2895V20.8916L36.1269 14.5932L33.5025 13.5435H31.9279L30.3533 14.0683L28.2539 17.2175V19.317L27.2041 20.8916L28.7787 28.2398L30.8782 31.9138V32.9636L29.3036 36.1128V37.1625L30.3533 39.7869L31.9279 41.3615ZM30.8782 15.6429L30.3533 17.7424H35.602L35.0771 16.1678L34.0274 15.118H31.9279L30.8782 15.6429ZM29.8285 19.8418H36.1269L36.6517 21.9413H29.3036L29.8285 19.8418ZM29.8285 23.5159H36.6517V25.6154H30.3533L29.8285 23.5159ZM36.6517 27.19H30.8782V28.2397L31.9279 29.8143H35.602L36.6517 27.19ZM31.4031 34.5381L30.8782 36.1127L31.4031 38.7371L32.4528 39.7868H34.0274L35.602 37.6873L36.1269 36.1127L35.602 34.5381H31.4031Z" fill="black"/>
</svg>
