<svg width="48" height="48" viewBox="0 0 48 48" fill="none" xmlns="http://www.w3.org/2000/svg">
<path fill-rule="evenodd" clip-rule="evenodd" d="M12.5 23.5L18.0461 20.4267C18.9686 21.3121 20.0882 21.9937 21.3325 22.3993L22.3584 27.8223C22.3553 27.8223 22.3523 27.8224 22.3493 27.8225L22.6873 29.6252C22.6913 29.6251 22.6954 29.625 22.6994 29.6249L24 36.5L25.1927 29.6226C25.1964 29.6227 25.2001 29.6227 25.2037 29.6228L25.5138 27.8189C25.511 27.8188 25.5083 27.8188 25.5056 27.8187L26.4328 22.4721C28.741 21.7927 30.6457 20.1709 31.7017 18.052L41 20.4267L32.5894 14.6522C32.5965 14.5094 32.6 14.3656 32.6 14.2211C32.6 13.4546 32.4998 12.7116 32.3117 12.0044L35 10L31.4495 9.92105C31.1 9.31691 30.6792 8.75923 30.1985 8.25954L32 3.5L27 6L24.0755 3L22.7455 5.7119C22.5985 5.73339 22.4527 5.75859 22.3082 5.78742L18 1L19.3446 6.98885C18.0531 7.8219 16.9991 8.99145 16.3066 10.3735L9 10L14.9474 13.3158L13.5 15L15.4598 15.24C15.505 15.6229 15.5753 15.998 15.6691 16.3637L12.5 23.5ZM19.4737 14.2211C19.4737 13.9742 19.4935 13.7319 19.5315 13.4957L21.496 13.3158L20.2864 11.6326C21.1045 10.4611 22.4628 9.69474 24 9.69474C26.4998 9.69474 28.5263 11.7212 28.5263 14.2211C28.5263 16.6957 26.5405 18.7065 24.0755 18.7468V16L21.3922 17.921C20.2316 17.1015 19.4737 15.7498 19.4737 14.2211Z" fill="black"/>
<path d="M16.7143 28.2553C17.2193 28.1901 17.7324 28.1315 18.2529 28.0797L18.5878 29.8661C17.6575 29.9558 16.7533 30.068 15.8796 30.2007C14.3721 30.6719 13.2209 30.863 12.1611 31.0389C11.7419 31.1085 11.3369 31.1757 10.9299 31.2569C10.1162 31.4888 9.35101 31.7412 8.64018 32.0113C6.71273 32.7437 5.27791 33.5718 4.35691 34.3993C3.43523 35.2273 3.17893 35.9068 3.17893 36.4C3.17893 36.8932 3.43523 37.5726 4.35691 38.4007C4.80892 38.8068 5.38469 39.213 6.08171 39.608C6.62781 39.7226 7.09995 39.8108 7.54009 39.893C9.5263 40.264 10.8611 40.5134 15.4 42.5105L15.4483 42.5318C18.0548 42.9525 20.9446 43.1894 24 43.1894C27.062 43.1894 29.9575 42.9514 32.5684 42.5291C36.3618 40.6824 38.3879 40.3921 39.8545 40.182C40.4457 40.0973 40.9461 40.0256 41.4346 39.8702C42.3527 39.394 43.0904 38.8972 43.6431 38.4007C44.5648 37.5726 44.8211 36.8932 44.8211 36.4C44.8211 35.9068 44.5648 35.2273 43.6431 34.3993C42.7221 33.5718 41.2873 32.7437 39.3598 32.0113C39.2433 31.967 39.1253 31.9232 39.0058 31.8799C38.1819 31.6198 37.1731 31.4236 36.1172 31.2183C35.7037 31.1379 35.2828 31.056 34.8632 30.9684C34.053 30.7993 33.2466 30.6238 32.5034 30.4621C31.4511 30.2332 30.5255 30.0318 29.8952 29.9149C29.6971 29.894 29.4978 29.874 29.2972 29.8551L29.6048 28.0657C30.3931 28.1421 31.1648 28.2341 31.9176 28.3409C32.446 28.3679 32.9875 28.3599 33.5409 28.3518C35.8242 28.3181 38.3095 28.2814 40.9126 30.6853C44.4702 32.2045 46.6316 34.2063 46.6316 36.4C46.6316 41.1496 36.4991 45 24 45C11.5009 45 1.36841 41.1496 1.36841 36.4C1.36841 34.1303 3.68224 32.0659 7.46244 30.529L7.47893 30.5158C9.73299 28.7125 13.1096 28.4808 16.7143 28.2553Z" fill="black"/>
</svg>
