<svg width="48" height="48" viewBox="0 0 48 48" fill="none" xmlns="http://www.w3.org/2000/svg">
<path d="M46.0001 30.6001L42.0401 32.8001L43.1401 31.0401H41.1601L39.6201 28.6201L42.0401 28.4001L27.0801 22.0201L27.3001 24.8801L23.2153 23.1602C24.1034 22.1826 24.7284 20.9618 24.9787 19.6094L25.1001 19.3801L26.8601 19.1601L25.1001 18.0601L25.0964 18.0472C25.0757 17.3895 24.9675 16.7537 24.783 16.1513L25.1001 15.2001H24.4163C24.2926 14.9364 24.1535 14.6813 24.0001 14.4361V11.9001L21.6457 12.0963C20.5392 11.4138 19.2356 11.0201 17.8401 11.0201C17.7604 11.0201 17.6809 11.0213 17.6018 11.0239L16.0801 10.5801L14.5401 10.1401L14.3201 11.9001L11.9001 13.2201L10.3601 11.4601L11.0201 10.1401L12.1201 10.3601L11.6801 2.44006L16.0801 7.72006L17.6201 4.20006L18.9401 8.16006L20.7001 6.40006L21.1401 8.16006L24.0001 4.20006V8.82006L31.4801 3.32006L25.7601 13.0001H31.0401L27.5201 16.5201L34.3401 20.4801L29.7201 21.1401L42.0401 25.9801L40.7201 23.7801L42.7001 20.7001L46.0001 24.6601V30.6001Z" fill="black"/>
<path d="M20.3265 25.1031C19.9773 25.2304 19.6156 25.3316 19.2437 25.4045L23.7801 33.2401L22.6801 27.3001H24.0001L22.2401 24.2201L21.5801 26.2001L20.3265 25.1031Z" fill="black"/>
<path d="M14.3151 24.6285C15.0038 25.0117 15.7614 25.2861 16.5645 25.4284L14.98 30.3801L14.1 26.6401L6.62002 33.4601L9.70002 24.4401L5.52002 24.6601L7.50002 23.1201L6.62002 22.9001L10.8115 20.1057C11.1889 21.5629 12.0075 22.8425 13.1163 23.7934L12.34 25.5401L14.3151 24.6285Z" fill="black"/>
<path d="M21.5801 45.5601H15.8601L37.8601 31.7001L39.4001 34.1201L21.5801 45.5601Z" fill="black"/>
<path d="M9.48003 19.1601L8.60003 17.6201L7.28003 18.7201L9.48003 19.1601Z" fill="black"/>
<path d="M16.52 30.6001L18.28 26.2001L19.6 29.0601L18.5 34.1201L16.52 30.6001Z" fill="black"/>
<path d="M20.9199 37.86L21.5799 36.54L22.2399 37.86H20.9199Z" fill="black"/>
<path d="M7.5 12.1201L10.58 15.6401L5.74 15.2001L2 11.2401L7.5 12.1201Z" fill="black"/>
<path d="M23.1201 18.2801C23.1201 21.1961 20.7562 23.5601 17.8401 23.5601C14.924 23.5601 12.5601 21.1961 12.5601 18.2801C12.5601 15.364 14.924 13.0001 17.8401 13.0001C20.7562 13.0001 23.1201 15.364 23.1201 18.2801Z" fill="black"/>
<path d="M42.92 17.4001L40.5 20.4801L40.28 17.8401L42.92 17.4001Z" fill="black"/>
</svg>
