<svg width="48" height="48" viewBox="0 0 48 48" fill="none" xmlns="http://www.w3.org/2000/svg">
<path d="M10.6587 7.90579L8.75286 6.21167C8.5411 6.42344 8.15992 7.05873 8.32933 7.90579H10.6587Z" fill="black"/>
<path d="M15.5295 8.96456C18.4095 10.3199 19.2707 11.9293 19.3413 12.5646C15.3177 12.1411 12.353 11.294 12.1413 10.447C11.9719 9.76928 11.3648 8.61163 11.0825 8.11751C11.3648 7.83515 12.6495 7.60927 15.5295 8.96456Z" fill="black"/>
<path fill-rule="evenodd" clip-rule="evenodd" d="M24 12.1411L17.8588 15.1058L17.6471 16.7999L11.2941 15.7411L6.63529 10.8705L6 15.5293L8.32941 19.7646H10.4471L8.54118 22.094L10.4471 29.294L16.8 39.8823L18.6251 40.5459L20.1862 38.6726L20.1496 35.9582C19.9146 36.0082 19.69 36.0541 19.4801 36.0898C19.124 36.1504 18.7788 36.1878 18.4605 36.1624C18.2736 36.1475 18.0893 36.1106 17.9133 36.0402C17.713 35.9601 17.5236 35.8193 17.3521 35.6625C17.1767 35.5021 16.9983 35.3046 16.8215 35.0862C16.4681 34.6496 16.1001 34.1033 15.7517 33.5405C15.0539 32.4134 14.4122 31.1831 14.0918 30.5423C13.8063 29.9713 13.64 29.2103 13.543 28.522C13.4447 27.825 13.4118 27.1593 13.4118 26.7528V26.5493L14.7325 25.4927L17.6711 25.2828L19.5336 23.4202L21.4588 25H26.565L28.4664 23.4202L30.3289 25.2828L33.2675 25.4927L34.5882 26.5493V26.7528C34.5882 27.1593 34.5553 27.825 34.457 28.522C34.36 29.2103 34.1937 29.9713 33.9082 30.5423C33.5878 31.1831 32.9461 32.4134 32.2483 33.5405C31.8999 34.1033 31.5319 34.6496 31.1785 35.0862C31.0017 35.3046 30.8233 35.5021 30.6479 35.6625C30.4764 35.8193 30.287 35.9601 30.0867 36.0402C29.9107 36.1106 29.7264 36.1475 29.5395 36.1624C29.2212 36.1878 28.8761 36.1504 28.5199 36.0898C28.31 36.0541 28.0854 36.0082 27.8504 35.9582L27.8138 38.6726L29.3749 40.5459L31.2 39.8823L37.5529 29.294L39.4588 22.094L37.5529 19.7646H39.6706L42 15.5293L41.3647 10.8705L36.7059 15.7411L30.3529 16.7999L30.1412 15.1058L24 12.1411ZM24 23.1528L21.0353 21.4587H17.6471L14.2588 23.3646L17.2235 20.6117L19.5529 16.7999L21.2471 18.2823L19.7647 18.0705L18.0706 20.6117H21.0353L24 22.3058L26.9647 20.6117H29.9294L28.2353 18.0705L26.7529 18.2823L28.4471 16.7999L30.7765 20.6117L33.7412 23.3646L30.3529 21.4587H26.9647L24 23.1528Z" fill="black"/>
<path d="M28.5286 40.8536L26.9625 38.9743L27.0056 35.7779C26.1507 35.6021 25.1578 35.4352 23.9999 35.4352C22.842 35.4352 21.8491 35.6021 20.9942 35.7779L21.0373 38.9743L19.4712 40.8536L21.4587 41.5764L23.9999 41.7881L26.5411 41.5764L28.5286 40.8536Z" fill="black"/>
<path d="M10.8705 10.0234L10.6587 8.9646L10.0234 9.59991L10.8705 10.0234Z" fill="black"/>
<path d="M37.3413 7.90579L39.2472 6.21167C39.4589 6.42344 39.8401 7.05873 39.6707 7.90579H37.3413Z" fill="black"/>
<path d="M32.4705 8.96456C29.5905 10.3199 28.7293 11.9293 28.6587 12.5646C32.6823 12.1411 35.647 11.294 35.8587 10.447C36.0281 9.76928 36.6352 8.61163 36.9175 8.11751C36.6352 7.83515 35.3505 7.60927 32.4705 8.96456Z" fill="black"/>
<path d="M37.1294 10.0234L37.3412 8.9646L37.9765 9.59991L37.1294 10.0234Z" fill="black"/>
<path d="M21.0879 25.9058L19.5722 24.5796L18.3186 25.8332L18.7048 27.7641L18.7143 28.1195L20.89 29.8633C20.853 29.5323 20.8235 29.1866 20.8235 28.8705C20.8235 28.2268 21.2694 27.7869 21.435 27.6235C21.4438 27.6148 21.4517 27.607 21.4588 27.5999L22.3059 28.2352H25.6941L26.5412 27.5999L26.5527 27.6114L26.565 27.6235C26.7306 27.7869 27.1765 28.2268 27.1765 28.8705C27.1765 29.1866 27.147 29.5323 27.11 29.8633L29.2857 28.1195L29.2952 27.7641L29.6814 25.8332L28.4278 24.5796L26.9121 25.9058H21.0879Z" fill="black"/>
<path d="M24 30.7764C23.7176 30.7764 22.9835 30.8611 22.3059 31.1999C21.4588 31.6234 21.0353 31.1999 21.0353 31.1999L20.6747 30.7764L18.7439 29.2288L18.9064 35.3125C19.0358 35.3013 19.179 35.2818 19.338 35.2548C19.6088 35.2087 19.9051 35.1446 20.2402 35.0722C20.3171 35.0556 20.3961 35.0385 20.4774 35.0211C21.4191 34.8192 22.5927 34.5881 24 34.5881C25.4073 34.5881 26.5809 34.8192 27.5226 35.0211C27.6039 35.0385 27.6829 35.0556 27.7598 35.0722C28.0949 35.1446 28.3912 35.2087 28.662 35.2548C28.821 35.2818 28.9642 35.3013 29.0936 35.3125L29.2561 29.2288L27.3253 30.7764L26.9647 31.1999C26.9647 31.1999 26.5412 31.6234 25.6941 31.1999C25.0165 30.8611 24.2824 30.7764 24 30.7764Z" fill="black"/>
<path d="M17.5168 26.1431L17.86 27.8592L18.0547 35.1477C18.0155 35.1178 17.9719 35.0813 17.9239 35.0374C17.7899 34.915 17.6408 34.7518 17.48 34.5533C17.1585 34.1561 16.8118 33.6436 16.472 33.0946C15.7932 31.9982 15.1644 30.7932 14.8495 30.1634C14.6267 29.7179 14.4754 29.0672 14.3818 28.4037C14.3046 27.8562 14.2706 27.3288 14.2615 26.9543L15.0559 26.3188L17.5168 26.1431Z" fill="black"/>
<path d="M30.4832 26.1431L30.14 27.8592L29.9453 35.1477C29.9845 35.1178 30.0281 35.0813 30.0761 35.0374C30.2101 34.915 30.3592 34.7518 30.52 34.5533C30.8415 34.1561 31.1882 33.6436 31.528 33.0946C32.2068 31.9982 32.8356 30.7932 33.1505 30.1634C33.3733 29.7179 33.5246 29.0672 33.6182 28.4037C33.6954 27.8562 33.7294 27.3288 33.7385 26.9543L32.9441 26.3188L30.4832 26.1431Z" fill="black"/>
</svg>
