<svg xmlns="http://www.w3.org/2000/svg" viewBox="0 0 48 48" class="ability-icon createSvgIcon__Svg-sc-1l8xi8d-0 ldKivg"><title>Raze - Boom Bot</title><path fill-rule="evenodd" clip-rule="evenodd" d="M13.8834 11.0556L17.9857 15.5734C18.2733 15.9021 18.7212 16.1807 19.2523 16.1863L23.9718 16.372L23.9998 16.3731L24.0278 16.372L28.8206 16.1863C29.3531 16.1808 29.802 15.9008 30.0896 15.571L34.1225 11.0573C34.1347 11.061 34.1469 11.0648 34.159 11.0689C34.4769 11.1755 35.0647 11.4121 35.5195 11.8213C35.8248 12.096 36.1379 12.5848 36.3002 12.8568C36.3691 12.9724 36.3493 13.1193 36.2562 13.2156L35.6625 13.8293C35.5167 13.98 35.4779 14.2071 35.565 14.3993L36.741 16.9928C36.834 17.1979 37.073 17.2863 37.2733 17.1897L38.0706 16.805C38.2569 16.7151 38.4791 16.7847 38.5775 16.9693C38.7405 17.2751 38.9742 17.7413 39.0945 18.1112C39.1252 18.2057 39.1669 18.3121 39.2152 18.4241C39.1881 18.4571 39.1547 18.4831 39.1178 18.5004L39.1095 18.5044L39.1012 18.5085L33.9452 21.1005C33.5825 21.2729 33.2627 21.5244 33.0082 21.8359L26.8854 29.3321C26.8395 29.3882 26.7774 29.4222 26.7128 29.4316L24.0471 29.8199C24.0159 29.8245 23.9841 29.8245 23.9529 29.8199L21.2872 29.4316C21.2226 29.4222 21.1605 29.3882 21.1146 29.3321L14.9918 21.8359C14.7373 21.5244 14.4175 21.2729 14.0548 21.1005L8.89876 18.5085L8.8905 18.5044L8.88214 18.5004C8.84527 18.4831 8.81188 18.4571 8.78478 18.4241C8.83312 18.3121 8.87484 18.2057 8.90556 18.1112C9.02583 17.7413 9.25951 17.2751 9.42258 16.9693C9.52098 16.7847 9.74319 16.7151 9.9294 16.805L10.7268 17.1897C10.927 17.2863 11.1661 17.1979 11.2591 16.9928L12.435 14.3993C12.5222 14.2071 12.4833 13.98 12.3375 13.8293L11.7439 13.2156C11.6508 13.1193 11.631 12.9724 11.6999 12.8568C11.8621 12.5848 12.1753 12.096 12.4806 11.8213C12.9354 11.4121 13.5232 11.1755 13.841 11.0689C13.8551 11.0642 13.8692 11.0598 13.8834 11.0556ZM15.7709 11L19.0528 14.6143L19.0585 14.6205L19.064 14.6269C19.152 14.7285 19.2392 14.7516 19.2686 14.7516H19.2827L19.2968 14.7521L24.0002 14.9372L28.7768 14.7521L28.7907 14.7516H28.8046C28.834 14.7516 28.9212 14.7285 29.0092 14.6269L29.0164 14.6185L29.0165 14.6186L32.2496 11H15.7709ZM7.39288 17.6626C5.55641 13.6184 4.00387 11.0413 3.31101 11.3293C2.89697 11.5014 2.90997 12.675 3.269 14.5111C2.57511 15.4547 3.62539 20.2813 5.76647 25.7869C7.90755 31.2925 10.3812 35.5275 11.5138 35.712C12.4841 37.294 13.2605 38.1504 13.6745 37.9783C14.5238 37.6253 13.3433 33.0362 11.2265 27.1749L11.2277 27.1754C12.8323 27.8524 13.6015 29.6664 13.9162 30.6807C14.0215 31.0201 14.4182 31.1902 14.7009 30.9815C14.9198 30.8198 15.1553 30.6303 15.3261 30.4515C15.563 30.2035 15.8399 29.8039 15.9742 29.6029C16.0138 29.5437 16.0991 29.5413 16.1404 29.5993C16.4581 30.0462 17.6067 31.6338 18.5382 32.559C19.1577 33.1743 20.0049 33.7601 20.4681 34.0627C20.6884 34.2066 20.9377 34.2953 21.1968 34.3331L24 34.7414L26.8033 34.3331C27.0623 34.2953 27.3116 34.2066 27.532 34.0626C27.9952 33.7601 28.8423 33.1743 29.4618 32.559C30.3933 31.6338 31.542 30.0462 31.8596 29.5993C31.9009 29.5413 31.9863 29.5437 32.0258 29.6029C32.1602 29.8039 32.437 30.2035 32.674 30.4515C32.8448 30.6303 33.0802 30.8198 33.2991 30.9815C33.5818 31.1902 33.9786 31.0201 34.0838 30.6807C34.3986 29.6664 35.1677 27.8524 36.7723 27.1754L36.7735 27.1749C34.6567 33.0362 33.4762 37.6253 34.3255 37.9783C34.7396 38.1504 35.516 37.294 36.4862 35.712C37.6188 35.5275 40.0925 31.2925 42.2336 25.7869C44.3747 20.2813 45.4249 15.4547 44.731 14.5111C45.0901 12.675 45.1031 11.5014 44.689 11.3293C43.9977 11.042 42.4505 13.6069 40.6194 17.6356L40.6762 18.2142C40.6915 18.3703 40.6984 18.6136 40.5978 18.8689C40.4395 19.2704 40.1356 19.6041 39.7385 19.794L34.582 22.3863L34.5737 22.3904L34.5653 22.3943C34.3943 22.4749 34.2417 22.5939 34.1194 22.7436L27.9966 30.2397C27.7267 30.5702 27.3435 30.7896 26.9196 30.8514L24.2539 31.2397C24.0855 31.2642 23.9145 31.2642 23.7461 31.2397L21.0804 30.8514C20.6565 30.7896 20.2733 30.5702 20.0034 30.2397L13.8806 22.7436C13.7583 22.5939 13.6057 22.4749 13.4346 22.3943L13.4263 22.3904L13.418 22.3863L8.26147 19.794C7.87018 19.6068 7.56936 19.2801 7.40926 18.8865C7.29883 18.615 7.31041 18.3545 7.33019 18.1886L7.39288 17.6626ZM20.8043 17.5172C20.5334 17.5172 20.2764 17.6399 20.1029 17.8522L17.8203 20.6453C17.5614 20.9621 17.5377 21.4147 17.762 21.7578L21.4142 27.344C21.5835 27.603 21.8686 27.7586 22.1739 27.7586H25.8261C26.1314 27.7586 26.4165 27.603 26.5858 27.344L30.238 21.7578C30.4623 21.4147 30.4386 20.9621 30.1797 20.6453L27.8971 17.8522C27.7236 17.6399 27.4666 17.5172 27.1957 17.5172H20.8043ZM19.6596 21.3033L21.232 19.3793H26.768L28.3404 21.3033L25.3375 25.8965H22.6625L19.6596 21.3033ZM24 11.931H21.5113C21.0879 11.931 20.7107 12.2039 20.5708 12.6114L20.3972 13.1171C20.2838 13.4475 20.5243 13.793 20.8675 13.793H24H27.1325C27.4757 13.793 27.7162 13.4475 27.6028 13.1171L27.4292 12.6114C27.2893 12.2039 26.9121 11.931 26.4887 11.931H24Z"/></svg>