<svg xmlns="http://www.w3.org/2000/svg" viewBox="0 0 48 48" class="ability-icon createSvgIcon__Svg-sc-1l8xi8d-0 ldKivg"><title>Raze - Showstopper</title><path fill-rule="evenodd" clip-rule="evenodd" d="M8.38621 12.4235C8.30467 12.2599 8.50852 12.1371 8.63084 12.219C9.32394 12.8327 10.5471 13.651 11.444 12.4235C12.7079 10.7052 10.0578 10.1733 9.77242 10.1324H9.73165C9.5278 10.0506 7.36694 8.86406 7 5.18184C7 5.01818 7.16308 4.93636 7.2854 5.0591C7.9785 5.87737 9.89473 7.71848 13.1972 8.3731C17.4368 9.22399 15.5983 13.0042 15.0476 13.6335L16.2511 14.837C18.3418 13.0672 21.0463 12 24 12C26.9537 12 29.6582 13.0672 31.7489 14.837L32.9524 13.6334C32.4017 13.0041 30.5632 9.22398 34.8028 8.3731C38.1053 7.71848 40.0215 5.87737 40.7146 5.0591C40.8369 4.93636 41 5.01818 41 5.18184C40.6331 8.86406 38.4722 10.0096 38.2276 10.1324H38.1868C37.9014 10.1733 35.2513 10.7052 36.5152 12.4235C37.4122 13.651 38.6353 12.8327 39.3284 12.219C39.4507 12.1371 39.6546 12.2599 39.573 12.4235C38.0239 16.4438 35.8625 15.9518 34.4296 14.9846L33.1631 16.2512C34.9329 18.3419 36 21.0463 36 24C36 26.9537 34.9328 29.6582 33.163 31.7489L34.4296 33.0154C35.8624 32.0482 38.0239 31.5561 39.573 35.5765C39.6546 35.7401 39.4507 35.8629 39.3284 35.781C38.6353 35.1673 37.4122 34.349 36.5152 35.5765C35.2513 37.2948 37.9014 37.8267 38.1868 37.8676H38.2276C38.4722 37.9904 40.6331 39.1359 41 42.8182C41 42.9818 40.8369 43.0636 40.7146 42.9409C40.0215 42.1226 38.1053 40.2815 34.8028 39.6269C30.5634 38.776 32.4016 34.9961 32.9523 34.3666L31.7488 33.1631C29.6581 34.9329 26.9537 36 24 36C21.0463 36 18.3419 34.9329 16.2512 33.1631L15.0477 34.3666C15.5984 34.9961 17.4366 38.776 13.1972 39.6269C9.89473 40.2815 7.9785 42.1226 7.2854 42.9409C7.16308 43.0636 7 42.9818 7 42.8182C7.36694 39.1359 9.5278 37.9494 9.73165 37.8676H9.77242C10.0578 37.8267 12.7079 37.2948 11.444 35.5765C10.5471 34.349 9.32394 35.1673 8.63084 35.781C8.50852 35.8629 8.30467 35.7401 8.38621 35.5765C9.9416 31.5398 12.1144 32.0523 13.5586 33.0272L14.837 31.7489C13.0672 29.6582 12 26.9537 12 24C12 21.0463 13.0671 18.3419 14.8369 16.2512L13.5586 14.9729C12.1143 15.9478 9.94158 16.4601 8.38621 12.4235ZM33.5 24C33.5 29.2467 29.2467 33.5 24 33.5C18.7533 33.5 14.5 29.2467 14.5 24C14.5 18.7533 18.7533 14.5 24 14.5C29.2467 14.5 33.5 18.7533 33.5 24ZM24 31C27.866 31 31 27.866 31 24C31 20.134 27.866 17 24 17C20.134 17 17 20.134 17 24C17 27.866 20.134 31 24 31ZM19.7155 26.7158C19.6417 26.642 19.6417 26.5224 19.7155 26.4487L22.164 24.0002L19.7155 21.5517C19.6417 21.4779 19.6417 21.3583 19.7155 21.2846L21.2844 19.7156C21.3582 19.6418 21.4778 19.6418 21.5515 19.7156L24 22.1641L26.4485 19.7156C26.5223 19.6418 26.6419 19.6418 26.7156 19.7156L28.2846 21.2846C28.3583 21.3583 28.3583 21.4779 28.2846 21.5517L25.8361 24.0002L28.2846 26.4487C28.3583 26.5224 28.3583 26.642 28.2846 26.7158L26.7156 28.2847C26.6419 28.3585 26.5223 28.3585 26.4485 28.2847L24 25.8362L21.5515 28.2847C21.4778 28.3585 21.3582 28.3585 21.2844 28.2847L19.7155 26.7158Z"/></svg>