<svg xmlns="http://www.w3.org/2000/svg" viewBox="0 0 48 48" class="ability-icon createSvgIcon__Svg-sc-1l8xi8d-0 ldKivg"><title>Raze - Pain Shells</title><path fill-rule="evenodd" clip-rule="evenodd" d="M30 33.2608C34.529 31.0403 37.6471 26.3843 37.6471 21C37.6471 13.4629 31.5371 7.35294 24 7.35294C16.4629 7.35294 10.3529 13.4629 10.3529 21C10.3529 26.3843 13.471 31.0403 18 33.2608V35.837C12.1363 33.4634 8 27.7148 8 21C8 12.1634 15.1634 5 24 5C32.8366 5 40 12.1634 40 21C40 27.7148 35.8637 33.4634 30 35.837V33.2608ZM25 16.792C25.883 16.4062 26.5 15.5252 26.5 14.5C26.5 13.1193 25.3807 12 24 12C22.6193 12 21.5 13.1193 21.5 14.5C21.5 15.5252 22.117 16.4062 23 16.792V18.5C23 18.7761 23.2239 19 23.5 19H24.5C24.7761 19 25 18.7761 25 18.5V16.792ZM29.208 23C29.5938 23.883 30.4748 24.5 31.5 24.5C32.8807 24.5 34 23.3807 34 22C34 20.6193 32.8807 19.5 31.5 19.5C30.4748 19.5 29.5938 20.117 29.208 21H27.5C27.2239 21 27 21.2239 27 21.5V22.5C27 22.7761 27.2239 23 27.5 23H29.208ZM16.5 19.5C17.5252 19.5 18.4062 20.117 18.792 21H20.5C20.7761 21 21 21.2239 21 21.5V22.5C21 22.7761 20.7761 23 20.5 23H18.792C18.4062 23.883 17.5252 24.5 16.5 24.5C15.1193 24.5 14 23.3807 14 22C14 20.6193 15.1193 19.5 16.5 19.5ZM23.4527 24.1894C23.4805 24.0781 23.5805 24 23.6952 24H24.3048C24.4195 24 24.5195 24.0781 24.5473 24.1894L24.9832 25.9328C24.9942 25.9768 25.0169 26.0169 25.049 26.049L25.4485 26.4485C25.4821 26.4821 25.5055 26.5247 25.5158 26.5711L25.9799 28.6597C25.9929 28.718 26.0262 28.7697 26.074 28.8055L26.9657 29.4743C26.9884 29.4913 27.008 29.512 27.0238 29.5356L27.958 30.937C27.9854 30.9781 28 31.0263 28 31.0757V41.9243C28 41.9737 27.9854 42.0219 27.958 42.063L27.042 43.437C27.0146 43.4781 27 43.5263 27 43.5757V44C27 44.5523 26.5523 45 26 45H22C21.4477 45 21 44.5523 21 44V43.5757C21 43.5263 20.9854 43.4781 20.958 43.437L20.042 42.063C20.0146 42.0219 20 41.9737 20 41.9243V31.0757C20 31.0263 20.0146 30.9781 20.042 30.937L20.9762 29.5356C20.992 29.512 21.0116 29.4913 21.0343 29.4743L21.926 28.8055C21.9738 28.7697 22.0071 28.718 22.0201 28.6597L22.4842 26.5711C22.4945 26.5247 22.5179 26.4821 22.5515 26.4485L22.951 26.049C22.9831 26.0169 23.0058 25.9768 23.0168 25.9328L23.4527 24.1894ZM22.5 33.5C22.5 32.6716 23.1716 32 24 32C24.8284 32 25.5 32.6716 25.5 33.5V39.5C25.5 40.3284 24.8284 41 24 41C23.1716 41 22.5 40.3284 22.5 39.5V33.5Z"/></svg>