<svg xmlns="http://www.w3.org/2000/svg" viewBox="0 0 48 48" class="ability-icon createSvgIcon__Svg-sc-1l8xi8d-0 ldKivg"><title>Raze - Blast Pack</title><path fill-rule="evenodd" clip-rule="evenodd" d="M25 3C25 2.44772 24.5523 2 24 2C23.4477 2 23 2.44772 23 3V7C23 7.55228 23.4477 8 24 8C24.5523 8 25 7.55228 25 7V3ZM26 16.2361C26.6137 15.6868 27 14.8885 27 14C27 12.3431 25.6569 11 24 11C22.3431 11 21 12.3431 21 14C21 14.8885 21.3863 15.6868 22 16.2361V18H14C12.3431 18 11 19.3431 11 21V40C11 41.6569 12.3431 43 14 43H34C35.6569 43 37 41.6569 37 40V21C37 19.3431 35.6569 18 34 18H26V16.2361ZM16 25C17.1046 25 18 24.1046 18 23C18 21.8954 17.1046 21 16 21C14.8954 21 14 21.8954 14 23C14 24.1046 14.8954 25 16 25ZM14 29C14 27.8954 14.8954 27 16 27H26C27.1046 27 28 27.8954 28 29V31C28 32.1046 27.1046 33 26 33H16C14.8954 33 14 32.1046 14 31V29ZM31 28.5C31 27.6716 31.6716 27 32.5 27C33.3284 27 34 27.6716 34 28.5V31.5C34 32.3284 33.3284 33 32.5 33C31.6716 33 31 32.3284 31 31.5V28.5ZM24 23C24 24.1046 23.1046 25 22 25C20.8954 25 20 24.1046 20 23C20 21.8954 20.8954 21 22 21C23.1046 21 24 21.8954 24 23ZM31 13C30.4477 13 30 13.4477 30 14C30 14.5523 30.4477 15 31 15H35C35.5523 15 36 14.5523 36 14C36 13.4477 35.5523 13 35 13H31ZM12 14C12 13.4477 12.4477 13 13 13H17C17.5523 13 18 13.4477 18 14C18 14.5523 17.5523 15 17 15H13C12.4477 15 12 14.5523 12 14ZM32.0711 5.92896C32.2663 6.12419 32.2663 6.44073 32.0711 6.63597L28.8633 9.84376C28.668 10.039 28.3515 10.039 28.1563 9.84376C27.961 9.64852 27.961 9.33198 28.1563 9.13674L31.364 5.92896C31.5593 5.73372 31.8758 5.73372 32.0711 5.92896ZM15.9289 6.63892C15.7329 6.44287 15.7329 6.125 15.9289 5.92895C16.125 5.7329 16.4429 5.73289 16.6389 5.92895L19.8437 9.13374C20.0398 9.32979 20.0398 9.64766 19.8437 9.84371C19.6477 10.0398 19.3298 10.0398 19.1337 9.84371L15.9289 6.63892Z"/></svg>