<svg xmlns="http://www.w3.org/2000/svg" viewBox="0 0 48 48" class="ability-icon createSvgIcon__Svg-sc-1l8xi8d-0 ldKivg"><title>Cypher - Cyber Cage</title><path fill-rule="evenodd" clip-rule="evenodd" d="M6 24.0097C6 14.0818 14.072 6.00978 24 6.00978C33.9574 6.00978 42.0294 14.0818 41.9999 24.0097C41.9999 33.9377 33.9574 42.0097 24 42.0097C14.072 42.0097 6 33.9672 6 24.0097ZM25.3257 35.7642V38.7102C32.8674 38.0326 38.7593 31.7282 38.7593 24.0097C38.7593 21.8886 38.288 19.8854 37.4926 18.0589L35.0179 19.4729L33.6922 17.1751L36.1963 15.7315C33.545 11.8134 29.0671 9.25036 24 9.25036C18.9623 9.25036 14.4844 11.7839 11.833 15.6726L14.4255 17.1751L13.0998 19.4729L10.5368 17.9999C9.71194 19.8264 9.24058 21.8592 9.24058 24.0097C9.24058 31.7282 15.162 38.0326 22.6743 38.7102V35.7642H25.3257ZM26.5914 29.9942C26.5914 31.4257 25.431 32.5862 23.9995 32.5862C22.5679 32.5862 21.4075 31.4257 21.4075 29.9942C21.4075 28.5627 22.5679 27.4022 23.9995 27.4022C25.431 27.4022 26.5914 28.5627 26.5914 29.9942ZM18.7252 23.5788C20.1567 23.5788 21.3172 22.4183 21.3172 20.9868C21.3172 19.5553 20.1567 18.3949 18.7252 18.3949C17.2937 18.3949 16.1332 19.5553 16.1332 20.9868C16.1332 22.4183 17.2937 23.5788 18.7252 23.5788ZM31.4505 20.9868C31.4505 22.4183 30.29 23.5788 28.8585 23.5788C27.427 23.5788 26.2665 22.4183 26.2665 20.9868C26.2665 19.5553 27.427 18.3949 28.8585 18.3949C30.29 18.3949 31.4505 19.5553 31.4505 20.9868Z"/></svg>