<svg xmlns="http://www.w3.org/2000/svg" viewBox="0 0 48 48" class="ability-icon createSvgIcon__Svg-sc-1l8xi8d-0 ldKivg"><title>Cypher - Trapwire</title><path d="M37.3802 15.3802C32.9528 15.3802 29.309 18.7106 28.7996 23.0205H19.2004C18.691 18.7106 15.0472 15.3802 10.6198 15.3802C5.8789 15.3802 2 19.2591 2 24C2 28.7409 5.8789 32.6198 10.6198 32.6198C15.0472 32.6198 18.691 29.2894 19.2004 24.9795H28.8388C29.309 29.2894 32.9528 32.6198 37.3802 32.6198C42.1211 32.6198 46 28.7409 46 24C46 19.2591 42.1211 15.3802 37.3802 15.3802ZM10.6198 29.4853C7.60285 29.4853 5.13446 27.0169 5.13446 24C5.13446 20.9831 7.60285 18.5147 10.6198 18.5147C13.3232 18.5147 15.5565 20.4737 16.0267 23.0205H13.0882C12.6963 22.0409 11.756 21.3749 10.6589 21.3749C9.20926 21.3749 8.03384 22.5503 8.03384 24C8.03384 25.4497 9.20926 26.6251 10.6589 26.6251C11.756 26.6251 12.6963 25.959 13.0882 24.9795H16.0267C15.5565 27.5263 13.3232 29.4853 10.6198 29.4853ZM37.3802 29.4853C34.6768 29.4853 32.4435 27.5263 31.9733 24.9795H34.9118C35.3036 25.959 36.244 26.6251 37.341 26.6251C38.7907 26.6251 39.9662 25.4497 39.9662 24C39.9662 22.5503 38.7907 21.3749 37.341 21.3749C36.244 21.3749 35.3036 22.0409 34.9118 23.0205H31.9733C32.4435 20.4737 34.6768 18.5147 37.3802 18.5147C40.3972 18.5147 42.8655 20.9831 42.8655 24C42.8655 27.0169 40.3972 29.4853 37.3802 29.4853Z"/></svg>