<svg xmlns="http://www.w3.org/2000/svg" viewBox="0 0 48 48" class="ability-icon createSvgIcon__Svg-sc-1l8xi8d-0 ldKivg"><title>Cypher - NeuralTheft</title><path fill-rule="evenodd" clip-rule="evenodd" d="M22 11.1041C20.0203 11.3118 18.1997 11.8183 16.5412 12.5167C15.0024 12.2493 13.4899 11.5656 11.7063 10.7593L11.7062 10.7593L11.7062 10.7593L11.7062 10.7593C11.1652 10.5148 10.5992 10.2589 10 10C10.4934 11.2195 11.2399 14.01 10.8203 16.0435C6.42215 19.698 4.15793 24 4.15793 24C4.15793 24 6.42215 28.302 10.8203 31.9565C11.24 33.99 10.4934 36.7805 10 38C10.5991 37.7411 11.165 37.4853 11.7059 37.2408L11.7062 37.2407L11.7063 37.2407C13.4899 36.4344 15.0024 35.7507 16.5412 35.4833C18.1997 36.1817 20.0203 36.6882 22 36.8959V33.9112C13.8377 32.9222 8.5 24 8.5 24C8.5 24 13.8377 15.0778 22 14.0888V11.1041ZM26 14.2109V11.1041C27.9797 11.3118 29.8003 11.8183 31.4589 12.5167C32.9977 12.2493 34.5102 11.5656 36.2938 10.7593C36.8348 10.5148 37.4008 10.2589 38 10C37.4982 11.2403 36.7345 14.1057 37.3035 16.147C41.6204 19.7786 43.8421 24 43.8421 24C43.8421 24 41.6204 28.2213 37.3035 31.853C36.7345 33.8943 37.4982 36.7597 38 38C37.4008 37.7411 36.8349 37.4853 36.2938 37.2407L36.2938 37.2407C34.5102 36.4344 32.9977 35.7507 31.4589 35.4833C29.8003 36.1817 27.9797 36.6882 26 36.8959V33.7891C34.5924 32.3473 39.5 24 39.5 24C39.5 24 34.5924 15.6527 26 14.2109ZM24 27.421C25.8894 27.421 27.421 25.8894 27.421 24C27.421 22.1106 25.8894 20.5789 24 20.5789C22.1106 20.5789 20.5789 22.1106 20.5789 24C20.5789 25.8894 22.1106 27.421 24 27.421ZM24 30.8421C27.7788 30.8421 30.8421 27.7788 30.8421 24C30.8421 20.2212 27.7788 17.1579 24 17.1579C20.2212 17.1579 17.1579 20.2212 17.1579 24C17.1579 27.7788 20.2212 30.8421 24 30.8421Z"/></svg>