<svg xmlns="http://www.w3.org/2000/svg" viewBox="0 0 48 48" class="ability-icon createSvgIcon__Svg-sc-1l8xi8d-0 ldKivg"><title>Cypher - Spycam</title><path fill-rule="evenodd" clip-rule="evenodd" d="M4.57947 14.5251L5.96901 16.3778L10.9317 12.6724C11.8911 11.9445 13.81 11.3159 15.001 11.3159H19.1035V9H15.001C13.3137 9 10.8986 9.79402 9.54212 10.8196L4.57947 14.5251ZM17.383 40H15.7288C14.24 40 12.5527 38.6105 11.6594 37.254L8.02017 31.5966L9.97214 30.3394L13.6114 35.9968C14.3062 37.0555 15.3649 37.6841 15.7288 37.6841H17.383V40ZM29.7567 40H31.411C32.8998 40 34.5871 38.6105 35.4803 37.254L39.1196 31.5966L37.1676 30.3394L33.5284 35.9968C32.8336 37.0555 31.7749 37.6841 31.411 37.6841H29.7567V40ZM42.031 16.3778L43.4205 14.5251L38.4579 10.8196C37.1014 9.79402 34.6862 9 32.9989 9H28.8965V11.3159H32.9989C34.19 11.3159 36.1089 11.9445 37.0683 12.6724L42.031 16.3778ZM38.2178 17.8666C35.5049 15.1537 32.7135 15.2 32.7135 15.2H24.0001H15.2865C15.2865 15.2 12.4954 15.1537 9.78244 17.8666L8.26056 19.3885L15.5967 31.8089C15.5967 31.8089 16.9201 34.191 19.5006 34.191H24.0001H28.4996C31.0471 34.191 32.4035 31.8089 32.4035 31.8089L39.7397 19.3885L38.2178 17.8666ZM24 29.6667C21.1505 29.6667 18.8333 27.3495 18.8333 24.5C18.8333 21.6505 21.1505 19.3333 24 19.3333C26.8495 19.3333 29.1667 21.6505 29.1667 24.5C29.1667 27.3808 26.8495 29.6667 24 29.6667Z"/></svg>