<svg xmlns="http://www.w3.org/2000/svg" viewBox="0 0 48 48" class="ability-icon createSvgIcon__Svg-sc-1l8xi8d-0 ldKivg"><title>Phoenix - Hot Hands</title><path fill-rule="evenodd" clip-rule="evenodd" d="M22.9219 4C21.5578 9.0397 19.6112 19.0742 23.5876 20.7341C26.6559 22.0149 27.9577 18.5094 26.0945 10.2176C30.0747 14.8674 30.0747 18.0225 29.338 22.8438C29.9062 23.1673 30.4431 23.5415 30.9414 23.9599C31.675 23.5205 32.0416 22.6785 32.0416 21.4353C32.8355 22.882 33.0301 24.3145 32.6255 25.7327C33.9868 27.5369 34.7946 29.783 34.7946 32.2177C34.7946 38.1726 29.9617 43 24 43C18.0383 43 13.2054 38.1726 13.2054 32.2177C13.2054 30.5014 13.6068 28.8788 14.321 27.4384C13.6189 25.8133 13.8054 23.5783 14.8809 20.7341C14.8809 23.2949 15.3657 23.911 15.9381 24.2733C16.0994 24.3754 16.2916 24.4343 16.5149 24.4501C16.8397 24.1363 17.1833 23.8447 17.5444 23.5752C16.9778 16.1473 19.2676 9.44662 22.9219 4ZM21.2851 37.4671C21.7372 35.7236 22.6414 33.9885 24.3869 33.25C23.9652 34.6481 24.0273 36.6828 25.2011 38.0031C27.8945 37.448 29.9196 35.0632 29.9196 32.2054C29.9196 28.936 27.2693 26.2857 24 26.2857C20.7307 26.2857 18.0804 28.936 18.0804 32.2054C18.0804 34.4961 19.3815 36.4829 21.2851 37.4671Z"/></svg>