<svg xmlns="http://www.w3.org/2000/svg" viewBox="0 0 48 48" class="ability-icon createSvgIcon__Svg-sc-1l8xi8d-0 ldKivg"><title>Phoenix - Blaze</title><path d="M7.60985 16.1635C7.1318 18.9293 8.15619 20.8074 8.80497 21.661C8.94156 21.8317 9.24887 21.7635 9.24887 21.5244C9.31717 20.6366 9.52204 19.1342 10.4098 18.5196C11.605 17.7 10.8196 11.9976 7.02936 10.5976C6.79034 10.5293 6.58546 10.7683 6.72204 10.9732C7.26839 11.7927 8.05375 13.5342 7.60985 16.1635Z"/><path d="M10.922 25.2464C11.2976 26.8854 11.2293 27.6366 11.2293 27.6366C11.2976 30.5732 9.761 28.8659 9.86344 27.5683C9.96588 26.3049 8.94149 24.9391 6.61954 22.3439C4.80978 20.3293 4.84393 17.3927 4.94637 16.1976C4.94637 16.0269 4.74149 15.9586 4.6732 16.0952C2.761 18.8269 3.00002 22.822 3.00002 22.9244V38.3244C3.00002 38.4269 3.10246 38.4952 3.2049 38.461C5.66344 37.5732 8.60002 36.822 11.8781 36.3098V23.2659C11.8781 23.1293 11.7415 23.061 11.639 23.1293C11.2976 23.4025 10.6488 24.0854 10.922 25.2464Z"/><path d="M20.5512 17.7684C20.4147 19.8513 20.2098 22.583 18.4683 22.583C16.7269 22.583 15.6 20.8757 15.5659 16.3001C15.5317 12.783 12.8342 11.0757 11.5708 10.4269C11.4342 10.3586 11.2976 10.5293 11.4 10.6318C14.2342 13.8415 14.3708 19.8513 14.3708 19.8513L14.3025 35.7976C14.3025 35.8659 14.3708 35.9342 14.4732 35.9342C17.1366 35.5927 19.9366 35.422 22.8732 35.3537C22.9415 35.3537 23.0098 35.2854 23.0098 35.2171V20.6025C23.0098 15.4464 24.2049 11.4854 24.5805 10.4269C24.6147 10.3244 24.5122 10.1879 24.3756 10.2562C22.5317 11.2123 20.6537 15.7879 20.5512 17.7684Z"/><path d="M31.2049 15.1049C31.1367 15.0366 31.0001 15.1049 31.0342 15.2073C31.5464 16.5049 32.9123 20.5341 29.9757 20.5341C27.0732 20.5341 27.1074 15.6171 27.2098 13.9098C27.2098 13.8073 27.0732 13.7732 27.0049 13.8756C25.6391 17.2902 25.7074 22.9927 25.7074 22.9927V35.3195C25.7074 35.3878 25.7415 35.422 25.8098 35.422C28.644 35.4561 31.3757 35.661 33.9367 35.9683C34.0049 35.9683 34.0391 35.9341 34.0391 35.8659V23.8463C34.0391 18.4512 31.9903 15.8902 31.2049 15.1049Z"/><path d="M44 17.5C43.9659 17.3634 43.761 17.3634 43.6927 17.5C42.2244 21.939 41.0733 19.1683 38.683 15.2073C36.6343 11.8951 32.1269 10.0854 30.4879 9.53905C30.3172 9.47075 30.2148 9.64149 30.3172 9.77807C37.3172 16.9488 36.7367 22.1732 36.7367 22.1732V36.1732C36.7367 36.2415 36.805 36.3098 36.8733 36.3098C39.8099 36.7878 42.4733 37.4366 44.7952 38.222C44.8977 38.2561 45.0001 38.1878 45.0001 38.0854V26.6122C45.0001 22.0025 44.2732 18.5927 44 17.5Z"/></svg>