<svg xmlns="http://www.w3.org/2000/svg" viewBox="0 0 48 48" class="ability-icon createSvgIcon__Svg-sc-1l8xi8d-0 ldKivg"><title>Phoenix - Run It Back</title><path fill-rule="evenodd" clip-rule="evenodd" d="M22.9456 39C13.1643 29.575 11.6633 17.4898 13.5965 8.01823C10.5204 11.0913 8.53096 15.4352 8.89339 21.0497C7.71386 20.5156 6.59157 18.987 5.52651 16.4637C4.40758 18.7957 4.31963 27.8129 14.236 35.0015L11.6623 36.8218C14.4719 38.0286 18.2329 38.7546 22.9456 39ZM39.1066 21.0315C39.4691 15.4169 37.4796 11.0731 34.4035 8C36.3367 17.4898 34.8357 29.5568 25.0544 38.9818C29.7671 38.7364 33.5282 38.0103 36.3377 36.8036L33.764 34.9833C43.6804 27.7947 43.5924 18.7774 42.4735 16.4455C41.4084 18.9688 40.2862 20.4974 39.1066 21.0315ZM24.0011 32.7289C28.0196 30.0932 30.7607 26.8299 30.2712 23.8654C29.7909 20.9566 25.5192 19.9425 24.0799 23.6465L24.0004 23.8631C22.646 19.9045 18.2194 20.9012 17.73 23.8654C17.2405 26.8299 19.9816 30.0932 24 32.7296H24.0012L24.0011 32.7289ZM24.0004 23.8631L24 23.8642L24.0012 23.8654C24.0009 23.8647 24.0007 23.8639 24.0004 23.8631ZM20.275 16.1313C22.1198 15.7993 23.5624 14.329 23.9172 12.503C23.9172 12.4081 24.0591 12.4081 24.0828 12.4793C24.4375 14.329 25.8802 15.7756 27.7249 16.1313C27.8195 16.155 27.8195 16.2736 27.7249 16.2973C25.8802 16.653 24.4375 18.0996 24.0828 19.9493C24.0591 20.0441 23.9408 20.0441 23.9172 19.9493C23.5624 18.0996 22.1198 16.653 20.275 16.2973C20.1804 16.2736 20.1804 16.155 20.275 16.1313Z"/></svg>