<svg xmlns="http://www.w3.org/2000/svg" viewBox="0 0 48 48" class="ability-icon createSvgIcon__Svg-sc-1l8xi8d-0 ldKivg"><title>Phoenix - Curveball</title><path fill-rule="evenodd" clip-rule="evenodd" d="M28.2579 12.9086C28.0319 13.1716 27.6603 13.2503 27.3364 13.1265C27.0828 13.0295 26.8239 12.9433 26.5603 12.8684C26.2647 12.7844 26.032 12.5495 25.9717 12.2482L24.3894 4.33632L22.846 12.0533C22.7808 12.3792 22.5152 12.6246 22.1891 12.6886C21.4121 12.8412 20.6696 13.0901 19.9746 13.4223C19.7494 13.5299 19.4871 13.5363 19.2628 13.4265L16.6017 12.1239L17.1753 14.9917C17.2253 15.2414 17.1483 15.4983 16.9801 15.6895C16.3792 16.3728 15.8765 17.1445 15.494 17.9826C15.3744 18.2447 15.1313 18.4331 14.845 18.4648L8.81415 19.1328L14.5836 21.7475C14.6271 21.7672 14.6549 21.8107 14.6549 21.8584C14.6549 24.5673 15.8075 27.0071 17.649 28.7139C17.8352 28.8865 17.9379 29.1333 17.9144 29.3861L17.7391 31.2695L19.7576 30.4638C19.9567 30.3843 20.1791 30.392 20.3767 30.4752C20.8803 30.6872 21.4064 30.8564 21.9504 30.9781C22.2888 31.0538 22.5549 31.3247 22.5979 31.6688L24.3894 46L26.2076 31.4545C26.2474 31.1354 26.4805 30.8766 26.7875 30.7807C29.0047 30.0888 30.8672 28.5931 32.034 26.6347C32.1889 26.3747 32.4696 26.2112 32.7719 26.2256L39.1858 26.531L33.7087 23.1838C33.4502 23.0259 33.3096 22.7325 33.3279 22.4302C33.3393 22.2411 33.3451 22.0504 33.3451 21.8584C33.3451 19.6062 32.5483 17.54 31.2213 15.9264C31.0156 15.6763 30.9637 15.3293 31.1085 15.0397L37.6283 2L28.2579 12.9086ZM29.4513 21.8584C29.4513 24.8691 27.0107 27.3098 24 27.3098C20.9893 27.3098 18.5487 24.8691 18.5487 21.8584C18.5487 18.8477 20.9893 16.4071 24 16.4071C27.0107 16.4071 29.4513 18.8477 29.4513 21.8584Z"/></svg>