<svg xmlns="http://www.w3.org/2000/svg" viewBox="0 0 48 48" class="ability-icon createSvgIcon__Svg-sc-1l8xi8d-0 ldKivg"><title>Sova - Owl Drone</title><path fill-rule="evenodd" clip-rule="evenodd" d="M9 23H13.3885C12.9338 20.996 11.1416 19.5 9 19.5C6.51472 19.5 4.5 21.5147 4.5 24C4.5 26.4853 6.51472 28.5 9 28.5C11.1416 28.5 12.9338 27.004 13.3885 25H9C8.44772 25 8 24.5523 8 24C8 23.4477 8.44772 23 9 23ZM9 17C12.5265 17 15.4439 19.6077 15.9291 23H18V17.3482C18 17.1938 18.1674 17.0977 18.3008 17.1754L24 20.5L29.6992 17.1754C29.8326 17.0977 30 17.1938 30 17.3482V23H32.0709C32.5561 19.6077 35.4735 17 39 17C42.866 17 46 20.134 46 24C46 27.866 42.866 31 39 31C35.4735 31 32.5561 28.3923 32.0709 25H29.9337C29.8934 25.1345 29.8352 25.2638 29.76 25.384L27.9153 28.3355C27.6411 28.7742 27.2833 29.1547 26.8623 29.4555L24.4589 31.1722C24.1844 31.3683 23.8156 31.3683 23.5411 31.1722L21.1377 29.4555C20.7167 29.1547 20.3589 28.7742 20.0847 28.3355L18.24 25.384C18.1648 25.2638 18.1066 25.1345 18.0663 25H15.9291C15.4439 28.3923 12.5265 31 9 31C5.13401 31 2 27.866 2 24C2 20.134 5.13401 17 9 17ZM39 25H34.6115C35.0662 27.004 36.8584 28.5 39 28.5C41.4853 28.5 43.5 26.4853 43.5 24C43.5 21.5147 41.4853 19.5 39 19.5C36.8584 19.5 35.0662 20.996 34.6115 23H39C39.5523 23 40 23.4477 40 24C40 24.5523 39.5523 25 39 25Z"/></svg>