<svg xmlns="http://www.w3.org/2000/svg" viewBox="0 0 48 48" class="ability-icon createSvgIcon__Svg-sc-1l8xi8d-0 ldKivg"><title>Sova - Hunters Fury</title><path fill-rule="evenodd" clip-rule="evenodd" d="M14.1259 16H17.2337L20.3819 9.8247L19.3729 6L14.1259 16ZM21.7311 23.0461C21.7311 23.0461 21.5631 22.258 21.1009 20.0599C20.6387 17.8617 18.832 19.023 18.832 19.023L15.8908 20.3087C11.6891 22.0092 8.74791 25.3686 8.74791 25.3686L4.71429 30.4286L18 24H13L14 23L21.7311 23.0461ZM22.8238 35.3641C18.496 34.7834 14.7145 32.3364 12.4456 28.8525L10.4288 29.5991C12.7397 33.3318 16.4792 36.1106 20.933 37.1475L23 42L22.8238 35.3641ZM25.1765 35.3641C29.5043 34.7834 33.2858 32.3364 35.5547 28.8525L37.5715 29.5991C35.2606 33.3318 31.5211 36.1106 27.0673 37.1475L25 42L25.1765 35.3641ZM26.8993 20.0599C26.4371 22.258 26.2691 23.0461 26.2691 23.0461H34L35 24.0415H30L43.2859 30.3871L39.2523 25.3686C39.2523 25.3686 36.3111 22.0092 32.1094 20.3087L29.1682 19.023C29.1682 19.023 27.3615 17.8617 26.8993 20.0599ZM30.7256 16H33.8738L28.6268 6L27.6178 9.8247L30.7256 16ZM27.8271 16L24.0035 8.4057L20.18 16C20.18 16 23.2472 16.3274 23.2472 19.355C23.2472 22.3827 24.0035 33.2076 24.0035 33.2076C24.0035 33.2076 24.7598 22.3827 24.7598 19.355C24.7598 16.3274 27.8271 16 27.8271 16Z"/></svg>