<svg xmlns="http://www.w3.org/2000/svg" viewBox="0 0 48 48" class="ability-icon createSvgIcon__Svg-sc-1l8xi8d-0 ldKivg"><title>Sova - Recon Bolt</title><path fill-rule="evenodd" clip-rule="evenodd" d="M40.4118 25.6275C40.4118 28.6858 39.5752 31.5488 38.1184 34H39.516C40.8629 31.5093 41.6275 28.6577 41.6275 25.6275C41.6275 15.8921 33.7354 8 24 8C14.2646 8 6.37256 15.8921 6.37256 25.6275C6.37256 28.6577 7.13717 31.5093 8.48398 34H9.88157C8.4248 31.5488 7.58824 28.6858 7.58824 25.6275C7.58824 16.5635 14.936 9.21569 24 9.21569C33.064 9.21569 40.4118 16.5635 40.4118 25.6275ZM37.9804 25.6275C37.9804 28.7677 36.9451 31.6661 35.1971 34H31.9549C34.1688 31.8959 35.549 28.9229 35.549 25.6275C35.549 20.9324 32.7474 16.8918 28.7248 15.086L27.2138 12.0182C33.3859 13.4702 37.9804 19.0123 37.9804 25.6275ZM10.0196 25.6275C10.0196 28.7677 11.055 31.6661 12.8029 34H16.0451C13.8312 31.8959 12.451 28.9229 12.451 25.6275C12.451 20.9207 15.2666 16.8716 19.3053 15.0726L20.8256 12.009C14.6337 13.4466 10.0196 18.9982 10.0196 25.6275ZM24.0213 32.9215C25.043 26.3228 26.0648 22.7041 29.6409 22.4486L24.0213 11.0391L18.3591 22.4486C21.9778 22.7041 22.9995 26.3228 24.0213 32.9215ZM9.29511 36C9.14063 36 9.02312 36.1387 9.04852 36.2911L9.46518 38.7911C9.48527 38.9116 9.58957 39 9.71178 39H38.2882C38.4104 39 38.5147 38.9116 38.5348 38.7911L38.9515 36.2911C38.9769 36.1387 38.8594 36 38.7049 36H9.29511Z"/></svg>