<svg xmlns="http://www.w3.org/2000/svg" viewBox="0 0 48 48" class="ability-icon createSvgIcon__Svg-sc-1l8xi8d-0 ldKivg"><title>Viper - Poison Cloud</title><path fill-rule="evenodd" clip-rule="evenodd" d="M37.9995 24.1152C37.9999 24.077 38 24.0386 38 24C38 17.0096 32.8837 11.215 26.1938 10.1614C25.2303 10.0097 24 9.22043 24 8.24436L24 6.49718C24 6.34682 23.8443 6.24789 23.7103 6.31625C18.3018 9.07707 10.0645 14.6335 10.0004 23.8912C10.0001 23.9272 10 23.9635 10 23.9999C10 30.338 14.206 35.6931 19.9774 37.4226L17.467 29.8258L17.4623 29.8113L18.6755 29.424L18.6754 29.4239C17.4622 29.8109 17.462 29.8102 17.4618 29.8096L17.4612 29.8078L17.46 29.8039L17.4573 29.7953L17.4508 29.7746C17.4461 29.7593 17.4405 29.7408 17.4341 29.7193C17.4213 29.6764 17.4055 29.6215 17.3874 29.5555C17.3515 29.4239 17.3063 29.2465 17.2596 29.0324C17.1675 28.6095 17.0635 28.0155 17.0204 27.3298C16.9412 26.069 17.0319 23.9424 18.4188 22.1476C19.1625 21.1851 19.9785 20.1687 20.6035 19.3987C20.9172 19.0124 21.1851 18.6852 21.3749 18.4543C21.4698 18.3387 21.5454 18.2472 21.5974 18.1841L21.6793 18.0851L22.5866 18.8374L22.5866 18.8374L21.6793 18.0851L24.0072 15.2775L26.3131 18.1033L26.6095 18.4676C26.7956 18.6967 27.059 19.0215 27.3687 19.4052C27.987 20.1711 28.7944 21.1771 29.5416 22.1257C30.9535 23.9185 31.0572 26.0502 30.9819 27.3194C30.9411 28.0078 30.8379 28.6041 30.746 29.0285C30.6994 29.2435 30.6542 29.4216 30.6181 29.5538C30.6001 29.6201 30.5841 29.6754 30.5713 29.7185C30.5649 29.7401 30.5592 29.7588 30.5545 29.7742L30.548 29.7952L30.5452 29.8038L30.544 29.8077L30.5434 29.8096C30.5432 29.8103 30.543 29.811 29.0677 29.3402L29.0676 29.3403L30.5428 29.8113L30.5372 29.829L27.1157 40.1049C32.1676 37.0117 37.9427 31.8585 37.9995 24.1152ZM23.9887 20C23.9887 20 22.2378 22.1116 20.7927 23.9819C19.3475 25.8522 20.3202 28.8989 20.3202 28.8989L23.9887 40L27.685 28.8989C27.685 28.8989 28.6577 25.8522 27.1847 23.9819C25.7118 22.1116 23.9887 20 23.9887 20Z"/></svg>