<svg xmlns="http://www.w3.org/2000/svg" viewBox="0 0 48 48" class="ability-icon createSvgIcon__Svg-sc-1l8xi8d-0 ldKivg"><title>Viper - Toxic Screen</title><path fill-rule="evenodd" clip-rule="evenodd" d="M21.2437 11.3175C21.0995 9.2888 20.6941 7.88379 18.5319 6.00006C23.6909 6.00007 31.5021 7.48129 31.8323 15.1255C31.905 16.8077 31.6511 18.2159 31.2154 19.4542C28.0679 17.8747 23.9982 18.4768 22.2358 19.0138C23.3964 19.6378 24.557 20.2618 25.5018 23.3956C25.5916 23.6849 25.5425 24.0931 25.4141 24.61C25.2064 24.9033 24.9538 25.2072 24.6911 25.5232C24.5151 25.735 24.3345 25.9522 24.16 26.1753L24.0579 26.3057C23.6083 26.881 23.0263 27.6601 22.5835 28.7122C22.1326 29.7837 21.8701 31.026 21.8701 32.5424C21.8701 33.9565 22.1592 35.1851 22.6413 36.2369C19.6032 34.8837 16.6525 32.3272 16.3436 27.9823C16.0467 23.8068 17.6187 20.9061 19.063 18.2408C20.2905 15.9757 21.4259 13.8806 21.2437 11.3175ZM18.708 10.5045C16.934 9.32608 14.4242 9.28263 12.3865 9.63437C13.8259 10.65 13.9298 11.2632 14.1376 12.4897C14.4011 14.0456 13.8231 15.4099 13.2003 16.8798C12.473 18.5962 11.6848 20.4566 12.1045 22.9342C12.3439 24.3474 13.0228 25.3989 13.9022 26.1685C14.0873 22.6366 15.4275 19.9353 16.5998 17.7363L16.8062 17.3494C18.147 14.8394 18.9529 13.3306 18.8222 11.4915C18.7941 11.0967 18.7575 10.7766 18.708 10.5045ZM33.2388 34.1786C34.6138 31.6464 35.817 27.8569 35.9603 26H41V42.0001H35.903L33 38C32.5703 37.2685 32.2361 36.0355 33.2388 34.1786ZM31.5667 42.0001C23.0761 40.7693 16.6806 35.6697 15.2483 32.603C15.1996 32.5003 15.1513 32.399 15.1035 32.2988L15.1033 32.2984L15.1031 32.2981C14.5876 31.2179 14.131 30.2613 14 29C12.7682 28.2966 11.5443 26.8441 11 26H6.85461V42.0001H31.5667ZM30.9743 38.9493C29.7604 37.729 29.7604 37.1188 29.7604 35.8984C29.7604 34.3254 30.5406 33.0974 31.3788 31.7782C32.3514 30.2474 33.402 28.5938 33.402 26.1357C33.402 21.5594 28.243 20.6442 26.4222 20.6442C27.0291 21.2543 27.6361 21.8645 27.6361 24.0001C27.6361 25.6992 26.9171 26.6097 26.1464 27.5856C25.2566 28.7125 24.2979 29.9266 24.2979 32.5425C24.2979 37.4239 28.85 38.9493 30.9743 38.9493Z"/></svg>