<svg xmlns="http://www.w3.org/2000/svg" viewBox="0 0 48 48" class="ability-icon createSvgIcon__Svg-sc-1l8xi8d-0 ldKivg"><title>Viper - Vipers Pit</title><path fill-rule="evenodd" clip-rule="evenodd" d="M33.6656 7C33.6512 7 33.6429 7 33.6356 7.0026C33.6256 7.00611 33.6173 7.01438 33.5979 7.03381L33.5979 7.03381L33.5979 7.03382L33.5978 7.03383L29.1231 9.94328L26.8857 11.398L25.6993 12.1761C25.6823 12.1761 25.6738 12.1846 25.6654 12.193C25.6569 12.2015 25.6484 12.2099 25.6315 12.2099H23.8687H22.1059C22.0915 12.2099 22.0832 12.2099 22.0759 12.2073C22.0659 12.2038 22.0576 12.1956 22.0381 12.1761L20.9194 11.4657L18.716 10.0109L14.1734 7.03383L14.1734 7.03383L14.1734 7.03382L14.1734 7.03381C14.1539 7.01438 14.1457 7.00611 14.1357 7.0026C14.1283 7 14.1201 7 14.1056 7C14.0039 7 13.9361 7.10149 14.0039 7.20298L16.6481 10.9582L17.8346 12.6497L21.4279 17.7582C21.4618 17.792 21.4957 17.8259 21.5296 17.8259H23.9365H26.3434C26.3773 17.8259 26.4112 17.792 26.4451 17.7582L30.0723 12.5483L31.2588 10.8567L33.8351 7.16915C33.8351 7.10149 33.7673 7 33.6656 7ZM37.1573 22.7652L39.2252 22.7991C38.7845 18.3334 36.4115 14.4429 32.9538 11.9394L31.7673 13.6309C34.6826 15.7284 36.7166 19.01 37.1573 22.7652ZM16.072 13.7324L14.9194 12.0747C11.5295 14.5782 9.22429 18.4349 8.7836 22.7991L10.8515 22.7652C11.2922 19.0777 13.2244 15.8637 16.072 13.7324ZM18.716 36.4327C20.3431 37.1432 22.1059 37.5491 24.0043 37.5491C25.8688 37.5491 27.6654 37.1432 29.2926 36.4327L29.9706 38.3611C28.14 39.1392 26.1061 39.579 24.0043 39.579C21.9025 39.579 19.8685 39.1392 18.038 38.3611L18.716 36.4327ZM39.2592 24.8289L44.5475 24.8966C44.717 24.8966 44.7509 25.0995 44.5814 25.1672L38.9541 27.2985L36.6489 28.1781L35.7675 28.5165C35.7336 28.5165 35.6997 28.5165 35.6997 28.5503L34.6827 29.9712L33.6658 31.3921C33.6319 31.4259 33.6319 31.4259 33.6319 31.4597L33.5641 33.4219L33.4624 36.2637L33.2929 40.8647C33.2929 40.9662 33.2251 41 33.1573 41C33.0895 41 33.0556 40.9662 33.0217 40.8985L31.8013 37.414L31.1233 35.4518L28.7503 28.7533C28.7164 28.7194 28.7164 28.6856 28.7503 28.6518L30.1741 26.7573L31.564 24.7951C31.5979 24.7612 31.6318 24.7274 31.6657 24.7274L37.2252 24.7951L39.2592 24.8289ZM19.2245 28.6517L17.8347 26.6895L16.4448 24.7273C16.4109 24.6935 16.377 24.6597 16.3431 24.6597L10.7497 24.795L8.7157 24.8288L3.42738 24.8965C3.29178 24.8965 3.25788 25.0995 3.39348 25.1333L9.0208 27.2985L11.326 28.1781L12.2073 28.5164C12.2243 28.5164 12.2328 28.5249 12.2412 28.5333C12.2497 28.5418 12.2582 28.5502 12.2751 28.5502L13.2921 29.9711L14.3091 31.392C14.3091 31.4089 14.3176 31.4174 14.3261 31.4258C14.3345 31.4343 14.343 31.4428 14.343 31.4597L14.4108 33.4219L14.5125 36.2637L14.682 40.8646C14.682 40.9323 14.7498 41 14.8176 41C14.8515 41 14.9193 40.9661 14.9532 40.8985L16.1736 37.4139L16.8516 35.4517L19.2245 28.787C19.2584 28.7532 19.2584 28.6855 19.2245 28.6517ZM21.9705 20.8369H26.0045L28.0385 24.3214L26.0045 27.806H21.9705L19.9704 24.3214L21.9705 20.8369Z"/></svg>