<svg width="48" height="48" viewBox="0 0 48 48" fill="none" xmlns="http://www.w3.org/2000/svg">
<path d="M10.6345 20.7587C10.9161 20.8907 11.1933 21.0343 11.482 21.1472C11.5744 21.1832 11.7033 21.1569 11.8068 21.1276C12.0666 21.0538 12.119 20.8729 11.9489 20.6645C11.0263 19.5356 10.7295 18.2254 10.8357 16.8009C10.893 16.036 11.0796 15.3 11.347 14.5827C11.5869 13.9396 11.8041 13.8836 12.2727 14.3698C13.5907 15.7374 14.1544 17.3787 14.0287 19.2663C14.0181 19.4285 14.0083 19.5912 14.0043 19.7538C13.9954 20.1352 14.5076 20.4743 14.8638 20.3232C15.0122 20.2605 15.0246 20.1383 15.018 19.992C14.9958 19.4907 14.9602 18.988 14.9776 18.4876C14.9984 17.8956 15.2334 17.364 15.5804 16.8916C15.8158 16.5707 16.0712 16.2605 16.348 15.9747C16.6616 15.6512 16.8912 15.7107 17.0516 16.1369C17.6762 17.7956 17.518 19.3703 16.5319 20.8529C16.4666 20.9512 16.4017 21.0507 16.3457 21.1543C16.2698 21.2952 16.3177 21.4187 16.4759 21.3836C16.9854 21.2707 17.2777 21.5765 17.602 21.8836C18.4002 22.6405 19.2744 23.2952 20.2921 23.7352C20.7355 23.9267 21.1934 24.088 21.683 24.0569C21.8877 24.044 22.1201 23.9898 22.2827 23.8738C23.2319 23.1952 24.2909 22.9232 25.4401 22.9685C27.1384 23.0352 28.6749 23.5445 29.9769 24.6725C31.3255 25.8409 32.1931 27.28 32.4005 29.0716C32.5427 30.2965 32.3179 31.4734 31.8279 32.5996C31.6956 32.904 31.5632 33.2147 31.3815 33.4903C30.9746 34.1067 30.9906 34.7583 31.1598 35.4298C31.2891 35.9432 31.5636 36.3783 31.9376 36.7618C31.6947 37.0089 31.4752 37.2685 31.2202 37.4858C29.6242 38.8476 27.7745 39.512 25.6747 39.476C25.481 39.4729 25.3388 39.4058 25.2895 39.2138C25.2442 39.0378 25.302 38.8894 25.4694 38.8027C27.1095 37.9529 28.1769 36.5694 29.0169 34.9787C29.5664 33.9378 29.9267 32.832 30.1013 31.6654C30.1306 31.4707 30.1022 31.3018 29.9542 31.1832C29.7837 31.0467 29.602 30.9103 29.403 30.8263C29.1458 30.7178 28.9072 30.78 28.6998 30.9947C28.0015 31.7174 27.241 32.3658 26.2895 32.7303C25.9723 32.8516 25.6196 32.9027 25.2789 32.9334C24.9884 32.9592 24.8742 32.8267 24.9226 32.5396C24.975 32.2289 25.0599 31.9187 25.1709 31.6236C25.4654 30.8427 25.7826 30.0698 26.0896 29.2934C26.1158 29.2272 26.134 29.1578 26.178 29.0223C25.9599 29.0827 25.7737 29.0943 25.6338 29.18C25.083 29.5183 24.561 29.3956 24.0369 29.1285C23.8987 29.0583 23.761 28.9863 23.6197 28.9223C23.2093 28.736 22.8726 28.4818 22.7384 28.0223C22.7158 27.9445 22.6474 27.88 22.5754 27.7725C22.5061 27.8863 22.4559 27.9627 22.4119 28.0427C22.0406 28.7236 21.6799 29.4112 21.2943 30.084C21.1521 30.3316 20.9691 30.5623 20.7723 30.7703C20.4534 31.108 20.2037 31.0792 19.9492 30.6929C19.6183 30.1903 19.4588 29.6205 19.3384 29.0392C19.1843 28.2952 19.1407 27.5436 19.2411 26.7889C19.2651 26.6085 19.1767 26.5178 19.039 26.4672C18.6032 26.3063 18.167 26.144 17.7232 26.008C17.1373 25.828 17.1324 25.8374 16.7975 26.3467C16.2658 27.1552 15.9322 28.0592 15.5506 28.9405C15.2747 29.5769 14.9816 30.2072 14.6662 30.8249C14.5338 31.0845 14.3445 31.3232 14.1464 31.5396C13.4641 32.2836 12.4486 32.4369 11.6135 31.8672C11.1933 31.5805 10.8077 31.2098 10.491 30.8103C8.18019 27.8969 8.2406 23.6129 10.6092 20.7436C10.6229 20.7272 10.6416 20.7147 10.6576 20.7C10.6505 20.7205 10.6425 20.7396 10.6345 20.7587ZM14.9411 25.8032C14.9411 25.6552 14.9505 25.5067 14.9398 25.3596C14.8536 24.1734 14.2082 23.4476 13.0457 23.328C11.57 23.176 10.3515 23.8214 10.1867 25.5947C10.0375 27.2027 10.5021 28.6645 11.3785 30.0014C11.518 30.2143 11.7041 30.4058 11.8987 30.572C12.2661 30.8863 12.5792 30.8876 12.9573 30.5903C13.1243 30.4592 13.2842 30.308 13.4121 30.1392C14.3836 28.8583 14.8736 27.4027 14.9411 25.8032Z" fill="black"/>
<path d="M15.8162 13.14C17.6845 11.1916 19.9052 9.85912 22.6309 9.4569C24.7395 9.14578 26.8171 9.35379 28.8801 9.81956C28.9143 9.82712 28.9462 9.84623 28.9929 9.86534C28.9129 10.1702 28.8076 10.4249 28.5096 10.5947C27.0232 11.4396 26.4813 13.0791 27.1143 14.7831C27.2067 15.0316 27.3231 15.2729 27.4497 15.5058C27.5763 15.7391 27.7295 15.9578 27.8863 16.2076C27.8459 16.2529 27.794 16.3111 27.7424 16.3698C27.364 16.8049 26.9726 17.2298 26.6106 17.6782C26.022 18.4071 25.7332 19.2609 25.6293 20.184C25.6177 20.2853 25.6004 20.3858 25.5862 20.4822C25.2681 20.4822 24.9661 20.4716 24.6649 20.484C23.4948 20.532 22.411 20.8987 21.4075 21.4707C20.9797 21.7142 20.6843 21.7098 20.3045 21.4036C19.91 21.0853 19.4556 20.8405 19.0207 20.5738C18.903 20.5018 18.8861 20.4387 18.9248 20.3076C19.2886 19.0751 19.4512 17.8209 19.2895 16.5373C19.2215 15.9969 19.0754 15.4796 18.776 15.0165C18.4068 14.4458 17.8826 14.1147 17.2057 14.0667C16.9125 14.0458 16.6899 13.9418 16.4869 13.7373C16.2808 13.5285 16.0489 13.3449 15.8162 13.14Z" fill="black"/>
<path d="M4.24634 21.4427C4.32763 17.8209 5.19962 14.7529 6.96715 11.9653C7.50376 11.1191 7.85958 10.2249 8.11633 9.26979C8.31179 8.54313 8.53656 7.82313 8.78132 7.11113C8.87549 6.8369 9.03674 6.57602 9.21043 6.34046C9.5929 5.82046 10.0993 5.67024 10.7203 5.85202C11.2414 6.0049 11.6758 6.31068 12.1005 6.63468C12.3532 6.82757 12.6047 7.02179 12.8641 7.20535C13.2879 7.50535 13.7427 7.54002 14.2056 7.31202C14.5299 7.15246 14.8577 6.99113 15.1562 6.78979C17.3111 5.33957 19.7085 4.59868 22.2703 4.34313C25.7481 3.99602 29.1139 4.4449 32.3358 5.82401C33.0056 6.11068 33.6426 6.47824 34.2801 6.83468C34.4867 6.95024 34.6746 7.12757 34.8207 7.31557C35.0619 7.62624 34.9522 7.91868 34.5746 8.03024C34.1575 8.15379 33.7324 8.1129 33.3255 8.00135C32.5925 7.80046 31.8725 7.5529 31.1408 7.34713C28.9304 6.72579 26.6778 6.38668 24.379 6.40668C21.9656 6.42801 19.6299 6.83246 17.4368 7.89335C16.5542 8.32046 15.7439 8.85735 14.9852 9.47868C14.6205 9.77779 14.2283 10.0453 13.8347 10.3058C13.6588 10.4222 13.4531 10.5022 13.2514 10.5689C12.678 10.7587 12.2933 10.6316 11.9299 10.1498C11.8322 10.02 11.7451 9.88135 11.6443 9.75424C11.4333 9.4889 11.2489 9.46757 10.9828 9.68179C10.8798 9.7649 10.7856 9.8609 10.6981 9.9609C8.29357 12.7125 6.82767 15.8951 6.31815 19.5165C6.06362 21.3249 6.1036 23.1289 6.38301 24.932C6.41721 25.1533 6.40655 25.3916 6.36391 25.612C6.30394 25.9205 6.05162 26.0338 5.79753 25.8493C5.5701 25.684 5.35998 25.4698 5.20362 25.2365C4.77229 24.5938 4.54885 23.8618 4.43202 23.1049C4.32985 22.4489 4.28276 21.7845 4.24634 21.4427Z" fill="black"/>
<path d="M31.5193 22.7098C30.5016 21.6653 29.2858 21.0653 27.8479 20.8707C27.8919 18.896 29.0273 17.608 30.4874 16.4867C30.4337 16.4124 30.3795 16.3373 30.3248 16.2622C29.8593 15.6262 29.4515 14.9604 29.2738 14.1796C29.0459 13.1796 29.3551 12.3756 30.1227 11.7027C30.6558 11.2356 31.2173 11.1444 31.8996 11.2893C33.6 11.6511 35.0144 12.496 36.2147 13.7253C37.4811 15.0227 38.4086 16.5413 39.0852 18.2182C39.1074 18.2729 39.1283 18.3284 39.1478 18.384C39.1523 18.3969 39.15 18.4129 39.1531 18.4653C39.0701 18.4813 38.9799 18.5191 38.8942 18.5116C38.5783 18.484 38.2629 18.4471 37.9489 18.4031C36.7077 18.2289 35.9313 18.7204 35.5763 19.9316C35.5164 20.1369 35.4373 20.2031 35.2205 20.2058C34.5968 20.2133 34.0411 20.4551 33.5227 20.7844C32.8036 21.2422 32.2101 21.8369 31.6846 22.5027C31.6335 22.5658 31.5833 22.6289 31.5193 22.7098Z" fill="black"/>
<path d="M24.82 43.7382C22.0997 43.7062 19.5126 43.1186 17.0743 41.9102C16.1921 41.4728 15.5417 40.7893 15.0895 39.9151C14.9607 39.6657 14.831 39.416 14.688 39.1746C14.4636 38.7955 14.1189 38.6128 13.684 38.6497C12.4051 38.7582 11.4079 38.2408 10.6292 37.268C9.96551 36.4382 9.47821 35.5137 9.29164 34.4542C9.2641 34.2982 9.27432 34.128 9.30541 33.9715C9.37204 33.6337 9.63146 33.4831 9.93086 33.6488C10.1756 33.784 10.4048 33.98 10.5812 34.1973C10.8077 34.4764 10.9659 34.8097 11.1684 35.1097C11.4616 35.5444 11.7424 35.9915 12.0746 36.3951C12.5473 36.9693 12.9266 37.0382 13.6014 36.7337C13.931 36.5848 14.2477 36.4084 14.5742 36.2515C14.9172 36.0871 15.2734 35.9693 15.6612 35.9893C16.0934 36.0115 16.4435 36.2146 16.6514 36.576C16.8961 37.0022 17.0978 37.4568 17.2791 37.9151C17.4936 38.4573 17.6589 39.0182 17.8588 39.5666C18.0955 40.216 18.5388 40.6751 19.1594 40.9831C20.1438 41.472 21.1886 41.7533 22.2676 41.9124C25.4748 42.3857 28.5861 41.9355 31.6356 40.9142C31.999 40.7924 32.2468 40.8346 32.3757 41.048C32.5085 41.2684 32.4196 41.5764 32.142 41.8088C32.0354 41.8982 31.9146 41.9742 31.7915 42.0395C30.0875 42.9489 28.2787 43.5048 26.3481 43.6444C25.8382 43.6817 25.3287 43.7075 24.82 43.7382Z" fill="black"/>
<path d="M32.9949 24.1592C34.0326 23.0481 35.1107 22.0209 36.8267 22.2258C36.8911 22.004 36.9422 21.7725 37.027 21.5538C37.1039 21.3561 37.198 21.1587 37.3189 20.9849C37.6645 20.4881 38.2486 20.3463 38.7888 20.6209C38.8812 20.6681 38.9602 20.7596 39.0211 20.8472C39.643 21.7436 39.9606 22.7485 40.0512 23.8281C40.1885 25.4587 39.8762 27.0196 39.2929 28.5343C39.2481 28.6507 39.1672 28.7823 39.0651 28.8432C37.7613 29.6205 36.4087 29.8205 34.9912 29.1574C34.8193 29.0769 34.73 28.9738 34.7109 28.7614C34.5598 27.1072 33.997 25.6009 33.038 24.244C33.0251 24.2263 33.018 24.2049 32.9949 24.1592Z" fill="black"/>
<path d="M44.496 22.2303C44.4906 23.0654 44.4933 23.7374 44.2321 24.3796C44.1943 24.4725 44.2308 24.6169 44.2765 24.7178C44.404 25.0005 44.5555 25.272 44.6954 25.5489C45.2338 26.6138 45.2413 27.676 44.6865 28.7391C44.1828 29.7054 43.4858 30.5307 42.7817 31.3489C42.4646 31.7178 42.1065 32.052 41.7583 32.3929C41.665 32.4845 41.5468 32.556 41.4295 32.616C41.187 32.7405 41.0333 32.6445 41.0937 32.3778C41.171 32.0347 41.2696 31.6867 41.4242 31.3729C42.5512 29.0854 43.0913 26.6747 42.9825 24.1245C42.9034 22.2809 42.5698 20.4827 41.9364 18.7485C41.5668 17.736 41.1461 16.7423 40.7597 15.7356C40.6491 15.4476 40.5504 15.1494 40.4954 14.8471C40.4283 14.4774 40.6997 14.264 41.0369 14.4338C41.2941 14.5636 41.5379 14.7516 41.7356 14.9631C42.5645 15.8498 43.1269 16.9071 43.5906 18.0174C44.1748 19.4151 44.5328 20.8636 44.496 22.2303Z" fill="black"/>
<path d="M34.5985 30.868C35.8591 31.3978 37.1318 31.712 38.5284 31.2743C38.4787 31.4818 38.4542 31.664 38.3916 31.832C37.6773 33.7529 36.469 35.2734 34.7175 36.3525C34.5882 36.432 34.4754 36.4454 34.3613 36.344C34.0374 36.056 33.7029 35.7787 33.4 35.4703C33.2823 35.3507 33.221 35.1658 33.1628 35.0005C33.0748 34.7516 33.1055 34.5352 33.2894 34.3063C34.0592 33.3463 34.4767 32.24 34.5634 31.0107C34.5656 30.9814 34.566 30.9516 34.5705 30.9223C34.5718 30.9094 34.5825 30.8978 34.5985 30.868Z" fill="black"/>
<path d="M13.4783 26.4235C13.4494 27.0768 13.3144 27.6399 13.0269 28.1591C12.9528 28.2928 12.8577 28.4199 12.7506 28.5293C12.5956 28.6875 12.4273 28.6853 12.2602 28.5391C12.1887 28.4764 12.1203 28.4044 12.071 28.3244C11.6539 27.6502 11.4566 26.9226 11.5717 26.1288C11.6388 25.6653 11.8986 25.3799 12.3064 25.2875C12.8724 25.1586 13.3077 25.4342 13.4241 26.0026C13.4565 26.1604 13.4658 26.3235 13.4783 26.4235Z" fill="black"/>
</svg>
