<svg width="48" height="48" viewBox="0 0 48 48" fill="none" xmlns="http://www.w3.org/2000/svg">
<path d="M31.9755 20.2552C32.4269 19.1682 32.8592 18.0953 33.3163 17.033C33.8832 15.7154 34.7519 14.5819 35.5726 13.4216C36.7781 11.7168 38.0327 10.0485 39.4899 8.54786C39.9881 8.03462 40.5383 7.56896 41.091 7.11306C41.3208 6.92354 41.6063 6.78527 41.8877 6.67993C42.2916 6.52905 42.5116 6.70311 42.4762 7.13421C42.4075 7.97809 42.329 8.82116 42.233 9.66219C42.0658 11.1234 41.8121 12.5688 41.4119 13.9873C40.7795 16.227 39.5631 18.0978 37.8684 19.6716C37.5012 20.0129 37.1388 20.3598 36.7577 20.6847C36.2254 21.139 36.0773 21.7649 35.911 22.4607C36.0269 22.3904 36.0924 22.3517 36.1562 22.3111C37.5016 21.4538 38.9315 20.7844 40.4948 20.444C41.0398 20.3252 41.6071 20.3081 42.1647 20.252C42.2558 20.2426 42.3542 20.2622 42.4441 20.2866C42.8703 20.4021 43.0224 20.6408 42.8894 21.0605C42.5921 21.9999 42.0817 22.8166 41.3968 23.5222C40.3468 24.604 39.0433 25.2205 37.5894 25.519C36.8895 25.663 36.1697 25.7081 35.46 25.8053C35.3591 25.8192 35.2473 25.8541 35.1688 25.9152C33.5168 27.1999 31.8657 28.485 30.2214 29.7795C28.3177 31.2786 26.1582 31.9573 23.7465 31.7845C21.8948 31.6519 20.2372 30.987 18.7723 29.843C17.1016 28.5383 15.4281 27.2377 13.7598 25.9298C13.6232 25.8224 13.4861 25.7822 13.3169 25.7732C11.6739 25.6874 10.0972 25.3572 8.67985 24.4694C7.43741 23.6906 6.57441 22.5957 6.04368 21.2358C5.79642 20.6013 6.04978 20.2479 6.72896 20.2487C8.1235 20.2504 9.43304 20.6225 10.6808 21.2093C11.4014 21.5481 12.0879 21.9593 12.7894 22.3387C12.8476 22.3704 12.9029 22.4083 12.9989 22.4676C12.9745 22.3273 12.9631 22.224 12.9375 22.1244C12.7772 21.5034 12.5064 20.9665 11.9923 20.5359C11.0256 19.7261 10.133 18.8363 9.36715 17.8265C8.2699 16.3795 7.62855 14.7316 7.22024 12.9796C6.87374 11.4923 6.67121 9.98307 6.52602 8.4653C6.48331 8.02038 6.43655 7.57546 6.4093 7.12932C6.38327 6.70433 6.59068 6.52458 6.98273 6.67831C7.32394 6.81251 7.65336 7.00244 7.94984 7.22002C8.71808 7.78288 9.37407 8.471 10.0024 9.1827C11.8577 11.2841 13.5317 13.5253 15.0059 15.9077C15.4577 16.6377 15.7432 17.4715 16.0995 18.26C16.3809 18.8827 16.6538 19.509 16.9304 20.1336C16.9434 20.1633 16.9552 20.1934 16.9706 20.2296C16.0653 20.6676 15.864 21.4847 15.8819 22.3623C15.9153 24.011 16.5168 25.4487 17.7047 26.5988C18.9061 27.7615 20.3205 27.9946 21.8684 27.3923C22.0697 27.3138 22.1734 27.352 22.3174 27.4878C22.9778 28.1105 23.6505 28.7201 24.3191 29.3334C24.363 29.3736 24.4114 29.4094 24.4765 29.4623C25.1484 28.8425 25.8292 28.2422 26.4742 27.6049C26.7137 27.3683 26.8906 27.3276 27.2131 27.4476C28.7655 28.0251 30.1584 27.7111 31.3065 26.528C32.529 25.2681 33.1179 23.7394 33.019 21.9694C32.9975 21.5798 32.8869 21.2097 32.6831 20.8722C32.5066 20.5802 32.2573 20.3691 31.9755 20.2552Z" fill="black"/>
<path d="M34.4909 8.69925C34.2912 9.4077 34.0801 10.1133 33.8947 10.8254C33.7263 11.4725 33.5868 12.1268 33.4323 12.7771C33.4124 12.8613 33.3945 12.9512 33.3513 13.024C31.3155 16.4605 28.8306 19.5062 25.6137 21.9118C25.2887 22.1546 24.9422 22.3689 24.6132 22.606C24.4888 22.6955 24.3977 22.6869 24.2712 22.6052C22.6237 21.5397 21.1649 20.2525 19.8309 18.8193C18.2522 17.123 16.8759 15.2742 15.679 13.2896C15.5204 13.0264 15.4712 12.7454 15.4041 12.4542C15.2268 11.6839 15.0076 10.9234 14.8022 10.1601C14.6709 9.67124 14.5342 9.18402 14.4333 8.67444C14.5204 8.7452 14.6074 8.81556 14.694 8.88673C17.8833 11.5111 21.0738 14.1338 24.259 16.7631C24.4038 16.8827 24.4835 16.881 24.627 16.7623C27.844 14.1078 31.0658 11.459 34.2867 8.80905C34.3416 8.76391 34.3974 8.71999 34.4527 8.67525C34.4657 8.68379 34.4783 8.69152 34.4909 8.69925Z" fill="black"/>
<path d="M30.1865 40.689C29.1389 38.5681 28.0908 36.4473 27.0286 34.2967C27.3889 34.2873 27.6923 34.3561 27.9867 34.509C28.6277 34.8416 29.2645 35.1881 29.9279 35.4704C30.2475 35.6066 30.6217 35.6489 30.9743 35.6652C31.444 35.6867 31.7885 35.4322 31.9215 34.9848C32.0199 34.6529 32.0431 34.2963 32.0797 33.9486C32.1012 33.7415 32.0837 33.5305 32.0837 33.3161C32.4562 33.3881 32.8113 33.4678 33.1704 33.5223C33.3831 33.5545 33.6023 33.5626 33.8174 33.5532C34.3742 33.5293 34.7126 33.2608 34.7589 32.7102C34.8118 32.0782 34.7858 31.4397 34.7915 30.804C34.7947 30.447 34.7919 30.0903 34.7919 29.6836C36.8314 31.8281 38.847 33.9477 40.8625 36.0674C40.8585 36.0837 40.854 36.1003 40.8499 36.1166C40.6771 36.0914 40.5006 36.0816 40.3326 36.0377C39.2594 35.7595 38.1914 35.461 37.1153 35.1959C36.6049 35.0702 36.0835 34.9693 35.5609 34.9173C34.7707 34.8384 34.3465 35.1239 34.0594 35.8681C33.9525 36.1451 33.8736 36.433 33.7878 36.7177C33.7548 36.8263 33.7007 36.856 33.5828 36.8519C33.1375 36.8356 32.6901 36.8108 32.2468 36.8385C31.675 36.8743 31.2634 37.1821 31.0097 37.6986C30.7136 38.3009 30.5928 38.9545 30.4537 39.6028C30.376 39.9639 30.304 40.3263 30.2292 40.6882C30.2146 40.689 30.2007 40.689 30.1865 40.689Z" fill="black"/>
<path d="M29.883 9.8916C29.2893 10.3089 28.7085 10.7172 28.1278 11.1247C26.9585 11.945 25.7877 12.7632 24.6217 13.5884C24.4948 13.6783 24.4126 13.695 24.2731 13.5966C22.5821 12.4001 20.8846 11.2125 19.1891 10.0226C19.1338 9.98392 19.0797 9.94325 19.0024 9.88754C19.0651 9.84524 19.1159 9.80742 19.17 9.77529C20.7829 8.8033 22.4902 8.0432 24.2923 7.49783C24.3769 7.47221 24.4818 7.46488 24.5651 7.4901C26.4018 8.04035 28.1387 8.8155 29.7769 9.8123C29.8102 9.83182 29.8395 9.85826 29.883 9.8916Z" fill="black"/>
<path d="M14.1421 36.1458C14.6285 35.6668 15.1043 35.1974 15.5871 34.722C15.8896 34.9994 16.2593 35.2072 16.7046 35.2715C17.1833 35.3406 17.6343 35.2393 18.074 35.0693C18.9004 34.7497 19.5913 34.2165 20.275 33.6695C20.4893 33.4979 20.728 33.3559 21.0025 33.1685C21.0115 33.3063 21.018 33.3828 21.0208 33.4596C21.0538 34.3194 21.0766 35.1812 21.2734 36.0238C21.3234 36.2386 21.4044 36.4529 21.5085 36.6473C21.6805 36.969 21.9627 37.1024 22.2934 36.958C22.6602 36.7978 22.9974 36.5651 23.3369 36.3476C23.683 36.1263 24.0153 35.8835 24.3561 35.6537C24.409 35.618 24.4761 35.6029 24.581 35.5602C24.529 35.7542 24.4875 35.9079 24.446 36.0621C24.2532 36.7811 24.0641 37.5013 23.864 38.2183C23.8421 38.2964 23.7745 38.3912 23.7038 38.4221C22.8949 38.7731 22.2621 39.3221 21.809 40.0789C21.7952 40.1021 21.7793 40.1241 21.7635 40.1456C21.7598 40.1505 21.7517 40.1513 21.7342 40.1591C21.652 39.9252 21.5902 39.6824 21.4841 39.4612C21.2917 39.0606 21.1095 38.6462 20.8553 38.2854C20.4775 37.7486 19.9224 37.555 19.2973 37.771C18.8548 37.9239 18.403 38.1126 18.0276 38.3851C17.2455 38.9528 16.5111 39.5852 15.7587 40.1936C15.561 40.3534 15.3703 40.5222 15.1291 40.7268C15.1438 40.499 15.1356 40.3238 15.1686 40.1562C15.3272 39.3493 15.4463 38.5376 15.3809 37.714C15.3573 37.4143 15.2877 37.1113 15.1914 36.8258C15.0702 36.4679 14.8115 36.241 14.4154 36.202C14.3247 36.1934 14.2352 36.1654 14.1421 36.1458Z" fill="black"/>
<path d="M14.7795 29.8718C14.6665 30.1361 14.5526 30.4005 14.4403 30.6652C14.1788 31.2818 13.9141 31.8971 13.6595 32.5165C13.6034 32.6527 13.5725 32.8016 13.5473 32.9476C13.4647 33.4303 13.6823 33.8293 14.13 34.0338C14.1528 34.0444 14.1752 34.0562 14.2032 34.0704C14.187 34.0961 14.1801 34.1156 14.1666 34.127C13.4297 34.7443 12.692 35.3613 11.9603 35.9733C11.9364 35.9705 11.9201 35.9738 11.9107 35.9672C11.1685 35.4349 10.3523 35.5341 9.5259 35.674C9.0395 35.7562 8.54862 35.8103 8.05938 35.8745C8.00325 35.8818 7.9451 35.8753 7.84058 35.8753C10.1648 33.8439 12.4512 31.8454 14.738 29.8466C14.7519 29.8551 14.7657 29.8632 14.7795 29.8718Z" fill="black"/>
<path d="M20.3693 25.8355C19.1716 25.7908 18.211 25.0291 17.8799 23.783C17.7844 23.4226 17.7522 23.0359 17.7535 22.6613C17.7555 21.974 18.2704 21.7861 18.7454 21.8719C18.9991 21.9179 19.2602 22.0073 19.4803 22.1399C20.3132 22.6414 20.9647 23.3295 21.4442 24.1754C21.5955 24.4422 21.7004 24.7281 21.6833 25.0441C21.6682 25.3251 21.5625 25.548 21.2705 25.6249C20.9724 25.7038 20.6698 25.766 20.3693 25.8355Z" fill="black"/>
<path d="M28.504 25.8372C28.1973 25.7632 27.8891 25.6956 27.5849 25.6131C27.336 25.5456 27.2087 25.3475 27.2164 25.112C27.2245 24.8611 27.2514 24.5878 27.3583 24.367C27.8504 23.3511 28.6105 22.578 29.5996 22.0379C29.8879 21.8805 30.2031 21.7971 30.5386 21.8772C30.8481 21.9512 31.0446 22.1237 31.1145 22.4535C31.4651 24.1075 30.1519 25.8006 28.504 25.8372Z" fill="black"/>
</svg>
