<svg width="48" height="48" viewBox="0 0 48 48" fill="none" xmlns="http://www.w3.org/2000/svg">
<path d="M40.5847 36.552C40.6638 35.7053 40.7398 34.896 40.8153 34.0871C40.9103 33.0635 40.9996 32.0395 41.1045 31.0169C41.1213 30.8529 41.0871 30.7418 40.9801 30.6204C39.5168 28.9618 38.0589 27.2991 36.5992 25.6373C36.5459 25.5769 36.494 25.5151 36.4327 25.444C37.8079 23.3547 38.7661 21.0951 39.3187 18.6204C39.3885 18.6995 39.4404 18.7538 39.4875 18.812C40.3178 19.8449 40.8739 21.0267 41.3266 22.26C42.0355 24.1911 42.4602 26.1907 42.7192 28.228C42.9182 29.7933 43.0168 31.3653 42.9715 32.9427C42.9208 34.692 42.7498 36.4258 42.1932 38.0995C42.0542 38.5182 42.0529 38.5155 41.6135 38.5493C40.4199 38.6409 39.253 38.4493 38.098 38.1898C35.1111 37.5187 32.2308 36.5307 29.4678 35.2084C28.9783 34.9742 28.9823 34.9667 29.1164 34.4471C29.1884 34.168 29.2497 33.8858 29.3346 33.6107C29.3772 33.4711 29.335 33.4084 29.2271 33.3213C28.6176 32.8307 28.0175 32.3275 27.4151 31.8275C27.3769 31.7955 27.3471 31.7538 27.2903 31.6907C29.0436 31.3427 30.6596 30.7147 32.1606 29.7698C31.6351 29.176 31.119 28.608 30.6197 28.0253C29.8592 27.1378 29.1116 26.2378 28.5234 25.2222C28.3551 24.9315 28.2174 24.6133 28.1232 24.2911C28.0077 23.896 28.2129 23.6609 28.6234 23.7111C28.9503 23.7511 29.2768 23.8342 29.5891 23.94C29.9844 24.0738 30.3651 24.2502 30.7862 24.4222C30.7298 24.2729 30.6845 24.1511 30.6379 24.0298C29.9853 22.3373 29.4283 20.6173 29.1276 18.8231C29.0201 18.18 28.9432 17.5338 29.0516 16.8818C29.0614 16.8235 29.076 16.7658 29.0942 16.7098C29.2257 16.3044 29.4936 16.1778 29.8627 16.3978C30.1319 16.5587 30.3851 16.7627 30.6046 16.9875C31.3886 17.7911 32.0212 18.7151 32.5995 19.6707C33.3765 20.9538 34.1116 22.2622 34.8708 23.5569C34.9423 23.6791 34.9285 23.7649 34.8557 23.8751C34.4945 24.4244 34.1401 24.9782 33.7718 25.5475C34.1476 25.9733 34.5336 26.4107 34.9201 26.848C35.2875 27.2635 35.6602 27.6751 36.0191 28.0978C36.0808 28.1702 36.1213 28.2942 36.1119 28.3884C35.9778 29.7573 35.8312 31.1249 35.6966 32.4938C35.6882 32.5773 35.7299 32.7013 35.7925 32.7515C37.3446 33.996 38.9025 35.2329 40.4595 36.4707C40.4861 36.492 40.5176 36.5089 40.5847 36.552Z" fill="black"/>
<path d="M28.1806 5.02625C28.36 5.16891 28.5075 5.27736 28.6457 5.39691C30.0032 6.57069 31.1266 7.95291 32.1661 9.40491C34.0175 11.9911 35.5403 14.7529 36.5749 17.7711C36.6633 18.0298 36.7237 18.2987 36.8245 18.552C36.9791 18.9405 36.968 19.3209 36.8685 19.7209C36.7184 20.324 36.5305 20.9098 36.2377 21.5045C36.1547 21.3627 36.0898 21.2507 36.0245 21.1391C35.0783 19.5245 34.1099 17.924 32.9288 16.4649C32.4344 15.8542 31.9022 15.2791 31.2563 14.8214C30.8032 14.5005 30.315 14.2485 29.7518 14.224C28.7119 14.1787 27.8856 14.5782 27.3717 15.504C26.7355 16.6494 26.7062 17.8574 27.0723 19.0925C27.0967 19.1751 27.1229 19.2574 27.1527 19.3542C27.1105 19.3542 27.0883 19.3609 27.0723 19.3534C25.8587 18.7858 24.5709 18.6156 23.2485 18.656C20.9972 18.7245 18.8703 19.3138 16.8513 20.2805C15.9949 20.6907 15.1895 21.2089 14.3691 21.6916C14.2318 21.7725 14.1314 21.8027 13.9915 21.7218C13.8644 21.6485 13.7245 21.5969 13.5784 21.5302C13.5921 21.5018 13.5992 21.4747 13.6157 21.4556C15.2633 19.5045 17.1063 17.7774 19.3207 16.4769C20.6902 15.6729 22.1459 15.0978 23.722 14.8516C23.7642 14.8449 23.8051 14.8311 23.8637 14.8165C23.5412 13.6418 23.0699 12.5405 22.4738 11.4542C24.1795 11.3231 25.8493 11.3667 27.5374 11.5618C27.8687 9.39913 27.9962 7.23691 28.1806 5.02625Z" fill="black"/>
<path d="M23.2048 26.5293C22.3182 25.2555 21.1152 24.4395 19.6356 24.0186C18.1674 23.6013 16.6962 23.6911 15.2023 24.0289C15.2023 23.8315 15.1868 23.6466 15.2103 23.4666C15.2192 23.3995 15.3085 23.3293 15.3773 23.2862C16.734 22.4346 18.2012 21.8386 19.7426 21.4213C21.1637 21.0364 22.6082 20.828 24.0835 20.8955C25.1545 20.9444 26.1957 21.1426 27.1792 21.5897C27.2445 21.6195 27.3085 21.6533 27.3933 21.6955C27.3094 21.7346 27.2503 21.7622 27.1912 21.7897C26.1788 22.2586 25.7102 23.1395 25.8737 24.2475C26.0309 25.3115 26.5053 26.2453 27.0775 27.1311C27.4582 27.7204 27.8877 28.2782 28.2964 28.8489C28.3555 28.9315 28.4208 29.0093 28.4999 29.1106C27.1543 29.6413 25.7906 30.0035 24.3727 30.2475C24.7542 31.7817 25.5569 33.0129 26.7981 34.0097C26.2481 34.3013 25.7346 34.5911 25.206 34.8511C23.2088 35.8337 21.1068 36.4844 18.9062 36.8186C18.4824 36.8831 18.0613 36.9626 17.6366 37.0204C17.0578 37.0995 16.9298 36.9462 17.1404 36.4035C17.8578 34.5582 18.7636 32.8071 19.8039 31.1249C20.771 29.5617 21.8593 28.0875 23.0649 26.7C23.1093 26.6502 23.1493 26.5973 23.2048 26.5293Z" fill="black"/>
<path d="M11.1382 32.3618C11.032 32.0431 10.9392 31.7631 10.8455 31.4836C10.5594 30.6289 10.2755 29.7729 9.98368 28.92C9.93837 28.788 9.95126 28.6907 10.0299 28.5742C10.4563 27.944 10.8734 27.3071 11.3181 26.6365C10.4368 26.4876 9.58433 26.3436 8.71856 26.1969C8.97754 25.4831 9.22807 24.7916 9.48927 24.0716C9.07216 24.0111 8.68702 23.9538 8.301 23.8996C7.83991 23.8342 7.37703 23.7809 6.91905 23.7005C6.80444 23.6805 6.67562 23.5987 6.60321 23.5067C6.38866 23.2338 6.20431 22.9378 5.99864 22.6578C5.43226 21.8858 5.17817 20.9951 5.00937 20.0716C5.00449 20.044 5.00893 20.0151 5.00893 19.9631C7.32417 20.1489 9.60966 20.4671 11.9258 20.8556C11.5127 21.4102 11.1178 21.9409 10.7086 22.4902C10.7802 22.524 10.8348 22.5547 10.8925 22.5765C11.6997 22.8854 12.5055 23.1969 13.3157 23.4978C13.4512 23.548 13.4916 23.6129 13.4836 23.7547C13.4441 24.4787 13.4157 25.2031 13.3841 25.9271C13.381 26 13.3837 26.0729 13.3837 26.1378C14.1313 26.0169 14.8692 25.8974 15.607 25.7778C15.6172 25.7996 15.627 25.8218 15.6372 25.8436C13.8368 27.7938 12.4673 30.0414 11.1382 32.3618Z" fill="black"/>
<path d="M16.2388 7.86175C17.9388 7.86753 19.2101 7.9742 20.4393 8.37109C20.716 8.46042 20.9892 8.59509 21.2264 8.7622C21.5485 8.98886 21.5129 9.28442 21.1678 9.48086C20.7964 9.69198 20.3833 9.71598 19.9671 9.73464C19.1488 9.77109 18.3293 9.8022 17.5137 9.87686C17.0677 9.91775 16.6288 10.0413 16.1881 10.1329C16.0953 10.1524 16.0038 10.1884 15.9181 10.2298C15.5245 10.42 15.4285 10.7093 15.6267 11.1026C16.0478 11.9373 16.384 12.8066 16.5959 13.7151C16.7123 14.2142 16.7701 14.7338 16.7909 15.2466C16.8087 15.6769 16.5448 15.9133 16.1797 15.8462C16.0269 15.8182 15.8612 15.7155 15.7577 15.5973C15.6142 15.4338 15.4996 15.2342 15.4139 15.0324C14.7649 13.504 13.8307 12.1644 12.7339 10.9289C12.5189 10.6866 12.3208 10.424 12.1511 10.1484C11.8082 9.59198 11.9392 9.0302 12.4807 8.65909C12.9352 8.34753 13.4589 8.21286 13.988 8.10309C14.8675 7.92086 15.7581 7.85642 16.2388 7.86175Z" fill="black"/>
<path d="M13.6559 42.7075C13.3952 42.6746 13.0905 42.6595 12.7968 42.5942C11.8351 42.3795 11.4238 41.736 11.6374 40.7733C11.7041 40.4729 11.7889 40.1622 11.9382 39.8969C12.3175 39.2217 12.7293 38.5649 13.1469 37.9124C13.2513 37.7497 13.4116 37.6106 13.5733 37.4995C13.8701 37.2951 14.2312 37.4537 14.2623 37.8133C14.2836 38.0577 14.2481 38.3146 14.1957 38.5564C14.1175 38.9169 14.0011 39.2684 13.9038 39.6244C13.8843 39.6951 13.8736 39.7693 13.8669 39.8426C13.8234 40.3231 14.0055 40.5475 14.4817 40.5013C15.1418 40.4369 15.8099 40.372 16.4518 40.2142C17.9995 39.8333 19.5333 39.3942 21.0748 38.9889C21.3804 38.9084 21.6953 38.8533 22.0094 38.8209C22.2995 38.7911 22.4718 38.9946 22.3999 39.2791C22.3621 39.4284 22.2795 39.5955 22.164 39.6906C21.8806 39.924 21.5838 40.1506 21.2622 40.3253C20.1157 40.948 18.883 41.3649 17.6561 41.7929C16.6726 42.136 15.6847 42.4671 14.647 42.6093C14.3329 42.6511 14.0158 42.672 13.6559 42.7075Z" fill="black"/>
<path d="M44.4835 13.8293C44.4476 15.3729 44.102 16.7862 43.5054 18.1396C43.3872 18.4076 43.2184 18.6551 43.0554 18.9C42.9883 19.0009 42.8839 19.0862 42.78 19.152C42.4508 19.3596 42.0879 19.1929 42.0768 18.8067C42.0679 18.5 42.1257 18.1902 42.1705 17.884C42.266 17.2342 42.3802 16.5871 42.4695 15.9365C42.4961 15.7413 42.4801 15.5373 42.4606 15.3396C42.3971 14.7031 42.023 14.4165 41.3896 14.496C40.6531 14.5885 39.9152 14.6138 39.181 14.4818C38.9655 14.4431 38.7514 14.3725 38.5488 14.2876C38.3583 14.2076 38.2072 14.0649 38.2144 13.8342C38.2215 13.604 38.3974 13.4947 38.5835 13.4409C38.9513 13.3342 39.324 13.2302 39.7016 13.172C40.6558 13.0249 41.5135 12.6533 42.3109 12.1222C42.5445 11.9667 42.7786 11.8089 43.0265 11.6791C43.5418 11.4098 43.9198 11.5405 44.1708 12.0676C44.4458 12.644 44.4644 13.2671 44.4835 13.8293Z" fill="black"/>
<path d="M10.7823 6.51819C10.9609 6.55641 11.2532 6.57997 11.5139 6.68352C11.9151 6.84308 11.9666 7.23374 11.6312 7.5053C11.4633 7.6413 11.2545 7.73463 11.0524 7.81863C10.6779 7.97419 10.2857 8.08797 9.91786 8.25641C9.38836 8.49908 9.29596 8.77463 9.57004 9.28352C9.76194 9.64041 10.0023 9.97063 10.2093 10.32C10.2981 10.4702 10.3852 10.632 10.4243 10.8C10.5353 11.2809 10.1697 11.604 9.70508 11.4404C9.5616 11.3897 9.4119 11.3169 9.30307 11.2142C8.67051 10.6155 8.04639 10.0075 7.42716 9.39552C7.31299 9.28263 7.22459 9.1413 7.13842 9.00397C6.77372 8.42308 6.87056 7.82885 7.39917 7.38663C7.75321 7.09063 8.17388 6.93063 8.61276 6.81863C8.89839 6.74574 9.18891 6.6853 9.48076 6.64619C9.87566 6.5933 10.2741 6.56663 10.7823 6.51819Z" fill="black"/>
<path d="M39.2522 33.4404C37.7778 32.7982 37.0435 30.9408 37.593 29.2013C37.6681 29.288 37.7347 29.3626 37.7996 29.4391C38.3215 30.0533 38.8457 30.6653 39.3623 31.2844C39.4223 31.3564 39.4778 31.4675 39.4707 31.5546C39.4183 32.1657 39.3494 32.7755 39.2837 33.3853C39.2815 33.4048 39.2628 33.4222 39.2522 33.4404Z" fill="black"/>
</svg>
