<svg width="48" height="48" viewBox="0 0 48 48" fill="none" xmlns="http://www.w3.org/2000/svg">
<path d="M13.1506 17.5942C12.212 17.1635 11.9068 16.3493 11.8028 15.432C11.6647 14.2093 11.8917 13.0497 12.578 12.0186C12.7974 11.6884 13.1017 11.3862 13.4295 11.1631C14.1745 10.6555 15.0358 10.8111 15.5702 11.5377C16.2019 12.3977 16.3343 13.3617 16.0469 14.3857C16.0269 14.4564 16.0029 14.5257 15.974 14.6177C16.0229 14.6115 16.058 14.6142 16.0868 14.6017C16.6896 14.3493 17.2729 14.4182 17.8415 14.7097C18.466 15.0297 19.0737 15.3884 19.7165 15.6662C21.2868 16.3449 22.9433 16.5533 24.6433 16.4853C26.5476 16.4093 28.3374 15.9435 29.9734 14.9417C30.0049 14.9226 30.0374 14.9044 30.0689 14.8853C30.7512 14.4662 31.4584 14.256 32.266 14.6671C32.2091 14.4729 32.1509 14.3231 32.1225 14.1675C31.9688 13.3293 32.0825 12.5266 32.509 11.7866C33.0811 10.7933 34.1273 10.5893 35.0072 11.3249C35.3293 11.5942 35.6176 11.9391 35.8237 12.3049C36.4612 13.4351 36.6602 14.6537 36.3657 15.928C36.1964 16.6609 35.857 17.288 35.0979 17.5991C35.1294 17.6577 35.1529 17.7097 35.1832 17.7573C36.0445 19.1155 36.5149 20.612 36.6695 22.2C36.7552 23.0813 36.7668 23.9724 36.7623 24.8591C36.7606 25.2369 36.6411 25.616 36.5562 25.9902C36.5296 26.1066 36.4545 26.2204 36.3776 26.316C35.7575 27.0884 34.9499 27.412 33.9678 27.3026C32.8306 27.176 31.7636 26.8333 30.7406 26.3177C28.2774 25.0764 25.6632 24.568 22.9144 24.7929C20.9834 24.9511 19.1532 25.4795 17.4275 26.3666C16.3685 26.9111 15.2455 27.2391 14.0563 27.3164C13.2967 27.3662 12.6602 27.0782 12.1058 26.5662C11.6465 26.1417 11.5367 25.5791 11.5083 25.0115C11.3782 22.4204 11.7473 19.9324 13.1177 17.6675C13.1288 17.6493 13.1359 17.628 13.1506 17.5942ZM35.0899 22.5515C35.0836 22.4609 35.0805 22.3346 35.0663 22.2097C34.8846 20.6115 34.1428 19.292 33.0256 18.1706C32.2758 17.4177 31.402 16.8657 30.3377 16.6666C28.9793 16.4124 27.8923 17.1417 27.608 18.4933C27.5089 18.964 27.5125 19.4355 27.5955 19.9053C27.8763 21.4929 28.6847 22.7813 29.8664 23.8475C30.5291 24.4453 31.2807 24.8986 32.1665 25.0791C33.1291 25.2751 33.9802 25.0902 34.6012 24.2626C34.9726 23.7684 35.077 23.1893 35.0899 22.5515ZM13.1652 22.6004C13.1817 22.7635 13.1937 22.9857 13.2279 23.204C13.3949 24.2671 14.0963 24.9875 15.1176 25.1284C15.7044 25.2093 16.2672 25.0826 16.8051 24.8515C18.1422 24.2764 19.1053 23.2911 19.8302 22.0529C20.3975 21.084 20.7529 20.0546 20.6947 18.9115C20.64 17.8333 20.0386 16.9915 19.1208 16.7169C18.5771 16.5542 18.036 16.5977 17.5034 16.7609C16.2903 17.1324 15.3583 17.9004 14.5898 18.8813C13.7489 19.9555 13.2172 21.1555 13.1652 22.6004Z" fill="black"/>
<path d="M23.4514 40.2902C20.687 40.2831 17.8303 39.792 15.1206 38.5609C13.6951 37.9133 12.4238 37.0235 11.1791 36.0911C9.85578 35.1 8.49293 34.1786 6.9866 33.4786C6.21988 33.1222 5.50115 32.6706 4.89479 32.0733C4.65048 31.8329 4.42615 31.5542 4.2609 31.2551C4.00414 30.7911 4.18583 30.4049 4.69934 30.2649C5.47538 30.0529 6.22788 30.1564 6.94173 30.512C7.24513 30.6631 7.52854 30.8546 7.81728 31.0337C7.96165 31.1235 8.08914 31.2431 8.23973 31.3186C8.37033 31.384 8.52225 31.4066 8.66484 31.448C8.70215 31.2897 8.78744 31.1257 8.76923 30.9746C8.65329 30.02 8.25616 29.1653 7.71511 28.3893C7.32331 27.8275 6.88887 27.284 6.40601 26.7995C4.57896 24.9671 3.37736 22.7982 2.83009 20.2737C2.74746 19.8929 2.7559 19.476 2.80743 19.0866C2.8754 18.5733 3.29696 18.296 3.81846 18.3329C4.40216 18.3742 4.9139 18.5929 5.33146 18.9982C7.06078 20.6769 8.26371 22.6773 8.8443 25.0169C9.18768 26.4 9.5697 27.7626 10.1663 29.0582C10.4817 29.7431 10.8446 30.4066 11.1427 31.0986C11.379 31.6475 11.5478 32.2249 11.749 32.7889C11.8685 33.1231 11.9898 33.456 12.115 33.788C12.3931 34.5244 12.9 35.0622 13.5601 35.4755C15.0948 36.4364 16.7682 37.0075 18.5517 37.2782C20.823 37.6231 22.9259 37.0422 24.9586 36.1022C25.4743 35.864 25.9563 35.5533 26.4645 35.2982C27.157 34.9506 27.8478 34.5942 28.5625 34.2986C29.1675 34.0484 29.7317 34.2782 29.9756 34.8035C30.0497 34.9626 30.1093 35.1355 30.1373 35.3084C30.1937 35.656 30.1652 36 30.0409 36.336C30.0071 36.4275 29.9844 36.5795 30.0333 36.6302C30.0902 36.6889 30.2439 36.7053 30.3332 36.6742C31.0785 36.4142 31.8519 36.2066 32.5547 35.8573C35.4816 34.4017 37.3935 32.0951 38.1926 28.904C38.4494 27.8786 38.6551 26.84 38.9132 25.8151C39.1632 24.8217 39.5266 23.8675 40.0335 22.9742C40.2978 22.5089 40.5905 22.0604 41.0512 21.7604C41.6069 21.3986 42.2723 21.6182 42.4966 22.2444C42.5704 22.4506 42.6152 22.6737 42.6326 22.8924C42.7116 23.8849 42.4877 24.832 42.0609 25.7111C41.622 26.6142 41.1058 27.4804 40.6065 28.3533C40.0188 29.3804 39.3858 30.384 39.0104 31.5177C38.9336 31.7493 38.8554 31.9809 38.7919 32.2164C38.7728 32.2862 38.8012 32.3689 38.8079 32.4457C38.8843 32.4373 38.9713 32.4497 39.0353 32.4173C39.253 32.3071 39.4573 32.1711 39.6759 32.0635C39.9602 31.924 40.2431 31.7671 40.5443 31.6804C41.2453 31.4786 41.7885 32.0173 41.578 32.7177C41.4918 33.0049 41.3168 33.2826 41.1236 33.5164C40.7446 33.9746 40.2378 34.276 39.6985 34.5137C37.7928 35.3542 35.9702 36.3444 34.2174 37.4702C32.1651 38.7884 29.9072 39.5742 27.5111 39.9804C26.2313 40.1973 24.9408 40.2893 23.4514 40.2902Z" fill="black"/>
<path d="M35.5269 29.2587C34.4586 31.0169 33.0567 32.3302 31.2803 33.264C31.2367 33.2182 31.1954 33.1778 31.1572 33.1342C30.3607 32.2196 29.1542 31.8663 28.0166 32.2898C27.2015 32.5934 26.4032 32.9529 25.6254 33.344C24.5184 33.9005 23.3821 34.3698 22.1961 34.7271C21.8309 34.8374 21.4884 34.812 21.1291 34.7396C18.8285 34.2751 16.7203 33.3969 14.9207 31.856C14.1216 31.172 13.4459 30.3814 12.9085 29.4751C12.8747 29.4178 12.8418 29.36 12.8103 29.3014C12.8036 29.2894 12.8045 29.2734 12.8072 29.2885C13.2389 29.3182 13.6787 29.3889 14.1149 29.3707C15.4849 29.3125 16.7878 28.9614 18.0138 28.3494C20.067 27.3245 22.2378 26.8303 24.5286 26.8903C26.5383 26.9427 28.4506 27.4125 30.2497 28.3196C31.4868 28.9431 32.7932 29.3262 34.1765 29.4076C34.5399 29.4289 34.9095 29.3458 35.276 29.308C35.3395 29.3018 35.4021 29.284 35.5269 29.2587Z" fill="black"/>
<path d="M19.0693 13.0969C22.4383 11.7636 25.7987 11.7636 29.1721 13.0987C25.8032 14.8298 22.4449 14.8258 19.0693 13.0969Z" fill="black"/>
<path d="M42.2749 18.4512C42.3429 17.9774 42.3784 17.5334 42.4752 17.104C42.601 16.548 43.0896 16.1392 43.6275 16.076C44.2317 16.0054 44.7798 16.2685 45.057 16.7623C45.3324 17.2529 45.2813 17.8512 44.902 18.3169C44.3974 18.9369 43.7835 19.4316 43.094 19.8325C43.0243 19.8729 42.9492 19.9063 42.8733 19.9347C42.6454 20.0192 42.5441 19.992 42.493 19.7552C42.398 19.3178 42.3429 18.8716 42.2749 18.4512Z" fill="black"/>
<path d="M33.0846 21.0071C33.0424 21.8719 32.4494 22.3066 31.6343 22.0497C30.6481 21.7391 29.8472 20.5444 29.9374 19.5177C29.9956 18.8546 30.5113 18.4564 31.1572 18.6048C32.0096 18.8008 32.5209 19.3955 32.8527 20.1599C32.9682 20.4253 33.0095 20.7235 33.0846 21.0071Z" fill="black"/>
<path d="M18.3342 19.6991C18.3342 20.6422 17.5661 21.7377 16.6781 22.06C15.9074 22.34 15.2602 21.9057 15.2407 21.0786C15.2247 20.3986 15.4992 19.8151 15.9572 19.3368C16.2024 19.0808 16.5018 18.8462 16.8212 18.6977C17.6456 18.3146 18.3342 18.788 18.3342 19.6991Z" fill="black"/>
</svg>
