<svg width="48" height="48" viewBox="0 0 48 48" fill="none" xmlns="http://www.w3.org/2000/svg">
<g clip-path="url(#clip0)">
<path fill-rule="evenodd" clip-rule="evenodd" d="M14.7278 2.00864C14.7278 2.06112 15.0332 3.57002 15.4066 5.36167C15.7799 7.15351 16.0618 8.64308 16.0328 8.67208C16.0038 8.70108 15.2184 8.45197 14.2872 8.11882C13.3562 7.78549 12.5666 7.54052 12.5329 7.57437C12.4989 7.60837 12.5911 8.38258 12.7378 9.29491C13.059 11.2949 13.0592 11.3025 12.7888 11.3037C12.6704 11.3042 12.2857 11.3847 11.9341 11.4824L11.2947 11.6604L11.8048 13.1076C12.0853 13.9036 12.3148 14.612 12.3148 14.682C12.3148 14.7517 11.2149 14.7588 9.87036 14.6975L7.42589 14.5862L8.18993 15.138C10.5244 16.8247 11.4784 17.5484 11.4258 17.5926C11.3934 17.6197 9.73817 18.3557 7.7475 19.2281C5.75685 20.1006 4.07176 20.8709 4.00282 20.9399C3.93388 21.009 5.13603 21.2838 6.67428 21.5507C10.3723 22.1924 10.5686 22.2522 11.3333 22.9676L11.9891 23.5811L11.2718 24.8903C10.8772 25.6102 10.6596 26.1606 10.7883 26.1129C10.9169 26.0653 11.662 25.8143 12.4441 25.5554L13.866 25.0842V22.165V19.2459L14.7134 16.9861C15.1797 15.7431 15.5868 14.7103 15.6183 14.6906C15.6498 14.6711 16.3541 14.0913 17.1834 13.4021C18.0383 12.6916 19.2696 11.8725 20.0272 11.5102C21.302 10.9007 21.4588 10.8685 23.4425 10.8112C26.5235 10.7222 27.9595 11.2064 30.7231 13.2664C31.485 13.8344 31.7418 14.1763 32.2604 15.3124L32.883 16.6764L34.8359 14.7262C35.91 13.6533 36.7887 12.7161 36.7887 12.6433C36.7887 12.5706 36.1876 12.5102 35.453 12.5092C34.7184 12.5081 33.8277 12.4593 33.4734 12.4007L32.8297 12.2941L32.784 7.15834L32.7384 2.02262L30.5815 4.97966L28.4246 7.93652L27.5369 7.98814L26.6493 8.03993L24.9561 5.95377L23.2632 3.86762L22.886 5.12518C22.6786 5.81689 22.3793 6.83675 22.2207 7.39156L21.9327 8.4002L21.4757 7.98261C21.2243 7.75303 19.8552 6.52844 18.4333 5.2612C17.0114 3.99416 15.5959 2.72244 15.2879 2.43536C14.9799 2.14829 14.7278 1.95616 14.7278 2.00864ZM23.8859 14.2994C23.3853 14.8166 23.1959 14.8903 22.1387 14.979C20.6828 15.1013 20.431 15.2314 18.7914 16.7093L17.4854 17.8867V25.1972V32.5077L18.5626 33.4703L19.6398 34.4326L19.6927 33.547C19.7378 32.7916 19.6806 32.5932 19.3049 32.2003L18.8642 31.7397V25.1623V18.5848L19.7446 17.7921C20.5905 17.0303 20.6668 16.9993 21.6922 16.9993C22.6707 16.9993 23.173 17.1866 23.173 17.5517C23.173 17.6276 22.9791 17.6897 22.7421 17.6897C22.3974 17.6897 22.3113 17.7761 22.3113 18.1213C22.3113 18.4857 22.2306 18.5529 21.7942 18.5529H21.2771V19.7085C21.2771 20.6983 21.3375 20.9279 21.6976 21.3054L22.1181 21.7464L21.0944 23.114C20.1432 24.3845 20.0706 24.5468 20.0706 25.4012V26.3209H20.6739H21.2771V33.1693C21.2771 39.9937 21.2757 40.021 20.863 41.0667C20.2327 42.6642 19.8466 44.6292 20.026 45.327C20.1668 45.874 20.2299 45.9171 20.9572 45.9651C21.6995 46.0142 21.7598 45.9825 22.199 45.3177L22.6608 44.6191H25.4705H28.28L28.6675 45.3095C29.0366 45.9675 29.0944 46 29.8953 46H30.7352L30.8466 45.257C30.972 44.4187 30.4944 42.1325 29.9076 40.7638C29.5659 39.9665 29.55 39.6284 29.55 33.1253V26.3209H30.1532H30.7564V25.3661C30.7564 24.4724 30.6934 24.3273 29.7721 23.1013L28.7877 21.7914L29.4275 21.2773C30.0441 20.782 30.0671 20.7243 30.0671 19.669V18.5748L29.507 18.5206C29.0776 18.4792 28.9338 18.3759 28.8916 18.0781C28.8518 17.797 28.7209 17.6897 28.4177 17.6897C28.0844 17.6897 27.9988 17.6005 27.9988 17.2528C27.9988 16.698 26.946 15.7374 26.2071 15.6183C25.696 15.5358 25.6697 15.4914 25.62 14.6257C25.5686 13.7289 25.5619 13.7194 25.0075 13.7194C24.5977 13.7194 24.2962 13.8753 23.8859 14.2994ZM35.3238 18.1291C34.5655 18.2528 33.8403 18.3602 33.7125 18.3673C33.5396 18.377 33.5726 18.5375 33.8417 18.9943C34.294 19.762 34.3 20.5387 33.8629 21.6911C33.6756 22.1849 33.5521 22.6189 33.5885 22.6553C33.6621 22.7291 44.2065 21.5319 44.8893 21.3722C45.3441 21.2658 44.5715 21.0681 39.2602 19.9316L36.6471 19.3725L36.8902 18.682C37.024 18.3022 37.1335 17.9625 37.1335 17.9269C37.1335 17.8422 36.9599 17.8617 35.3238 18.1291ZM34.0311 25.3741C34.0311 25.5135 37.8696 28.3925 38.0573 28.394C38.1653 28.3947 39.2233 28.5106 40.4082 28.6513C41.5931 28.7921 42.6732 28.908 42.8087 28.9087C42.944 28.9095 42.1288 28.2165 40.997 27.3685L38.9393 25.8266L37.0453 25.64C36.0037 25.5373 34.8993 25.4203 34.5913 25.3801C34.2833 25.3397 34.0311 25.3371 34.0311 25.3741ZM28.5159 33.3122V40.3035H28.115C27.8946 40.3035 27.5321 40.1093 27.3094 39.8718C26.9417 39.48 26.7755 39.4402 25.4997 39.4402C24.2239 39.4402 24.0577 39.48 23.6901 39.8718C23.4673 40.1093 23.105 40.3035 22.8844 40.3035H22.4837V33.3122V26.3209H25.4997H28.5159V33.3122ZM26.741 41.7183C27.0601 42.028 27.3094 42.4444 27.3094 42.6676C27.3094 43.0576 27.2742 43.0654 25.4997 43.0654C23.7495 43.0654 23.6901 43.053 23.6901 42.6853C23.6901 42.4761 23.938 42.0489 24.2408 41.7359C25.0093 40.9419 25.9345 40.9354 26.741 41.7183Z" fill="black"/>
</g>
<defs>
<clipPath id="clip0">
<rect width="41" height="44" fill="white" transform="translate(4 2)"/>
</clipPath>
</defs>
</svg>
