<svg width="48" height="48" viewBox="0 0 48 48" fill="none" xmlns="http://www.w3.org/2000/svg">
<g clip-path="url(#clip0)">
<path fill-rule="evenodd" clip-rule="evenodd" d="M14.1817 4.85025L12.5285 6.74175L8.99909 8.84851C7.05785 10.0072 5.42915 11.0206 5.37955 11.1005C5.26209 11.2904 4.57018 16.4819 4.65179 16.5632C4.68606 16.5974 5.20989 15.6262 5.81566 14.405L6.91742 12.1843L10.419 9.93073L13.9207 7.67716L14.9283 5.35966C15.4825 4.08511 15.9133 3.0234 15.8854 3.00046C15.8577 2.97753 15.091 3.80991 14.1817 4.85025ZM36.7652 4.53492C36.3128 4.74132 35.9643 4.98126 35.9912 5.06777C36.0179 5.15431 36.5383 5.58135 37.1476 6.01674L38.2555 6.80846L38.1392 6.22853C38.0753 5.90971 38.0231 5.30666 38.0231 4.88865C38.0231 4.0151 37.9494 3.99442 36.7652 4.53492ZM20.9284 8.90705C18.8484 9.41073 16.9543 9.87079 16.7195 9.92969C16.4075 10.0079 11.2257 14.0336 9.44129 15.5842C9.37045 15.6457 8.72362 17.7047 8.00368 20.1598L6.69483 24.6236L7.57889 28.4924C8.06493 30.6203 8.55534 32.4962 8.66844 32.6614C8.7814 32.8268 9.93117 34.2859 11.2233 35.9043L13.5726 38.8467L17.9281 40.4251C20.3237 41.2933 22.3991 42.0043 22.5398 42.0051C22.6807 42.006 24.7145 41.562 27.0596 41.0181L31.3232 40.0295L34.8036 37.1094L38.2841 34.1892L39.5716 29.7668L40.8592 25.3443L39.938 21.382L39.0167 17.4196L36.581 14.466C35.2413 12.8415 34.0872 11.4475 34.0163 11.3679C33.8541 11.1858 25.1487 7.9435 24.8964 7.97113C24.7939 7.98225 23.0084 8.40357 20.9284 8.90705ZM29.2636 10.8627L33.2948 12.3811L35.617 15.2115L37.9393 18.0419L38.7781 21.7267L39.6169 25.4115L38.424 29.4363L37.2313 33.4613L34.1032 36.1004C32.3827 37.5522 30.8919 38.7732 30.7903 38.8141C30.6885 38.8551 28.8236 39.3031 26.6461 39.81L22.6866 40.7314L18.6098 39.2616L14.5327 37.792L12.1733 34.8527L9.81405 31.9132L8.97229 28.292L8.13053 24.6707L9.04538 21.5664C9.54848 19.859 10.0887 18.0167 10.2458 17.4724C10.53 16.488 10.5491 16.4683 13.7661 13.8419L17.0009 11.2013L20.8556 10.2838C22.9758 9.77923 24.8276 9.36139 24.9713 9.35529C25.1148 9.34922 27.0463 10.0277 29.2636 10.8627ZM22.7959 11.0666L20.8816 11.5381L21.7518 11.6514C22.2304 11.7138 23.1701 11.8095 23.8401 11.8644C24.51 11.9192 25.3715 12.0071 25.7544 12.0597L26.4504 12.1556L25.6746 11.3562C25.2479 10.9165 24.8564 10.5654 24.8046 10.576C24.7527 10.5864 23.8488 10.8072 22.7959 11.0666ZM27.7555 11.8599C27.8748 12.0033 28.2172 12.1141 28.5165 12.1064L29.0609 12.0924L28.5388 11.8537C27.8043 11.5178 27.4736 11.5204 27.7555 11.8599ZM18.3583 12.7316C18.3583 12.931 20.2836 16.6377 20.3871 16.6377C20.4929 16.6377 21.4644 16.0323 24.4491 14.1067L25.7544 13.2646L22.709 12.9647C19.471 12.6459 18.3583 12.5863 18.3583 12.7316ZM15.9173 15.1775C15.2132 16.3151 14.3014 17.7882 13.8913 18.4514C13.4809 19.1144 13.1713 19.6828 13.203 19.7146C13.2596 19.7711 19.0457 17.3992 19.1811 17.2641C19.2189 17.2265 18.788 16.2762 18.2234 15.1523L17.1972 13.1089L15.9173 15.1775ZM29.844 13.2361C29.844 13.2762 30.9511 13.9422 32.3043 14.716C33.6575 15.4898 34.6559 15.9848 34.5232 15.8158C33.6156 14.662 32.5482 13.4034 32.3858 13.2959C32.1852 13.163 29.844 13.1079 29.844 13.2361ZM24.1364 15.719L21.3005 17.549L24.6584 19.4129C27.2247 20.8371 28.027 21.2111 28.0606 20.9986C28.1496 20.4357 27.3126 13.9715 27.1455 13.931C27.0503 13.9079 25.6964 14.7125 24.1364 15.719ZM28.6247 14.4165C28.6233 14.8595 29.3614 21.5586 29.4207 21.6429C29.4413 21.6726 30.963 20.9447 32.8023 20.0256C34.6415 19.1066 36.1182 18.3266 36.0839 18.2924C36.0261 18.2347 29.6156 14.5527 28.9303 14.1835C28.6813 14.0494 28.6256 14.0918 28.6247 14.4165ZM13.1807 15.8672C12.2955 16.59 11.5713 17.1974 11.5713 17.2166C11.5713 17.2359 11.2971 18.1821 10.9621 19.319C10.6269 20.456 10.3725 21.4051 10.3965 21.4281C10.4205 21.4512 10.9971 20.5977 11.6775 19.5317C12.3581 18.4656 13.357 16.9093 13.8974 16.0731C14.4377 15.237 14.8597 14.5529 14.835 14.5529C14.8103 14.5529 14.0658 15.1443 13.1807 15.8672ZM42.3737 18.2865C42.3737 18.3332 42.7311 19.682 43.1679 21.2836L43.9624 24.1954L43.6787 26.1676C43.5227 27.2524 43.4236 28.168 43.458 28.2026C43.5124 28.2569 45.8399 24.4811 45.9993 24.08C46.056 23.9372 42.5886 18.2014 42.4456 18.2014C42.406 18.2014 42.3737 18.2396 42.3737 18.2865ZM16.7051 19.6088C15.3651 20.1723 14.0007 20.7559 13.6732 20.9056L13.0777 21.1779L15.6661 23.7663C17.0898 25.19 18.2739 26.3355 18.2976 26.3118C18.3212 26.2884 18.5405 24.747 18.7852 22.8868C19.0297 21.0266 19.2667 19.2895 19.3118 19.0266C19.3568 18.7638 19.337 18.5568 19.2676 18.5666C19.1982 18.5765 18.0451 19.0454 16.7051 19.6088ZM20.5429 18.9401C20.3401 19.8785 19.5469 26.3954 19.6255 26.4742C19.6735 26.5218 21.5332 25.6516 23.7583 24.5403L27.8039 22.5192L25.1258 21.0412C23.6531 20.228 22.0382 19.3349 21.5376 19.0562L20.627 18.5495L20.5429 18.9401ZM36.9957 20.1125C36.9838 20.3514 36.8955 22.1026 36.7995 24.0041C36.7034 25.9057 36.6533 27.4898 36.6879 27.5244C36.7226 27.5592 37.1153 27.0406 37.5606 26.3722L38.3698 25.1568L37.6936 22.4174C37.3215 20.9108 37.0074 19.8736 36.9957 20.1125ZM33.0633 21.2797C31.6277 21.9972 30.4177 22.6172 30.3744 22.6573C30.3311 22.6979 31.4238 23.859 32.8023 25.2378C34.1809 26.6166 35.3333 27.7203 35.3632 27.6906C35.4391 27.6147 35.7995 20.0924 35.7304 20.0279C35.6991 19.9989 34.4991 20.5623 33.0633 21.2797ZM12.2062 22.7581C11.9319 24.2957 11.1855 30.5569 11.2668 30.6383C11.3968 30.7678 17.6993 27.5993 17.6309 27.4385C17.6003 27.3666 16.3899 26.1562 14.9415 24.7487L12.3076 22.1896L12.2062 22.7581ZM10.1092 23.8609C9.7648 24.3112 9.48566 24.8051 9.48897 24.9588C9.49662 25.3169 10.1141 27.9236 10.215 28.0246C10.2571 28.0666 10.4318 27.0032 10.6034 25.6612C10.7748 24.3194 10.8747 23.1813 10.8253 23.1319C10.7759 23.0825 10.4536 23.4106 10.1092 23.8609ZM24.0211 25.7005C20.479 27.4809 20.2244 27.6396 20.5406 27.8715C21.1447 28.3147 27.0767 31.4463 27.158 31.365C27.3527 31.1706 28.201 23.7615 28.0274 23.7704C27.9258 23.7755 26.123 24.644 24.0211 25.7005ZM29.4307 23.9443C29.3099 24.3208 28.4145 31.4284 28.4812 31.48C28.5289 31.5171 29.6744 31.0847 34.7617 29.1103C34.8345 29.082 33.6828 27.8516 32.2023 26.376C30.4352 24.6148 29.4834 23.7795 29.4307 23.9443ZM2.19821 28.4096C2.0891 29.258 2 30.0446 2 30.1578C2 30.2852 2.29654 30.3631 2.78311 30.3631C3.29248 30.3631 3.56622 30.2873 3.56622 30.1464C3.56622 29.8458 2.68183 27.1808 2.52468 27.0079C2.45403 26.9304 2.30715 27.5613 2.19821 28.4096ZM37.0102 28.9118C36.6999 29.3845 36.6442 29.6216 36.7616 29.9729C36.9011 30.3909 36.935 30.3476 37.2031 29.4059C37.3629 28.8453 37.4747 28.3679 37.4518 28.3449C37.4287 28.3218 37.23 28.5771 37.0102 28.9118ZM15.0953 30.1536C13.4444 30.9828 12.0934 31.7126 12.0934 31.7753C12.0934 31.9406 19.0669 35.968 19.1719 35.8633C19.2206 35.8149 19.057 34.2643 18.8085 32.4175C18.56 30.5709 18.3569 28.9624 18.3574 28.8428C18.358 28.7236 18.2995 28.6302 18.2278 28.6356C18.1561 28.6412 16.7463 29.324 15.0953 30.1536ZM19.6292 29.51C19.6875 29.9315 19.9132 31.6248 20.1306 33.2732C20.3482 34.9216 20.5668 36.2684 20.6167 36.2659C20.8067 36.2567 26.2014 32.7016 26.2379 32.5614C26.2754 32.4182 25.0354 31.6985 21.3336 29.7141L19.5232 28.7438L19.6292 29.51ZM31.5097 31.64C29.9852 32.2343 28.7134 32.7959 28.6837 32.8882C28.654 32.9804 29.0399 33.9023 29.5412 34.9367L30.453 36.8173L32.5882 33.6769C33.7626 31.9499 34.6241 30.5421 34.5026 30.5484C34.3809 30.5546 33.0341 31.0458 31.5097 31.64ZM34.5425 32.9223C32.5599 35.8182 32.5695 35.7852 34.0786 34.5328C34.827 33.9117 35.594 33.283 35.7831 33.1355C36.0838 32.901 36.1058 32.7742 35.9591 32.1229C35.8671 31.7133 35.7651 31.3542 35.7328 31.3241C35.7002 31.2944 35.1647 32.0136 34.5425 32.9223ZM24.671 35.1067C23.3094 35.9855 22.2522 36.7218 22.3217 36.7426C22.5831 36.8215 29.2247 37.2938 29.2807 37.2378C29.3977 37.121 27.4977 33.4906 27.3244 33.4995C27.2267 33.5046 26.0326 34.2278 24.671 35.1067ZM13.0652 34.0146C14.1422 35.4853 15.3299 36.795 15.7126 36.9338C19.1106 38.1661 20.0985 38.508 20.0985 38.4521C20.0985 38.4156 18.6693 37.4677 16.9226 36.3457C12.5013 33.5053 12.844 33.7123 13.0652 34.0146ZM5.00227 38.9197C3.81002 41.0946 3.77018 41.2606 4.38119 41.5021C6.98719 42.5326 15.8113 45.8204 15.8546 45.7774C15.8852 45.7465 13.8493 44.4492 11.3301 42.8944L6.74982 40.0672L6.43466 38.6899C6.2615 37.9323 6.06644 37.3127 6.00152 37.3127C5.93643 37.3127 5.48676 38.0357 5.00227 38.9197ZM21.6647 38.1265C21.6647 38.2147 21.932 38.5455 22.2587 38.8617L22.8529 39.4364L25.0803 38.941C27.1216 38.487 27.2501 38.4362 26.618 38.3311C25.3041 38.1129 21.6647 37.9624 21.6647 38.1265ZM38.1987 41.9152L36.7392 43.3798L38.6248 44.2587C39.6619 44.7422 40.5332 45.1152 40.5609 45.0876C40.6376 45.0107 39.8641 40.6563 39.7541 40.5467C39.7012 40.4938 39.0012 41.1098 38.1987 41.9152Z" fill="black"/>
</g>
<defs>
<clipPath id="clip0">
<rect width="44" height="42.7778" fill="white" transform="translate(2 3)"/>
</clipPath>
</defs>
</svg>
