<svg width="48" height="48" viewBox="0 0 48 48" fill="none" xmlns="http://www.w3.org/2000/svg">
<g clip-path="url(#clip0)">
<path d="M21.5224 2.90542C21.5224 2.41144 21.6077 2.05244 21.7373 2H26.1056C26.2352 2.05244 26.3205 2.41144 26.3205 2.90542C26.3205 3.52232 26.1481 3.78863 25.873 4.03535C25.5764 4.3014 25.5799 4.43298 25.6342 6.45178C25.6448 6.84668 25.6574 7.31386 25.6699 7.86831C25.7457 11.2038 25.7655 11.3689 26.1209 11.6177C26.4112 11.8209 26.4932 12.0544 26.495 12.6849C26.4981 13.7679 26.6494 14.2655 26.9748 14.2655C27.1236 14.2655 27.6886 13.9173 28.2303 13.4918C28.7724 13.0663 29.2494 12.7181 29.2909 12.7181C29.3324 12.7181 29.4204 16.0643 29.4867 20.1544C29.6002 27.1668 29.5885 27.6438 29.2832 28.5276C28.9725 29.4276 28.1912 30.2913 27.9267 30.027C27.861 29.9613 27.7724 28.0183 27.7297 25.7089L27.652 21.5105L26.6662 20.0254L26.6646 31.1779L25.349 34.6801C24.6999 36.4075 24.1091 37.8034 23.9417 38.0185V38.0446C23.9372 38.0493 23.9303 38.0478 23.9214 38.0405C23.9125 38.0478 23.9057 38.0493 23.9012 38.0446V38.0185C23.7336 37.8034 23.1428 36.4075 22.4939 34.6801L21.1783 31.1779L21.1767 20.0254L20.1909 21.5105L20.1132 25.7089C20.0705 28.0183 19.9819 29.9613 19.9162 30.027C19.6517 30.2913 18.8704 29.4276 18.5596 28.5276C18.2543 27.6438 18.2426 27.1668 18.3561 20.1544C18.4223 16.0643 18.5104 12.7181 18.5519 12.7181C18.5933 12.7181 19.0704 13.0663 19.6126 13.4918C20.1543 13.9173 20.7193 14.2655 20.8681 14.2655C21.1935 14.2655 21.3448 13.7679 21.3479 12.6849C21.3497 12.0544 21.4317 11.8209 21.722 11.6177C22.0774 11.3689 22.0972 11.2038 22.173 7.86831C22.1855 7.31386 22.198 6.84675 22.2086 6.45186C22.2628 4.43305 22.2663 4.3014 21.9699 4.03535C21.6948 3.78863 21.5224 3.52232 21.5224 2.90542Z" fill="black"/>
<path fill-rule="evenodd" clip-rule="evenodd" d="M27.1809 34.2223L27.4921 33.4916C27.7907 32.7904 27.8337 32.7609 28.557 32.7609C28.9717 32.7609 29.6908 32.8757 30.1551 33.0161C30.6196 33.1564 32.1219 33.3906 33.4938 33.5364C35.5618 33.7561 36.4767 33.9549 38.8488 34.6996L41.7098 35.5977L45.4962 39.5634L41.7569 43.7045L38.2703 44.4192C31.3119 45.8455 29.9034 45.9998 23.8389 46C18.63 46.0004 18.3299 45.9819 15.1749 45.4697C11.9959 44.9534 6.71438 43.5548 5.99728 43.0391C5.82906 42.918 4.86082 42.084 3.84563 41.1857L2 39.5523L6.05851 35.7141L11.9068 33.638L15.2609 33.3708C19.6272 33.0232 20.0143 33.0259 20.1236 33.4056C20.1712 33.5712 20.2632 33.8348 20.328 33.9919C20.4938 34.3927 20.2565 34.4421 16.7386 34.739L13.671 34.9981L12.6168 35.8897C12.0371 36.3801 11.5 36.8329 11.4233 36.8964C11.3465 36.9597 11.8884 37.3945 12.6273 37.8625C14.4081 38.9906 17.5393 39.89 21.2451 40.3381L23.8752 40.656L26.3572 40.1537C27.7225 39.8773 29.9887 39.5565 31.3935 39.441L33.9477 39.2311L36.1598 37.2195L35.5577 36.7034C33.7883 35.1874 31.9707 34.5318 29.0042 34.34L27.1809 34.2223ZM10.4352 36.1213C11.1026 35.5754 11.6487 35.0989 11.6487 35.0625C11.6487 35.0457 11.6582 35.029 11.6534 35.0205C11.6334 34.9847 11.3678 35.086 9.16444 35.8842C6.83117 36.7293 6.72728 36.7885 5.33866 38.0666C4.55344 38.7892 3.91049 39.4272 3.9098 39.4848C3.90911 39.5422 4.53247 40.1525 5.29498 40.8408L6.6817 42.0922L9.12214 42.8444C10.4645 43.2581 12.9173 43.8459 14.5729 44.1502L17.583 44.7039L23.8613 44.6975C29.9064 44.6913 30.2418 44.6735 32.8904 44.2197C37.4403 43.44 41.1026 42.5991 41.4175 42.2622C41.5726 42.0956 42.1806 41.4337 42.768 40.7914L43.8361 39.6232L41.1481 36.7316L38.7398 35.9606C36.61 35.2786 35.7235 34.9926 35.6649 35.1123C35.6225 35.1987 36.0115 35.4964 36.6759 36.0091C37.4326 36.5934 38.0336 37.1085 38.0113 37.154C37.989 37.1993 37.174 37.9544 36.2003 38.832L34.4298 40.4276L31.7302 40.6392C30.2453 40.7556 27.8868 41.0828 26.4889 41.3664L23.9473 41.8818L21.4532 41.6047C19.7503 41.4154 18.0772 41.0883 16.1794 40.5732C13.4908 39.8437 13.3313 39.7745 11.3108 38.4663L9.22189 37.1135L10.4352 36.1213Z" fill="black"/>
<path d="M17.2612 36.8374C17.1614 36.8041 17.9282 36.5375 18.9652 36.2447C20.0024 35.952 20.8975 35.706 20.9542 35.6981C21.0812 35.6803 22.0396 37.9055 21.9454 37.9997C21.892 38.0531 18.0453 37.0987 17.2612 36.8374Z" fill="black"/>
<path d="M26.008 37.1951C26.1718 36.7894 26.3726 36.2847 26.4541 36.0738C26.5357 35.8628 26.7016 35.7236 26.8229 35.7643C26.9441 35.8051 27.7269 36.0424 28.5624 36.2914C29.398 36.5408 30.0443 36.7818 29.9988 36.8271C29.8795 36.9467 25.8517 38.0534 25.7748 37.9881C25.7392 37.9579 25.8443 37.6012 26.008 37.1951Z" fill="black"/>
</g>
<defs>
<clipPath id="clip0">
<rect width="43.4962" height="44" fill="white" transform="translate(2 2)"/>
</clipPath>
</defs>
</svg>
