<svg width="48" height="48" viewBox="0 0 48 48" fill="none" xmlns="http://www.w3.org/2000/svg">
<g clip-path="url(#clip0)">
<path fill-rule="evenodd" clip-rule="evenodd" d="M17.6031 5.17106C12.9686 5.45907 8.0423 6.07657 4.93044 6.7595L4 6.96387L4.11953 7.67725C5.08905 13.4653 8.40895 21.9635 12.2424 28.4693C13.0219 29.7925 13.6598 30.9093 13.6598 30.9512C13.6598 30.9928 13.1078 31.6785 12.433 32.4748L11.2062 33.9227V36.4578V38.993L11.7758 38.4708C14.2622 36.1908 15.9126 34.7343 16.0596 34.6898C16.1555 34.661 16.7729 35.341 17.4314 36.2008L18.6289 37.764L16.7482 39.5253L14.8677 41.2865L14.921 42.8933L14.9742 44.5L17.5702 42.0355C19.7376 39.9775 20.2022 39.6113 20.3859 39.8162C22.351 42.0088 23.9007 43.6487 24.0073 43.6487C24.0813 43.6487 24.9477 42.7628 25.9325 41.6802C26.9177 40.5977 27.7818 39.6892 27.853 39.6615C27.9243 39.6338 29.1173 40.6917 30.5042 42.012L33.0257 44.4128L33.0757 42.837L33.1257 41.2612L31.2922 39.4597L29.4583 37.658L30.7025 36.0165C31.9247 34.4045 31.9533 34.3805 32.3108 34.6813C32.6383 34.9565 35.4403 37.4507 36.6623 38.5545L37.1443 38.9898V36.4507V33.9118L35.8298 32.38C35.107 31.5375 34.5155 30.788 34.5155 30.7148C34.5155 30.6413 35.1115 29.5647 35.84 28.3223C38.2563 24.2018 40.4847 19.3147 41.9762 14.8646C42.5943 13.0204 43.6807 8.92712 43.884 7.67725L44 6.96387L43.0695 6.7595C36.5422 5.32696 25.8397 4.65925 17.6031 5.17106ZM28.5262 9.68232L29.8102 9.79063L27.9948 12.4153C25.5097 16.0085 24.3493 17.5771 24.1765 17.5771C24.0098 17.5771 22.0862 14.9698 19.9807 11.8904L18.5451 9.79063L19.6515 9.68967C21.148 9.55283 26.937 9.54812 28.5262 9.68232ZM12.6011 14.34C14.8724 17.0697 16.907 19.3818 18.9652 21.5722C19.6368 22.2872 20.131 22.9585 20.0813 23.0883C19.8944 23.5742 16.9517 27.198 16.8134 27.1127C16.5905 26.9752 15.2235 24.5483 14.0447 22.1977C12.252 18.6226 11.0043 15.5348 9.9123 11.9712L9.45857 10.4905L9.93788 11.103C10.2015 11.4398 11.3999 12.8965 12.6011 14.34ZM37.3895 14.0932C36.0403 17.9691 34.1028 22.2178 32.104 25.6838C31.461 26.7988 31.2733 27.0107 31.0963 26.8212C30.5492 26.2358 28.2062 23.1258 28.2062 22.9852C28.2062 22.8983 28.7443 22.2563 29.4023 21.5584C31.2753 19.571 34.7482 15.5901 36.5038 13.4181C37.3837 12.3297 38.1267 11.5082 38.155 11.5929C38.1832 11.6774 37.8387 12.8025 37.3895 14.0932ZM26.4302 29.1645C27.5517 30.2445 28.4998 31.1478 28.5377 31.1722C28.5928 31.2078 27.5157 32.6848 26.3325 34.196C26.1538 34.4242 25.971 34.312 25.0618 33.418L24 32.3737L22.95 33.411C22.3038 34.0493 21.8405 34.3837 21.745 34.2803C21.2403 33.735 19.6147 31.5062 19.6564 31.4168C19.7954 31.1183 23.9987 27.2008 24.1798 27.2008C24.296 27.2008 25.3087 28.0845 26.4302 29.1645Z" fill="black"/>
</g>
<defs>
<clipPath id="clip0">
<rect width="40" height="39.5" fill="white" transform="translate(4 5)"/>
</clipPath>
</defs>
</svg>
