<svg xmlns="http://www.w3.org/2000/svg" viewBox="0 0 48 48" class="ability-icon createSvgIcon__Svg-sc-1l8xi8d-0 ldKivg"><title>Reyna - E</title><path fill-rule="evenodd" clip-rule="evenodd" d="M36.4752 9.67499C36.8399 10.2001 37.1945 10.9554 37.3262 11.2674L37.0895 11.3781C37.0506 11.2031 36.6033 11.0767 36.2921 11.0281C36.0432 10.9892 36.0199 10.8174 36.0393 10.7363L35.0767 10.6683L34.6877 9.67499C34.6089 9.55555 34.0551 9.23307 32.4707 8.89857C32.1861 8.83849 31.9194 8.78302 31.6624 8.72955L31.6617 8.72941L31.6614 8.72934L31.6614 8.72934C30.1299 8.4108 28.9379 8.16286 26.3156 7.4303C23.8653 6.74575 21.846 7.14507 21.1427 7.4303C21.2981 7.69982 21.1975 7.94261 21.1034 8.16956C21.0563 8.28322 21.0108 8.39292 21 8.5C20.5624 8.14022 18.8673 7.99427 16.2322 9.25835C13.5971 10.5224 13.3637 10.6975 10.9457 13.5854C9.01128 15.8957 8.4029 17.177 8.3405 17.5288L8 17.5L7.26601 18.3739L7.70868 18.8769L6.8998 20.9293C6.87297 20.8542 6.79114 20.8682 6.67846 21.5249C6.53761 22.3459 6.65834 23.8751 6.67846 23.8751C6.69456 23.8751 6.77907 23.8241 6.81931 23.7987L6.85084 24.7462C7.31773 25.8072 7.37507 26.0278 7.64455 27.0645C7.79849 27.6567 8.02164 28.5152 8.42991 29.9488C9.32829 33.1033 10.7174 34.7293 11.2997 35.148C11.3374 35.0159 11.4729 34.7813 11.7128 34.899C11.9527 35.0167 12.1523 35.065 12.2221 35.0744C12.1814 35.3551 12.2806 35.7195 12.3353 35.8666C12.3485 35.8497 12.5118 35.9628 13.0596 36.5513C13.6074 37.1399 13.9461 37.7197 14.047 37.9361L14.5 38.5C14.5 38.5 14.6522 38.576 15.0772 38.753C15.5022 38.9301 16.4144 39.3898 16.4144 39.3898C16.4144 39.3898 17.1955 39.284 17.2526 39.2315C18.7024 39.7688 20.0224 39.9951 20.5011 40.041C20.5133 40.0532 20.5419 40.0975 20.5586 40.1768C20.5753 40.2562 20.475 40.485 20.4228 40.5894C20.4506 40.6103 20.6557 40.673 21.2532 40.7566C21.8507 40.8401 22.7103 40.7566 23.0655 40.7043C23.2935 40.5999 23.8227 40.3638 24.1152 40.2552C24.3058 40.1844 24.4548 40.1758 24.6218 40.1662C24.7111 40.1611 24.8055 40.1557 24.9143 40.1403C25.269 40.0901 25.823 40.014 25.823 40.014C25.8143 40.0924 25.7478 40.2879 25.5514 40.4432C25.5399 40.4523 25.5274 40.4611 25.5138 40.4697C25.5531 40.4719 25.5828 40.48 25.6087 40.4871C25.6659 40.5028 25.7044 40.5133 25.7858 40.4432C26.0913 40.1801 26.4423 40.0493 26.6982 39.954C26.8608 39.8934 26.985 39.8472 27.0347 39.7904L27.9225 39.5762C28.1607 39.8353 28.7738 39.8966 29.0506 39.8948C29.1175 39.6483 29.3675 39.4554 29.4841 39.3898V39.5762C29.4841 39.5762 29.824 39.8135 30.0644 39.7904C30.3365 39.7642 30.6383 39.3898 30.6383 39.3898L30.6016 39.1989C30.7426 39.1812 31.194 39.3188 31.4021 39.3898C31.4021 39.3898 31.164 39.5877 31.1409 39.7904C31.1104 40.0581 32.7386 40.0581 32.7386 40.0581L32.6432 40.1536C32.6064 40.1585 32.3891 40.1844 31.8133 40.249C31.2375 40.3137 29.9969 40.5257 29.4486 40.6236C28.9002 40.7215 28.7134 40.767 28.7134 40.767L28.8781 40.4432C28.8781 40.4432 27.4155 40.7324 26.5 41C26.0358 41.1357 25.3214 41.38 25.3214 41.38L27.4511 41.6811C27.2626 41.8059 26.7798 42.0674 26.3568 42.1144C25.9233 42.1625 25.8354 42.2255 25.5911 42.4005L25.591 42.4005C25.5374 42.4389 25.4762 42.4827 25.4021 42.533C25.2693 42.6231 25.2759 42.6918 25.2807 42.7408C25.2906 42.8434 25.2922 42.8594 23.9848 42.8047C22.4396 42.7401 21.1231 42.4791 20.658 42.3567L21.1207 41.6223L19.74 41.7839V41.1964C19.6764 41.2086 19.3435 41.1626 18.521 40.8806C17.6985 40.5986 16.6997 40.0973 16.3031 39.8818L14.4451 39.1915L14.0045 39.4339C13.9653 39.4094 13.6696 39.2003 12.8001 38.56C11.7132 37.7595 9.98744 36.0263 8.93727 34.5649C8.09713 33.3958 7.43178 32.1684 7.20412 31.7008L7.40241 30.6727C7.4122 30.6923 7.40681 30.6081 7.30694 30.1146C7.2272 29.7205 6.97369 28.97 6.71481 28.2036C6.56839 27.7701 6.42022 27.3314 6.30083 26.9494C6.03646 26.1034 6.06828 25.3533 6.11724 25.084L5.27398 24.7462C5.25887 24.5186 5.2257 23.9678 5.21395 23.5859C5.2022 23.204 5.24908 22.6591 5.27398 22.4344L5.68848 22.4626L5.79714 21.702C5.79064 21.6858 5.77236 21.4441 5.75129 20.6064C5.73021 19.7687 5.81276 19.4188 5.85667 19.3486L5.88763 19.398C5.94362 19.4878 5.97358 19.5359 5.9971 19.5329C6.02416 19.5295 6.04269 19.4585 6.08255 19.3058C6.10327 19.2265 6.12975 19.125 6.16618 18.9995C6.30843 18.5095 6.60743 17.7417 6.73915 17.419C6.72419 17.3988 6.71011 17.2477 6.77348 16.8041C6.8527 16.2496 7.29403 15.4914 8.28986 13.9297C9.08653 12.6804 10.0999 11.5079 10.507 11.0778L10.7855 11.5212C10.7855 11.5212 11.4742 11.811 11.7917 11.3598C12.1092 10.9086 12.9336 10.1413 13.3061 9.81404C13.0171 9.7096 12.4142 9.42343 12.3139 9.11428C12.2136 8.80513 12.4392 8.38667 12.5645 8.21608L13.9223 7.71476C16.0613 6.97949 17.5081 6.8096 17.9642 6.81656C18.4655 6.66616 19.7258 6.31523 20.2932 6.15856C22.6327 5.56533 25.3296 5.7312 26.3856 5.88829L27 6.5L27.3824 6.27121C27.5222 6.26513 27.9076 6.31984 28.3306 6.58727C28.7537 6.85471 29.7347 7.11201 30.1723 7.20724L30.306 6.8851C31.5459 7.84544 31.9593 7.578 32.0687 7.29233C32.1562 7.06379 31.9187 6.45154 31.789 6.17399C31.9641 6.22261 32.4293 6.55083 32.64 6.70886C32.6684 6.97629 32.7944 7.51117 33.0715 7.51117C33.3487 7.51117 33.8029 6.93576 33.9954 6.64806C33.9873 6.74531 34.0671 7.00059 34.4512 7.24371C34.8354 7.48684 35.134 7.02493 35.2353 6.76359C35.2819 6.67849 35.4189 6.75141 35.5939 7.7239C35.7739 8.7235 35.9456 8.95456 36.2544 9.3701C36.3211 9.45991 36.3942 9.55833 36.4752 9.67499ZM38.609 13.1836C38.5408 12.817 38.2751 12.4625 38.1508 12.3311C38.0315 12.834 37.9164 12.8745 37.8737 12.8319C37.9483 12.9136 38.1806 13.2986 38.5131 14.1852C38.8456 15.0717 39.2981 15.4568 39.4828 15.5385C39.2199 14.9062 38.6772 13.5501 38.609 13.1836ZM32.5468 39.075L32.6432 39.1989L32.257 39.075L33.0176 38.2661L33.1706 38.3707L32.5468 39.075ZM33.907 38.7047L33.581 39.0267C33.9674 38.9655 34.2276 38.7866 34.3094 38.7047L34.2611 38.6846C34.2611 38.6846 34.0116 38.8255 33.907 38.7047ZM33.5408 37.755L33.7058 37.8637C33.6833 37.7123 33.5998 37.5806 33.5609 37.5337L33.5408 37.755ZM39.7952 20.0839C40.0538 20.5786 40.6631 21.7649 41.0321 22.5524C41.3924 23.3211 41.4655 23.5824 41.4573 23.6214L41.5881 23.185C41.664 23.4366 41.8377 24.1745 41.9243 25.1132C42.011 26.0519 42.0579 26.5088 42.0705 26.62C41.9948 26.4824 41.8049 26.2261 41.6333 26.2644C41.6301 26.5002 41.6344 26.7676 41.6697 27.0795C41.7557 27.8404 41.6897 28.0326 41.5929 28.3143C41.5275 28.5047 41.4479 28.7361 41.3918 29.2119C41.5776 29.6488 41.915 30.6451 41.7783 31.1352C41.6417 31.6253 41.7208 32.021 41.7774 32.1575C41.5665 31.9793 41.0845 31.7317 40.8439 32.1672C40.6033 32.6027 40.7167 33 40.7167 33C40.7167 33 41.0675 34.0024 39.4504 34.7261C39.2401 34.8202 38.4472 35.4226 38.4472 35.4226C38.4472 35.4226 38.6901 35.0445 38.5704 34.7261C38.4918 34.5169 38.6741 34.2766 38.7834 34.1325C38.8821 34.0026 38.9213 33.9508 38.6561 34.0708C38.1401 34.3041 38.1401 34.3042 37.8417 34.8895L37.8409 34.8909C37.8161 34.9396 37.7892 34.9923 37.7598 35.0495C37.4528 35.6471 36.8638 36.2072 36.4759 36.5115C36.6565 36.3136 36.7469 36.0302 36.8615 35.6705C36.9028 35.5411 36.9472 35.4018 37 35.2531C37.1999 34.6911 36.7503 35.168 36.7617 35.2108C36.6732 35.2625 36.636 35.2423 36.5838 35.2141C36.5133 35.176 36.4156 35.123 36.1277 35.212C35.761 35.3254 35.6003 35.3948 35.5422 35.4305C35.8897 35.0993 36.6069 34.4119 36.9067 34.1101C37.2147 33.8 37.2336 33.5059 37.2046 33.3976C37.2598 33.4745 37.4219 33.5483 37.6295 33.2288C37.889 32.8294 38.7323 31.2903 38.9263 30.7741C39.0815 30.3612 39.3404 30.2193 39.4504 30.2C39.4307 29.8755 39.3385 29.3126 39.1279 29.6573C38.8647 30.0882 38.9222 28.3198 39.3507 29.1212C39.4845 29.3714 39.569 29.6127 39.637 29.8071L39.6371 29.8071C39.787 30.2353 39.8571 30.4355 40.1982 29.9996C40.1878 30.0024 40.1776 30.0066 40.167 30.011C40.1075 30.0357 40.0341 30.0661 39.8358 29.883C39.8388 29.7803 39.8191 29.433 39.7156 28.8646L39.7048 28.8054C39.6514 28.5126 39.635 28.4231 39.6626 28.3502C39.6747 28.3182 39.6954 28.2894 39.725 28.2478C39.7735 28.1802 39.846 28.0787 39.9451 27.8747C40.2522 27.2427 40.4277 25.5954 40.3957 25.2253C40.3701 24.9292 40.5404 24.7549 40.6288 24.7048C40.6642 24.6546 40.6805 24.46 40.4624 24.0836C40.2098 23.6477 40.2509 23.2889 40.2788 23.045C40.2811 23.0255 40.2832 23.0069 40.2851 22.9889C40.3057 22.7943 40.3829 22.3138 40.4189 22.098L40.2443 22.2669C40.2437 21.9266 40.153 21.0137 39.7952 20.0839ZM35.5146 35.4568L35.5422 35.4305C35.5209 35.4436 35.5134 35.4522 35.5146 35.4568ZM33.6512 26.7093C34.1201 25.0371 34.1599 23.221 33.6779 21.4218C33.2246 19.7301 32.3643 18.2562 31.2306 17.0772L32 16L30.922 16.77C28.4774 14.4397 24.9125 13.4017 21.4115 14.3398C19.727 14.7912 18.2584 15.6461 17.0819 16.7728L16 16L16.7728 17.082C14.4333 19.527 13.3897 23.0986 14.3296 26.6061C14.7807 28.29 15.6352 29.7581 16.7612 30.9343L16 32L17.0655 31.2389C18.9583 33.0531 21.528 34.0898 24.2207 34.0293C21.5426 34.0211 19.0446 32.9059 17.3635 31.026L22.4784 27.3726C22.8176 27.1303 23.2241 27 23.6409 27H24.359C24.7759 27 25.1823 27.1303 25.5215 27.3726L32 32L27.3725 25.5216C27.1302 25.1824 27 24.7759 27 24.3591V23.6409C27 23.2241 27.1302 22.8177 27.3725 22.4785L30.426 18.2036C31.9195 19.3173 33.0481 20.8903 33.5558 22.7852C33.9096 24.1057 33.9242 25.4416 33.6512 26.7093ZM22.2628 16.7136C24.8926 16.009 27.5433 16.4341 29.6446 17.6824L25.5215 20.6275C25.1823 20.8698 24.7759 21 24.359 21H23.6409C23.2241 21 22.8176 20.8698 22.4784 20.6275L19.0887 18.2063C20.0166 17.5433 21.0849 17.0293 22.2628 16.7136ZM20.6274 22.4785L18.1332 18.9865C15.779 21.1773 14.6676 24.4424 15.5186 27.6183C15.8167 28.7309 16.3289 29.7325 17.0033 30.5954L20.6274 25.5216C20.8697 25.1824 21 24.7759 21 24.3591V23.6409C21 23.2241 20.8697 22.8177 20.6274 22.4785Z"/></svg>