<svg xmlns="http://www.w3.org/2000/svg" viewBox="0 0 48 48" class="ability-icon createSvgIcon__Svg-sc-1l8xi8d-0 ldKivg"><title>Reyna - Q</title><path fill-rule="evenodd" clip-rule="evenodd" d="M20.6917 7.02476C21.5478 7.17741 22.8514 7.45891 23.3961 7.58059C22.4055 7.47562 21.5001 7.62433 21.1713 7.7118L21.2893 7.49941C21.0901 7.59007 20.646 7.78898 20.4633 7.85929C20.4465 7.86577 20.429 7.87267 20.4108 7.87985C20.1825 7.96996 19.8464 8.10254 19.3601 7.97139C18.94 7.85811 18.7563 7.92419 18.717 7.97139C18.6914 8.06972 18.5671 8.27936 18.2745 8.33127C17.9087 8.39617 16.363 8.99205 15.832 9.45223C15.6606 9.60079 15.5814 9.69709 15.5285 9.76137C15.4961 9.8008 15.4736 9.82818 15.4458 9.84819C15.3826 9.89367 15.2919 9.90105 14.9953 9.92521L14.9352 9.93011C14.3594 9.97731 14.0188 10.0481 13.9205 10.0776C13.6923 9.93347 13.7026 9.85463 13.711 9.79081L13.711 9.79081C13.7125 9.7794 13.714 9.76846 13.714 9.75773C13.3812 10.2 13.5927 10.2159 14.0452 10.2499C14.2505 10.2654 14.5056 10.2845 14.7818 10.349C15.6668 10.5555 13.9736 11.0688 14.3217 10.703C14.6001 10.4104 14.0326 10.467 13.714 10.5319C13.7238 10.6432 13.6538 10.93 13.2951 11.1868C12.8467 11.5077 11.5783 12.7207 11.2597 13.0747C11.0048 13.3579 11.1181 13.4954 11.2066 13.5288C11.0945 13.5288 10.8153 13.6232 10.5955 14.0009C10.3815 14.3687 9.90317 15.2393 9.67321 15.6607C9.69272 15.5954 9.71817 15.4222 9.73273 15.0386C9.74417 14.7375 9.66775 14.6568 9.61268 14.5986C9.57187 14.5555 9.54278 14.5247 9.56985 14.4259C9.61409 14.4259 9.95838 13.8682 9.46725 14.2066C9.33731 14.2962 9.21427 14.3751 9.09996 14.4484L9.09995 14.4484C8.7822 14.6523 8.53177 14.8129 8.38739 15.0386C8.58096 14.5851 8.96949 13.8713 9.46725 13.42C9.51494 13.3768 9.55892 13.3371 9.59954 13.3006L9.60017 13.3L9.60048 13.2997L9.60061 13.2996C10.0888 12.8598 10.0889 12.8598 10.1807 12.301C10.2279 12.0138 10.1881 12.0651 10.0881 12.194C9.9772 12.3369 9.79229 12.5751 9.56985 12.5533C9.23138 12.5202 8.929 12.8526 8.929 12.8526C8.929 12.8526 8.92149 11.9069 8.95797 11.6794C9.23849 9.93011 9.94843 9.65282 9.94843 9.65282C9.94843 9.65282 10.3616 9.65956 10.7199 9.31445C11.0783 8.96934 10.7144 8.56781 10.4877 8.41019C10.6342 8.42955 11.0369 8.40355 11.4749 8.14472C11.9129 7.88589 12.9626 7.95391 13.4327 8.02028C14.14 7.73843 14.5371 7.71566 15.0654 7.68537C15.3612 7.66841 15.6982 7.64908 16.1538 7.58059C16.5061 7.52763 16.7537 7.46614 16.9506 7.41374C16.9531 7.23304 16.6489 7.11262 16.4939 7.07455C16.6045 7.05795 17.058 6.98495 17.9872 6.82571C18.9163 6.66647 19.674 6.6432 19.9367 6.65147L19.549 6.89073C19.5846 6.87276 19.8558 6.87574 20.6917 7.02476ZM9.65495 15.6942C9.65968 15.6942 9.66605 15.6847 9.67321 15.6607L9.65495 15.6942ZM30.9097 7.86897C30.059 7.64942 28.9778 7.86131 28.5436 7.9947C29.2628 7.9311 29.7022 7.98995 29.832 8.02733L29.7891 7.94921C29.9891 7.97421 30.1484 8.04296 30.2031 8.07421C30.5031 8.08983 30.9714 8.15624 31.168 8.18749H30.4805C30.5508 8.22786 30.7664 8.3039 31.0664 8.28515C31.4414 8.26171 31.6317 8.2578 31.543 8.53905C31.472 8.76405 31.5726 8.87271 31.6317 8.89891C31.7216 8.98251 31.9242 9.20082 32.015 9.40524C32.1059 9.60967 32.2453 9.61661 32.3037 9.59453C32.3179 9.67806 32.368 9.88491 32.4551 10.0441C32.4865 10.1014 32.488 10.1461 32.4892 10.1818C32.4921 10.2698 32.4932 10.3024 32.9378 10.3327C32.7753 10.3616 32.9055 10.4592 33.0171 10.543C33.1047 10.6087 33.1809 10.6659 33.0951 10.6745C32.8512 10.6989 32.2657 10.9998 32.7536 10.9347C33.1439 10.8827 33.339 10.9564 33.3878 10.9998C33.2837 10.6095 33.7022 10.7179 33.9245 10.8209C33.9407 10.9049 34.0763 11.1477 34.4884 11.447C34.9006 11.7462 35.634 12.5637 35.9492 12.935L35.8033 13.1139C35.8655 13.2413 36.0142 13.4489 36.1118 13.2602C36.2094 13.0716 36.3422 12.916 36.3964 12.8618C36.5644 13.0543 37.0241 13.5188 37.5185 13.8376C38.0129 14.1563 37.551 13.5367 37.2583 13.1871C36.9249 12.9431 36.1964 12.3772 35.9492 12.065C35.7159 11.7704 35.9784 11.8096 36.2959 11.857C36.3991 11.8724 36.5081 11.8887 36.6078 11.8947C37.0144 11.919 36.7704 11.5531 36.3964 11.2116C36.1634 10.9989 36.1651 10.8872 36.1657 10.843C36.1659 10.8304 36.166 10.8233 36.1606 10.8209C36.0902 10.8639 36.0155 10.8072 35.943 10.7522C35.8949 10.7157 35.8477 10.6799 35.8033 10.6745C35.8033 10.5885 35.7957 10.5556 35.7927 10.5423C35.7915 10.5371 35.791 10.5349 35.7919 10.5337C35.7925 10.5328 35.794 10.5324 35.7965 10.5318C35.8089 10.5287 35.8478 10.519 35.9492 10.4026C36.1248 10.201 36.0223 9.90912 35.9492 9.91726L35.7543 9.66557C35.6733 9.62573 35.6573 9.53584 35.6406 9.44228C35.6273 9.36729 35.6135 9.28995 35.5655 9.23412C35.5007 9.15875 35.4705 9.10088 35.4474 9.05673C35.4316 9.02648 35.4192 9.00267 35.4013 8.9841C35.3353 8.9155 35.1951 8.91828 34.5371 8.93135L34.4884 8.93231C33.5646 8.95061 33.2574 8.69602 33.2193 8.56643C32.8039 8.42542 31.7603 8.08852 30.9097 7.86897ZM8.32182 18.3147L8.05352 18.478C7.83188 19.0108 7.19729 20.3188 6.43205 21.2894C5.66681 22.2599 5.841 24.229 6.02376 25.0923C5.876 25.9788 5.68313 28.2839 6.09375 30.4116C6.44759 30.7344 7.27193 31.1372 7.73854 30.1667C7.88241 30.4311 8.32181 31.1746 8.9284 32.0331C9.55835 32.9247 9.51196 32.9226 9.08355 32.9031C8.9963 32.8991 8.89321 32.8944 8.77675 32.8964C8.0885 32.908 8.15849 33.2813 8.9284 34.0279C9.17846 34.2704 9.48389 34.6802 9.8363 35.1531L9.83631 35.1531C10.569 36.1361 11.5046 37.3917 12.568 37.9824C13.8278 38.6823 14.8738 39.3006 15.2393 39.5222L14.9244 39.6506C15.1499 39.7555 15.8436 40.0122 16.8141 40.1988C17.7847 40.3855 17.8485 40.7354 17.759 40.8871C17.9807 41.0115 18.7412 41.3047 20.0104 41.482C20.0493 41.3576 20.1994 41.0434 20.4887 40.7821C20.4459 40.9065 20.7873 41.153 22.4951 41.1437C23.506 41.1382 24.0931 41.0228 24.5649 40.9301C25.0894 40.827 25.4714 40.752 26.1347 40.8871L26.9163 41.3887C27.5773 41.2759 29.317 40.7564 30.9875 39.5806C32.1286 38.7773 33.1357 38.333 33.8553 38.0156L33.8553 38.0155L33.8554 38.0155C34.1892 37.8682 34.4611 37.7483 34.6558 37.6325C34.7685 37.8191 35.0617 38.2321 35.3323 38.3907C35.4888 38.4824 35.5405 38.4044 35.6143 38.2929C35.7001 38.1634 35.8158 37.9887 36.1606 37.9824C36.6593 37.9733 36.7178 37.8585 36.9109 37.479C36.9662 37.3704 37.0325 37.24 37.1234 37.0842C37.2716 36.8301 37.4436 36.4991 37.6271 36.1458L37.6271 36.1458L37.6272 36.1456L37.6272 36.1455L37.6273 36.1454C37.9493 35.5256 38.3067 34.8375 38.6336 34.3769C38.9271 33.9634 39.0396 33.2985 39.1279 32.7765C39.194 32.3855 39.2466 32.0747 39.3515 32.0098C39.4376 31.9565 39.4892 31.9926 39.5329 32.0233C39.6137 32.0798 39.6681 32.118 39.8648 31.5432C39.9629 31.2563 40.011 31.0611 40.0406 30.9408C40.0661 30.8369 40.0779 30.789 40.0963 30.7863C40.1121 30.784 40.1327 30.815 40.1709 30.8724C40.1961 30.9102 40.2289 30.9594 40.273 31.0182C40.3559 31.1287 40.406 31.238 40.4428 31.3183C40.5305 31.5095 40.5425 31.5358 40.7397 31.0182C41.0196 30.2833 42.2445 27.0987 42.2445 27.0987C42.0578 27.052 41.7149 26.7371 41.8362 25.8505C41.8998 25.3856 41.8793 25.087 41.8641 24.8668C41.8431 24.5622 41.8325 24.4077 42.0695 24.1707L42.1173 24.123C42.5247 23.7169 43.0974 23.146 42.8394 22.6076C42.7181 22.3543 42.4822 22.3564 42.2969 22.358C42.0725 22.36 41.9222 22.3613 42.1395 21.9076C42.3844 21.3961 42.2557 21.4141 41.9949 21.4504C41.8335 21.4729 41.6215 21.5025 41.4162 21.4177C40.9287 21.2163 40.9419 20.8416 40.9659 20.1622C40.9683 20.0939 40.9708 20.0225 40.973 19.9479C40.9842 19.5539 40.8516 19.5808 40.6719 19.6173C40.4793 19.6563 40.2325 19.7064 40.0514 19.2596C39.7015 18.3964 38.8032 16.1916 38.9549 17.2065C39.1065 18.2214 39.1182 19.0147 39.0949 19.2596C39.0876 19.3361 39.0279 19.3034 38.9629 19.2677C38.8196 19.1891 38.65 19.096 38.9549 20.1229C39.2088 20.9783 39.1565 21.6351 39.1181 22.1169C39.0895 22.4761 39.0686 22.738 39.1882 22.9124C39.4681 23.3207 39.4915 23.5657 38.9549 23.7756C38.9277 23.9545 38.9256 24.3911 38.9256 24.3911C38.9256 24.3911 39.6315 24.2407 39.3982 24.6956C39.3779 24.7351 39.3604 24.7686 39.3452 24.7976C39.2901 24.9026 39.2666 24.9475 39.2637 24.9936C39.2616 25.0281 39.271 25.0632 39.2874 25.1246L39.2874 25.1247C39.313 25.2203 39.3556 25.3796 39.3982 25.6989C39.5148 26.5738 39.4681 27.3437 39.0949 28.1136C38.9098 28.4953 39.0057 28.4526 39.1097 28.4064C39.2154 28.3594 39.3295 28.3086 39.1648 28.6968C39.0169 29.0455 38.8858 29.2602 38.7703 29.4492C38.6307 29.6777 38.514 29.8687 38.4183 30.2133C38.387 30.3258 38.3643 30.441 38.3407 30.5609C38.232 31.1123 38.1032 31.7653 37.0301 32.733C36.3281 33.3661 36.3232 33.2784 36.3206 33.2319C36.3184 33.1918 36.3178 33.1822 35.8752 33.6896C34.9187 34.7861 33.8571 35.4627 32.8539 35.941C32.435 36.1407 32.0812 36.2387 31.84 36.3055C31.5036 36.3987 31.3864 36.4312 31.6174 36.5942C32.014 36.8742 32.1773 37.0142 31.4658 37.2825C30.7542 37.5508 30.5092 37.6791 30.9875 37.9591C31.3701 38.1831 31.3802 38.379 31.3374 38.449C30.8903 38.904 29.324 39.8092 26.6363 39.7905C23.2767 39.7672 21.5852 39.8022 20.1737 39.9422L18.4356 39.5222V39.7089C18.2023 39.6933 17.5514 39.5572 16.8141 39.1373C16.0769 38.7173 15.3482 38.0291 15.076 37.7374L15.5193 38.554C15.1266 38.4218 14.1638 37.9078 13.4545 36.9092L13.9445 36.8276C13.3884 36.4309 11.8657 34.9798 10.2233 32.3481C9.37434 30.9879 8.94225 30.6109 8.69856 30.3983L8.69854 30.3983C8.62243 30.3319 8.56469 30.2815 8.51838 30.2222C8.3729 30.036 8.34009 29.7618 8.20423 28.6262L8.20419 28.6259C8.18689 28.4813 8.16792 28.3227 8.14683 28.1486C7.73854 24.7773 8.12528 23.0625 8.929 22.1759C8.73438 22.0632 8.20982 21.84 7.66855 21.8493C7.5869 21.6043 7.60324 20.5545 8.32182 18.3147ZM22 16H26V22H32V26H26V32H22V26H16V22H22V16Z"/></svg>