<svg xmlns="http://www.w3.org/2000/svg" viewBox="0 0 48 48" class="ability-icon createSvgIcon__Svg-sc-1l8xi8d-0 ldKivg"><title>Reyna - C</title><path fill-rule="evenodd" clip-rule="evenodd" d="M24 40C26.1219 40 28.1474 39.5869 30.0004 38.8368C30.054 38.8076 30.1275 38.7746 30.2222 38.7378C32.1905 37.9715 33.1422 36.5053 34.256 34.7895C34.6512 34.1807 35.0669 33.5404 35.5556 32.8889L35.5557 32.8887C35.7253 32.6626 35.8886 32.448 36.0459 32.2443C36.4321 31.9318 36.6863 32.2569 36.9275 32.5655C37.4244 33.2012 37.8662 33.7664 39.2932 28.5397L39.3698 28.4611C39.7801 27.0451 40 25.5482 40 24C40 21.8223 39.5649 19.7462 38.777 17.8539C38.1981 16.5592 37.6201 16.1912 36.9392 15.7576C36.5241 15.4933 36.0707 15.2046 35.5556 14.6666C35.3692 14.4721 35.1768 14.2688 34.9784 14.0592C33.1688 12.1472 30.8597 9.70755 28.095 8.52882C26.7879 8.1838 25.4154 8 24 8C22.0445 8 20.1709 8.35082 18.4387 8.99296C15.6318 10.3087 14.6556 12.0754 13.8067 13.6116L13.8067 13.6116C13.5095 14.1494 13.228 14.659 12.8889 15.1111L12.8888 15.1112C11.5555 16.4444 10.2222 15.1111 10.2222 13.7778C9.33333 15.5556 8 19.1111 7.99998 24L8 24.014C8.00149 25.7494 8.27925 27.4201 8.79169 28.9846C8.92524 29.0995 9.06012 29.2137 9.19546 29.3283L9.19549 29.3283C9.69323 29.7498 10.1974 30.1767 10.6667 30.6667C11.2376 31.2628 11.7058 32.0603 12.225 32.9448C13.4028 34.9511 14.8434 37.4049 18.3414 38.9706C20.1006 39.6359 22.0078 40 24 40ZM24 36.4444C24 36.4444 29.3333 30.8729 29.3333 24C29.3333 17.1271 24 11.5555 24 11.5555C24 11.5555 18.6667 17.1271 18.6667 24C18.6667 30.8729 24 36.4444 24 36.4444ZM34.8726 10.6666C36.8537 11.7445 38.2011 13.1449 37.8938 13.6994C37.5587 14.3043 36.162 13.2666 34.8726 10.6666ZM12.0565 36.1044C10.0893 34.8852 8.80105 33.4101 9.15976 32.9007C9.55103 32.3451 10.9173 33.4736 12.0565 36.1044ZM13.9762 9.63827C13.3273 11.6691 12.2977 13.1505 11.7623 12.9441C11.1783 12.7188 11.8806 11.2454 13.9762 9.63827Z"/></svg>