<svg xmlns="http://www.w3.org/2000/svg" viewBox="0 0 48 48" class="ability-icon createSvgIcon__Svg-sc-1l8xi8d-0 ldKivg"><title>Reyna - X</title><path fill-rule="evenodd" clip-rule="evenodd" d="M29.6629 32.4211L32.1975 33.5363L34.5883 34.5883L33.5363 32.1974L32.4211 29.6628C32.7966 29.1056 33.1182 28.5091 33.3785 27.8808C33.4974 27.5936 33.6036 27.2998 33.6962 27C33.7495 26.8278 33.7982 26.6537 33.8424 26.4777C33.9189 26.1726 33.9817 25.8621 34.0299 25.5468L34.2352 25.4757L34.6483 25.3328L35.1908 25.1451L35.2898 25.7395L35.3332 26L35.3704 26.223C35.1444 26.4063 34.9999 26.6863 34.9999 27C34.9999 27.0261 35.0009 27.0519 35.0029 27.0775C35.0225 27.334 35.139 27.5635 35.3158 27.7294C35.3287 27.7415 35.3419 27.7533 35.3555 27.7647C35.5295 27.9116 35.7544 28.0001 35.9999 28.0001C36.4881 28.0001 36.8946 27.6503 36.9824 27.1877C36.9939 27.1269 37 27.0642 37 27C37 26.7946 36.938 26.6035 36.8317 26.4447C36.731 26.2942 36.5906 26.1725 36.4254 26.0948C36.3989 26.0823 36.3717 26.0709 36.3439 26.0607C36.2367 26.0215 36.1208 26 35.9999 26H35.9999V25.0102V25.0023V24.8651H35.9999L36.6842 24.6283L36.8823 24.5598L37.1275 24.4749L38.5 24L37.1274 23.5251L36.8823 23.4403L36.6843 23.3717L35.9999 23.135V22.9978V22.9898V22C36.1208 22 36.2366 21.9786 36.3439 21.9393C36.3717 21.9291 36.3989 21.9177 36.4254 21.9052C36.5906 21.8275 36.731 21.7058 36.8316 21.5554C36.9379 21.3965 36.9999 21.2055 36.9999 21C36.9999 20.9358 36.9939 20.8731 36.9823 20.8123C36.8945 20.3497 36.488 20 35.9999 20C35.7544 20 35.5295 20.0885 35.3555 20.2353C35.342 20.2467 35.3287 20.2585 35.3158 20.2706C35.139 20.4366 35.0225 20.666 35.0029 20.9226C35.0009 20.9481 34.9999 20.974 34.9999 21C34.9999 21.3137 35.1444 21.5937 35.3704 21.7771L35.3332 22L35.2898 22.2606L35.1908 22.855L34.6483 22.6673L34.2352 22.5243L34.0299 22.4533C33.9817 22.138 33.919 21.8274 33.8424 21.5224C33.7982 21.3464 33.7495 21.1722 33.6963 21C33.6036 20.7002 33.4975 20.4064 33.3785 20.1192C33.1182 19.4909 32.7966 18.8944 32.4212 18.3371L33.5364 15.8026L34.5884 13.4118L32.1975 14.4637L29.663 15.5789C29.1057 15.2034 28.5091 14.8818 27.8807 14.6215C27.5936 14.5025 27.2997 14.3963 27 14.3037C26.8278 14.2505 26.6536 14.2017 26.4776 14.1576C26.1726 14.081 25.862 14.0183 25.5467 13.9701L25.4757 13.7647L25.3327 13.3516L25.145 12.8092L25.7394 12.7101L26 12.6667L26.223 12.6295C26.4063 12.8556 26.6863 13 27 13C27.026 13 27.0519 12.999 27.0774 12.9971C27.334 12.9774 27.5634 12.861 27.7293 12.6842C27.7415 12.6712 27.7533 12.658 27.7647 12.6444C27.9115 12.4704 28 12.2455 28 12C28 11.5119 27.6503 11.1055 27.1877 11.0176C27.1269 11.0061 27.0642 11 27 11C26.7945 11 26.6035 11.062 26.4446 11.1683C26.2942 11.269 26.1725 11.4094 26.0948 11.5745C26.0823 11.6011 26.0709 11.6283 26.0607 11.6561C26.0214 11.7633 26 11.8792 26 12H25.0102H25.0023H24.8651L24.6283 11.3157L24.5597 11.1177L24.4749 10.8725L24 9.50002L23.5251 10.8725L23.4403 11.1177L23.3717 11.3157L23.135 12H22.9977H22.9898H22C22 11.8792 21.9786 11.7633 21.9393 11.6561C21.9291 11.6283 21.9177 11.6011 21.9052 11.5745C21.8274 11.4094 21.7058 11.269 21.5554 11.1683C21.3965 11.062 21.2055 11 21 11C20.9358 11 20.8731 11.0061 20.8123 11.0176C20.3497 11.1055 20 11.5119 20 12C20 12.2455 20.0885 12.4704 20.2353 12.6444C20.2467 12.658 20.2585 12.6712 20.2706 12.6842C20.4366 12.861 20.666 12.9774 20.9226 12.9971C20.9481 12.999 20.9739 13 21 13C21.3137 13 21.5937 12.8556 21.777 12.6295L22 12.6667L22.2606 12.7101L22.855 12.8092L22.6673 13.3516L22.5243 13.7647L22.4533 13.97C22.138 14.0183 21.8274 14.081 21.5224 14.1576C21.3464 14.2017 21.1722 14.2505 21 14.3037C20.7002 14.3963 20.4064 14.5025 20.1192 14.6215C19.4909 14.8818 18.8943 15.2034 18.3371 15.5789L15.8026 14.4637L13.4118 13.4117L14.4637 15.8026L15.5789 18.337C15.2034 18.8943 14.8818 19.4909 14.6215 20.1193C14.5025 20.4064 14.3963 20.7003 14.3037 21C14.2505 21.1722 14.2017 21.3464 14.1576 21.5224C14.081 21.8274 14.0183 22.138 13.9701 22.4533L13.7647 22.5244L13.3516 22.6673L12.8092 22.855L12.7101 22.2606L12.6667 22L12.6295 21.777C12.8555 21.5937 13 21.3137 13 21C13 20.974 12.999 20.9482 12.997 20.9226C12.9774 20.6661 12.861 20.4366 12.6842 20.2707C12.6712 20.2585 12.658 20.2467 12.6444 20.2353C12.4704 20.0885 12.2455 20 12 20C11.5119 20 11.1054 20.3497 11.0176 20.8123C11.006 20.8731 11 20.9358 11 21C11 21.2055 11.062 21.3965 11.1683 21.5554C11.2689 21.7058 11.4093 21.8274 11.5745 21.9052C11.601 21.9177 11.6282 21.9291 11.656 21.9393C11.7633 21.9786 11.8791 22 12 22V22.9899V22.9977V23.135L11.3156 23.3718L11.1177 23.4403L10.8725 23.5251L9.50001 24L10.8724 24.4749L11.1176 24.5598L11.3157 24.6283L12 24.8651V25.0024V25.0102V26C11.8791 26 11.7633 26.0214 11.656 26.0607C11.6283 26.0709 11.601 26.0823 11.5745 26.0948C11.4093 26.1725 11.2689 26.2942 11.1682 26.4446C11.062 26.6035 11 26.7945 11 27C11 27.0642 11.006 27.1269 11.0176 27.1877C11.1054 27.6503 11.5119 28 12 28C12.2455 28 12.4704 27.9115 12.6444 27.7647C12.658 27.7533 12.6712 27.7415 12.6842 27.7293C12.8609 27.5634 12.9774 27.334 12.997 27.0774C12.999 27.0519 13 27.0261 13 27C13 26.6863 12.8555 26.4063 12.6295 26.223L12.6667 26L12.7101 25.7395L12.8091 25.1451L13.3516 25.3328L13.7647 25.4757L13.9701 25.5468C14.0183 25.8621 14.081 26.1726 14.1576 26.4776C14.2017 26.6536 14.2505 26.8278 14.3037 27C14.3964 27.2997 14.5025 27.5935 14.6215 27.8807C14.8818 28.5091 15.2034 29.1057 15.5789 29.663L14.4638 32.1975L13.4118 34.5883L15.8026 33.5363L18.3371 32.4211C18.896 32.7977 19.4944 33.1201 20.1249 33.3808C20.4149 33.5008 20.7118 33.6077 21.0147 33.7008C21.1887 33.7543 21.3648 33.8032 21.5427 33.8475C21.8412 33.9217 22.145 33.9827 22.4532 34.0299L22.5243 34.2353L22.6663 34.6456L22.855 35.1909L22.2605 35.2899L22.0292 35.3285L21.7961 35.3674C21.6099 35.143 21.329 35 21.0147 35C20.9838 35 20.9532 35.0014 20.923 35.0041C20.6692 35.0268 20.4424 35.143 20.2771 35.3179C20.2722 35.323 20.2675 35.3282 20.2627 35.3334L20.2598 35.3366C20.0983 35.5163 20 35.754 20 36.0147C20 36.5273 20.3801 36.9511 20.8738 37.0197C20.9198 37.0261 20.9669 37.0294 21.0147 37.0294C21.2185 37.0294 21.4082 36.9693 21.5672 36.8659C21.7359 36.7561 21.87 36.5976 21.9494 36.4103C21.9544 36.3983 21.9592 36.3863 21.9639 36.3741C22.0045 36.2667 22.0275 36.1506 22.0292 36.0293L22.0294 36.0147L22.0292 36H22.9898H22.9977H23.135L23.1373 36.0069L23.14 36.0147L23.3718 36.6844L23.4403 36.8824L23.5413 37.1744L24 38.5L24.4749 37.1275L24.5597 36.8824L24.6283 36.6844L24.865 36H25.0023H25.0102H26C26 36.1209 26.0214 36.2367 26.0607 36.344C26.0709 36.3718 26.0823 36.399 26.0948 36.4255C26.1725 36.5907 26.2942 36.7311 26.4446 36.8318C26.6035 36.938 26.7945 37 27 37C27.0642 37 27.1269 36.994 27.1877 36.9824C27.6503 36.8946 28 36.4881 28 36C28 35.7545 27.9115 35.5297 27.7647 35.3556C27.7588 35.3486 27.7528 35.3417 27.7467 35.3348C27.741 35.3284 27.7352 35.3221 27.7293 35.3158C27.5634 35.139 27.3339 35.0226 27.0774 35.003C27.0519 35.001 27.026 35 27 35C26.6863 35 26.4063 35.1445 26.223 35.3705L26 35.3334L25.7395 35.2899L25.145 35.1909L25.3327 34.6484L25.4757 34.2353L25.5468 34.0299C25.8621 33.9817 26.1726 33.9189 26.4776 33.8424C26.6536 33.7982 26.8278 33.7495 27 33.6962C27.2997 33.6036 27.5935 33.4975 27.8806 33.3785C28.509 33.1182 29.1056 32.7966 29.6629 32.4211ZM36.2036 33.8776L34.4081 29.7969C34.4816 29.6652 34.5527 29.5319 34.6213 29.3971C35.0271 29.631 35.4979 29.7648 35.9999 29.7648C37.5269 29.7648 38.7647 28.527 38.7647 27C38.7647 26.5938 38.6771 26.208 38.5197 25.8606L39.0771 25.6677L43.8967 24L39.0771 22.3323L38.5196 22.1395C38.677 21.792 38.7646 21.4062 38.7646 21C38.7646 19.4731 37.5268 18.2353 35.9999 18.2353C35.4979 18.2353 35.0272 18.3691 34.6214 18.603C34.5528 18.4682 34.4817 18.3348 34.4081 18.2031L36.2036 14.1225L38.0312 9.96898L33.8776 11.7965L29.7971 13.5919C29.6653 13.5184 29.5319 13.4472 29.397 13.3786C29.6309 12.9728 29.7647 12.502 29.7647 12C29.7647 10.4731 28.5269 9.23531 27 9.23531C26.5938 9.23531 26.208 9.32293 25.8605 9.48029L25.6677 8.92296L24 4.10333L22.3323 8.92296L22.1395 9.4803C21.792 9.32293 21.4062 9.23531 21 9.23531C19.4731 9.23531 18.2353 10.4731 18.2353 12C18.2353 12.502 18.3691 12.9728 18.603 13.3786C18.4681 13.4472 18.3348 13.5183 18.203 13.5919L14.1225 11.7965L9.9689 9.96892L11.7965 14.1225L13.5919 18.2029C13.5184 18.3347 13.4472 18.4681 13.3786 18.603C12.9728 18.3691 12.502 18.2353 12 18.2353C10.4731 18.2353 9.23528 19.4731 9.23528 21C9.23528 21.4063 9.3229 21.792 9.48028 22.1395L8.92296 22.3323L4.10333 24L8.92296 25.6677L9.48026 25.8606C9.32289 26.208 9.23528 26.5938 9.23528 27C9.23528 28.5269 10.4731 29.7647 12 29.7647C12.502 29.7647 12.9728 29.6309 13.3786 29.397C13.4473 29.5319 13.5184 29.6653 13.592 29.7971L11.7965 33.8776L9.96896 38.0312L14.1225 36.2036L18.2031 34.4081C18.3364 34.4825 18.4714 34.5544 18.6078 34.6238C18.3709 35.0329 18.2353 35.508 18.2353 36.0147C18.2353 37.5497 19.4797 38.7941 21.0147 38.7941C21.4194 38.7941 21.8039 38.7076 22.1507 38.5521L22.3323 39.0771L24 43.8967L25.6677 39.0771L25.8605 38.5197C26.208 38.6771 26.5938 38.7647 27 38.7647C28.5269 38.7647 29.7647 37.5269 29.7647 36C29.7647 35.498 29.6309 35.0272 29.397 34.6214C29.5318 34.5527 29.6652 34.4816 29.797 34.4081L33.8776 36.2036L38.0311 38.0312L36.2036 33.8776ZM24 32C25.5267 32 26.9535 31.5724 28.1671 30.8304L28.5 28.5L30.8304 28.1671C31.5724 26.9535 32 25.5267 32 24C32 22.4734 31.5724 21.0466 30.8304 19.8329L28.5 19.5L28.1671 17.1697C26.9535 16.4276 25.5267 16 24 16C22.4734 16 21.0466 16.4276 19.8329 17.1697L19.5 19.5L17.1697 19.8329C16.4276 21.0466 16 22.4734 16 24C16 25.5267 16.4276 26.9535 17.1697 28.1671L19.5 28.5L19.8329 30.8304C21.0466 31.5724 22.4734 32 24 32ZM26.2059 21.7941C25.7339 21.3221 25.0671 20.7402 24.5904 20.3348C24.249 20.0445 23.751 20.0445 23.4096 20.3348C22.9329 20.7402 22.2662 21.3221 21.7941 21.7941C21.3221 22.2661 20.7402 22.9329 20.3349 23.4096C20.0445 23.751 20.0445 24.249 20.3349 24.5904C20.7402 25.0671 21.3221 25.7339 21.7941 26.2059C22.2662 26.678 22.9329 27.2598 23.4096 27.6652C23.751 27.9555 24.249 27.9555 24.5904 27.6652C25.0671 27.2598 25.7339 26.678 26.2059 26.2059C26.678 25.7339 27.2598 25.0671 27.6652 24.5904C27.9555 24.249 27.9555 23.751 27.6652 23.4096C27.2598 22.9329 26.678 22.2661 26.2059 21.7941Z"/></svg>