<svg width="48" height="48" viewBox="0 0 48 48" fill="none" xmlns="http://www.w3.org/2000/svg">
<path fill-rule="evenodd" clip-rule="evenodd" d="M21.4469 11.1522C20.8299 12.0626 20.4537 13.0333 20.3784 14.1244L20.317 14.1116C20.1206 14.0709 19.9297 14.0312 19.7388 14.004C18.1963 13.7858 16.8042 14.2071 15.5175 15.0273C15.2717 15.1828 15.0393 15.3651 14.8069 15.5473L14.8069 15.5473C14.6907 15.6385 14.5745 15.7296 14.4566 15.8174C14.1857 16.0206 14.1631 16.0206 14.0503 15.7045C13.5386 14.2222 13.8772 12.9054 14.878 11.7466C15.6831 10.8136 16.7516 10.3771 17.963 10.3019C19.039 10.2342 20.0774 10.3696 21.0406 10.9039C21.157 10.9685 21.2678 11.0387 21.3874 11.1145L21.4469 11.1522ZM10.0472 13.9513C10.6642 13.9287 11.2737 14.0115 11.8832 14.1996C11.9434 13.1236 12.3046 12.1529 12.899 11.2425C12.86 11.2165 12.8217 11.1905 12.7836 11.1647C12.6893 11.1008 12.5967 11.0381 12.5002 10.9791C11.522 10.3997 10.446 10.2342 9.33234 10.3019C8.04564 10.3771 6.932 10.8512 6.1043 11.8745C5.16373 13.0333 4.8778 14.3351 5.40452 15.7647C5.49481 16.013 5.50986 16.013 5.72807 15.855C5.87036 15.7521 6.00899 15.6431 6.14788 15.5338L6.14789 15.5338L6.1479 15.5338L6.1479 15.5338L6.14791 15.5338C6.35424 15.3716 6.56116 15.2088 6.78151 15.0649C7.77476 14.4178 8.85077 14.0115 10.0472 13.9513ZM31.1461 16.0356C30.9128 15.5766 30.815 15.1477 30.7774 14.7038C30.6194 12.9204 31.8835 11.107 33.8474 10.5351C34.8106 10.2567 35.7887 10.2643 36.7669 10.4148C37.9408 10.5953 39.0243 10.9791 39.9574 11.7316C40.9506 12.5292 41.5751 13.5751 41.9739 14.7715C42.3125 15.8099 42.463 16.8784 42.4781 17.9694C42.4781 18.007 42.4706 18.0522 42.4555 18.1049C41.2967 16.0657 39.5435 14.8693 37.2636 14.4329C34.9761 13.9889 32.9144 14.4329 31.1461 16.0356ZM26.0218 15.8475C26.827 15.4713 27.6848 15.3659 28.5651 15.7421C28.6103 15.7647 28.6554 15.7873 28.7006 15.8023C28.9865 15.9227 29.1822 16.0958 29.2725 16.4194C29.3928 16.8708 29.6637 17.2471 30.055 17.5255C30.7548 18.0296 31.6728 17.9995 32.35 17.4502C32.4704 17.3524 32.5908 17.2696 32.7187 17.1869C32.7462 17.1649 32.7816 17.151 32.8338 17.1304C32.8532 17.1228 32.8749 17.1143 32.8993 17.1041C32.9387 17.2224 32.98 17.3379 33.0209 17.4523L33.0209 17.4524L33.0209 17.4524L33.0209 17.4524L33.0209 17.4525L33.0209 17.4525L33.021 17.4526C33.097 17.6655 33.1717 17.8745 33.2304 18.0898C33.6217 19.4743 33.8399 20.8965 33.9904 22.3262C34.1559 23.9138 34.2086 25.509 34.1409 27.1043C34.0355 29.5196 33.6668 31.8899 32.9294 34.1999C32.9143 34.2526 32.8918 34.3053 32.8842 34.3203C31.7397 34.2488 30.6009 34.1773 29.462 34.1057C28.3247 34.0343 27.1874 33.9629 26.0444 33.8914C26.0444 33.9065 26.0369 33.8688 26.0444 33.8463C26.4808 32.379 26.7292 30.8816 26.9173 29.3616C27.1957 27.1344 27.3462 24.892 27.3386 22.6497C27.3311 20.8965 27.1505 19.1658 26.6389 17.4803C26.5336 17.1145 26.3884 16.7588 26.2408 16.3974L26.2408 16.3974C26.1668 16.2161 26.0922 16.0335 26.0218 15.8475ZM10.3406 15.5089C9.80639 15.5014 9.30976 15.6218 8.82067 15.8625C9.1367 16.3366 9.32481 16.8483 9.46778 17.3599C9.98698 19.1959 10.1676 21.0846 10.2503 22.9808C10.3331 24.9598 10.2503 26.9387 10.0321 28.9102C9.85906 30.4602 9.60322 31.9952 9.24204 33.5077C9.12576 34.0116 8.99317 34.5114 8.85927 35.0162L8.85925 35.0162L8.85923 35.0163L8.85921 35.0164L8.85919 35.0165L8.85917 35.0165L8.85915 35.0166C8.81115 35.1976 8.76297 35.3792 8.71532 35.5619C8.76047 35.5619 8.80562 35.5544 8.84324 35.5468C10.8448 35.0803 12.8764 34.7342 14.9231 34.4859C15.0962 34.4633 15.1564 34.388 15.2015 34.2451C15.2678 34.019 15.3382 33.793 15.4086 33.5667L15.4087 33.5666L15.4087 33.5666L15.4087 33.5666L15.4087 33.5665L15.4087 33.5665L15.4087 33.5665L15.4087 33.5665C15.5539 33.0998 15.6995 32.632 15.811 32.1608C16.5785 28.9478 16.9096 25.6821 16.9096 22.3788C16.9096 20.9717 16.744 19.5722 16.3452 18.2177C16.268 17.9602 16.1731 17.7096 16.0726 17.4444L16.0726 17.4444C16.0263 17.3222 15.9788 17.197 15.9314 17.0665C15.8208 17.1466 15.7218 17.217 15.6295 17.2826L15.6294 17.2827L15.6293 17.2828C15.5396 17.3466 15.4562 17.4059 15.3746 17.4653C15.051 17.7136 14.6823 17.8566 14.276 17.8641C13.4107 17.8791 12.6582 17.3374 12.3346 16.472C12.3045 16.3893 12.2669 16.2914 12.1992 16.2388C11.665 15.8023 11.0479 15.5239 10.3406 15.5089ZM35.8866 15.8926C35.4351 15.855 34.9836 15.9077 34.5622 16.0356C34.6064 16.1512 34.6517 16.2657 34.6969 16.3798L34.697 16.3801L34.6971 16.3802C34.8135 16.6744 34.9291 16.9661 35.0212 17.2696C35.5555 18.9627 35.8038 20.7159 35.9543 22.4842C36.1499 24.7566 36.1349 27.029 35.8941 29.3014C35.7135 30.9869 35.42 32.6423 34.946 34.2676C34.9228 34.3371 34.9054 34.4066 34.8866 34.4814L34.8866 34.4815L34.8865 34.4815C34.8748 34.5282 34.8626 34.5768 34.8482 34.6288C37.4893 34.9599 40.0476 35.5619 42.606 36.2015L42.6237 35.9112L42.6238 35.9107L42.6238 35.9105L42.6238 35.9104C42.6477 35.5205 42.6707 35.1461 42.6888 34.7718C42.8167 32.3338 42.922 29.8959 42.8092 27.4579C42.7264 25.7799 42.5533 24.117 42.1621 22.4766C41.846 21.1523 41.4021 19.8882 40.6571 18.7445C39.536 17.0289 37.9558 16.0356 35.8866 15.8926ZM20.0473 15.7271C19.1745 15.3734 18.3242 15.4713 17.5266 15.8475C17.5862 15.9964 17.6476 16.143 17.7084 16.2881L17.7085 16.2884L17.7085 16.2885L17.7086 16.2887L17.7086 16.2887C17.8627 16.6567 18.0132 17.0157 18.121 17.3825C18.6628 19.1056 18.8509 20.8814 18.8509 22.6798C18.8509 24.8695 18.6929 27.0365 18.3994 29.2036C18.1888 30.8139 17.8953 32.4016 17.4137 33.9516C17.3914 34.013 17.3732 34.0785 17.353 34.1513C17.346 34.1766 17.3387 34.2028 17.331 34.23C17.4528 34.2205 17.5708 34.2102 17.6865 34.2001L17.6867 34.2L17.6868 34.2L17.6868 34.2C17.9354 34.1783 18.1732 34.1575 18.4145 34.1473C20.2129 34.072 22.0188 33.9968 23.8171 33.929C23.9375 33.929 23.9827 33.8914 24.0128 33.7786C24.0675 33.5653 24.1256 33.3531 24.1836 33.1412L24.1836 33.1412L24.1836 33.1412L24.1836 33.1411L24.1836 33.1411C24.2771 32.7998 24.3703 32.4591 24.4492 32.1156C24.8405 30.3473 25.0662 28.5565 25.2167 26.7506C25.3672 24.9522 25.4801 23.1463 25.3597 21.3329C25.2844 20.2268 25.1189 19.1282 24.7878 18.0672C24.7257 17.8619 24.6485 17.6627 24.5677 17.4541L24.5677 17.454C24.5211 17.3339 24.4734 17.2107 24.4266 17.0815C24.3775 17.1155 24.3307 17.1477 24.2859 17.1785L24.2858 17.1785C24.152 17.2704 24.0352 17.3507 23.9225 17.4352C23.6065 17.6835 23.2603 17.849 22.854 17.8716C21.936 17.9243 21.1534 17.4051 20.8449 16.472C20.7321 16.141 20.544 15.9528 20.2505 15.8249C20.1828 15.7873 20.1151 15.7572 20.0474 15.7271L20.0473 15.7271ZM28.836 14.1168C28.8962 13.0183 29.28 12.0476 29.9271 11.1371C29.8965 11.119 29.8664 11.1012 29.8368 11.0837C29.7064 11.0064 29.586 10.9351 29.4756 10.8738C28.5426 10.3771 27.5343 10.2417 26.5034 10.3094C25.0662 10.3997 23.8773 10.9791 23.0496 12.1906C22.2821 13.3192 22.1015 14.5307 22.6057 15.8174C22.6189 15.8527 22.6373 15.8853 22.6593 15.9245C22.6749 15.9522 22.6923 15.9831 22.711 16.0206C24.4868 14.4856 26.4282 13.5525 28.836 14.1168Z" fill="black"/>
</svg>
