<svg width="48" height="48" viewBox="0 0 48 48" fill="none" xmlns="http://www.w3.org/2000/svg">
<path fill-rule="evenodd" clip-rule="evenodd" d="M8.57072 37.7878H8.57079H8.57086H8.57092C8.65545 37.7873 8.74136 37.7869 8.82912 37.7869C6.76148 33.9974 6.09148 29.999 6.89116 25.7988C7.69804 21.5843 9.80891 18.1118 13.1517 15.4246C18.9512 10.7706 27.0201 10.3239 33.2878 14.3079C36.4073 16.2891 38.7199 18.998 40.0959 22.4344C42.1924 27.672 41.8106 32.8015 39.1882 37.7941C39.292 37.7941 39.395 37.7933 39.4974 37.7924C39.7007 37.7909 39.9019 37.7893 40.1031 37.7941C40.2256 37.8013 40.2904 37.758 40.3409 37.6572C40.4397 37.4545 40.5428 37.2527 40.6461 37.0506L40.6462 37.0504L40.6463 37.0502L40.6464 37.05L40.6465 37.0498L40.6465 37.0497L40.6466 37.0496C40.8442 36.6629 41.0424 36.275 41.2126 35.8777C42.7039 32.4484 43.165 28.8823 42.6607 25.1865C42.3581 22.9603 41.6953 20.8495 40.6507 18.8611C38.6551 15.0644 35.7517 12.1899 31.8614 10.3528C28.0791 8.56608 24.1239 8.12662 20.0391 9.01995C16.1559 9.87006 12.878 11.808 10.2124 14.7546C7.21535 18.0686 5.56556 21.9805 5.20535 26.4328C5.01083 28.8967 5.27018 31.3174 5.98341 33.6876C6.40126 35.0708 6.9632 36.3964 7.67643 37.6572C7.70525 37.7148 7.7917 37.7797 7.84934 37.7797C8.08578 37.7904 8.32222 37.7891 8.57062 37.7878H8.57072ZM32.7979 18.2415C32.236 17.8597 31.6669 17.4778 31.0977 17.096C31.0919 17.1047 31.0849 17.1123 31.0777 17.1201C31.0671 17.1316 31.0559 17.1437 31.0473 17.1609C31.0617 17.1861 31.0761 17.2095 31.0905 17.2329L31.0905 17.2329C31.1049 17.2563 31.1193 17.2797 31.1337 17.3049C32.6611 19.8625 33.0213 22.5641 32.0271 25.3954C31.5228 26.8507 30.6366 28.0538 29.3327 28.9183C28.0215 29.7901 26.5662 30.1359 25.0029 30.071C24.0159 30.0278 23.1081 29.754 22.3012 29.1705C21.7753 28.7887 21.2926 28.3564 20.8676 27.8593C20.7627 27.737 20.6626 27.6099 20.5557 27.4744L20.4785 27.3766H20.7019C21.4439 27.4054 22.186 27.391 22.9208 27.2325C23.843 27.0308 24.6498 26.6201 25.0965 25.7484C25.8962 24.1779 25.9754 22.5857 25.0821 21.0152C24.4121 19.8409 23.4251 19.0124 22.2436 18.3928C20.4785 17.4706 18.6342 17.2257 16.7179 17.8453C15.9326 18.0974 15.1689 18.436 14.535 18.9764C13.3967 19.9417 12.4673 21.0872 11.6964 22.3696C11.6604 22.4344 11.6244 22.4993 11.5812 22.5713C11.6077 22.5789 11.6282 22.5864 11.6459 22.593L11.6459 22.593C11.6619 22.5989 11.6756 22.6039 11.6892 22.6073C12.3232 22.701 12.9356 22.665 13.5263 22.4056C14.1156 22.1512 14.6052 21.7474 15.0937 21.3446L15.0937 21.3446L15.205 21.2529C15.2442 21.2207 15.2835 21.1882 15.3228 21.1556C15.565 20.9552 15.8102 20.7523 16.0767 20.5973C16.7899 20.1795 17.5752 20.1362 18.3677 20.2875C19.0305 20.4172 19.65 20.6478 20.1471 21.1377C20.9684 21.9445 21.2278 23.054 20.7955 24.005C20.5001 24.6462 20.003 25.0352 19.3042 25.1505C18.6774 25.2513 17.9282 24.8047 17.6184 24.1563C17.4599 23.8321 17.4455 23.5079 17.5896 23.1693C17.7409 22.8235 17.9714 22.5785 18.346 22.456C18.0795 22.1391 17.7625 22.031 17.3879 22.0958C16.8259 22.1895 16.4369 22.5353 16.0839 22.9459C15.4859 23.6376 15.2554 24.4805 15.1833 25.3666C15.1394 25.9102 15.1065 26.456 15.0736 27.0016L15.0736 27.0016L15.0736 27.0016L15.0736 27.0017L15.0736 27.0017L15.0736 27.0017C15.0473 27.4395 15.0209 27.877 14.9888 28.3132C14.8447 30.2367 14.0451 31.8433 12.6402 33.1617C12.0999 33.666 11.5163 34.0766 10.7599 34.1703C10.613 34.1866 10.4661 34.1906 10.3161 34.1947C10.2675 34.196 10.2185 34.1973 10.1691 34.1991C10.4501 35.3374 10.8103 36.4252 11.3434 37.4555C11.4011 37.5707 11.4731 37.614 11.6028 37.614H14.4053C14.4377 37.614 14.4683 37.6122 14.4989 37.6104C14.5296 37.6086 14.5602 37.6068 14.5926 37.6068C14.6025 37.442 14.6109 37.2817 14.6191 37.1239C14.6289 36.9368 14.6385 36.753 14.6502 36.5693C14.7151 35.6328 14.7943 34.6962 15.0969 33.7957C15.4355 32.7871 15.9038 31.8577 16.6963 31.1157C18.1011 29.7973 19.9166 30.1863 20.8964 30.95C21.3214 31.2741 21.5304 31.7136 21.4151 32.2467C21.2926 32.7943 20.9324 33.1329 20.3993 33.2914C19.8518 33.4571 19.4627 33.3058 19.1457 32.8303C19.1323 32.8114 19.1188 32.7936 19.105 32.7752C19.0818 32.7445 19.0575 32.7124 19.0305 32.6718C18.8864 32.9456 18.944 33.1977 19.0377 33.4354C19.3691 34.2928 19.8806 35.0348 20.6226 35.5823C21.6384 36.3388 22.7983 36.7711 24.0447 36.9584C25.1469 37.1241 26.242 37.0736 27.3371 36.8719C28.2808 36.699 29.2102 36.4613 30.0531 35.9786C31.5804 35.1069 32.6755 33.8317 33.4679 32.2828C34.527 30.2223 34.8728 28.0178 34.6783 25.7196C34.4621 23.1837 33.8426 20.7558 32.8988 18.4L32.892 18.3861L32.8845 18.3707C32.8601 18.3199 32.8341 18.2656 32.7979 18.2415ZM32.6322 37.6212C32.7826 37.4553 32.9357 37.2922 33.0886 37.1293L33.0886 37.1292L33.0886 37.1292L33.0886 37.1292C33.4338 36.7614 33.778 36.3946 34.0875 36.0002C35.2114 34.5737 35.8814 32.9167 36.3353 31.1733C36.8972 29.0552 36.9837 26.9083 36.6883 24.7398C36.601 24.09 36.4843 23.4435 36.369 22.8046C36.3131 22.4943 36.2574 22.1858 36.2056 21.8797C36.2186 21.896 36.2345 21.9195 36.2527 21.9465C36.2749 21.9793 36.3004 22.017 36.3281 22.0526C37.6248 24.113 38.3957 26.3464 38.547 28.7814C38.7199 31.5767 38.2516 34.2639 37.171 36.8503C37.1195 36.973 37.0593 37.0892 36.9988 37.2061L36.9988 37.2061L36.9988 37.2061L36.9988 37.2062C36.9492 37.3019 36.8994 37.3981 36.854 37.4987C36.8108 37.5996 36.7459 37.6356 36.6379 37.6356C35.7637 37.6308 34.8896 37.6324 34.0155 37.634C33.5784 37.6348 33.1413 37.6356 32.7043 37.6356C32.6683 37.6212 32.6322 37.6212 32.6322 37.6212ZM27.2794 26.6922C27.1209 27.074 26.9264 27.4342 26.559 27.672C26.9768 27.6648 27.3659 27.5351 27.7333 27.3334C29.2462 26.5049 29.9594 25.1865 30.0315 23.4935C30.1179 21.6492 29.6064 19.9705 28.6194 18.4288C27.8774 17.2761 26.8832 16.354 25.8313 15.4895C25.7881 15.4534 25.7089 15.4318 25.644 15.4246C25.1902 15.3886 24.7363 15.3526 24.2824 15.3454C23.281 15.3238 22.294 15.4174 21.2782 15.6191C21.3795 15.6508 21.479 15.6812 21.5768 15.7111C21.8128 15.7833 22.039 15.8525 22.258 15.9289C23.562 16.39 24.6787 17.1464 25.644 18.1334C26.4005 18.9043 27.0489 19.74 27.4163 20.763C27.8486 21.9661 27.9278 23.2125 27.7981 24.4733C27.7189 25.2369 27.5748 25.979 27.2794 26.6922ZM10.4861 25.0568C11.3867 25.5179 12.2872 25.8205 13.267 25.1649C13.2532 25.2935 13.2409 25.4178 13.2289 25.539L13.2289 25.5391C13.2032 25.7981 13.1789 26.0434 13.1445 26.2887C13.022 27.2829 12.8419 28.2699 12.5033 29.2137C12.3376 29.6748 12.1503 30.1359 11.8045 30.5033C11.6244 30.6978 11.4011 30.8707 11.1633 30.9716C10.6806 31.1805 10.2844 30.9932 10.0683 30.5105C9.88815 30.0998 9.83772 29.6604 9.82331 29.2209C9.7945 27.8377 10.0322 26.4905 10.4357 25.1649C10.4418 25.1495 10.4493 25.1355 10.4569 25.1211C10.4672 25.1017 10.4778 25.0816 10.4861 25.0568ZM17.0132 37.6068H20.0535C18.7783 36.6558 17.957 35.395 17.3158 33.9542C16.8331 35.1717 16.7827 36.3748 17.0132 37.6068Z" fill="black"/>
</svg>
