<svg width="48" height="48" viewBox="0 0 48 48" fill="none" xmlns="http://www.w3.org/2000/svg">
<path fill-rule="evenodd" clip-rule="evenodd" d="M24.4505 5.14282C24.4726 5.27558 24.4968 5.40767 24.5209 5.5397L24.5209 5.53973C24.5767 5.84525 24.6324 6.15042 24.6632 6.46274C24.7218 7.11537 24.9565 7.702 25.3451 8.20796C25.709 8.6758 26.095 9.12153 26.4822 9.56865C26.6412 9.75227 26.8004 9.93613 26.9583 10.1218C27.0231 10.1982 27.0879 10.2738 27.1525 10.3492L27.1526 10.3493C27.2926 10.5127 27.4315 10.6749 27.567 10.8405C28.0509 11.4418 28.2123 12.1531 28.2709 12.901C28.353 13.9322 28.2852 14.9587 28.2172 15.988C28.2001 16.247 28.183 16.506 28.1683 16.7654C28.1243 17.616 28.1023 18.4593 28.1096 19.3099C28.1169 19.7646 28.3809 20.0799 28.7256 20.0799C28.9456 20.0799 29.2095 20.0066 29.3782 19.8746C29.6642 19.6473 29.9282 19.3613 30.1408 19.0606C30.5001 18.562 30.6834 17.9827 30.8594 17.4034C31.1601 16.3841 31.6807 15.5042 32.5973 14.9029C32.9126 14.6902 33.2646 14.5509 33.6606 14.6242C34.0346 14.6976 34.2546 14.9469 34.3645 15.2915C34.3865 15.3649 34.3425 15.4748 34.2985 15.5555C34.0781 15.9537 33.858 16.3523 33.6379 16.751L33.6375 16.7518C32.9132 18.0636 32.1883 19.3767 31.4461 20.6812C30.5661 22.2211 29.6568 23.7463 28.6082 25.1836C28.4827 25.3543 28.3469 25.5181 28.2031 25.6915L28.2031 25.6915L28.203 25.6916C28.1368 25.7715 28.0689 25.8533 27.9996 25.9389C27.9674 25.8529 27.9381 25.7709 27.91 25.6921L27.9099 25.6918C27.8612 25.5556 27.816 25.429 27.765 25.3082C27.4423 24.5309 27.017 23.8197 26.423 23.211C25.1691 21.9278 23.6219 22.1404 22.5293 22.9617C21.6127 23.651 21.1507 24.6189 20.9087 25.7042C20.8794 25.8509 20.8501 26.0049 20.8207 26.1955C20.4907 25.6455 20.1828 25.1249 19.8748 24.6043C19.1995 23.4656 18.5231 22.3269 17.8465 21.1878L17.8455 21.1861L17.8453 21.1858C16.7663 19.3693 15.6866 17.5518 14.6098 15.7315C14.5887 15.6963 14.5625 15.6628 14.5362 15.6292C14.453 15.5227 14.3687 15.4148 14.4411 15.2475C14.5658 14.9615 14.7491 14.7342 15.0644 14.6389C15.3211 14.5656 15.5777 14.6022 15.8197 14.6976C16.5237 14.9835 17.0223 15.5042 17.3889 16.1421C17.6309 16.5748 17.8216 17.0441 17.9756 17.5134C18.2469 18.32 18.5475 19.1046 19.1928 19.6912C19.3321 19.8232 19.5008 19.9332 19.6768 20.0066C20.1388 20.2045 20.5347 20.0139 20.6594 19.5226C20.7107 19.3173 20.7474 19.0973 20.7401 18.8846C20.7034 17.9607 20.6521 17.0368 20.6007 16.1128V16.1128V16.1128L20.5868 15.8743C20.5245 14.8089 20.4617 13.7376 20.5641 12.6664C20.6521 11.7277 21.0627 10.9725 21.6787 10.2978C21.7697 10.1989 21.8613 10.1003 21.9529 10.0016L21.953 10.0015L21.953 10.0015C22.3776 9.54389 22.8032 9.08513 23.1892 8.59661C23.9445 7.64333 24.3625 6.55073 24.3918 5.32614C24.3918 5.28901 24.3977 5.25188 24.4039 5.21289L24.4039 5.21283L24.4039 5.21281C24.4075 5.19022 24.4111 5.16702 24.4138 5.14282H24.4505ZM31.1674 36.2709C31.25 36.2502 31.3164 36.2365 31.3743 36.2246C31.4192 36.2154 31.459 36.2072 31.4974 36.1975C31.776 36.1242 32.0547 36.0527 32.3333 35.9812C32.612 35.9097 32.8906 35.8382 33.1693 35.7649C33.5799 35.6549 33.9539 35.7282 34.3132 35.9409C34.5405 36.0802 34.7605 36.2195 34.9805 36.3662C35.3545 36.6155 35.7358 36.6889 36.1611 36.4982C36.3444 36.4175 36.5424 36.3662 36.7404 36.3222C37.2683 36.1975 37.7303 36.3442 38.075 36.7548C38.6396 37.4221 38.9842 38.1921 39.0282 39.0647C39.0796 39.8933 38.6836 40.4946 37.9503 40.8686C37.0777 41.3012 36.1538 41.5285 35.1785 41.5652H34.9512C34.9584 41.4978 34.9624 41.4304 34.9665 41.3637C34.9747 41.2274 34.9827 41.0944 35.0172 40.9712C35.1491 40.4946 35.4865 40.1573 35.8604 39.8567C35.9149 39.8143 35.9705 39.7732 36.0259 39.7324L36.026 39.7323C36.1049 39.6741 36.1832 39.6163 36.2564 39.556C36.5864 39.27 36.6157 38.9547 36.3224 38.6321C36.0308 38.3049 35.6357 38.1295 35.2509 37.9586L35.2151 37.9428C34.0492 37.4148 32.81 37.1068 31.5634 36.8428C31.4681 36.8238 31.3729 36.8067 31.2714 36.7885C31.1777 36.7717 31.0786 36.754 30.9694 36.7328C30.9376 36.8685 30.9052 37.0022 30.8731 37.1349L30.873 37.1353C30.794 37.4616 30.7166 37.781 30.6541 38.1041C30.5954 38.4194 30.4414 38.6614 30.2068 38.8594C29.6202 39.38 28.9089 39.6367 28.1756 39.8347C26.445 40.304 24.6851 40.392 22.9106 40.238C21.8693 40.15 20.8427 39.9666 19.8528 39.5927C19.3615 39.4093 18.8922 39.182 18.5109 38.8081C18.2689 38.5734 18.1295 38.3021 18.1002 37.9501C18.0761 37.6968 17.9924 37.4485 17.9105 37.2051C17.8928 37.1525 17.8752 37.1002 17.8582 37.0482C17.2129 35.0023 16.4357 33.0077 15.3211 31.1599C14.6831 30.0966 13.9571 29.1067 12.9452 28.3587C12.7806 28.236 12.6129 28.1196 12.4456 28.0036L12.4455 28.0035C12.173 27.8145 11.9017 27.6263 11.6473 27.4128C11.42 27.2221 11.2293 26.9581 11.09 26.6941C10.7673 26.1002 10.914 25.4769 11.4346 25.0442C12.2486 24.3696 13.2019 24.4943 13.7811 25.3742C13.9446 25.6194 14.096 25.8714 14.247 26.1228C14.4076 26.3903 14.5679 26.6571 14.7418 26.9141C15.0277 27.3394 15.3357 27.7574 15.6804 28.1314C16.003 28.4834 16.377 28.5274 16.7216 28.3587C17.1543 28.1387 17.3596 27.7647 17.3083 27.2808C17.2496 26.7161 17.0223 26.2102 16.7436 25.7189C15.893 24.2156 14.7564 22.9544 13.5318 21.7591C12.7664 21.0176 11.8937 20.4273 11.0211 19.837L11.0211 19.837C10.8237 19.7035 10.6262 19.5699 10.43 19.4346C9.44742 18.76 8.50881 18.012 7.76086 17.0807C7.46021 16.7068 7.18889 16.2815 7.00557 15.8415C6.62426 14.9469 6.99824 14.0889 7.89285 13.7076C8.96345 13.253 9.99005 13.4363 10.958 14.0303C11.6033 14.4262 12.0579 14.9982 12.3952 15.6728C14.1918 19.2659 16.1863 22.7344 18.5109 26.0195C19.0828 26.8261 19.6914 27.6108 20.4174 28.2854C20.6081 28.4614 20.8207 28.63 21.048 28.762C21.5467 29.07 22.126 28.938 22.3753 28.4027C22.5471 28.0464 22.6471 27.6515 22.7472 27.2562L22.7472 27.2562C22.7625 27.1959 22.7777 27.1356 22.7933 27.0755C22.8588 26.8264 22.9126 26.5744 22.9665 26.3221L22.9665 26.322C23.0332 26.0098 23.1 25.6971 23.1892 25.3889C23.2626 25.1469 23.4165 24.9049 23.5925 24.7216C24.1205 24.1936 25.0078 24.355 25.3891 25.0222C25.6263 25.428 25.7147 25.8817 25.8036 26.3379C25.8192 26.4175 25.8347 26.4972 25.8511 26.5768C25.9537 27.0901 26.0564 27.6034 26.203 28.1021C26.335 28.5274 26.599 28.85 27.0903 28.916C27.369 28.9527 27.5963 28.8353 27.8089 28.6887C28.3442 28.3294 28.7769 27.8454 29.1802 27.3541C30.3608 25.9315 31.3654 24.3843 32.3407 22.8151C33.7339 20.5565 35.0538 18.2613 36.2271 15.8781C36.5717 15.1742 36.9897 14.5509 37.6423 14.1036C38.5369 13.5023 39.5122 13.275 40.5608 13.5903C41.1841 13.7809 41.6681 14.1549 41.8294 14.8295C41.9541 15.3502 41.7854 15.8195 41.5361 16.2668C41.1401 16.9854 40.5755 17.5647 39.9742 18.1073C39.1529 18.848 38.2656 19.4933 37.3343 20.0799C36.3151 20.7178 35.4131 21.5098 34.5772 22.3751C33.5946 23.387 32.6926 24.4649 31.996 25.6969C31.7174 26.1955 31.4827 26.7161 31.424 27.2954C31.3581 27.9774 31.9447 28.5934 32.5533 28.4174C32.81 28.344 33.0739 28.1534 33.2426 27.9481C33.5164 27.6116 33.7591 27.244 34.0018 26.8765L34.0021 26.876C34.0714 26.7711 34.1406 26.6663 34.2105 26.5621C34.3764 26.3112 34.5349 26.0578 34.6931 25.8048C34.8077 25.6216 34.9221 25.4386 35.0392 25.2569C35.5158 24.5089 36.2637 24.5383 36.821 24.7583C37.5103 25.0369 37.8916 25.6015 37.811 26.2395C37.7523 26.7088 37.4737 27.0754 37.1364 27.3908C36.9237 27.5888 36.6964 27.7867 36.4471 27.9334C35.3471 28.5714 34.5259 29.488 33.8292 30.5292C32.744 32.1498 31.9813 33.917 31.3287 35.7429C31.3001 35.8862 31.2434 36.0506 31.1724 36.2564L31.1724 36.2564L31.1674 36.2709ZM23.4532 42.8558C25.0371 42.8705 26.6137 42.7605 28.2343 42.5845C28.1756 42.5625 28.1609 42.5552 28.1463 42.5478H27.8309C24.6998 42.5772 21.576 42.4158 18.4815 41.9245C17.0003 41.6899 15.541 41.3819 14.1258 40.8759C13.3998 40.6193 12.6886 40.3113 12.0873 39.8053C11.3173 39.1527 11.3173 38.4121 12.0946 37.7668C12.2048 37.6742 12.3229 37.5896 12.4521 37.4971C12.5379 37.4356 12.6287 37.3706 12.7252 37.2975C12.6109 37.2528 12.5017 37.2072 12.3952 37.1628C12.1875 37.0761 11.9902 36.9939 11.7866 36.9308C10.8847 36.6595 9.99739 36.7109 9.16145 37.1728C8.72881 37.4148 8.55282 37.7888 8.58948 38.2728C8.59891 38.3796 8.61238 38.4865 8.62585 38.5933C8.64381 38.7358 8.66176 38.8782 8.67014 39.0207C8.68481 39.248 8.65548 39.4607 8.47949 39.6367C8.29617 39.82 8.2815 39.9666 8.47949 40.1353C8.68481 40.3113 8.91213 40.4653 9.14678 40.5973C9.88423 41.011 10.6903 41.2433 11.4929 41.4746C11.6719 41.5262 11.8507 41.5777 12.0286 41.6312C14.1771 42.2692 16.377 42.5772 18.6062 42.7165C20.2194 42.8118 21.84 42.8411 23.4532 42.8558Z" fill="black"/>
</svg>
