<svg width="48" height="48" viewBox="0 0 48 48" fill="none" xmlns="http://www.w3.org/2000/svg">
<path fill-rule="evenodd" clip-rule="evenodd" d="M13.519 14.6639C13.5376 14.6616 13.5569 14.6585 13.5765 14.6555C13.6193 14.6487 13.6635 14.6417 13.7041 14.6417C14.5521 14.5936 15.3982 14.5473 16.2444 14.501L16.2451 14.501C17.091 14.4547 17.9369 14.4084 18.7846 14.3603C20.7176 14.2492 22.6505 14.1381 24.5909 14.0344C24.6617 14.0303 24.733 14.0249 24.8046 14.0196C24.9878 14.0059 25.1727 13.9921 25.3537 13.9974C25.5759 13.9974 25.7536 13.9233 25.9314 13.8048C27.6866 12.6717 29.5085 11.6719 31.4933 10.998C32.8189 10.5462 34.1742 10.2648 35.5814 10.287C37.8328 10.324 39.7361 11.1683 41.2914 12.805C41.869 13.4197 42.3504 14.1011 42.7726 14.8269C42.7874 14.8527 42.8003 14.8768 42.8133 14.9008L42.8133 14.9009L42.8134 14.9012C42.8264 14.9252 42.8393 14.9491 42.854 14.975C42.8593 14.9802 42.8571 14.9891 42.8528 15.007C42.851 15.0144 42.8488 15.0234 42.8466 15.0342C42.7956 14.996 42.7446 14.9583 42.6939 14.9209L42.6935 14.9206L42.6935 14.9206C42.5678 14.8278 42.4443 14.7366 42.3282 14.6417C41.2914 13.8122 40.1879 13.0939 38.9215 12.6643C37.6254 12.2274 36.2998 12.0644 34.9445 12.1607C32.5153 12.331 30.3676 13.2494 28.3605 14.5825C26.4128 15.8711 24.9834 17.5967 23.9244 19.6556C23.006 21.433 22.3543 23.3141 21.8211 25.2322C21.272 27.2102 20.8702 29.2215 20.4693 31.2282L20.4065 31.5421L20.4065 31.5422C20.251 32.3198 20.0955 33.0974 19.8881 33.8602C19.6067 34.9044 19.0364 35.808 18.3773 36.6597C17.5775 37.6891 16.6221 38.5408 15.5186 39.2369C15.4445 39.2814 15.3408 39.3184 15.252 39.3184C13.0347 39.3233 10.8174 39.3217 8.60224 39.3201H8.60196H8.60032C7.49408 39.3192 6.3884 39.3184 5.28354 39.3184H5.14282C7.56458 37.4891 9.6975 35.3784 11.5564 32.9567C9.40866 32.4383 7.28315 31.9272 5.15763 31.4162C5.15763 31.4125 5.15578 31.407 5.15393 31.4014C5.15208 31.3959 5.15023 31.3903 5.15023 31.3866C5.19096 31.3755 5.22984 31.3644 5.26872 31.3533L5.26878 31.3533C5.30764 31.3422 5.3465 31.3311 5.38722 31.32C5.99457 31.1792 6.60192 31.039 7.20926 30.8987L7.20932 30.8987L7.21013 30.8985C9.03165 30.4778 10.8532 30.0572 12.6747 29.624C13.2598 29.4833 13.756 29.1278 14.2374 28.7797C14.4595 28.6168 14.6299 28.4316 14.7632 28.1946C15.1309 27.5258 15.5003 26.8578 15.8697 26.1898L15.87 26.1893L15.87 26.1892C16.609 24.8528 17.3479 23.5165 18.0737 22.1736C18.8957 20.6554 19.8955 19.2556 21.036 17.9596C21.2582 17.7078 21.3841 17.3967 21.4212 17.0635C21.4804 16.5673 21.2582 16.197 20.7991 15.9452C20.4291 15.7459 20.0317 15.6834 19.6267 15.6197L19.5771 15.6119C18.5678 15.4566 17.5605 15.3014 16.5531 15.1461L16.548 15.1453L16.5445 15.1448C15.5366 14.9894 14.5287 14.8341 13.519 14.6787V14.6639ZM36.2896 14.8676L36.2895 14.8676C36.0782 15.003 35.8654 15.1394 35.663 15.2862C34.2855 16.2786 33.1672 17.5228 32.2192 18.9151C30.501 21.4331 29.279 24.1733 28.6643 27.1579C28.4496 28.2056 28.3206 29.2704 28.192 30.3323L28.192 30.3324C28.1743 30.479 28.1565 30.6256 28.1385 30.7721C28.0839 31.2168 28.0412 31.6625 27.9984 32.1082L27.9984 32.1082C27.9195 32.9315 27.8405 33.7545 27.6868 34.5713C27.3313 36.445 26.287 37.7707 24.6207 38.6446C24.5059 38.7039 24.3892 38.7613 24.2726 38.8187C24.1559 38.8761 24.0393 38.9334 23.9245 38.9927C23.4357 39.2445 22.9321 39.363 22.3767 39.3482C21.654 39.3225 20.9349 39.3288 20.2145 39.3352H20.2144C19.8938 39.338 19.5729 39.3408 19.2514 39.3408H19.007C19.2365 39.0816 19.4364 38.8521 19.6363 38.6226L19.6365 38.6224C20.9695 37.0523 21.836 35.2675 22.2286 33.2382C22.6581 31.0313 23.1247 28.8391 23.6431 26.6543C24.1171 24.6621 24.791 22.7366 25.7094 20.8999C27.3091 17.7079 29.9011 15.7972 33.3005 14.9159C34.3151 14.6567 35.3519 14.5456 36.3962 14.6418C36.4212 14.6454 36.4462 14.6473 36.4704 14.6491C36.4963 14.651 36.5213 14.6528 36.5443 14.6567C36.5665 14.6493 36.5739 14.6641 36.5813 14.6789C36.4852 14.7422 36.3875 14.8048 36.2896 14.8676ZM28.7976 37.7039C28.4643 38.2964 28.0496 38.8222 27.5682 39.2962C27.5706 39.3036 27.5723 39.311 27.5739 39.3184C27.5772 39.3332 27.5805 39.348 27.5904 39.3629C27.7276 39.3512 27.8663 39.3433 28.0053 39.3353C28.3089 39.3178 28.614 39.3002 28.9086 39.2444C30.9157 38.8815 32.3672 37.7484 33.3522 35.9857C33.9817 34.86 34.2039 33.6306 34.2409 32.3568C34.278 30.9349 34.315 29.5203 34.352 28.1058C34.4039 26.2765 34.5002 24.4546 34.8186 22.6476C35.0334 21.4182 35.337 20.2036 35.9221 19.0853C36.3887 18.1892 37.0034 17.4264 37.9217 16.9598C38.1085 16.8637 38.3069 16.7869 38.5057 16.7098C38.5828 16.68 38.6599 16.6501 38.7364 16.6191C38.7142 16.6117 38.6919 16.6117 38.6771 16.6117C37.7292 16.8043 36.8627 17.182 36.1221 17.8115C35.0704 18.7002 34.2409 19.7667 33.5078 20.922C31.5452 24.0177 30.5009 27.4096 30.2269 31.0608C30.1306 32.2976 29.9825 33.527 29.8048 34.7489C29.6567 35.7932 29.3234 36.7856 28.7976 37.7039Z" fill="black"/>
</svg>
