<svg xmlns="http://www.w3.org/2000/svg" viewBox="0 0 48 48" class="ability-icon createSvgIcon__Svg-sc-1l8xi8d-0 ldKivg"><title>Jett - Bladestorm</title><path fill-rule="evenodd" clip-rule="evenodd" d="M24 6L24.1476 6.351C25.6593 10.0421 26.699 15.6107 27.2668 23.0568L27.3187 23.7604L24.9511 26.7215V27.9883C25.5338 27.9883 27.3187 29.2162 27.3187 31.1086C27.3187 32.9188 26.141 33.8184 25.7129 33.8932L25.6593 33.8983V40.1694C25.6593 40.6485 25.1775 40.9216 24.2139 40.9888L24 41C22.8938 40.9596 22.3407 40.6827 22.3407 40.1694V33.8983C21.9685 33.8983 20.6813 33.0011 20.6813 31.1086C20.6813 29.2162 22.4662 27.9883 23.0489 27.9883V26.7215L20.6813 23.7604C21.2538 15.7168 22.3601 9.7967 24 6ZM8.10374 11.4104L8.34452 11.6428C10.5987 13.8658 13.0459 17.5835 15.6859 22.796L15.9696 23.3602L15.0242 26.2541L15.4023 27.1795C15.8526 26.9996 17.5982 27.3457 18.1631 28.7281C18.728 30.1106 18.0013 31.1633 17.7137 31.2782C19.0262 34.4899 19.759 36.2833 19.9122 36.6583C20.0545 37.0065 19.7674 37.3529 19.051 37.6977L18.8781 37.7772C18.0113 38.0891 17.5013 38.0575 17.348 37.6826L15.1496 32.3025C14.862 32.4174 13.5996 32.1592 13.0347 30.7768C12.4698 29.3943 13.4824 27.9465 13.9326 27.7666L13.5545 26.8412L10.8412 25.4088C8.88247 19.3562 7.96998 14.6901 8.10374 11.4104ZM39.8963 11.4104C40.03 14.6901 39.1175 19.3562 37.1588 25.4088L34.4456 26.8412L34.0674 27.7666C34.5177 27.9465 35.5302 29.3943 34.9653 30.7768C34.4004 32.1592 33.138 32.4174 32.8504 32.3025L30.652 37.6826C30.4987 38.0575 29.9887 38.0891 29.1219 37.7772L28.949 37.6977C28.2326 37.3529 27.9455 37.0065 28.0878 36.6583C28.241 36.2833 28.9738 34.4899 30.2863 31.2782C29.9987 31.1633 29.272 30.1106 29.8369 28.7281C30.4018 27.3457 32.1474 26.9996 32.5977 27.1795L32.9759 26.2541L32.0305 23.3602L32.3141 22.796C34.9541 17.5835 37.4013 13.8658 39.6555 11.6428L39.8963 11.4104ZM24 29.5157C23.0836 29.5157 22.3407 30.2502 22.3407 31.1563C22.3407 32.0624 23.0836 32.7969 24 32.7969C24.9164 32.7969 25.6593 32.0624 25.6593 31.1563C25.6593 30.2502 24.9164 29.5157 24 29.5157ZM15.1234 28.5888C14.4153 28.8716 14.0606 29.6375 14.331 30.2994C14.6015 30.9613 15.3948 31.2686 16.1029 30.9858C16.811 30.7029 17.1657 29.937 16.8952 29.2751C16.6247 28.6132 15.8315 28.3059 15.1234 28.5888ZM32.8766 28.5888C32.1685 28.3059 31.3753 28.6132 31.1048 29.2751C30.8343 29.937 31.1891 30.7029 31.8971 30.9858C32.6052 31.2686 33.3985 30.9613 33.669 30.2994C33.9394 29.6375 33.5847 28.8716 32.8766 28.5888Z"/></svg>