<svg xmlns="http://www.w3.org/2000/svg" viewBox="0 0 48 48" class="ability-icon createSvgIcon__Svg-sc-1l8xi8d-0 ldKivg"><title>Jett - Tailwind</title><path d="M43 24L30.5372 11.7C30.5372 11.7 28.6199 9 25.1275 9H21.3793C22 11 22 14 18.5 14H14.9422C14.3467 14 13.7821 14.2654 13.4021 14.724L12.2069 16.1667H18.1429C18.1429 16.1667 21.601 15.9333 21.601 18.1333H7.08854L5 21C5 21 23 21 23.5 21C26.5 21 28 19 28 16L35.9469 24L28 32C28 29 26.5 27 23.5 27H5L7.08854 30.0258H21.6352C21.6352 32.2258 18.4511 32.0201 18.4511 32.0201H15.062L16.2005 33.5877C16.3887 33.8467 16.6895 34 17.0096 34H18.4511C22 34 22 37 21.3793 39C22.0345 39 21.6695 39 25.1618 39C28.6541 39 30.5715 36.3 30.5715 36.3L43 24Z"/></svg>