<svg xmlns="http://www.w3.org/2000/svg" viewBox="0 0 48 48" class="ability-icon createSvgIcon__Svg-sc-1l8xi8d-0 ldKivg"><title>Jett - Updraft</title><path fill-rule="evenodd" clip-rule="evenodd" d="M10.9273 19.2496C10.3328 19.8579 10 20.6747 10 21.5252V28.2032C10 28.4932 10.3507 28.6385 10.5558 28.4334L13.5255 25.4637C13.7698 25.2194 13.907 24.8882 13.907 24.5428V23.1971C13.907 22.6872 14.1063 22.1976 14.4624 21.8327L23.534 12.5365C23.7895 12.2747 24.2105 12.2747 24.466 12.5365L33.5376 21.8327C33.8937 22.1976 34.093 22.6872 34.093 23.1971V24.5428C34.093 24.8882 34.2302 25.2194 34.4745 25.4637L37.4442 28.4334C37.6493 28.6385 38 28.4932 38 28.2032V21.5252C38 20.6747 37.6672 19.8579 37.0727 19.2496L24.9314 6.82599C24.4205 6.3032 23.5795 6.3032 23.0686 6.82599L10.9273 19.2496ZM13.9999 29.5838C13.9999 29.4163 14.0651 29.2553 14.1817 29.1349L23.5366 19.4783C23.7901 19.2166 24.2098 19.2166 24.4633 19.4783L33.8182 29.1349C33.9348 29.2553 34 29.4163 34 29.5839V34.3325C34 34.6223 33.6474 34.7651 33.4457 34.5569L24.4633 25.2848C24.2098 25.0231 23.7901 25.0231 23.5366 25.2848L14.5542 34.5569C14.3525 34.7651 13.9999 34.6223 13.9999 34.3325V29.5838ZM19.0001 37.037C19.0001 36.8868 19.0575 36.7423 19.1606 36.6331L23.5724 31.9619C23.8045 31.7161 24.1956 31.7161 24.4277 31.9619L28.8394 36.6331C28.9425 36.7423 29 36.8868 29 37.037V41.3575C29 41.6236 28.6748 41.7529 28.4921 41.5594L24.4277 37.2559C24.1956 37.0102 23.8045 37.0102 23.5724 37.2559L19.508 41.5594C19.3253 41.7529 19.0001 41.6236 19.0001 41.3575V37.037Z"/></svg>