<svg width="48" height="48" viewBox="0 0 48 48" fill="none" xmlns="http://www.w3.org/2000/svg">
<path fill-rule="evenodd" clip-rule="evenodd" d="M10.485 38.402L16.0437 39.0879L11.9037 40.3502L19.0146 41.5154L21.0165 40.4996L24.1984 41.8142H24.8408L27.9332 40.7536L32.5045 41.3661L37.8227 40.0066L33.7593 39.0506L38.3306 38.1393L42.8571 33.1795L33.7593 35.1514L35.5371 30.4756C34.0282 31.5295 30.7865 33.7998 29.8902 34.4493C29.0208 32.9101 27.2131 32.173 26.4002 31.8416C26.361 31.8257 26.3242 31.8106 26.2899 31.7965C26.2301 31.2948 26.7082 29.7511 26.9323 29.3104C27.091 28.998 26.9572 28.3179 26.8658 27.8533C26.8282 27.6625 26.7978 27.508 26.7978 27.4305V25.6204C27.3206 25.4561 28.3365 24.4104 28.4411 24.0518C28.5456 23.6933 29.6362 21.5421 29.8902 21.1239C30.1441 20.7055 30.8164 18.9726 30.9806 18.2555C31.145 17.5385 30.906 15.955 30.8164 15.7159C30.7267 15.4769 30.1889 14.7897 30.0097 14.745C29.8604 14.7076 29.8768 15.4817 29.8865 15.9373V15.9374C29.8885 16.0289 29.8902 16.1075 29.8902 16.1641C29.8902 16.5027 29.5017 17.7354 29.3822 18.0016C29.2627 18.2679 28.7249 19.0025 28.4411 18.9726C28.1573 18.9427 28.0676 18.5307 28.0378 18.166C28.0078 17.8012 27.9182 16.5149 27.9182 16.1641C27.9182 16.0973 27.9193 15.8891 27.9208 15.5916C27.9274 14.327 27.9424 11.4491 27.9182 10.9654C27.8883 10.3678 27.2011 8.7096 26.8277 8.75442C26.4771 8.79649 26.4819 9.98394 26.4838 10.4505C26.4839 10.481 26.4841 10.5084 26.4841 10.5321C26.4841 10.6398 26.4829 10.8094 26.4816 11.0073V11.0089V11.0095V11.0098C26.478 11.5257 26.4733 12.2321 26.4841 12.534C26.499 12.9522 26.3646 13.759 26.2749 14.082C26.2294 14.2459 26.1301 14.4488 26.0354 14.6421C25.9436 14.8297 25.8562 15.0082 25.8268 15.1333C25.779 15.3365 25.4284 15.9051 25.2591 16.1641L24.8109 15.1333C24.781 14.8296 24.7213 14.0966 24.7213 13.5946C24.7213 13.2253 24.8093 12.5661 24.8848 12.0009C24.9374 11.606 24.984 11.2569 24.9902 11.0849C24.9987 10.8457 24.9633 10.1964 24.9314 9.61149C24.9075 9.17335 24.8856 8.77137 24.8856 8.60502C24.8856 8.21661 24.4524 7.54436 24.303 7.54436C24.1881 7.54436 24.1262 7.73863 24.0631 7.93707L24.0629 7.93756C24.044 7.99706 24.0249 8.05693 24.0042 8.11204C23.9146 8.35106 23.8847 9.27728 23.8847 9.57606C23.8847 9.82007 23.7053 10.1039 23.542 10.3626C23.5053 10.4206 23.4694 10.4774 23.4365 10.5321C23.3382 10.696 23.2624 10.9676 23.1844 11.247C23.1201 11.4772 23.0544 11.7126 22.9734 11.8974C22.7941 12.3065 22.8241 12.6535 22.9734 12.8477C23.1228 13.0419 23.2124 13.6693 23.2572 13.998C23.2828 14.1854 23.3035 14.6599 23.3221 15.0864C23.3362 15.4075 23.349 15.7015 23.3618 15.8255C23.3917 16.1145 23.1677 16.3882 23.0482 16.5149C22.9433 16.626 22.8613 16.6861 22.651 16.8406C22.6217 16.8621 22.5898 16.8855 22.5551 16.9111C22.585 16.4629 22.1069 15.4171 21.853 14.8794C21.5991 14.3416 21.4347 13.744 21.4048 13.2958C21.3789 12.9063 21.5673 11.7269 21.6563 11.1698C21.6697 11.086 21.6809 11.0162 21.6887 10.9654C21.7236 10.7385 22.0234 9.90542 22.2877 9.17117L22.2877 9.171C22.4759 8.64806 22.6461 8.17524 22.6896 8.00747C22.7941 7.60412 22.5402 6.85718 22.4356 6.85718C22.331 6.85718 22.1817 7.24559 22.1069 7.4398C22.0323 7.63401 21.8231 7.9029 21.3003 8.48552C20.7774 9.06814 20.5603 9.71272 20.4739 10.0278C20.4396 10.1532 20.3686 10.355 20.2824 10.6002C20.152 10.9714 19.9866 11.442 19.8602 11.8974C19.6501 12.6536 19.6763 13.4939 19.8602 14.082C20.0441 14.6702 20.2002 15.5105 20.2002 15.8255C20.2002 15.9194 20.2016 15.9919 20.2032 16.0719C20.207 16.2607 20.2116 16.4921 20.2002 17.1472C20.188 17.842 20.3845 18.3326 20.4925 18.6022C20.5295 18.6946 20.5562 18.7611 20.5603 18.8008C20.5767 18.9564 20.4739 19.3575 20.282 19.5231C20.0901 19.6887 19.8236 19.5785 19.6763 19.4557C19.6615 19.4434 19.6438 19.4285 19.6236 19.4113C19.4413 19.2569 19.0508 18.9261 18.7266 18.8008C18.5774 18.7431 18.4619 18.7215 18.3557 18.7017C18.2056 18.6735 18.0739 18.6489 17.8916 18.5307C17.62 18.3545 17.6291 18.0499 17.6357 17.8268C17.6367 17.7944 17.6376 17.7637 17.6376 17.7354C17.6376 17.6406 17.6963 17.481 17.7639 17.2971C17.8558 17.0472 17.9642 16.7525 17.9642 16.5149C17.9642 16.4319 17.9677 16.3224 17.9716 16.2005C17.987 15.716 18.0087 15.0331 17.8439 15.0193C17.6376 15.0021 17.1219 15.7413 17.0187 16.0507C17.0006 16.1052 16.9734 16.1831 16.9409 16.2762C16.7887 16.712 16.5203 17.4804 16.5203 17.7354C16.5203 17.9271 16.4477 18.1056 16.3638 18.3118C16.3124 18.4384 16.2566 18.5754 16.2109 18.7324C16.129 19.0129 16.2697 19.1186 16.4654 19.2656C16.5576 19.3347 16.6619 19.413 16.7609 19.5231C16.9556 19.7395 17.7089 20.4327 18.4119 21.0795C18.8257 21.4604 19.2221 21.8252 19.4769 22.0672C20.08 22.6401 20.2864 23.1337 20.4207 23.4551C20.4396 23.5002 20.457 23.5419 20.4739 23.5799C20.5517 23.7549 20.5965 23.8914 20.6705 24.1169C20.7273 24.2901 20.8014 24.5159 20.9208 24.852C21.1959 25.6255 22.2522 25.8833 22.7258 25.8833C22.8461 26.3303 22.7946 27.0179 22.7258 27.4305C22.6907 27.6414 22.5297 28.1398 22.3716 28.6295C22.2204 29.0977 22.0718 29.5579 22.0382 29.7511C21.9754 30.1122 22.056 30.6023 22.2073 31.5225L22.2074 31.5233C22.2126 31.5549 22.2179 31.5871 22.2232 31.6197C22.2277 31.6467 22.2322 31.6741 22.2367 31.7018L22.2522 31.7965C20.8373 32.2585 19.6173 33.2162 19.1841 33.6374L12.2898 28.0425L16.4047 35.8393L5.14282 33.2404L10.485 38.402ZM15.115 27.7037L14.6951 25.148L16.5203 26.2433L17.324 29.5476L15.115 27.7037ZM10.3686 30.2231L7.83108 30.3143L11.1171 32.1399L10.3686 30.2231ZM34.0461 28.5253L33.2611 24.436L31.399 31.0445L34.0461 28.5253ZM38.3306 30.6064L40.4903 31.3001L36.8757 32.7423L38.3306 30.6064ZM24.2246 33.6186C21.9061 33.6186 18.5653 35.3164 18.8209 38.4928C18.8209 38.9674 22.5451 39.1865 24.2246 39.1865C25.7813 39.1865 28.5297 38.8885 29.3014 38.5688C29.3995 38.5282 29.4594 38.4354 29.4673 38.3297C29.5407 37.3423 29.0161 33.8923 24.2246 33.6186Z" fill="black"/>
</svg>
