<svg width="48" height="48" viewBox="0 0 48 48" fill="none" xmlns="http://www.w3.org/2000/svg">
<path fill-rule="evenodd" clip-rule="evenodd" d="M5.78359 15.5967C5.78359 15.4045 5.35641 14.8224 5.14282 14.5554L9.44403 12.6765C9.719 12.7403 10.2689 13.0591 10.9359 13.4607C11.6023 11.7778 12.4575 11.499 13.5899 11.1297C13.7574 11.0751 13.9309 11.0186 14.1108 10.9552C15.507 10.4632 18.6436 10.2858 19.9442 10.2858C20.7483 10.2858 22.0845 10.6678 23.2385 10.9977C23.9512 11.2015 24.5944 11.3854 24.9999 11.4472C25.9069 11.5855 25.6098 12.0448 25.431 12.3213C25.4004 12.3687 25.3733 12.4106 25.3562 12.4447C25.2395 12.6779 24.3781 13.7013 24.1319 13.9216C24.0235 14.0186 23.9175 14.088 23.8318 14.1442C23.723 14.2154 23.6468 14.2653 23.6396 14.3232C23.6378 14.3378 23.6344 14.3499 23.6314 14.3604C23.6134 14.4246 23.6124 14.4279 24.0982 14.5554C25.8489 14.9186 29.1612 16.8876 30.5917 17.738C30.8589 17.8968 31.0603 18.0166 31.1738 18.0796C31.8946 18.4802 32.2951 18.7204 32.2951 19.201C32.2951 19.6815 31.8146 20.3223 31.334 20.8029C30.8534 21.2835 28.771 22.565 28.2103 22.8853C27.6496 23.2058 26.7686 23.5262 26.6084 23.2859C26.4482 23.0455 26.6084 22.645 26.8486 22.4048L28.4506 20.8029C28.851 20.4024 29.0112 19.9218 28.771 19.5214C28.5307 19.1209 27.8098 19.8417 27.3292 20.4024C26.8486 20.9631 24.1254 22.8853 23.4046 23.2859C22.6837 23.6863 21.4823 23.7664 20.9216 23.6063C20.3609 23.4461 19.8002 23.2058 19.56 22.8853C19.3677 22.6291 17.9314 21.1233 17.2372 20.4024L14.8343 19.5214L13.8732 21.764C13.6062 21.2835 12.9762 20.1621 12.5917 19.5214C12.2072 18.8806 11.6305 18.7738 11.3903 18.8005L10.2689 21.764L8.74711 17.8393H7.94616L7.62578 19.5214C7.01171 18.8806 5.73553 17.535 5.5433 17.2787V16.4778C5.5433 16.306 5.61231 16.1343 5.67636 15.975C5.73183 15.837 5.78359 15.7082 5.78359 15.5967ZM8.35386 30.6358L7.94616 29.2396C7.56565 29.552 6.69372 30.2686 6.25 30.6358C5.69534 31.0948 5.69534 31.5156 5.69534 31.7834C5.69534 31.9319 5.78371 32.1395 5.86236 32.3242C5.92543 32.4722 5.98224 32.6057 5.98224 32.6823C5.98224 32.8544 5.88661 33.1222 5.69534 33.3517C5.54234 33.5353 5.53023 33.8872 5.5433 34.0402L9.75005 35.7233L11.1462 34.8818C11.2276 35.0603 11.4562 35.555 11.72 36.1058C12.8484 37.9228 16.272 38.114 18.1655 38.114C20.059 38.114 24.9169 37.0239 25.8541 36.7753C25.5613 35.6406 24.6555 34.786 23.9579 34.128L23.9572 34.1272C23.926 34.0978 23.8953 34.0689 23.865 34.0402C23.9689 34.0119 24.0735 33.9845 24.1822 33.956L24.1828 33.9559C25.1744 33.6962 26.5033 33.3483 30.6738 31.4008C34.8388 29.4561 35.5192 27.6041 36.2269 25.678C36.3056 25.4637 36.3848 25.2483 36.469 25.0319C37.198 23.1598 37.9126 22.9204 38.9361 22.5775C39.0941 22.5245 39.2596 22.4691 39.4336 22.4048C39.0128 21.8051 36.9854 20.8029 35.5318 20.8029C34.0783 20.8029 33.3133 22.2586 33.1029 23.6063C32.8925 24.9538 31.5919 26.9637 31.0564 27.6522C30.5208 28.3407 28.2103 29.9856 27.6137 30.3298C27.0171 30.6741 26.2367 30.8845 26.1602 30.6358C26.0836 30.3871 26.1602 30.062 26.6084 29.8708C29.7803 27.6008 30.2062 26.3643 30.5245 25.4401C30.5736 25.2975 30.6201 25.1623 30.6738 25.0319C31.0755 24.0565 30.4061 24.3051 29.7175 24.9172C28.4553 26.0074 24.2476 27.6522 22.5262 28.1494C21.0191 28.5848 20.6263 28.3897 20.2822 28.2189C20.2334 28.1946 20.1854 28.1708 20.1355 28.1494C19.7338 27.9773 18.7392 27.6713 18.0125 27.6522C17.3891 27.6357 15.8369 28.3089 15.1162 28.6214L15.1159 28.6216C14.9965 28.6733 14.9 28.7152 14.8343 28.7423C14.3722 28.9336 14.1873 28.7232 14.0917 28.5511C13.996 28.3789 13.537 27.7478 13.2884 27.4609C13.1506 27.8281 12.1089 29.2204 11.6053 29.8708L10.2689 27.4609C9.91746 28.4172 9.19157 30.3604 9.09976 30.4828C9.00796 30.6052 8.56424 30.6358 8.35386 30.6358ZM38.133 27.0019C39.0957 26.613 41.1587 25.7663 41.7095 25.4909C42.3981 25.1466 42.8571 24.6494 42.8571 24.439C42.8571 24.2286 41.7669 23.4635 40.9254 23.4635C40.0839 23.4635 38.3243 24.3051 38.133 27.0019ZM10.4003 15.3924L11.108 14.5554H11.6053C11.7583 14.6431 12.2058 14.8186 12.7719 14.8186C13.1528 14.8186 13.9579 14.536 14.7438 14.2601C15.4179 14.0235 16.078 13.7917 16.4442 13.7476C16.7783 13.7072 17.15 13.65 17.4926 13.5972C17.9632 13.5247 18.379 13.4607 18.5671 13.4607C18.8272 13.4607 19.9123 14.3659 20.4224 14.8186H21.9142L20.4224 15.3924H19.9442L18.5671 14.1874L15.8895 14.6656L12.7719 17.0181L11.108 15.3924H10.4003ZM10.2689 32.9738L11.1462 33.8299H11.7009C11.9623 33.7406 12.5654 33.5621 12.8867 33.5621C13.1254 33.5621 13.3439 33.677 13.5822 33.8022C13.7449 33.8878 13.9168 33.9782 14.1108 34.0402C14.5889 34.1932 16.7693 34.8818 17.477 34.8818C18.0431 34.8818 19.0134 34.9583 19.4278 34.9965L20.4606 33.5621L22.0481 33.6577L20.1355 32.8736L18.9688 34.3462L15.8895 33.6577L12.9823 31.7834L11.1462 32.9738H10.2689Z" fill="black"/>
</svg>
