<svg width="48" height="48" viewBox="0 0 48 48" fill="none" xmlns="http://www.w3.org/2000/svg">
<path d="M24 9.32586C22.1197 9.32586 17.3773 9.94901 14.2574 12.7895C14.0479 13.0689 13.7685 13.325 13.3727 12.7895C12.9769 12.254 11.4868 9.92574 11.6731 8.29594C11.6731 7.90014 11.5566 7.5509 11.2307 7.5509C10.9047 7.5509 10.3925 8.19049 10.0665 9.32586C9.98154 9.62191 9.89497 9.88193 9.81341 10.1269C9.5822 10.8212 9.39134 11.3944 9.39134 12.3238C9.39134 13.5811 9.9967 15.8163 12.7906 17.5857C15.0258 19.0013 16.221 20.0847 16.5391 20.4495C16.5003 19.6424 16.5904 17.8233 17.2609 17.0037C17.7964 18.2842 19.0304 21.148 20.1247 22.871C21.219 24.5938 22.29 26.4565 22.29 28.3191V34.7218C22.1192 34.52 21.7358 34.0466 21.5682 33.7672C21.5451 33.7287 21.5228 33.6894 21.5005 33.6497C21.3194 33.3296 21.1266 32.9887 20.3808 32.9058C19.5427 32.8126 16.5857 32.3936 15.4216 32.0909C15.2772 32.0534 15.1138 32.0198 14.9359 31.9832C13.6794 31.7247 11.6976 31.3171 10.5555 28.3191C10.2199 27.4382 9.99846 26.5665 9.78794 25.7379C9.18051 23.347 8.66401 21.3141 5.75924 20.4495C5.10732 20.3098 4.96762 20.8221 5.36343 21.2644C5.75924 21.7068 6.85353 23.2435 6.90009 24.7335C6.9052 24.8973 6.90526 25.0858 6.90532 25.2962C6.90583 26.9998 6.90676 30.1362 9.60088 33.1619C8.5066 33.0455 7.8676 32.9769 7.6237 32.9058C7.37981 32.8346 6.90009 32.8524 6.90009 33.1619C6.90009 33.4394 7.01344 33.5117 7.5839 33.8753C7.64964 33.9172 7.72144 33.963 7.79985 34.0134C8.2146 34.28 9.64506 35.0768 11.0273 35.8468C12.1738 36.4855 13.2871 37.1057 13.7601 37.3894L13.7734 37.3974C14.837 38.0356 18.859 40.4491 24 40.4491C29.1409 40.4491 33.1629 38.0356 34.2265 37.3974L34.2398 37.3894C34.7127 37.1057 35.8259 36.4856 36.9722 35.8471L36.9727 35.8468L36.9729 35.8466C38.3551 35.0768 39.7854 34.28 40.2001 34.0134C40.2784 33.9631 40.3501 33.9173 40.4158 33.8755L40.4161 33.8753C40.9865 33.5117 41.0999 33.4394 41.0999 33.1619C41.0999 32.8524 40.6201 32.8346 40.3762 32.9058C40.1323 32.9769 39.4933 33.0455 38.399 33.1619C41.0932 30.1362 41.0941 26.9998 41.0946 25.2962C41.0947 25.0858 41.0947 24.8973 41.0999 24.7335C41.1464 23.2435 42.2407 21.7068 42.6365 21.2644C43.0323 20.8221 42.8926 20.3098 42.2407 20.4495C39.3359 21.3141 38.8195 23.347 38.212 25.7379C38.0015 26.5665 37.78 27.4382 37.4444 28.3191C36.3024 31.3171 34.3206 31.7247 33.0641 31.9832C32.8861 32.0198 32.7228 32.0534 32.5783 32.0909C31.4143 32.3936 28.4574 32.8126 27.6192 32.9058C26.8734 32.9887 26.6805 33.3296 26.4995 33.6497C26.4771 33.6894 26.4548 33.7287 26.4318 33.7672C26.2641 34.0466 25.8807 34.52 25.71 34.7218V28.3191C25.71 26.4565 26.781 24.5938 27.8753 22.871C28.9695 21.148 30.2035 18.2842 30.739 17.0037C31.4095 17.8233 31.4996 19.6424 31.4608 20.4495C31.779 20.0847 32.9742 19.0013 35.2093 17.5857C38.0033 15.8163 38.6086 13.5811 38.6086 12.3238C38.6086 11.3944 38.4177 10.8213 38.1865 10.1269C38.1049 9.88195 38.0184 9.62192 37.9334 9.32586C37.6075 8.19049 37.0952 7.5509 36.7693 7.5509C36.4433 7.5509 36.3269 7.90014 36.3269 8.29594C36.5131 9.92574 35.0231 12.254 34.6273 12.7895C34.2314 13.325 33.9521 13.0689 33.7425 12.7895C30.6226 9.94901 25.8803 9.32586 24 9.32586Z" fill="black"/>
<path d="M12.6501 21.8693C13.2639 22.5737 14.6249 24.0576 15.1591 24.3581C15.1591 23.8522 15.1531 23.3693 15.1048 23.2151C15.6156 23.5909 18.1335 25.8553 18.6191 28.5059C18.7201 29.0447 18.499 28.9671 18.049 28.8094C17.9581 28.7775 17.8579 28.7423 17.749 28.7083C17.6646 28.6819 17.5319 28.6516 17.3631 28.613C16.2382 28.3557 13.5108 27.7318 12.7905 25.4709C12.4839 24.1921 12.5691 22.537 12.6501 21.8693Z" fill="black"/>
<path d="M35.3499 21.8693C34.7361 22.5737 33.375 24.0576 32.8408 24.3581C32.8408 23.8522 32.8468 23.3693 32.8951 23.2151C32.3843 23.5909 29.8665 25.8553 29.3808 28.5059C29.2798 29.0447 29.5009 28.9671 29.9509 28.8094C30.0418 28.7775 30.142 28.7423 30.2509 28.7083C30.3353 28.6819 30.468 28.6516 30.6368 28.613C31.7617 28.3557 34.4891 27.7318 35.2095 25.4709C35.516 24.1921 35.4308 22.537 35.3499 21.8693Z" fill="black"/>
</svg>
