<svg width="48" height="48" viewBox="0 0 48 48" fill="none" xmlns="http://www.w3.org/2000/svg">
<path fill-rule="evenodd" clip-rule="evenodd" d="M23.4071 9.23645H17.5278C17.8349 13.5636 18.4658 22.5796 18.5328 24.0269C20.1576 23.2396 22.5194 21.4306 23.5244 19.9566C24.5293 18.4826 27.1257 15.1493 29.7052 13.5747C31.7688 12.3151 32.2401 10.1577 32.2177 9.23645H26.7907C22.9046 12.5362 19.856 13.29 19.4708 13.1728C21.1994 11.6719 22.8152 9.92321 23.4071 9.23645ZM19.3643 34.4707L19.3703 34.5628C20.8276 33.8425 23.1893 31.8493 23.8259 30.8778C24.4624 29.9062 26.2211 27.511 27.7454 26.3217C31.3198 23.5883 31.5053 20.4645 31.5591 19.5591C31.561 19.5268 31.5627 19.4973 31.5644 19.4708C31.6147 18.7004 31.6985 16.6736 31.6985 14.7975C30.2244 15.434 27.5611 17.8795 27.0419 18.6836C26.9957 18.7552 26.9392 18.8454 26.8727 18.9517L26.8726 18.9519C26.1922 20.0385 24.4628 22.8008 21.8996 24.4792C19.0856 26.3217 18.9683 28.9012 19.0185 29.4037C19.068 29.8978 19.2469 32.6587 19.3643 34.4707ZM30.8944 26.6902C30.8543 27.8292 30.1518 36.3662 29.8057 40.4923H25.2664C25.7893 39.8543 27.0541 38.4483 27.9291 37.9287C26.9208 37.9287 24.1865 39.0741 22.4092 40.4923H19.7261C19.7603 40.1961 19.8458 39.4839 19.9141 39.0054C19.9995 38.4072 20.461 36.6983 22.0844 35.3995C23.708 34.1007 25.4511 32.1493 26.2543 30.8778C27.0575 29.6062 28.6305 27.6364 30.8944 26.6902ZM22.7168 14.2428C22.0161 14.2086 21.3154 15.2853 21.3154 15.832C21.3154 16.3789 21.4009 17.4385 22.5117 17.3188C23.6226 17.1993 23.5884 15.8492 23.5712 15.6783C23.5542 15.5074 23.3149 14.2428 22.7168 14.2428ZM28.117 20.1557C27.1943 19.9848 26.4765 21.3007 26.4765 22.1039C26.4765 22.9071 26.7157 24.1204 27.8607 24.0521C29.0057 23.9837 29.245 22.7875 29.245 22.5141C29.245 22.2406 29.2108 20.4975 28.117 20.1557ZM22.0332 28.3245C22.0332 27.9822 22.3067 27.1966 22.768 27.1795C23.2294 27.1795 23.4687 27.6921 23.4858 28.3245C23.5029 28.9568 22.9389 29.2815 22.6485 29.2815C22.3579 29.2815 22.0332 28.8884 22.0332 28.3245ZM27.6727 33.1608C27.1259 33.1608 26.2372 33.8956 26.0663 34.4083C25.8954 34.921 25.827 35.5704 26.1518 35.7754C26.4765 35.9805 27.2797 35.9977 27.8607 35.69C28.4418 35.3824 28.681 35.109 28.8006 34.9722C28.9202 34.8355 29.0399 34.2545 28.8006 33.8786C28.5614 33.5026 28.1854 33.1608 27.6727 33.1608Z" fill="black"/>
<path d="M14.3417 9.22205H9.74334C10.171 11.1135 11.0674 15.0669 11.2314 15.7482C11.4365 16.5999 10.774 17.5779 10.4586 17.9722C10.1432 18.3664 8.55014 19.8175 7.55648 19.8333C6.56283 19.849 6.4051 18.7608 6.43665 18.5715C6.46819 18.3822 6.75209 18.745 7.08332 18.7608C7.41454 18.7765 7.71421 18.2561 7.71421 17.9722C7.71421 17.6882 7.74575 15.8587 7.71421 15.2593C7.68266 14.6599 7.24104 13.5874 6.92559 13.3351C6.61015 13.0827 5.15909 12.1048 4.93828 12.0417C4.71746 11.9786 4.10233 11.7105 4.40201 12.1837C4.70168 12.6569 5.85307 13.5559 5.85307 14.4234C5.9477 15.906 5.3799 16.2372 5.06445 18.5715C4.749 20.9058 7.60379 21.5682 8.55014 21.6629C9.49648 21.7575 10.8154 21.3474 11.4642 21.5682C12.1131 21.789 12.5879 22.3569 12.9033 23.2401C13.2188 24.1234 13.8654 27.3567 14.1651 28.9339C14.4648 30.5112 14.2124 30.5428 14.0862 30.8317C13.96 31.1207 13.203 31.6153 12.1977 31.6153C11.3935 31.6153 11.3026 30.9003 11.3576 30.5428C11.4523 30.6391 11.6888 30.8317 11.8781 30.8317C12.1147 30.8317 12.1977 30.3062 12.1977 30.1169V29.0263C12.1977 28.321 11.8874 27.4747 11.4642 27.0797C11.0411 26.6847 10.8154 26.0359 10.1101 26.0359C10.4768 26.5437 10.8154 27.8414 10.8154 28.2928C10.8154 28.7441 10.5615 29.6469 10.3076 30.8317C10.0537 32.0166 11.2385 32.863 12.903 33.0322C14.5674 33.2015 15.3291 34.0478 15.6395 35.3456C15.8877 36.3837 16.4764 39.0694 16.7397 40.2825L14.3417 9.22205Z" fill="black"/>
<path d="M35.3723 9.22205H39.9707C39.543 11.1135 38.6466 15.0669 38.4826 15.7482C38.2776 16.5999 38.94 17.5779 39.2554 17.9722C39.5709 18.3664 41.1639 19.8175 42.1576 19.8333C43.1512 19.849 43.3089 18.7608 43.2774 18.5715C43.2459 18.3822 42.962 18.745 42.6307 18.7608C42.2995 18.7765 41.9998 18.2561 41.9998 17.9722C41.9998 17.6882 41.9683 15.8587 41.9998 15.2593C42.0314 14.6599 42.473 13.5874 42.7885 13.3351C43.1039 13.0827 44.555 12.1048 44.7758 12.0417C44.9966 11.9786 45.6117 11.7105 45.312 12.1837C45.0124 12.6569 43.861 13.5559 43.861 14.4234C43.7663 15.906 44.3342 16.2372 44.6496 18.5715C44.9651 20.9058 42.1103 21.5682 41.1639 21.6629C40.2176 21.7575 38.8986 21.3474 38.2498 21.5682C37.601 21.789 37.1261 22.3569 36.8107 23.2401C36.4953 24.1234 35.8486 27.3567 35.5489 28.9339C35.2493 30.5112 35.5016 30.5428 35.6278 30.8317C35.754 31.1207 36.5111 31.6153 37.5163 31.6153C38.3205 31.6153 38.4115 30.9003 38.3564 30.5428C38.2618 30.6391 38.0252 30.8317 37.836 30.8317C37.5994 30.8317 37.5163 30.3062 37.5163 30.1169V29.0263C37.5163 28.321 37.8267 27.4747 38.2498 27.0797C38.673 26.6847 38.8986 26.0359 39.6039 26.0359C39.2372 26.5437 38.8986 27.8414 38.8986 28.2928C38.8986 28.7441 39.1526 29.6469 39.4065 30.8317C39.6603 32.0166 38.4755 32.863 36.8111 33.0322C35.1466 33.2015 34.3849 34.0478 34.0745 35.3456C33.8263 36.3837 33.2377 39.0694 32.9744 40.2825L35.3723 9.22205Z" fill="black"/>
</svg>
