<svg xmlns="http://www.w3.org/2000/svg" viewBox="0 0 48 48" class="ability-icon createSvgIcon__Svg-sc-1l8xi8d-0 ldKivg"><title>Breach - Fault Line</title><path fill-rule="evenodd" clip-rule="evenodd" d="M12.3954 40.9702H5.70895C5.58955 40.9702 5.5 40.8511 5.5 40.7321C5.7388 38.38 9.32081 34.4203 10.4253 33.2294C10.5447 33.1103 10.4551 32.9019 10.276 32.9019H8.54471C8.39546 32.9019 8.30591 32.7828 8.33576 32.634C9.29096 28.1384 11.7984 24.4168 12.5745 23.345C12.664 23.1961 12.5745 23.0175 12.4252 23.0175L11.6193 22.9877C11.4999 22.9877 11.4103 22.8984 11.4103 22.7793C11.5297 19.9212 14.1267 15.2172 14.8132 13.9965C14.8729 13.8774 14.7834 13.6988 14.6341 13.6988C14.5147 13.6988 14.3953 13.5499 14.455 13.4308L16.7535 7L12.6043 40.7916C12.5745 40.8809 12.4849 40.9702 12.3954 40.9702ZM35.7083 40.9702H42.2753C42.4246 40.9702 42.544 40.8214 42.4843 40.6725C42.2156 38.4694 38.962 34.6585 37.8277 33.3783C37.6784 33.1996 37.7978 32.9317 38.0068 32.9317H39.7978C39.947 32.9317 40.0664 32.8126 40.0664 32.6637C39.9172 28.9124 36.9322 24.6848 35.9173 23.345C35.7979 23.1664 35.9173 22.9282 36.1262 22.9282H36.9322C37.0814 22.9282 37.2008 22.8091 37.2008 22.6602C37.0814 19.7426 34.7531 15.1874 34.0069 13.8179C33.9173 13.6392 34.0367 13.4011 34.2457 13.4011C34.4546 13.4011 34.574 13.2224 34.5143 13.0438L32.395 7L35.4397 40.7321C35.4695 40.8809 35.5889 40.9702 35.7083 40.9702ZM22.9026 7L22.6638 8.7268L20.8728 12.0911L18.5147 14.0858L17.3804 22.8687L17.261 23.7916L19.052 21.7671C19.0818 21.7373 19.0818 21.7075 19.0818 21.6778L20.037 15.9317C20.037 15.8862 20.0719 15.8581 20.1016 15.8341C20.1108 15.8267 20.1195 15.8196 20.1266 15.8126L23.9772 14.5324C24.0369 14.5026 24.0668 14.4729 24.0668 14.4133L24.7534 11.317C24.7832 11.1681 25.022 11.1681 25.0519 11.317L25.9474 15.3065C25.9772 15.366 25.9175 15.4553 25.8578 15.4851L21.8579 17.0035C21.7982 17.0333 21.7683 17.063 21.7683 17.1226L21.0221 22.6305C21.0221 22.6602 20.9922 22.69 20.9624 22.7198L16.9625 26.4413C16.9475 26.4562 16.9401 26.4711 16.9326 26.486C16.9252 26.5009 16.9177 26.5158 16.9028 26.5306L16.0371 33.289C16.0371 33.4081 16.1267 33.4974 16.2461 33.4378L17.6789 32.8424C17.7983 32.7828 17.9475 32.9317 17.858 33.0508L15.5595 37.1594C15.5595 37.1743 15.5521 37.1817 15.5446 37.1891C15.5371 37.1966 15.5297 37.204 15.5297 37.2189L15.0819 40.8214C15.0819 40.9107 15.1416 41 15.2312 41H25.2011C25.2608 41 25.3205 40.9702 25.3504 40.8809L26.3056 37.4571C26.3354 37.3975 26.3056 37.338 26.2459 37.2785L21.2907 34.3905C21.231 34.3608 21.2012 34.2715 21.231 34.2119L23.2907 30.1033C23.3504 29.9545 23.5593 30.014 23.5593 30.1629V33.5271C23.5593 33.5867 23.5892 33.6462 23.6489 33.6462L26.8429 35.3135C26.9324 35.3433 27.022 35.3135 27.0518 35.2242L27.5593 33.5271V33.4378L25.4399 26.8581C25.4399 26.7986 25.4399 26.7688 25.4698 26.7391L28.007 23.345C28.0966 23.2259 28.3055 23.3152 28.2757 23.4641L27.5593 26.5306V26.62L29.9174 34.6287V34.718L28.4548 40.8214C28.4249 40.9107 28.5145 41 28.604 41H32.9024C32.992 41 33.0517 40.9107 33.0517 40.8511L32.0666 30.4011C32.0666 30.3862 32.0592 30.3713 32.0517 30.3564C32.0442 30.3415 32.0368 30.3266 32.0368 30.3117L31.0219 29.2995C30.9323 29.2102 30.992 29.0613 31.1114 29.0613H31.7681C31.8577 29.0613 31.9174 28.972 31.9174 28.9124L31.2308 21.4396C31.2308 21.38 31.201 21.3503 31.1413 21.3205L28.5742 20.3082C28.5145 20.2785 28.4846 20.2487 28.4846 20.1891L28.1563 16.2294C28.1563 16.0508 28.3951 15.9912 28.4548 16.1699L29.5592 19.1471C29.5891 19.2067 29.6189 19.2364 29.6786 19.2364L30.8726 19.4746C30.9622 19.5044 31.0517 19.4151 31.0517 19.3257L29.8876 7.3275C29.8876 7.20841 29.7085 7.14886 29.6189 7.23818L28.3354 8.66725C28.2458 8.75657 28.0966 8.7268 28.0667 8.57793L27.8876 7.11909C27.8876 7.05954 27.8279 7 27.7384 7H22.9026ZM19.2908 7.11909C19.2908 7.05954 19.3803 7 19.44 7H21.2907L20.843 8.78634L20.3195 10L18.8197 11.5C18.76 11.5595 18.7003 11.5298 18.7003 11.4702L19.2908 7.11909Z"/></svg>