<svg xmlns="http://www.w3.org/2000/svg" viewBox="0 0 48 48" class="ability-icon createSvgIcon__Svg-sc-1l8xi8d-0 ldKivg"><title>Breach - Aftershock</title><path fill-rule="evenodd" clip-rule="evenodd" d="M38.1402 21.2365L34.3326 17.9509C34.2405 17.8588 34.087 17.8895 34.0256 18.0123L33.4422 19.1178C33.3807 19.2713 33.1658 19.2713 33.0737 19.1178C32.3876 17.5685 30.8242 16.3702 29.6136 15.4424L29.6136 15.4424C29.1446 15.0829 28.7286 14.7641 28.4371 14.4811C27.5466 13.6213 26.5333 11.7176 26.1648 11.0113C26.1034 10.8885 26.1955 10.735 26.349 10.735H27.5159C27.6387 10.735 27.7615 10.6121 27.7001 10.4586L26.042 5.72986C26.0113 5.66845 25.9191 5.60704 25.8577 5.60704H24.0461H22.2344C22.1423 5.60704 22.0809 5.66845 22.0502 5.72986L20.392 10.4279C20.3613 10.5507 20.4534 10.7043 20.5763 10.7043H21.7431C21.8966 10.7043 21.9888 10.8578 21.9273 10.9806C21.5589 11.6869 20.5456 13.5906 19.6551 14.4504C19.3632 14.7337 18.9465 15.0506 18.4768 15.4078C17.2665 16.3283 15.7042 17.5164 15.0185 19.087C14.957 19.2406 14.7421 19.2406 14.65 19.087L14.0973 17.9816C14.0359 17.8588 13.8823 17.8281 13.7902 17.9202L9.92123 21.2365C9.89052 21.2672 9.85982 21.3286 9.85982 21.39V23.9693V24.0307V26.6101C9.85982 26.6715 9.89052 26.7329 9.92123 26.7636L13.7288 30.0799C13.8209 30.172 13.9744 30.1413 14.0359 30.0184L14.5886 28.913C14.65 28.7595 14.8649 28.7595 14.957 28.913C15.6502 30.5007 17.2391 31.6975 18.4665 32.6221L18.4666 32.6221C18.9246 32.9672 19.3323 33.2743 19.6244 33.5497C20.5149 34.4094 21.5282 36.3132 21.8966 37.0195C21.9581 37.1423 21.8659 37.2958 21.7124 37.2958H20.5456C20.4227 37.2958 20.2999 37.4186 20.3613 37.5722L22.0195 42.2702C22.0502 42.3623 22.1116 42.393 22.2037 42.393H24.0154H25.827C25.9191 42.393 25.9806 42.3316 26.0113 42.2702L27.6694 37.5722C27.7001 37.4493 27.608 37.2958 27.4852 37.2958H26.3183C26.1648 37.2958 26.0727 37.1423 26.1341 37.0195C26.5026 36.3132 27.5159 34.4094 28.4063 33.5497C28.6982 33.2664 29.1149 32.9495 29.5846 32.5922C30.7949 31.6718 32.3572 30.4836 33.043 28.913C33.1044 28.7595 33.3193 28.7595 33.4115 28.913L33.9642 30.0184C34.0256 30.1413 34.1791 30.172 34.2712 30.0799L38.1402 26.7943C38.1709 26.7636 38.2016 26.7022 38.2016 26.6408V24.0307V23.9693V21.39C38.2016 21.3451 38.1852 21.3166 38.1643 21.2804C38.1567 21.2672 38.1484 21.2529 38.1402 21.2365ZM24.3224 32.3214C21.3746 32.3214 18.5 30.4264 18.5 26.9478C18.5 23.4693 19.5 21 21 19.5C21 19.5 20.5 24 22 21.5C23.6889 18.5215 23.4319 16.9376 22.7871 14.8189C22.7871 14.8189 25.5 17 25.5 22C25.5 23.1933 25.3274 23.6748 25.185 24.0719C25.085 24.3505 25 24.5876 25 25C25 26 25.7452 26.5 26.5 26.5C27.2548 26.5 27.6622 26.0834 28 25.5C28.3071 24.978 28.4371 23.9079 28.2528 23.2631C28.0686 22.6183 29.6346 24.7984 29.6346 26.9478C29.6653 29.9263 27.2702 32.3214 24.3224 32.3214ZM10.0748 12.9458C10.0134 12.823 10.1669 12.7309 10.259 12.7923C10.781 13.2529 11.7022 13.867 12.3778 12.9458C13.3296 11.6562 11.3337 11.257 11.1188 11.2263H11.0881C10.9346 11.1649 9.30714 10.2744 9.03078 7.51085C9.03078 7.38803 9.15361 7.32661 9.24572 7.41873C9.76773 8.03286 11.2109 9.41463 13.6981 9.90593C16.9223 10.5508 15.4791 13.4371 15.0799 13.867L15.0491 13.9006C14.575 14.4194 11.813 17.4412 10.0748 12.9458ZM10.259 35.2999C10.1669 35.3614 10.0133 35.2692 10.0747 35.1464C11.8557 30.5405 14.7114 33.826 15.0491 34.2252C15.4483 34.6551 16.8915 37.5415 13.6674 38.1863C11.1802 38.6776 9.73698 40.0594 9.21497 40.6735C9.12286 40.7656 9.00003 40.7042 9.00003 40.5814C9.27639 37.8179 10.9038 36.9581 11.0881 36.866H11.1188C11.3337 36.8353 13.3296 36.4361 12.3777 35.1464C11.7022 34.2252 10.781 34.8394 10.259 35.2999ZM37.9253 12.9458C37.9867 12.823 37.8332 12.7309 37.741 12.7923C37.219 13.2529 36.2979 13.867 35.6223 12.9458C34.6704 11.6562 36.6663 11.257 36.8813 11.2263H36.912C37.0962 11.1342 38.7236 10.2744 39 7.51085C39 7.38803 38.8772 7.32661 38.7851 7.41873C38.2631 8.03286 36.8199 9.41463 34.3327 9.90593C31.1085 10.5508 32.5517 13.4371 32.9509 13.867C33.2887 14.2662 36.1443 17.5518 37.9253 12.9458ZM37.741 35.2999C37.8332 35.3614 37.9867 35.2692 37.9253 35.1464C36.1443 30.5405 33.2887 33.826 32.9509 34.2252C32.5517 34.6551 31.1085 37.5415 34.3327 38.1863C36.8199 38.6776 38.2631 40.0594 38.7851 40.6735C38.8772 40.7656 39 40.7042 39 40.5814C38.7236 37.8179 37.0962 36.9581 36.912 36.866H36.8813C36.6663 36.8353 34.6704 36.4361 35.6223 35.1464C36.2979 34.2252 37.219 34.8394 37.741 35.2999Z"/></svg>