<svg xmlns="http://www.w3.org/2000/svg" viewBox="0 0 48 48" class="ability-icon createSvgIcon__Svg-sc-1l8xi8d-0 ldKivg"><title>Breach - Rolling Thunder</title><path fill-rule="evenodd" clip-rule="evenodd" d="M27.2653 7.3066C27.2653 7.13322 27.0342 7.04653 26.9186 7.19101C26.3117 7.94232 24.9825 9.38715 24 9.38715C23.0175 9.38715 21.7172 7.94232 21.0815 7.19101C20.9659 7.04653 20.7347 7.13322 20.7347 7.3066C20.7058 11.1498 16.8337 8.1157 15.62 7.07542C15.4755 6.95984 15.2733 7.07542 15.3022 7.2488L15.9957 14.7041C15.9957 14.7619 16.0246 14.8197 16.0824 14.8486L19.81 17.6805C19.9256 17.7671 20.1279 17.6805 20.1279 17.536V15.2243C20.1279 15.0509 20.3302 14.9642 20.4457 15.0798L23.8844 18.2295C23.9711 18.2873 24.0578 18.2873 24.1445 18.2295L27.5832 15.0798C27.6988 14.9642 27.9011 15.0509 27.9011 15.2243V17.536C27.9011 17.7094 28.0744 17.796 28.2189 17.6805L31.9177 14.8197C31.9466 14.7908 31.9755 14.733 32.0044 14.6752L32.6979 7.21991C32.7268 7.04653 32.5245 6.93094 32.38 7.04653C31.1664 8.1157 27.3231 11.1498 27.2653 7.3066ZM12.8748 7.24884L6.95102 9.41608L7.9624 13.1726H10.7076C10.7076 13.1726 8.62702 15.1954 9.32054 18.3162C10.0141 21.437 10.2452 22.5929 10.2452 22.5929H12.2102C12.2102 22.5929 11.1121 25.0491 11.7767 27.9388C12.4414 30.8284 12.8748 32.909 12.8748 32.909H13.7995C13.7995 32.909 13.0771 33.2557 13.3661 34.2093C13.655 35.1629 15.3888 41 15.3888 41L12.8748 7.24884ZM35.1251 7.24884L41.0489 9.41608L40.0376 13.1726H37.2924C37.2924 13.1726 39.3729 15.1954 38.6794 18.3162C37.9859 21.437 37.7547 22.5929 37.7547 22.5929H35.7898C35.7898 22.5929 36.8878 25.0491 36.2232 27.9388C35.5586 30.8284 35.1251 32.909 35.1251 32.909H34.2005C34.2005 32.909 34.9229 33.2557 34.6339 34.2093C34.3449 35.1629 32.6111 41 32.6111 41L35.1251 7.24884ZM26.0805 31.5797C26.225 31.4352 26.485 31.493 26.5139 31.6953C26.8318 33.5735 28.9413 32.0709 29.8948 31.2907C30.0682 31.1462 30.2994 31.2618 30.2994 31.493L29.8659 39.2373C29.8659 39.324 29.8082 39.3817 29.7504 39.4395L27.7565 40.8266C27.6409 40.9133 27.4964 40.8555 27.4097 40.7399L26.6295 39.4106C26.5428 39.2662 26.3695 39.2373 26.2539 39.324L24.1444 40.8555C24.0577 40.9133 23.9422 40.9133 23.8555 40.8555L21.746 39.324C21.6015 39.2373 21.457 39.2951 21.3704 39.4106L20.5902 40.7399C20.5324 40.8844 20.359 40.9133 20.2434 40.8266L18.3073 39.4395C18.2206 39.3817 18.1917 39.324 18.1917 39.2373L17.7583 31.493C17.7294 31.2907 17.9895 31.1462 18.1628 31.2907C19.0875 32.0709 21.2259 33.6024 21.5437 31.6953C21.5726 31.493 21.8327 31.4352 21.9772 31.5797C22.4973 32.1576 23.422 33.0823 24.0288 33.0823C24.6068 33.0823 25.5604 32.1576 26.0805 31.5797ZM26.5718 19.0386C26.6296 18.9808 26.7452 19.0097 26.7452 19.0964C26.8608 22.0438 30.4728 19.2987 31.2241 18.634C31.2819 18.6051 31.3686 18.634 31.3686 18.7207L30.8485 27.014C30.8485 27.0263 30.8485 27.0334 30.8463 27.0397C30.8433 27.0482 30.8362 27.0552 30.8196 27.0718L27.6699 29.4991C27.6121 29.528 27.5254 29.4991 27.5254 29.4125V26.9562C27.5254 26.8985 27.4387 26.8407 27.3809 26.8985L24.0289 30.0193C24 30.0482 23.9422 30.0482 23.9133 30.0193L20.5613 26.8985C20.5035 26.8407 20.4168 26.8696 20.4168 26.9562V29.4125C20.4168 29.4991 20.3301 29.5569 20.2723 29.4991L17.1226 27.0718C17.1226 27.0718 17.0937 27.0429 17.0937 27.014L16.5736 18.7207C16.5736 18.634 16.6603 18.5762 16.7181 18.634C17.5272 19.2987 21.1392 22.0149 21.2548 19.0964C21.2548 19.0097 21.3704 18.9519 21.4282 19.0386C21.8328 19.5876 22.873 20.9169 24 20.9169C25.127 20.9169 26.1672 19.6165 26.5718 19.0386Z"/></svg>