<svg xmlns="http://www.w3.org/2000/svg" viewBox="0 0 48 48" class="ability-icon createSvgIcon__Svg-sc-1l8xi8d-0 ldKivg"><title>Breach - Flashpoint</title><path fill-rule="evenodd" clip-rule="evenodd" d="M37.9438 21.245L34.1767 17.9839C34.0924 17.8996 33.9237 17.9277 33.8675 18.0402L33.3052 19.1365C33.2209 19.2771 33.0241 19.2771 32.9679 19.1365C32.6024 18.3213 32.012 17.6185 31.3655 17L33.4458 16.1285C33.502 16.1004 33.502 16.0442 33.4458 16.0161L32.5743 15.8474C32.5462 15.8474 32.5181 15.7912 32.5462 15.7631L36.257 11.0121C36.3133 10.9558 36.2289 10.8996 36.1727 10.9277L31.4498 14.6386C31.4217 14.6667 31.3655 14.6386 31.3655 14.6104L31.1968 13.739C31.1968 13.6827 31.1125 13.6827 31.0843 13.739L30.1566 15.9317C29.8922 15.7202 29.6357 15.5245 29.3962 15.3418C28.9991 15.039 28.6486 14.7716 28.3855 14.5261C27.5141 13.6827 26.502 11.7992 26.1366 11.0964C26.0803 10.9558 26.1647 10.8153 26.3052 10.8153H27.4578C27.5984 10.8153 27.6827 10.6747 27.6546 10.5623L25.996 5.9237C25.9679 5.83937 25.8835 5.78314 25.7992 5.78314H24H22.2008C22.1165 5.78314 22.0321 5.83937 22.004 5.9237L20.3735 10.5623C20.3173 10.7028 20.4297 10.8153 20.5703 10.8153H21.7229C21.8635 10.8153 21.9759 10.9558 21.8916 11.0964C21.5261 11.7992 20.5141 13.6827 19.6426 14.5261C19.3742 14.7766 19.0034 15.0612 18.588 15.38L18.588 15.38L18.5879 15.3801L18.5877 15.3803C18.3505 15.5623 18.0988 15.7555 17.8434 15.9598C17.8153 15.8755 17.7872 15.8193 17.7872 15.8193L16.9157 13.739C16.8876 13.6827 16.8313 13.6827 16.8032 13.739L16.6345 14.6104C16.6345 14.6386 16.5783 14.6667 16.5502 14.6386L11.7992 10.9277C11.743 10.8715 11.6868 10.9558 11.7149 11.0121L15.4257 15.7631C15.4538 15.7912 15.4257 15.8474 15.3976 15.8474L14.5261 16.0161C14.4699 16.0161 14.4699 16.1004 14.5261 16.1285L16.6064 17C15.9599 17.6185 15.3695 18.3213 15.004 19.1365C14.9478 19.2771 14.7229 19.3052 14.6667 19.1365L14.1044 18.0402C14.0482 17.9277 13.9076 17.8996 13.7952 17.9839L10.0562 21.245C10.0281 21.2731 10 21.3293 10 21.3855V23.9438V24V26.5582C10 26.6145 10.0281 26.6707 10.0562 26.6988L13.8233 29.9598C13.9076 30.0442 14.0763 30.0161 14.1325 29.9036L14.6948 28.8072C14.7791 28.6667 14.9759 28.6667 15.0321 28.8072C15.3414 29.5381 15.8755 30.1847 16.4659 30.7751L14.5542 31.5904C14.498 31.6185 14.498 31.6747 14.5542 31.7028L15.4257 31.8715C15.4538 31.8715 15.4819 31.9277 15.4538 31.9558L11.7149 36.7349C11.6586 36.7912 11.743 36.8474 11.7992 36.8193L16.5502 33.1084C16.5783 33.0803 16.6345 33.1084 16.6345 33.1365L16.8032 34.008C16.8032 34.0643 16.8876 34.0643 16.9157 34.008L17.7872 31.9558C18.0812 32.1933 18.3707 32.4126 18.641 32.6174L18.641 32.6174C19.0426 32.9216 19.4019 33.1937 19.6707 33.4458C20.5422 34.2892 21.5542 36.1727 21.9197 36.8755C21.9759 37.0161 21.8916 37.1566 21.751 37.1566H20.5984C20.4578 37.1566 20.3735 37.2972 20.4016 37.4096L22.0602 42.0763C22.0884 42.1606 22.1727 42.2169 22.257 42.2169H24.0562H25.8554C25.9398 42.2169 26.0241 42.1606 26.0522 42.0763L27.7108 37.4096C27.7671 37.2691 27.6546 37.1566 27.5141 37.1566H26.3052C26.1647 37.1566 26.0522 37.0161 26.1366 36.8755C26.502 36.1727 27.5141 34.2892 28.3855 33.4458C28.6836 33.1477 29.122 32.8216 29.6116 32.4575L29.6116 32.4575L29.6116 32.4575C29.8147 32.3064 30.0266 32.1488 30.241 31.9839L31.0843 34.008C31.1125 34.0643 31.1687 34.0643 31.1968 34.008L31.3655 33.1365C31.3655 33.1084 31.4217 33.0803 31.4498 33.1084L36.2008 36.8193C36.257 36.8755 36.3133 36.7912 36.2851 36.7349L32.5462 31.9839C32.5181 31.9558 32.5462 31.8996 32.5743 31.8996L33.4458 31.7309C33.502 31.7309 33.502 31.6466 33.4458 31.6185L31.5341 30.8032C32.1245 30.2128 32.6586 29.5663 32.9679 28.8353C33.0241 28.6948 33.249 28.6667 33.3052 28.8353L33.8675 29.9317C33.9237 30.0442 34.0643 30.0723 34.1767 29.9879L37.9438 26.7269C38 26.6988 38 26.6426 38 26.5863V24.0281V23.9719V21.4137C38 21.3293 37.9719 21.2731 37.9438 21.245ZM35.5823 24.3373C34.2892 25.5181 29.7349 29.257 24 29.257C18.2651 29.257 13.7109 25.5181 12.4177 24.3373C12.2209 24.1406 12.2209 23.8313 12.4177 23.6345C13.7109 22.4538 18.2651 18.7149 24 18.7149C29.7349 18.7149 34.2892 22.4538 35.5823 23.6345C35.7791 23.8313 35.7791 24.1406 35.5823 24.3373ZM25.8022 20.8496C25.9368 20.715 25.883 20.5265 25.7484 20.4458C25.2369 20.1766 24.6447 20.042 24.0255 20.042C23.4064 20.042 22.8142 20.1766 22.3027 20.4458C22.1412 20.5265 22.1143 20.7419 22.2489 20.8496L23.864 22.4647C23.9717 22.5724 24.1332 22.5724 24.214 22.4647L25.8022 20.8496ZM20.4725 22.1958C20.5533 22.0612 20.7417 22.0343 20.8494 22.142L22.5184 23.811C22.5991 23.8917 22.5991 24.0532 22.5184 24.134L20.8494 25.803C20.7417 25.9107 20.5533 25.8837 20.4725 25.7491C20.2033 25.2108 20.0418 24.6185 20.0418 23.9725C20.0418 23.3264 20.2033 22.7342 20.4725 22.1958ZM27.1749 25.8296C27.2825 25.9373 27.444 25.9104 27.4979 25.7758C27.7671 25.2374 27.9286 24.6183 27.9286 23.9722C27.9286 23.3261 27.7671 22.707 27.4979 22.1686C27.444 22.034 27.2556 22.0071 27.1749 22.1148L25.4789 23.8107C25.3982 23.8915 25.3982 24.0261 25.4789 24.1068L27.1749 25.8296ZM22.2228 27.4984C22.0882 27.4176 22.0613 27.2561 22.169 27.1485L23.838 25.4525C23.9187 25.3718 24.0533 25.3718 24.1341 25.4525L25.83 27.1485C25.9377 27.2561 25.9108 27.4446 25.7762 27.4984C25.2378 27.7676 24.6456 27.9291 23.9995 27.9291C23.3534 27.9291 22.7612 27.7676 22.2228 27.4984Z"/></svg>